<svg width="14" height="18" viewBox="0 0 14 18" fill="none" xmlns="http://www.w3.org/2000/svg">
<g clip-path="url(#clip0_226_1028)">
<path d="M3.70939 3.59304C3.52562 3.18681 3.43857 2.77574 3.4966 2.34532C3.56914 1.80852 3.80611 1.35876 4.18333 0.976705C5.45039 -0.3097 7.81524 -0.329045 9.11132 0.923507C9.79321 1.58605 10.0979 2.56295 9.66264 3.52533C9.6578 3.53984 9.65297 3.55919 9.64813 3.5882C9.80772 3.68009 9.97215 3.76714 10.1317 3.86386C12.2935 5.25666 13.3623 7.23947 13.3429 9.80744C13.3381 10.5474 13.1156 11.2486 12.8641 11.9353C12.7868 12.1433 12.7868 12.3077 12.898 12.5253C13.4106 13.5554 12.6562 14.7741 11.5004 14.7886C11.2876 14.7886 11.1812 14.8515 11.0748 15.0449C10.2768 16.4861 9.09198 17.463 7.49123 17.8886C6.58687 18.1304 5.71637 17.9466 4.8894 17.5404C3.70939 16.9649 2.80987 16.0992 2.21503 14.9289C2.13765 14.7741 2.02642 14.7935 1.90552 14.7935C0.967314 14.7886 0.241898 14.0535 0.299931 13.1347C0.314439 12.888 0.415997 12.6462 0.51272 12.4141C0.561081 12.298 0.570753 12.211 0.5369 12.0949C0.377309 11.5436 0.169356 11.002 0.0774698 10.441C-0.174008 8.85473 0.183864 7.37971 1.03018 6.02077C1.66371 4.99551 2.52938 4.21206 3.59816 3.65591C3.62717 3.6414 3.66103 3.62206 3.70939 3.59304ZM6.66909 7.05086C6.64491 7.07987 6.63523 7.09438 6.62556 7.10889C5.60031 8.83055 4.11562 9.95252 2.17634 10.47C2.06511 10.499 2.0506 10.5474 2.05544 10.6441C2.08446 11.2293 2.10864 11.8144 2.13765 12.3996C2.24405 14.3872 3.15324 15.8913 4.87973 16.8827C5.60998 17.3034 6.39343 17.521 7.24458 17.3469C9.25157 16.9359 10.9926 14.9531 11.1667 12.8687C11.2247 12.153 11.2392 11.4324 11.2876 10.7166C11.2972 10.5474 11.2537 10.4797 11.0845 10.4361C9.49337 10.0106 8.20213 9.14006 7.20589 7.82947C7.02212 7.58767 6.85286 7.32168 6.66909 7.05086ZM12.2983 10.707C12.1436 10.6779 12.0178 10.6586 11.8776 10.6344C11.8631 10.9536 11.8437 11.2631 11.8341 11.5678C11.8341 11.6016 11.8727 11.6548 11.9018 11.6693C12.0275 11.7274 12.1532 11.7709 12.279 11.8193C13.43 9.16907 12.4192 6.26741 10.33 4.70051C8.0764 3.00787 4.94743 3.08041 2.79053 4.87461C0.735181 6.58659 9.20077e-05 9.43506 1.06887 11.8193C1.18977 11.7709 1.31551 11.7225 1.43642 11.6693C1.47027 11.6548 1.51379 11.6161 1.51379 11.5871C1.50412 11.2728 1.48478 10.9536 1.47027 10.6296C1.32035 10.6538 1.18977 10.6779 1.04953 10.7021C1.01084 10.5087 0.976986 10.3249 0.943133 10.1605C0.967314 10.1411 0.97215 10.1363 0.976986 10.1363C1.1801 10.0928 1.37838 10.0541 1.5815 10.0106C3.77709 9.56563 5.37301 8.34694 6.37408 6.34479C6.39343 6.30126 6.41277 6.25774 6.44179 6.21905C6.55786 6.05946 6.78515 6.05462 6.90606 6.21905C6.93991 6.26741 6.96409 6.32544 6.99311 6.37864C7.90713 8.21636 9.35796 9.40121 11.3456 9.91867C11.6938 10.0106 12.0517 10.0734 12.4144 10.1508C12.3709 10.3346 12.337 10.5087 12.2983 10.707ZM9.09681 3.35607C9.12583 3.28837 9.15485 3.23517 9.17419 3.17713C9.42083 2.52426 9.23222 1.7795 8.65189 1.29589C7.72819 0.52211 6.67392 0.396372 5.55678 0.778424C4.90874 1.00089 4.40095 1.40228 4.15431 2.06967C3.99472 2.50491 4.02857 2.93049 4.2462 3.35123C5.86629 2.75156 7.47188 2.75156 9.09681 3.35607ZM1.83298 14.2035C1.72175 13.5603 1.61052 12.9171 1.49929 12.2739C1.06404 12.4286 0.788378 12.9171 0.8851 13.391C0.991494 13.8843 1.41224 14.2325 1.83298 14.2035ZM11.51 14.2083C11.9791 14.218 12.4095 13.8262 12.4676 13.3088C12.5208 12.8494 12.2016 12.3609 11.8389 12.2884C11.7325 12.9219 11.6213 13.5651 11.51 14.2083Z" fill="#D82149" stroke="#D82149" stroke-width="0.25"/>
<path d="M3.25464 12.0514C3.40456 11.9498 3.55448 11.8483 3.71891 11.7371C3.80112 11.8531 3.8785 11.9644 3.95104 12.0756C4.31858 12.6076 4.96179 12.6076 5.32933 12.0756C5.40187 11.9692 5.47925 11.858 5.56146 11.7371C5.72589 11.8435 5.87581 11.9498 6.03057 12.0514C5.72589 12.6317 5.32449 13.0573 4.63293 13.0573C3.9462 13.0476 3.55448 12.6221 3.25464 12.0514Z" fill="#D82149" stroke="#D82149" stroke-width="0.25"/>
<path d="M9.62392 11.7324C9.79318 11.8485 9.9431 11.9452 10.093 12.0468C9.79802 12.6126 9.41113 13.0382 8.73407 13.0478C8.03284 13.0624 7.6266 12.6319 7.31226 12.0468C7.46218 11.9452 7.61693 11.8437 7.78136 11.7324C8.01349 12.0806 8.2021 12.4723 8.69538 12.4723C9.19834 12.4772 9.38695 12.0903 9.62392 11.7324Z" fill="#D82149" stroke="#D82149" stroke-width="0.25"/>
<path d="M5.51807 15.9446C5.51807 15.756 5.51807 15.577 5.51807 15.3884C6.28217 15.3884 7.04144 15.3884 7.81522 15.3884C7.81522 15.5674 7.81522 15.7511 7.81522 15.9446C7.06079 15.9446 6.29668 15.9446 5.51807 15.9446Z" fill="#D82149" stroke="#D82149" stroke-width="0.25"/>
<path d="M7.04611 14.0342C7.18635 14.1648 7.31693 14.2905 7.44267 14.4114C7.06545 14.9192 6.31102 14.924 5.90479 14.4162C6.03536 14.2905 6.16594 14.1599 6.30135 14.0342C6.6302 14.276 6.72692 14.276 7.04611 14.0342Z" fill="#D82149" stroke="#D82149" stroke-width="0.25"/>
<path d="M6.10327 8.98535C6.10327 8.80158 6.10327 8.62264 6.10327 8.4292C6.28221 8.4292 6.46598 8.4292 6.66426 8.4292C6.66426 8.60814 6.66426 8.79191 6.66426 8.98535C6.47565 8.98535 6.29188 8.98535 6.10327 8.98535Z" fill="#D82149" stroke="#D82149" stroke-width="0.25"/>
<path d="M5.81299 10.7216C5.81299 10.5282 5.81299 10.3493 5.81299 10.1606C6.0016 10.1606 6.18053 10.1606 6.36914 10.1606C6.36914 10.3396 6.36914 10.5234 6.36914 10.7216C6.1902 10.7216 6.00643 10.7216 5.81299 10.7216Z" fill="#D82149" stroke="#D82149" stroke-width="0.25"/>
<path d="M8.7146 10.7216C8.7146 10.5282 8.7146 10.3493 8.7146 10.1606C8.90321 10.1606 9.08214 10.1606 9.27075 10.1606C9.27075 10.3396 9.27075 10.5234 9.27075 10.7216C9.09182 10.7216 8.90804 10.7216 8.7146 10.7216Z" fill="#D82149" stroke="#D82149" stroke-width="0.25"/>
<path d="M3.18213 11.5969C2.99352 11.5969 2.81942 11.5969 2.62598 11.5969C2.62598 11.4131 2.62598 11.2293 2.62598 11.0359C2.80491 11.0359 2.98868 11.0359 3.18213 11.0359C3.18213 11.2197 3.18213 11.3986 3.18213 11.5969Z" fill="#D82149" stroke="#D82149" stroke-width="0.25"/>
<path d="M11.0166 11.0359C11.0166 11.2293 11.0166 11.4034 11.0166 11.5969C10.8279 11.5969 10.6442 11.5969 10.4556 11.5969C10.4556 11.4131 10.4556 11.2293 10.4556 11.0359C10.6393 11.0359 10.8183 11.0359 11.0166 11.0359Z" fill="#D82149" stroke="#D82149" stroke-width="0.25"/>
<path d="M7.26392 13.6282C7.26392 13.4396 7.26392 13.2606 7.26392 13.072C7.44769 13.072 7.63146 13.072 7.82491 13.072C7.82491 13.2558 7.82491 13.4396 7.82491 13.6282C7.64113 13.6282 7.4622 13.6282 7.26392 13.6282Z" fill="#D82149" stroke="#D82149" stroke-width="0.25"/>
<path d="M9.58521 13.3572C9.77865 13.3572 9.95759 13.3572 10.1414 13.3572C10.1414 13.5458 10.1414 13.7199 10.1414 13.9133C9.96242 13.9133 9.77865 13.9133 9.58521 13.9133C9.58521 13.7344 9.58521 13.5506 9.58521 13.3572Z" fill="#D82149" stroke="#D82149" stroke-width="0.25"/>
<path d="M3.76724 13.6523C3.76724 13.841 3.76724 14.0151 3.76724 14.2037C3.58347 14.2037 3.3997 14.2037 3.20142 14.2037C3.20142 14.0247 3.20142 13.841 3.20142 13.6523C3.39002 13.6523 3.57863 13.6523 3.76724 13.6523Z" fill="#D82149" stroke="#D82149" stroke-width="0.25"/>
<path d="M4.92813 14.2278C4.92813 14.4164 4.92813 14.5905 4.92813 14.7839C4.74436 14.7839 4.56059 14.7839 4.3623 14.7839C4.3623 14.6098 4.3623 14.4261 4.3623 14.2278C4.54608 14.2278 4.72985 14.2278 4.92813 14.2278Z" fill="#D82149" stroke="#D82149" stroke-width="0.25"/>
<path d="M9 15.3691C9 15.1756 9 15.0015 9 14.8081C9.18861 14.8081 9.37238 14.8081 9.56099 14.8081C9.56099 14.9919 9.56099 15.1756 9.56099 15.3691C9.37722 15.3691 9.19828 15.3691 9 15.3691Z" fill="#D82149" stroke="#D82149" stroke-width="0.25"/>
<path d="M5.79361 16.2637C5.79361 16.4523 5.79361 16.6312 5.79361 16.8198C5.605 16.8198 5.42123 16.8198 5.22778 16.8198C5.22778 16.6361 5.22778 16.4571 5.22778 16.2637C5.41156 16.2637 5.59533 16.2637 5.79361 16.2637Z" fill="#D82149" stroke="#D82149" stroke-width="0.25"/>
</g>
<defs>
<clipPath id="clip0_226_1028">
<rect width="13.3428" height="18" fill="white"/>
</clipPath>
</defs>
</svg>
