<svg width="18" height="18" viewBox="0 0 18 18" fill="none" xmlns="http://www.w3.org/2000/svg">
<path d="M9.00122 16.4999C13.1434 16.4999 16.5012 13.142 16.5012 8.99988C16.5012 4.85774 13.1434 1.49988 9.00122 1.49988C4.85909 1.49988 1.50122 4.85774 1.50122 8.99988C1.50122 13.142 4.85909 16.4999 9.00122 16.4999Z" stroke="#7C7C7C" stroke-linecap="round" stroke-linejoin="round"/>
<path d="M6.00269 12.75C6.35199 12.2842 6.80493 11.9062 7.32563 11.6459C7.84634 11.3855 8.42052 11.25 9.00269 11.25C10.2297 11.25 11.3187 11.8395 12.0027 12.75M5.25269 6.75747C5.25269 6.75747 6.31019 6.66222 6.89969 7.13097M6.89969 7.13097L6.70244 7.75722C6.62444 8.00397 6.82769 8.24996 7.10969 8.24996C7.40669 8.24996 7.60244 7.98221 7.44944 7.75121C7.2992 7.5174 7.11377 7.30819 6.89969 7.13097ZM12.7527 6.75821C12.7527 6.75821 11.6952 6.66222 11.1057 7.13097M11.1057 7.13097L11.3029 7.75722C11.3809 8.00397 11.1777 8.24996 10.8957 8.24996C10.5987 8.24996 10.4029 7.98221 10.5559 7.75121C10.7062 7.5174 10.8916 7.30819 11.1057 7.13097Z" stroke="#7C7C7C" stroke-linecap="round" stroke-linejoin="round"/>
</svg>
