<svg width="18" height="18" viewBox="0 0 18 18" fill="none" xmlns="http://www.w3.org/2000/svg">
<path d="M5.29126 8.62303L6.95751 7.37334L5.29126 6.12366M11.9563 8.62303L10.29 7.37334L11.9563 6.12366M11.9563 12.1638L10.8457 11.3307L9.73432 12.1638L8.62376 11.3307L7.5132 12.1638L6.40182 11.3307L5.29126 12.1638" stroke="#D82149" stroke-linecap="round" stroke-linejoin="round"/>
<path d="M16.1212 8.62312C16.1212 9.60779 15.9273 10.5828 15.5505 11.4925C15.1737 12.4022 14.6214 13.2288 13.9251 13.9251C13.2288 14.6214 12.4022 15.1737 11.4925 15.5505C10.5828 15.9273 9.60779 16.1212 8.62312 16.1212C7.63846 16.1212 6.66343 15.9273 5.75372 15.5505C4.844 15.1737 4.01742 14.6214 3.32115 13.9251C2.62488 13.2288 2.07258 12.4022 1.69576 11.4925C1.31894 10.5828 1.125 9.60779 1.125 8.62312C1.125 6.6345 1.91498 4.72732 3.32115 3.32115C4.72732 1.91498 6.6345 1.125 8.62312 1.125C10.6118 1.125 12.5189 1.91498 13.9251 3.32115C15.3313 4.72732 16.1212 6.6345 16.1212 8.62312Z" stroke="#D82149" stroke-linecap="round" stroke-linejoin="round"/>
</svg>
