<svg width="18" height="18" viewBox="0 0 18 18" fill="none" xmlns="http://www.w3.org/2000/svg">
<g clip-path="url(#clip0_226_949)">
<path d="M3.01833 7.79266C3.37504 7.79266 3.64943 7.79266 3.95126 7.79266C4.00614 7.79266 4.06102 7.76522 4.1159 7.73778C4.58236 7.46339 5.04882 7.43595 5.57016 7.57314C6.03663 7.71034 6.50309 7.8201 6.96955 7.95729C6.99699 7.95729 6.99699 7.95729 7.02443 7.95729C7.24394 7.95729 7.46346 8.01217 7.62809 7.95729C7.8476 7.87497 7.73785 7.60058 7.82016 7.40851C7.82016 7.38107 7.82016 7.35363 7.8476 7.32619C8.03968 6.94205 7.95736 6.58534 7.79272 6.22863C7.65553 5.9268 7.54577 5.5701 7.40858 5.24083C7.29882 4.939 7.43602 4.74692 7.73785 4.77436C8.23175 4.8018 8.72565 4.82924 9.21955 4.82924C9.32931 4.82924 9.43907 4.8018 9.52138 4.74692C9.85065 4.55485 10.1799 4.33534 10.5092 4.11583C10.5915 4.06095 10.6464 4.03351 10.6464 3.92375C10.6189 3.56705 10.6738 3.1829 10.5915 2.85363C10.3171 1.72863 8.89029 1.04266 7.79272 1.83839C7.57321 2.00302 7.3537 2.03046 7.13419 1.9207C6.88724 1.81095 6.80492 1.59144 6.80492 1.34449C6.80492 1.01522 6.77748 0.713388 6.77748 0.38412C6.77748 0.137168 6.88724 -2.67942e-05 7.07931 -0.0274658C7.27138 -0.0274658 7.38114 0.109729 7.38114 0.356681C7.38114 0.685949 7.38114 1.01522 7.38114 1.37192C8.31407 0.740827 9.21955 0.685949 10.125 1.26217C11.0305 1.83839 11.3598 2.71644 11.25 3.78656C13.0885 3.29266 14.7348 3.62192 16.1342 4.85668C17.2043 5.78961 17.7531 6.96949 17.8354 8.39631C18 11.442 15.5031 13.9116 12.4574 13.7744C12.4299 13.9939 12.4299 14.2408 12.4025 14.4603C12.2378 15.7774 11.1128 16.7652 9.79577 16.7652C9.27443 16.7652 8.78053 16.7652 8.25919 16.7652C7.8476 16.7652 7.65553 16.9847 7.65553 17.3689C7.65553 17.4512 7.65553 17.5609 7.65553 17.6433C7.65553 17.8353 7.51833 17.9451 7.3537 17.9451C7.18907 17.9451 7.05187 17.8353 7.05187 17.6433C7.05187 17.4238 7.05187 17.2042 7.07931 16.9847C7.18907 16.4908 7.65553 16.1341 8.14943 16.1341C8.64333 16.1341 9.13724 16.1341 9.63114 16.1341C10.9757 16.1341 11.936 15.0914 11.8263 13.7469C11.8263 13.692 11.7714 13.6372 11.7439 13.6372C11.3872 13.5274 11.0031 13.4177 10.6189 13.3079C10.6189 13.4451 10.6189 13.5823 10.6189 13.7469C10.5915 14.4055 10.0976 14.9268 9.43907 14.9268C8.83541 14.9268 8.23175 14.9542 7.62809 14.9268C7.38114 14.9268 7.13419 14.8445 6.88724 14.7622C6.39333 14.5701 5.95431 14.6524 5.70736 15.0366C5.43297 15.4207 5.48785 15.8597 5.84455 16.2439C6.17382 16.6006 6.3659 17.0122 6.42077 17.4786C6.42077 17.5335 6.42077 17.6158 6.42077 17.6707C6.42077 17.8353 6.28358 17.9451 6.14638 17.9725C5.98175 17.9725 5.84455 17.8628 5.84455 17.6981C5.81711 17.2317 5.62504 16.8475 5.29577 16.5457C5.26833 16.5183 5.21346 16.4634 5.21346 16.4359C5.13114 16.189 4.93907 16.1616 4.71955 16.189C4.36285 16.2164 4.00614 16.189 3.64943 16.189C3.12809 16.2164 2.66163 16.0792 2.30492 15.6677C2.08541 15.9146 1.83846 16.1067 1.50919 16.1616C0.576261 16.3536 -0.219471 15.4756 0.0549193 14.5701C0.109797 14.378 0.137236 14.1859 0.137236 13.9939C0.137236 12.8414 0.137236 11.689 0.137236 10.5366C0.137236 9.24692 0.960407 8.20424 2.2226 7.87497C2.27748 7.84753 2.3598 7.79266 2.38724 7.73778C2.77138 6.85973 3.45736 6.36583 4.44516 6.31095C4.55492 6.31095 4.63724 6.28351 4.71955 6.22863C5.84455 5.65241 6.31102 4.52741 5.95431 3.21034C5.84455 2.74388 5.62504 2.30485 5.57016 1.83839C5.48785 1.31705 5.54272 0.795705 5.54272 0.274363C5.54272 0.109729 5.67992 0.0274122 5.84455 0.0274122C6.00919 0.0274122 6.11894 0.137168 6.14638 0.301802C6.14638 0.521315 6.14638 0.768266 6.11894 0.987778C6.0915 1.45424 6.14638 1.89327 6.31102 2.30485C6.53053 2.88107 6.69516 3.45729 6.69516 4.06095C6.69516 5.21339 5.92687 6.39327 4.85675 6.80485C4.71955 6.85973 4.55492 6.85973 4.41772 6.88717C3.81407 6.94205 3.3476 7.24388 3.01833 7.79266ZM8.09455 5.46034C8.23175 5.81705 8.36894 6.20119 8.53358 6.5579C8.6159 6.74997 8.6159 6.91461 8.53358 7.10668C8.25919 7.8201 8.17687 8.58839 8.28663 9.35668C8.67077 11.8811 10.9757 13.5274 13.5 13.1158C16.6281 12.5945 18.247 8.97253 16.5183 6.28351C15.0366 3.95119 11.8811 3.48473 9.79577 5.2957C9.63114 5.4329 9.49394 5.48778 9.27443 5.46034C8.91772 5.46034 8.50614 5.46034 8.09455 5.46034ZM7.62809 8.58839C7.38114 8.58839 7.16163 8.58839 6.94211 8.53351C6.42077 8.42375 5.89943 8.28656 5.37809 8.12192C5.02138 8.01217 4.66468 8.03961 4.33541 8.25912C4.25309 8.314 4.14333 8.34144 4.06102 8.34144C3.67687 8.34144 3.29272 8.34144 2.90858 8.34144C1.61894 8.34144 0.713456 9.24692 0.713456 10.5366C0.713456 11.7164 0.713456 12.8963 0.713456 14.0762C0.713456 14.2683 0.686017 14.4603 0.631139 14.6524C0.521383 15.0091 0.686017 15.3933 1.04272 15.5305C1.48175 15.6951 1.92077 15.3658 1.92077 14.8719C1.92077 13.5274 1.92077 12.2103 1.92077 10.8658C1.92077 10.0975 2.41468 9.57619 3.18297 9.57619C4.6098 9.57619 6.03663 9.57619 7.46346 9.57619C7.54577 9.57619 7.60065 9.57619 7.68297 9.57619C7.68297 9.24692 7.65553 8.9451 7.62809 8.58839ZM5.04882 14.9817C4.71955 14.9817 4.39029 14.9817 4.03358 14.9817C3.62199 14.9817 3.29272 14.7073 3.18297 14.3506C3.01833 13.7469 3.42992 13.1981 4.06102 13.1981C5.51529 13.1981 6.94211 13.1981 8.39638 13.1981C8.45126 13.1981 8.53358 13.1981 8.58846 13.1981C8.75309 13.1707 8.83541 13.0609 8.83541 12.8963C8.83541 12.7317 8.72565 12.6494 8.58846 12.6219C8.53358 12.6219 8.45126 12.6219 8.39638 12.6219C7.16163 12.6219 5.92687 12.6219 4.69211 12.6219C4.14333 12.6219 3.73175 12.2378 3.73175 11.7164C3.73175 11.1951 4.14333 10.8109 4.69211 10.8109C5.62504 10.8109 6.58541 10.8109 7.51833 10.8109C7.57321 10.8109 7.62809 10.8109 7.65553 10.8109C7.82016 10.8384 7.90248 10.9481 7.90248 11.0853C7.90248 11.25 7.82016 11.3597 7.65553 11.3872C7.60065 11.3872 7.54577 11.3872 7.49089 11.3872C6.58541 11.3872 5.67992 11.3872 4.74699 11.3872C4.69211 11.3872 4.63724 11.3872 4.58236 11.3872C4.41772 11.4146 4.33541 11.4969 4.30797 11.689C4.30797 11.8536 4.41772 11.9634 4.58236 11.9908C4.63724 11.9908 4.69211 11.9908 4.74699 11.9908C5.84455 11.9908 6.96955 11.9908 8.06711 11.9908C8.34151 11.9908 8.58846 12.0183 8.86285 12.0183C8.39638 11.4969 8.06711 10.8658 7.8476 10.2073C7.82016 10.2073 7.79272 10.2073 7.76529 10.2073C6.2287 10.2073 4.66468 10.2073 3.12809 10.2073C2.77138 10.2073 2.52443 10.4542 2.52443 10.8384C2.52443 12.128 2.52443 13.4177 2.52443 14.7073C2.52443 15.1463 2.82626 15.5579 3.26529 15.5853C3.81407 15.6128 4.36285 15.5853 4.91163 15.5853C4.9665 15.3933 4.99394 15.2012 5.04882 14.9817ZM9.38419 12.5396V12.567C9.54882 13.3079 9.16468 13.7744 8.42382 13.7744C6.99699 13.7744 5.54272 13.7744 4.1159 13.7744C3.86894 13.7744 3.73175 13.8841 3.73175 14.0762C3.73175 14.2683 3.86894 14.378 4.1159 14.378C4.55492 14.378 4.99394 14.378 5.43297 14.378C5.48785 14.378 5.57016 14.3506 5.62504 14.3231C6.09151 14.0213 6.58541 13.9939 7.10675 14.2408C7.27138 14.3231 7.46346 14.378 7.62809 14.378C8.23175 14.4055 8.86285 14.378 9.4665 14.378C9.79577 14.378 10.0427 14.1311 10.0427 13.8018C10.0427 13.5549 10.0427 13.3353 10.0427 13.0884C10.0427 13.0335 10.0153 12.9786 9.98785 12.9512C9.76833 12.814 9.57626 12.6768 9.38419 12.5396Z" fill="#D82149"/>
<path d="M8.67071 2.99087C8.61584 2.99087 8.56096 2.99087 8.50608 2.99087C8.34145 2.96343 8.25913 2.88111 8.23169 2.68904C8.23169 2.5244 8.34145 2.41465 8.50608 2.38721C8.61584 2.38721 8.69815 2.38721 8.80791 2.38721C8.99998 2.38721 9.13718 2.49696 9.13718 2.68904C9.13718 2.85367 8.99998 2.99087 8.80791 2.99087C8.75303 2.99087 8.72559 2.99087 8.67071 2.99087Z" fill="#D82149"/>
<path d="M7.49088 3.59448C7.51832 3.59448 7.51832 3.59448 7.54576 3.59448C7.79271 3.59448 7.9299 3.70424 7.9299 3.89631C7.9299 4.08838 7.79271 4.19814 7.54576 4.19814C7.49088 4.19814 7.40856 4.19814 7.35368 4.19814C7.16161 4.19814 7.02441 4.06095 7.02441 3.89631C7.02441 3.73168 7.16161 3.59448 7.35368 3.59448C7.40856 3.59448 7.436 3.59448 7.49088 3.59448Z" fill="#D82149"/>
<path d="M9.27447 4.19814C9.2196 4.19814 9.16472 4.19814 9.10984 4.19814C8.94521 4.1707 8.86289 4.08838 8.83545 3.89631C8.83545 3.73168 8.94521 3.62192 9.10984 3.59448C9.2196 3.59448 9.30191 3.59448 9.41167 3.59448C9.60374 3.59448 9.74094 3.70424 9.74094 3.89631C9.74094 4.06095 9.60374 4.19814 9.41167 4.19814C9.35679 4.19814 9.32935 4.19814 9.27447 4.19814Z" fill="#D82149"/>
<path d="M16.3261 8.09448C16.3261 9.24692 15.3932 10.1799 14.2407 10.2073C13.0609 10.2073 12.1279 9.27436 12.1279 8.12192C12.1279 6.96948 13.0609 6.00912 14.2133 6.00912C15.3932 5.98168 16.3261 6.94205 16.3261 8.09448ZM12.7316 8.09448C12.7316 8.91765 13.3901 9.60363 14.2133 9.60363C15.0639 9.60363 15.7224 8.94509 15.7224 8.09448C15.7224 7.27131 15.0365 6.61278 14.2407 6.61278C13.4176 6.58534 12.7316 7.27131 12.7316 8.09448Z" fill="#D82149"/>
<path d="M11.2498 9.30188C12.073 9.30188 12.759 9.98786 12.759 10.811C12.759 11.6342 12.073 12.3202 11.2498 12.2927C10.4267 12.2927 9.76813 11.6068 9.76813 10.7836C9.74069 9.96042 10.4267 9.30188 11.2498 9.30188ZM12.1279 10.7836C12.1279 10.2897 11.7163 9.8781 11.2224 9.8781C10.7285 9.8781 10.3443 10.2897 10.3443 10.7836C10.3443 11.2775 10.7559 11.6891 11.2498 11.6891C11.7437 11.6891 12.1279 11.2775 12.1279 10.7836Z" fill="#D82149"/>
<path d="M10.6188 5.70728C11.2774 5.70728 11.8262 6.22862 11.8262 6.91459C11.8262 7.57313 11.3048 8.12191 10.6463 8.12191C9.98774 8.12191 9.43896 7.60057 9.43896 6.94203C9.43896 6.25606 9.96031 5.70728 10.6188 5.70728ZM11.2225 6.88715C11.2225 6.55789 10.9481 6.2835 10.6188 6.2835C10.2896 6.2835 10.0152 6.55789 10.0152 6.88715C10.0152 7.21642 10.2896 7.49081 10.6188 7.49081C10.9756 7.49081 11.2225 7.21642 11.2225 6.88715Z" fill="#D82149"/>
<path d="M15.4208 8.14944C15.3933 8.7531 14.872 9.27444 14.2683 9.30188C14.0763 9.30188 13.9391 9.19212 13.9116 9.02749C13.9116 8.86286 14.0214 8.72566 14.2134 8.72566C14.5702 8.69822 14.7622 8.50615 14.8171 8.14944C14.8445 7.95737 14.9543 7.82017 15.1464 7.84761C15.3385 7.82017 15.4482 7.95737 15.4208 8.14944Z" fill="#D82149"/>
</g>
<defs>
<clipPath id="clip0_226_949">
<rect width="17.8354" height="18" fill="white"/>
</clipPath>
</defs>
</svg>
