<svg width="18" height="18" viewBox="0 0 18 18" fill="none" xmlns="http://www.w3.org/2000/svg">
<g clip-path="url(#clip0_226_1004)">
<path d="M5.24982 10.5C4.92244 10.5005 4.5991 10.5724 4.30238 10.7108C4.00566 10.8491 3.74271 11.0505 3.53187 11.301C3.32103 11.5515 3.16739 11.8449 3.08167 12.1609C2.99595 12.4768 2.98021 12.8077 3.03556 13.1304C3.09091 13.4531 3.216 13.7598 3.40212 14.0291C3.58824 14.2984 3.83089 14.5239 4.11314 14.6898C4.39539 14.8557 4.71044 14.958 5.0363 14.9895C5.36216 15.0211 5.69099 14.9811 5.99982 14.8725" stroke="#7C7C7C" stroke-width="1.125" stroke-linecap="round" stroke-linejoin="round"/>
<path d="M3.19794 11.7037C2.74911 11.4876 2.36115 11.1632 2.06907 10.7596C1.777 10.3561 1.59 9.88623 1.52495 9.39236C1.45991 8.8985 1.51886 8.3962 1.6965 7.93082C1.87414 7.46544 2.16486 7.05161 2.54244 6.72669M2.56494 6.66594C2.31897 6.29787 2.21116 5.85465 2.2606 5.41474C2.31004 4.97482 2.51354 4.56658 2.83507 4.2623C3.1566 3.95801 3.57542 3.7773 4.01739 3.75216C4.45936 3.72703 4.89598 3.85908 5.24994 4.12494M5.42844 4.17369C5.30879 3.91947 5.24781 3.64162 5.24999 3.36066C5.25218 3.0797 5.31748 2.80283 5.44106 2.55051C5.56465 2.29818 5.74336 2.07686 5.96399 1.90289C6.18461 1.72893 6.44152 1.60677 6.71571 1.54545C6.9899 1.48412 7.27437 1.48521 7.54808 1.54862C7.8218 1.61202 8.07776 1.73613 8.29706 1.91177C8.51636 2.08742 8.69338 2.31009 8.81504 2.56335C8.9367 2.81661 8.99989 3.09397 8.99993 3.37494V14.9999C8.99993 15.3978 8.8419 15.7793 8.56059 16.0606C8.27929 16.3419 7.89776 16.4999 7.49993 16.4999C7.10211 16.4999 6.72058 16.3419 6.43928 16.0606C6.15797 15.7793 5.99994 15.3978 5.99994 14.9999M8.99993 5.24994C8.99993 5.84668 9.23699 6.41897 9.65894 6.84093C10.0809 7.26289 10.6532 7.49994 11.2499 7.49994M12.7499 10.4999C13.0773 10.5004 13.4007 10.5724 13.6974 10.7107C13.9941 10.849 14.2571 11.0505 14.4679 11.3009C14.6787 11.5514 14.8324 11.8448 14.9181 12.1608C15.0038 12.4768 15.0195 12.8076 14.9642 13.1303C14.9088 13.453 14.7838 13.7597 14.5976 14.029C14.4115 14.2984 14.1689 14.5239 13.8866 14.6897C13.6044 14.8556 13.2893 14.9579 12.9635 14.9895C12.6376 15.021 12.3088 14.9811 11.9999 14.8724" stroke="#7C7C7C" stroke-width="1.125" stroke-linecap="round" stroke-linejoin="round"/>
<path d="M14.802 11.7037C15.2508 11.4876 15.6388 11.1632 15.9309 10.7596C16.2229 10.3561 16.4099 9.88623 16.475 9.39236C16.54 8.8985 16.4811 8.3962 16.3034 7.93082C16.1258 7.46544 15.8351 7.05161 15.4575 6.72669M15.435 6.66594C15.681 6.29787 15.7888 5.85465 15.7393 5.41474C15.6899 4.97482 15.4864 4.56658 15.1649 4.2623C14.8433 3.95801 14.4245 3.7773 13.9825 3.75216C13.5406 3.72703 13.104 3.85908 12.75 4.12494M9 3.37494C9.00005 3.09397 9.06323 2.81661 9.18489 2.56335C9.30655 2.31009 9.48358 2.08742 9.70287 1.91177C9.92217 1.73613 10.1781 1.61202 10.4519 1.54862C10.7256 1.48521 11.01 1.48412 11.2842 1.54545C11.5584 1.60677 11.8153 1.72893 12.036 1.90289C12.2566 2.07686 12.4353 2.29818 12.5589 2.55051C12.6825 2.80283 12.7478 3.0797 12.7499 3.36066C12.7521 3.64162 12.6911 3.91947 12.5715 4.17369M12 14.9999C12 15.3978 11.842 15.7793 11.5607 16.0606C11.2794 16.3419 10.8978 16.4999 10.5 16.4999C10.1022 16.4999 9.72064 16.3419 9.43934 16.0606C9.15804 15.7793 9 15.3978 9 14.9999" stroke="#7C7C7C" stroke-width="1.125" stroke-linecap="round" stroke-linejoin="round"/>
</g>
<defs>
<clipPath id="clip0_226_1004">
<rect width="18" height="18" fill="white"/>
</clipPath>
</defs>
</svg>
