<svg width="42" height="44" viewBox="0 0 42 44" fill="none" xmlns="http://www.w3.org/2000/svg">
<path d="M22.2271 1.5625C22.2271 1.1481 22.0625 0.750671 21.7694 0.457646C21.4764 0.16462 21.079 0 20.6646 0C20.2502 0 19.8528 0.16462 19.5597 0.457646C19.2667 0.750671 19.1021 1.1481 19.1021 1.5625V4.64583C19.1021 5.06023 19.2667 5.45766 19.5597 5.75069C19.8528 6.04371 20.2502 6.20833 20.6646 6.20833C21.079 6.20833 21.4764 6.04371 21.7694 5.75069C22.0625 5.45766 22.2271 5.06023 22.2271 4.64583V1.5625ZM32.875 18.2083C32.4408 16.5201 31.6526 14.9436 30.5625 13.5833C29.4818 12.2136 28.1264 11.0852 26.5833 10.2708C25.0441 9.46289 23.3577 8.97396 21.625 8.83333C19.8874 8.70279 18.1417 8.93696 16.5 9.52083C14.8492 10.0965 13.3374 11.012 12.0625 12.2083C10.8013 13.3844 9.78829 14.8012 9.08333 16.375C8.39437 17.973 8.04667 19.6973 8.0625 21.4375C8.01421 23.4474 8.44426 25.44 9.3172 27.2511C10.1901 29.0622 11.481 30.6399 13.0833 31.8542L13.8125 32.5417C14.4375 33.1875 14.4375 33.1875 14.4167 34.625V35.2917C14.3916 35.7526 14.4625 36.2137 14.625 36.6458C14.7708 37.1083 15.0292 37.5312 15.375 37.875C15.5333 38.0375 15.7069 38.1833 15.8958 38.3125V40.3958C15.8615 40.7737 15.9024 41.1545 16.016 41.5165C16.1295 41.8785 16.3136 42.2144 16.5577 42.5049C16.8017 42.7954 17.1008 43.0347 17.4377 43.2091C17.7746 43.3834 18.1428 43.4894 18.5208 43.5208H22.6875C23.4527 43.4572 24.1613 43.0922 24.6575 42.5062C25.1536 41.9202 25.3967 41.1611 25.3333 40.3958V38.3125C25.5214 38.1848 25.6959 38.0382 25.8542 37.875C26.1812 37.5292 26.4312 37.1167 26.5833 36.6667C26.743 36.2266 26.8138 35.7593 26.7917 35.2917V34.5208C26.7917 33.375 26.7917 33.375 27.4375 32.6458L28.2292 31.9167C30.9002 29.8393 32.6444 26.7926 33.0833 23.4375C33.3901 21.6997 33.319 19.9162 32.875 18.2083ZM22.3125 40.3542H19.0208V39.0417H22.3125V40.3542ZM20.6667 18.3542C19.987 18.3542 19.3353 18.6241 18.8547 19.1047C18.3741 19.5853 18.1042 20.237 18.1042 20.9167C18.1042 21.4692 17.8847 21.9991 17.494 22.3898C17.1033 22.7805 16.5734 23 16.0208 23C15.4683 23 14.9384 22.7805 14.5477 22.3898C14.157 21.9991 13.9375 21.4692 13.9375 20.9167C13.932 20.0314 14.1022 19.1539 14.4385 18.335C14.7747 17.5161 15.2701 16.7721 15.8961 16.1461C16.5221 15.5201 17.2661 15.0247 18.085 14.6885C18.9039 14.3522 19.7814 14.182 20.6667 14.1875C21.2192 14.1875 21.7491 14.407 22.1398 14.7977C22.5305 15.1884 22.75 15.7183 22.75 16.2708C22.75 16.8234 22.5305 17.3533 22.1398 17.744C21.7491 18.1347 21.2192 18.3542 20.6667 18.3542ZM39.75 23.5625H35.9375C35.5231 23.5625 35.1257 23.3979 34.8326 23.1049C34.5396 22.8118 34.375 22.4144 34.375 22C34.375 21.5856 34.5396 21.1882 34.8326 20.8951C35.1257 20.6021 35.5231 20.4375 35.9375 20.4375H39.75C40.1644 20.4375 40.5618 20.6021 40.8549 20.8951C41.1479 21.1882 41.3125 21.5856 41.3125 22C41.3125 22.4144 41.1479 22.8118 40.8549 23.1049C40.5618 23.3979 40.1644 23.5625 39.75 23.5625ZM32.0833 11.0417C31.878 11.0426 31.6746 11.0026 31.485 10.9239C31.2954 10.8452 31.1234 10.7294 30.9792 10.5833C30.6866 10.2904 30.5222 9.89323 30.5222 9.47917C30.5222 9.0651 30.6866 8.66797 30.9792 8.375L33.6875 5.66667C33.9837 5.39067 34.3755 5.24041 34.7803 5.24755C35.185 5.25469 35.5713 5.41868 35.8575 5.70496C36.1438 5.99123 36.3078 6.37745 36.3149 6.78224C36.3221 7.18704 36.1718 7.5788 35.8958 7.875L33.1875 10.5833C33.044 10.7304 32.8721 10.8468 32.6823 10.9255C32.4926 11.0043 32.2888 11.0438 32.0833 11.0417ZM36.875 36.9583C36.4629 36.9474 36.0695 36.7841 35.7708 36.5L33.0625 33.7917C32.8795 33.6102 32.7441 33.3863 32.6686 33.1399C32.593 32.8935 32.5796 32.6322 32.6295 32.3794C32.6795 32.1265 32.7911 31.8899 32.9546 31.6907C33.1182 31.4915 33.3284 31.3358 33.5667 31.2375C33.8525 31.117 34.1681 31.0855 34.4722 31.1472C34.7762 31.2089 35.0546 31.3609 35.2708 31.5833L37.9792 34.2917C38.1266 34.4353 38.2437 34.607 38.3237 34.7966C38.4037 34.9863 38.4449 35.19 38.4449 35.3958C38.4449 35.6017 38.4037 35.8054 38.3237 35.995C38.2437 36.1847 38.1266 36.3564 37.9792 36.5C37.6864 36.7931 37.2893 36.958 36.875 36.9583ZM9.27083 11.0417C8.85657 11.0413 8.45941 10.8764 8.16667 10.5833L5.45833 7.875C5.16549 7.57939 5.00207 7.17956 5.00402 6.76347C5.00598 6.34737 5.17314 5.94909 5.46875 5.65625C5.76436 5.36341 6.16419 5.19999 6.58028 5.20194C6.99638 5.20389 7.39466 5.37106 7.6875 5.66667L10.375 8.375C10.5932 8.59351 10.7418 8.8718 10.802 9.17472C10.8622 9.47763 10.8312 9.79158 10.7131 10.0769C10.5949 10.3623 10.3949 10.6062 10.1382 10.7779C9.88149 10.9496 9.57967 11.0414 9.27083 11.0417ZM4.5 36.9583C4.29402 36.9643 4.08911 36.9265 3.89879 36.8475C3.70847 36.7685 3.53705 36.6501 3.39583 36.5C3.10323 36.207 2.93887 35.8099 2.93887 35.3958C2.93887 34.9818 3.10323 34.5846 3.39583 34.2917L6.10417 31.5833C6.40036 31.3073 6.79213 31.1571 7.19692 31.1642C7.60172 31.1714 7.98794 31.3353 8.27421 31.6216C8.56049 31.9079 8.72447 32.2941 8.73161 32.6989C8.73876 33.1037 8.5885 33.4955 8.3125 33.7917L5.625 36.5208C5.31784 36.8021 4.91649 36.9582 4.5 36.9583ZM5.375 23.5625H1.5625C1.1481 23.5625 0.750671 23.3979 0.457645 23.1049C0.16462 22.8118 0 22.4144 0 22C0 21.5856 0.16462 21.1882 0.457645 20.8951C0.750671 20.6021 1.1481 20.4375 1.5625 20.4375H5.375C5.7894 20.4375 6.18683 20.6021 6.47985 20.8951C6.77288 21.1882 6.9375 21.5856 6.9375 22C6.9375 22.4144 6.77288 22.8118 6.47985 23.1049C6.18683 23.3979 5.7894 23.5625 5.375 23.5625Z" fill="#D82149"/>
</svg>
