<svg width="24" height="24" viewBox="0 0 24 24" fill="none" xmlns="http://www.w3.org/2000/svg">
<path d="M18.1538 5.23071H5.84615C4.82655 5.23071 4 6.05726 4 7.07687V18.1538C4 19.1734 4.82655 19.9999 5.84615 19.9999H18.1538C19.1734 19.9999 20 19.1734 20 18.1538V7.07687C20 6.05726 19.1734 5.23071 18.1538 5.23071Z" stroke="#121212" stroke-width="1.23077" stroke-linejoin="round"/>
<path d="M13.5384 12C14.0482 12 14.4615 11.5867 14.4615 11.0769C14.4615 10.5671 14.0482 10.1538 13.5384 10.1538C13.0286 10.1538 12.6154 10.5671 12.6154 11.0769C12.6154 11.5867 13.0286 12 13.5384 12Z" fill="#121212"/>
<path d="M16.6153 12C17.1251 12 17.5384 11.5867 17.5384 11.0769C17.5384 10.5671 17.1251 10.1538 16.6153 10.1538C16.1055 10.1538 15.6923 10.5671 15.6923 11.0769C15.6923 11.5867 16.1055 12 16.6153 12Z" fill="#121212"/>
<path d="M13.5384 15.0769C14.0482 15.0769 14.4615 14.6636 14.4615 14.1538C14.4615 13.644 14.0482 13.2307 13.5384 13.2307C13.0286 13.2307 12.6154 13.644 12.6154 14.1538C12.6154 14.6636 13.0286 15.0769 13.5384 15.0769Z" fill="#121212"/>
<path d="M16.6153 15.0769C17.1251 15.0769 17.5384 14.6636 17.5384 14.1538C17.5384 13.644 17.1251 13.2307 16.6153 13.2307C16.1055 13.2307 15.6923 13.644 15.6923 14.1538C15.6923 14.6636 16.1055 15.0769 16.6153 15.0769Z" fill="#121212"/>
<path d="M7.38462 15.0769C7.89443 15.0769 8.3077 14.6636 8.3077 14.1538C8.3077 13.644 7.89443 13.2307 7.38462 13.2307C6.87482 13.2307 6.46155 13.644 6.46155 14.1538C6.46155 14.6636 6.87482 15.0769 7.38462 15.0769Z" fill="#121212"/>
<path d="M10.4615 15.0769C10.9713 15.0769 11.3846 14.6636 11.3846 14.1538C11.3846 13.644 10.9713 13.2307 10.4615 13.2307C9.95173 13.2307 9.53845 13.644 9.53845 14.1538C9.53845 14.6636 9.95173 15.0769 10.4615 15.0769Z" fill="#121212"/>
<path d="M7.38462 18.1538C7.89443 18.1538 8.3077 17.7405 8.3077 17.2307C8.3077 16.7209 7.89443 16.3076 7.38462 16.3076C6.87482 16.3076 6.46155 16.7209 6.46155 17.2307C6.46155 17.7405 6.87482 18.1538 7.38462 18.1538Z" fill="#121212"/>
<path d="M10.4615 18.1538C10.9713 18.1538 11.3846 17.7405 11.3846 17.2307C11.3846 16.7209 10.9713 16.3076 10.4615 16.3076C9.95173 16.3076 9.53845 16.7209 9.53845 17.2307C9.53845 17.7405 9.95173 18.1538 10.4615 18.1538Z" fill="#121212"/>
<path d="M13.5384 18.1538C14.0482 18.1538 14.4615 17.7405 14.4615 17.2307C14.4615 16.7209 14.0482 16.3076 13.5384 16.3076C13.0286 16.3076 12.6154 16.7209 12.6154 17.2307C12.6154 17.7405 13.0286 18.1538 13.5384 18.1538Z" fill="#121212"/>
<path d="M7.0769 4V5.23077M16.9231 4V5.23077" stroke="#121212" stroke-width="1.23077" stroke-linecap="round" stroke-linejoin="round"/>
<path d="M20 8.30762H4" stroke="#121212" stroke-width="1.23077" stroke-linejoin="round"/>
</svg>
