<svg width="24" height="24" viewBox="0 0 24 24" fill="none" xmlns="http://www.w3.org/2000/svg">
<path d="M20.5001 7.53567C20.5001 6.91052 20.2517 6.31097 19.8097 5.86891C19.3676 5.42686 18.7681 5.17852 18.1429 5.17852H17.5536V4.60581C17.5536 4.2887 17.3098 4.01652 16.9927 4.00068C16.913 3.99684 16.8334 4.00922 16.7586 4.03707C16.6839 4.06491 16.6156 4.10764 16.5578 4.16267C16.5001 4.2177 16.4541 4.28388 16.4227 4.3572C16.3913 4.43053 16.375 4.50946 16.375 4.58923V5.17852H8.12501V4.60581C8.12501 4.2887 7.8812 4.01652 7.56409 4.00068C7.48441 3.99684 7.40478 4.00922 7.33003 4.03707C7.25528 4.06491 7.18696 4.10764 7.12921 4.16267C7.07146 4.2177 7.02548 4.28388 6.99406 4.3572C6.96265 4.43053 6.94645 4.50946 6.94644 4.58923V5.17852H6.35715C5.732 5.17852 5.13244 5.42686 4.69039 5.86891C4.24834 6.31097 4 6.91052 4 7.53567V7.97764C4 8.01671 4.01552 8.05418 4.04315 8.08181C4.07078 8.10944 4.10825 8.12496 4.14732 8.12496H20.3527C20.3918 8.12496 20.4293 8.10944 20.4569 8.08181C20.4845 8.05418 20.5001 8.01671 20.5001 7.97764V7.53567ZM4 18.1428C4 18.768 4.24834 19.3676 4.69039 19.8096C5.13244 20.2517 5.732 20.5 6.35715 20.5H18.1429C18.7681 20.5 19.3676 20.2517 19.8097 19.8096C20.2517 19.3676 20.5001 18.768 20.5001 18.1428V9.41403C20.5001 9.38472 20.4884 9.35662 20.4677 9.3359C20.447 9.31518 20.4189 9.30353 20.3896 9.30353H4.11049C4.08119 9.30353 4.05308 9.31518 4.03236 9.3359C4.01164 9.35662 4 9.38472 4 9.41403V18.1428ZM16.6697 10.4821C16.8445 10.4821 17.0154 10.534 17.1608 10.6311C17.3061 10.7282 17.4194 10.8663 17.4863 11.0278C17.5532 11.1893 17.5707 11.367 17.5366 11.5385C17.5025 11.71 17.4183 11.8675 17.2947 11.9911C17.1711 12.1147 17.0136 12.1989 16.8421 12.233C16.6707 12.2671 16.4929 12.2496 16.3314 12.1827C16.1699 12.1158 16.0318 12.0025 15.9347 11.8571C15.8376 11.7118 15.7858 11.5409 15.7858 11.366C15.7858 11.1316 15.8789 10.9068 16.0447 10.741C16.2104 10.5752 16.4353 10.4821 16.6697 10.4821ZM16.6697 13.4285C16.8445 13.4285 17.0154 13.4804 17.1608 13.5775C17.3061 13.6746 17.4194 13.8127 17.4863 13.9742C17.5532 14.1357 17.5707 14.3135 17.5366 14.4849C17.5025 14.6564 17.4183 14.8139 17.2947 14.9375C17.1711 15.0611 17.0136 15.1453 16.8421 15.1794C16.6707 15.2135 16.4929 15.196 16.3314 15.1291C16.1699 15.0622 16.0318 14.9489 15.9347 14.8036C15.8376 14.6582 15.7858 14.4873 15.7858 14.3125C15.7858 14.078 15.8789 13.8532 16.0447 13.6874C16.2104 13.5217 16.4353 13.4285 16.6697 13.4285ZM13.7232 10.4821C13.8981 10.4821 14.069 10.534 14.2143 10.6311C14.3597 10.7282 14.473 10.8663 14.5399 11.0278C14.6068 11.1893 14.6243 11.367 14.5902 11.5385C14.5561 11.71 14.4719 11.8675 14.3483 11.9911C14.2247 12.1147 14.0672 12.1989 13.8957 12.233C13.7242 12.2671 13.5465 12.2496 13.385 12.1827C13.2235 12.1158 13.0854 12.0025 12.9883 11.8571C12.8912 11.7118 12.8393 11.5409 12.8393 11.366C12.8393 11.1316 12.9324 10.9068 13.0982 10.741C13.264 10.5752 13.4888 10.4821 13.7232 10.4821ZM13.7232 13.4285C13.8981 13.4285 14.069 13.4804 14.2143 13.5775C14.3597 13.6746 14.473 13.8127 14.5399 13.9742C14.6068 14.1357 14.6243 14.3135 14.5902 14.4849C14.5561 14.6564 14.4719 14.8139 14.3483 14.9375C14.2247 15.0611 14.0672 15.1453 13.8957 15.1794C13.7242 15.2135 13.5465 15.196 13.385 15.1291C13.2235 15.0622 13.0854 14.9489 12.9883 14.8036C12.8912 14.6582 12.8393 14.4873 12.8393 14.3125C12.8393 14.078 12.9324 13.8532 13.0982 13.6874C13.264 13.5217 13.4888 13.4285 13.7232 13.4285ZM13.7232 16.375C13.8981 16.375 14.069 16.4268 14.2143 16.524C14.3597 16.6211 14.473 16.7591 14.5399 16.9207C14.6068 17.0822 14.6243 17.2599 14.5902 17.4314C14.5561 17.6028 14.4719 17.7603 14.3483 17.884C14.2247 18.0076 14.0672 18.0918 13.8957 18.1259C13.7242 18.16 13.5465 18.1425 13.385 18.0756C13.2235 18.0087 13.0854 17.8954 12.9883 17.75C12.8912 17.6046 12.8393 17.4337 12.8393 17.2589C12.8393 17.0245 12.9324 16.7997 13.0982 16.6339C13.264 16.4681 13.4888 16.375 13.7232 16.375ZM10.7768 13.4285C10.9516 13.4285 11.1225 13.4804 11.2679 13.5775C11.4133 13.6746 11.5266 13.8127 11.5935 13.9742C11.6604 14.1357 11.6779 14.3135 11.6438 14.4849C11.6096 14.6564 11.5255 14.8139 11.4018 14.9375C11.2782 15.0611 11.1207 15.1453 10.9493 15.1794C10.7778 15.2135 10.6001 15.196 10.4385 15.1291C10.277 15.0622 10.139 14.9489 10.0418 14.8036C9.94472 14.6582 9.89288 14.4873 9.89288 14.3125C9.89288 14.078 9.986 13.8532 10.1518 13.6874C10.3175 13.5217 10.5424 13.4285 10.7768 13.4285ZM10.7768 16.375C10.9516 16.375 11.1225 16.4268 11.2679 16.524C11.4133 16.6211 11.5266 16.7591 11.5935 16.9207C11.6604 17.0822 11.6779 17.2599 11.6438 17.4314C11.6096 17.6028 11.5255 17.7603 11.4018 17.884C11.2782 18.0076 11.1207 18.0918 10.9493 18.1259C10.7778 18.16 10.6001 18.1425 10.4385 18.0756C10.277 18.0087 10.139 17.8954 10.0418 17.75C9.94472 17.6046 9.89288 17.4337 9.89288 17.2589C9.89288 17.0245 9.986 16.7997 10.1518 16.6339C10.3175 16.4681 10.5424 16.375 10.7768 16.375ZM7.83037 13.4285C8.00519 13.4285 8.17609 13.4804 8.32146 13.5775C8.46682 13.6746 8.58011 13.8127 8.64702 13.9742C8.71392 14.1357 8.73142 14.3135 8.69732 14.4849C8.66321 14.6564 8.57902 14.8139 8.4554 14.9375C8.33178 15.0611 8.17428 15.1453 8.00282 15.1794C7.83135 15.2135 7.65362 15.196 7.4921 15.1291C7.33059 15.0622 7.19254 14.9489 7.09541 14.8036C6.99828 14.6582 6.94644 14.4873 6.94644 14.3125C6.94644 14.078 7.03957 13.8532 7.20534 13.6874C7.3711 13.5217 7.59594 13.4285 7.83037 13.4285ZM7.83037 16.375C8.00519 16.375 8.17609 16.4268 8.32146 16.524C8.46682 16.6211 8.58011 16.7591 8.64702 16.9207C8.71392 17.0822 8.73142 17.2599 8.69732 17.4314C8.66321 17.6028 8.57902 17.7603 8.4554 17.884C8.33178 18.0076 8.17428 18.0918 8.00282 18.1259C7.83135 18.16 7.65362 18.1425 7.4921 18.0756C7.33059 18.0087 7.19254 17.8954 7.09541 17.75C6.99828 17.6046 6.94644 17.4337 6.94644 17.2589C6.94644 17.0245 7.03957 16.7997 7.20534 16.6339C7.3711 16.4681 7.59594 16.375 7.83037 16.375Z" fill="black"/>
</svg>
