<svg width="18" height="18" viewBox="0 0 18 18" fill="none" xmlns="http://www.w3.org/2000/svg">
<path d="M16.4988 9C16.4988 13.1421 13.1409 16.5 8.99878 16.5C4.85664 16.5 1.49878 13.1421 1.49878 9C1.49878 4.85786 4.85664 1.5 8.99878 1.5" stroke="#7C7C7C" stroke-linecap="round"/>
<path d="M4.87354 8.25C5.29873 8.72272 5.81582 9 6.37354 9C6.93125 9 7.44834 8.72272 7.87353 8.25" stroke="#7C7C7C" stroke-linecap="round"/>
<path d="M10.125 8.25C10.5502 8.72272 11.0673 9 11.625 9C12.1827 9 12.6998 8.72272 13.125 8.25" stroke="#7C7C7C" stroke-linecap="round"/>
<path d="M9.74829 12C9.74829 12.4142 9.41252 12.75 8.99829 12.75C8.58407 12.75 8.24829 12.4142 8.24829 12C8.24829 11.5858 8.58407 11.25 8.99829 11.25C9.41252 11.25 9.74829 11.5858 9.74829 12Z" fill="#7C7C7C"/>
<path d="M12.7485 3L15.3466 1.5L14.2485 5.59808L16.8466 4.09808" stroke="#7C7C7C" stroke-width="1.45283" stroke-linecap="round" stroke-linejoin="round"/>
<path d="M10.5366 4.125L11.8356 4.875L9.78662 5.42404L11.0856 6.17404" stroke="#7C7C7C" stroke-width="1.45283" stroke-linecap="round" stroke-linejoin="round"/>
</svg>
