<svg width="18" height="18" viewBox="0 0 18 18" fill="none" xmlns="http://www.w3.org/2000/svg">
<g clip-path="url(#clip0_226_1085)">
<path d="M11.8064 6.77378C11.6469 7.24275 11.4825 7.68755 11.3471 8.14203C11.3133 8.2629 11.3374 8.40311 11.3568 8.53365C11.4486 9.11382 11.6807 9.65532 11.8741 10.2065C12.2125 11.1541 12.2415 12.1307 12.1352 13.1219C12.0046 14.3548 11.5937 15.5199 11.3036 16.7141C11.2214 17.0526 11.1199 17.391 11.0328 17.7295C10.9845 17.918 10.8733 18.0002 10.6847 18.0002C9.56306 18.0002 8.43655 18.0002 7.31488 18.0002C7.14082 18.0002 7.01995 17.9325 6.97644 17.7633C6.638 16.4676 6.26572 15.1767 5.98047 13.8713C5.70972 12.6287 5.70972 11.3765 6.14002 10.1533C6.23671 9.88256 6.35275 9.61664 6.47362 9.35073C6.75404 8.73187 6.75404 8.11302 6.46879 7.49416C6.36242 7.26693 6.26089 7.03486 6.15452 6.79311C5.55017 7.08804 4.92648 7.30077 4.26895 7.43131C4.20609 7.44581 4.14324 7.51834 4.1094 7.57635C3.68393 8.2629 2.88619 8.57716 2.11746 8.34992C1.36806 8.12752 0.860404 7.42164 0.879744 6.6239C0.879744 6.59489 0.874909 6.56104 0.884578 6.53204C1.00545 6.21777 0.870074 5.96153 0.734699 5.68594C0.169026 4.5691 -0.0582099 3.37007 0.0143123 2.12269C0.0626604 1.26693 0.497793 0.619062 1.26653 0.241947C2.04493 -0.140003 2.8185 -0.072316 3.53405 0.416C3.95468 0.701254 4.35114 1.02035 4.75243 1.32494C5.39546 1.81326 6.07233 1.88095 6.78788 1.50867C7.36322 1.20891 7.95307 0.962333 8.61544 0.904316C9.40351 0.836628 10.1384 0.991342 10.8443 1.32978C11.1634 1.47966 11.4922 1.62954 11.8354 1.71173C12.3092 1.82293 12.7589 1.67789 13.1505 1.3878C13.5808 1.07353 13.9966 0.744767 14.4317 0.435339C15.7613 -0.507449 17.6082 0.188764 17.9225 1.78909C18.024 2.30641 17.9805 2.86241 17.9321 3.39424C17.8499 4.3322 17.5453 5.2073 17.0957 6.03405C17.0619 6.0969 17.0522 6.19843 17.0715 6.27096C17.2698 7.12188 16.8395 7.97764 16.0369 8.30158C15.2391 8.63034 14.3302 8.32092 13.8806 7.57152C13.8419 7.5135 13.779 7.44098 13.7162 7.43131C13.0683 7.30077 12.4446 7.08804 11.8064 6.77378ZM2.14646 4.95589C2.12229 4.9027 2.07878 4.82051 2.0401 4.74316C1.85154 4.35154 1.74034 3.94058 1.74517 3.50544C1.74517 3.0268 1.95791 2.66419 2.3882 2.45629C2.8185 2.24839 3.2343 2.30641 3.61141 2.60133C3.77096 2.7222 3.92084 2.85274 4.07072 2.98328C4.64123 3.49577 5.3036 3.77136 6.07717 3.7907C6.27056 3.79553 6.37692 3.90673 6.38659 4.09529C6.38659 4.1388 6.38659 4.18232 6.38659 4.221C6.33825 5.31366 6.54614 6.34831 7.02479 7.34428C7.37289 8.07434 7.35839 8.84307 7.00061 9.5683C6.35275 10.8785 6.25605 12.2468 6.5268 13.6489C6.67668 14.437 6.90392 15.2057 7.10215 15.9841C7.22302 16.4627 7.35356 16.9365 7.47926 17.4055C7.69199 17.4055 7.89022 17.4055 8.09328 17.4055C7.99175 16.5304 7.87572 15.665 7.78869 14.7996C7.69683 13.8519 7.6243 12.8995 7.55178 11.947C7.53244 11.6618 7.61947 11.4007 7.75968 11.1541C7.80319 11.0768 7.83704 10.9752 7.83704 10.8882C7.84187 9.46677 7.83704 8.05017 7.84187 6.62873C7.84671 5.4442 7.50343 4.38538 6.78788 3.44259C6.59449 3.18635 6.66218 2.99295 6.97161 2.90593C8.30118 2.53365 9.63075 2.53848 10.9603 2.88175C11.3519 2.98328 11.4148 3.16701 11.1731 3.4861C10.53 4.34187 10.1771 5.30883 10.1626 6.37732C10.1432 7.89545 10.1577 9.40875 10.1577 10.9269C10.1577 10.9897 10.1723 11.0623 10.2061 11.1106C10.3801 11.3862 10.4478 11.6811 10.4478 12.005C10.4333 13.4603 10.1771 14.8914 10.032 16.3322C9.99336 16.69 9.94985 17.0429 9.90634 17.4104C10.1191 17.4104 10.3125 17.4104 10.5155 17.4104C10.5977 17.1106 10.6799 16.8157 10.7524 16.5208C11.0328 15.3797 11.4245 14.2629 11.555 13.088C11.671 12.0195 11.5937 10.9801 11.1779 9.97925C11.0619 9.70367 10.9652 9.41358 10.8975 9.12349C10.8249 8.81407 10.7428 8.49497 10.7621 8.18554C10.7863 7.86161 10.912 7.54251 11.0183 7.23308C11.1295 6.90432 11.2843 6.58522 11.3906 6.25162C11.613 5.56507 11.6179 4.84952 11.6082 4.13397C11.6034 3.89706 11.7097 3.79553 11.9466 3.78586C12.638 3.76169 13.2472 3.53445 13.779 3.09449C13.9869 2.92043 14.19 2.74154 14.4075 2.57716C15.0844 2.055 16.0562 2.40794 16.2206 3.2492C16.3221 3.78103 16.1674 4.27901 15.945 4.75766C15.9063 4.83502 15.8677 4.91721 15.8483 4.96072C16.1529 5.14928 16.4333 5.32817 16.7186 5.50706C16.7379 5.46838 16.7669 5.40552 16.7959 5.34751C17.2407 4.39021 17.4293 3.37974 17.41 2.32092C17.3955 1.6247 17.1102 1.09287 16.4817 0.778611C15.858 0.464348 15.2536 0.54654 14.6928 0.962333C14.277 1.27176 13.866 1.59086 13.4454 1.89545C12.9426 2.2629 12.3866 2.39344 11.7677 2.30641C11.3471 2.24839 10.9748 2.055 10.6074 1.86644C9.88216 1.499 9.1231 1.38296 8.32052 1.53284C7.85154 1.6247 7.43575 1.84227 7.01028 2.05017C6.10134 2.4853 5.23591 2.43695 4.42366 1.80843C4.02721 1.499 3.62592 1.18473 3.21012 0.899481C2.67346 0.527201 2.09812 0.483687 1.5131 0.773776C0.942596 1.05903 0.628333 1.53768 0.59449 2.17104C0.555811 2.87208 0.613829 3.57313 0.812056 4.25C0.937761 4.68514 1.11181 5.10577 1.25202 5.51673C1.56629 5.3185 1.84671 5.14444 2.14646 4.95589ZM7.46959 3.37974C7.49376 3.42325 7.50343 3.45226 7.51794 3.47644C8.1368 4.4434 8.42688 5.50222 8.41721 6.64807C8.40754 7.88578 8.41721 9.12349 8.41721 10.3612C8.41721 10.4241 8.41721 10.4869 8.41721 10.5739C8.81367 10.4096 9.19078 10.4192 9.57757 10.5691C9.57757 10.4821 9.57757 10.4144 9.57757 10.3467C9.57757 9.06548 9.57273 7.78425 9.57757 6.50786C9.5824 5.4297 9.87249 4.43856 10.443 3.52478C10.472 3.48127 10.4913 3.43776 10.5252 3.3749C9.49538 3.14283 8.48974 3.14283 7.46959 3.37974ZM5.80642 4.36121C5.75323 4.3467 5.72422 4.33703 5.69522 4.33703C5.02318 4.26451 4.42849 4.00826 3.9015 3.58764C3.68877 3.41842 3.48087 3.23953 3.27297 3.07031C3.07958 2.91076 2.86685 2.86241 2.63478 2.97845C2.40754 3.09449 2.31568 3.29271 2.32052 3.54412C2.33019 4.04694 2.54292 4.47724 2.77015 4.9027C2.78949 4.94138 2.85718 4.96556 2.90553 4.97523C3.33583 5.05258 3.68393 5.26048 3.95468 5.59408C4.01754 5.67144 4.07555 5.69561 4.16741 5.67144C4.70891 5.5409 5.22624 5.33784 5.70005 5.04775C5.7484 5.01874 5.79191 4.95105 5.79191 4.89787C5.81609 4.72382 5.80642 4.54493 5.80642 4.36121ZM12.1835 4.38054C12.1835 4.54976 12.1739 4.72865 12.1884 4.9027C12.1932 4.95589 12.2415 5.02357 12.2851 5.05258C12.7589 5.33784 13.2665 5.53606 13.8032 5.67144C13.8999 5.69561 13.9627 5.68111 14.0353 5.59408C14.2818 5.27982 14.6058 5.07192 14.9974 4.9994C15.1569 4.97039 15.2391 4.89787 15.2971 4.76249C15.3455 4.64162 15.4325 4.53042 15.4664 4.40472C15.5437 4.10496 15.6211 3.80037 15.6598 3.49094C15.6888 3.2637 15.5582 3.08482 15.3503 2.98328C15.1424 2.87692 14.9394 2.90593 14.7557 3.04614C14.5961 3.16701 14.4462 3.29755 14.2963 3.42809C13.9241 3.75202 13.5179 4.02277 13.0441 4.17265C12.7734 4.25 12.4881 4.30319 12.1835 4.38054ZM2.61544 5.52156C1.97241 5.52156 1.45509 6.04372 1.45509 6.68675C1.45509 7.32011 1.97241 7.84227 2.60577 7.84227C3.2488 7.8471 3.77096 7.32978 3.7758 6.68675C3.7758 6.04855 3.25847 5.52639 2.61544 5.52156ZM15.3697 7.84227C16.0127 7.84227 16.5349 7.32494 16.5349 6.68675C16.5349 6.04855 16.0127 5.52639 15.3745 5.52639C14.7411 5.52639 14.219 6.04372 14.219 6.67708C14.2142 7.31527 14.7315 7.84227 15.3697 7.84227ZM8.14646 12.7834C8.18514 13.1799 8.22382 13.557 8.2625 13.9293C8.77015 13.9293 9.24397 13.9293 9.73712 13.9293C9.7758 13.5473 9.80964 13.1702 9.84832 12.7834C9.26814 12.7834 8.72181 12.7834 8.14646 12.7834ZM8.14163 12.1791C8.72181 12.1791 9.28748 12.1791 9.85315 12.1791C9.90634 11.7585 9.82414 11.4007 9.4567 11.1686C9.15211 10.9801 8.83784 10.9801 8.53325 11.1686C8.1658 11.4055 8.08845 11.7585 8.14163 12.1791ZM9.52439 15.665C9.5679 15.283 9.61141 14.9108 9.65976 14.524C9.21012 14.524 8.77982 14.524 8.33502 14.524C8.37854 14.9108 8.42688 15.2879 8.4704 15.665C8.82817 15.665 9.16661 15.665 9.52439 15.665ZM4.37048 6.85113C4.92648 6.64807 5.46314 6.45468 5.99497 6.25645C5.94663 6.01954 5.90795 5.83099 5.8741 5.6666C5.35678 5.86967 4.83945 6.06789 4.31729 6.27096C4.3318 6.4305 4.35114 6.60939 4.37048 6.85113ZM13.6727 6.27579C13.1457 6.07273 12.6332 5.8745 12.1158 5.67144C12.0917 5.79714 12.0723 5.94702 12.0288 6.09207C11.995 6.19843 12.0288 6.24678 12.1207 6.28546C12.4833 6.42567 12.8459 6.57555 13.2133 6.71092C13.3439 6.75927 13.4889 6.77861 13.6243 6.81245C13.6436 6.60939 13.6581 6.4305 13.6727 6.27579ZM9.32132 17.4104C9.36484 17.0236 9.40835 16.6513 9.45186 16.2693C9.14244 16.2693 8.84751 16.2693 8.53808 16.2693C8.5816 16.6561 8.62511 17.0284 8.67346 17.4104C8.89103 17.4104 9.09409 17.4104 9.32132 17.4104Z" fill="#D82149"/>
<path d="M15.0941 16.9509C14.7847 17.2603 14.4994 17.5504 14.2093 17.8405C13.9966 18.0532 13.8661 18.0532 13.6582 17.8453C13.3149 17.502 12.9765 17.1636 12.6332 16.8203C12.4253 16.6124 12.4253 16.4819 12.638 16.2692C12.9184 15.9888 13.1989 15.7035 13.4841 15.4231C13.4938 15.4134 13.4938 15.4037 13.5083 15.3651C13.3149 15.1717 13.1118 14.9783 12.9136 14.7752C11.9998 13.8614 11.9563 12.6866 12.7686 11.6809C13.1892 11.1588 13.6727 10.7333 14.3302 10.5641C15.4132 10.2788 16.3512 10.5399 17.1247 11.3473C17.4825 11.7196 17.8161 12.1209 17.9321 12.6576C18.0917 13.378 17.9418 14.0307 17.4535 14.5818C17.2118 14.8574 16.9217 15.0895 16.6364 15.3602C16.8685 15.5923 17.0715 15.7905 17.2698 15.9888C17.381 16.1 17.497 16.2063 17.6034 16.3224C17.7436 16.4722 17.7484 16.6221 17.6034 16.772C17.2359 17.1491 16.8636 17.5166 16.4865 17.8888C16.327 18.0484 16.1771 18.0387 16.0127 17.8743C15.7081 17.5746 15.4084 17.2748 15.0941 16.9509ZM13.1602 12.1161C13.0973 12.1983 13.0538 12.2514 13.0151 12.3095C12.609 12.9477 12.7009 13.7406 13.2569 14.2966C14.219 15.2635 15.186 16.2305 16.1529 17.1926C16.1819 17.2216 16.2158 17.2458 16.2255 17.2555C16.4769 17.0041 16.7186 16.7623 16.9652 16.5157C16.9362 16.4867 16.8975 16.4384 16.854 16.3997C16.0659 15.6116 15.2827 14.8284 14.4946 14.0403C14.3882 13.934 14.2867 13.8228 14.1755 13.7212C13.7065 13.2909 13.3391 12.7784 13.1602 12.1161ZM13.9192 12.5705C14.3157 12.324 14.688 12.2176 15.0893 12.2176C15.4954 12.2176 15.8677 12.3336 16.2641 12.5657C16.3512 12.2563 16.4382 11.9759 16.5059 11.6906C16.5204 11.6374 16.4817 11.5456 16.4382 11.5069C15.7275 10.8832 14.4704 10.8832 13.7452 11.5069C13.7017 11.5456 13.663 11.6326 13.6775 11.6858C13.7404 11.971 13.8274 12.2466 13.9192 12.5705ZM17.0039 12.1306C16.8008 13.0444 16.1143 13.6052 15.5341 14.1902C15.7952 14.4513 16.0369 14.693 16.2641 14.9203C16.5155 14.6785 16.8008 14.4416 17.0425 14.166C17.5454 13.5859 17.526 12.6624 17.0039 12.1306ZM13.2327 16.5399C13.4696 16.7768 13.7065 17.0186 13.9289 17.241C14.1562 17.0137 14.3979 16.772 14.63 16.5448C14.4027 16.3175 14.161 16.0758 13.9289 15.8437C13.7017 16.0758 13.4599 16.3127 13.2327 16.5399ZM14.3399 13.0057C14.5961 13.2619 14.8524 13.5182 15.1231 13.7841C15.3407 13.5665 15.5728 13.3344 15.8097 13.0975C15.829 13.0782 15.8435 13.0492 15.8628 13.0298C15.447 12.7156 14.7508 12.7108 14.3399 13.0057Z" fill="#D82149"/>
</g>
<defs>
<clipPath id="clip0_226_1085">
<rect width="17.9855" height="18" fill="white"/>
</clipPath>
</defs>
</svg>
