<svg width="18" height="18" viewBox="0 0 18 18" fill="none" xmlns="http://www.w3.org/2000/svg">
<path d="M6.53062 16.83C6.4155 16.7814 6.31985 16.6958 6.25873 16.5869C6.19762 16.4779 6.17454 16.3516 6.19312 16.2281L7.21687 9.56246H4.49999C4.41386 9.56477 4.32834 9.54727 4.25005 9.5113C4.17175 9.47534 4.10276 9.42186 4.04841 9.355C3.99405 9.28815 3.95578 9.2097 3.93655 9.12571C3.91732 9.04171 3.91764 8.95443 3.93749 8.87058L5.62499 1.55808C5.65469 1.43223 5.72683 1.32046 5.82928 1.24157C5.93173 1.16268 6.05823 1.1215 6.18749 1.12496H11.8125C11.8965 1.12467 11.9796 1.14322 12.0555 1.17923C12.1314 1.21525 12.1983 1.26782 12.2512 1.33308C12.3049 1.39908 12.3429 1.4764 12.3624 1.55922C12.3819 1.64203 12.3824 1.72819 12.3637 1.81121L11.3906 6.18746H14.0625C14.1679 6.18725 14.2713 6.21667 14.3608 6.27236C14.4503 6.32806 14.5224 6.40779 14.5687 6.50246C14.609 6.59332 14.6246 6.69325 14.6137 6.79205C14.6028 6.89086 14.566 6.98503 14.5069 7.06496L7.19437 16.6275C7.14495 16.7007 7.07896 16.7613 7.00175 16.8043C6.92455 16.8473 6.8383 16.8715 6.74999 16.875C6.67474 16.8734 6.6004 16.8582 6.53062 16.83ZM9.98437 7.31246L11.1094 2.24996H6.63749L5.20874 8.43746H8.53312L7.63874 14.22L12.9375 7.31246H9.98437Z" fill="#7C7C7C"/>
</svg>
