<svg width="18" height="18" viewBox="0 0 18 18" fill="none" xmlns="http://www.w3.org/2000/svg">
<path d="M5.45243 5.25649C3.90694 5.19925 3.1316 3.90354 3.31373 2.77955C3.50626 1.61914 4.68229 0.807365 5.8427 1.05194C6.98231 1.2913 7.93978 2.55579 7.34656 4.02323C7.49747 4.05445 7.66398 4.04924 7.79408 4.11689C8.03865 4.24178 8.30403 4.36667 8.49657 4.554C9.48006 5.50106 10.0421 6.67189 10.2606 8.01443C10.3647 8.65968 10.4792 9.31014 10.6041 9.95019C10.7133 10.5018 10.6925 11.0221 10.3387 11.5165C10.5312 11.5165 10.6925 11.5165 10.8903 11.5165C10.8903 11.4436 10.8903 11.3708 10.8903 11.2979C10.8903 10.0022 10.8903 8.71172 10.8903 7.41601C10.8903 6.72913 11.2701 6.35446 11.9518 6.35446C12.5242 6.35446 13.0966 6.35446 13.669 6.35446C14.3039 6.35446 14.7045 6.74994 14.7045 7.38999C14.7045 8.6857 14.7045 9.97621 14.7045 11.2719C14.7045 12.0629 14.7045 12.859 14.7045 13.65C14.7045 14.4305 14.3247 14.9769 13.591 15.2371C13.4869 15.2735 13.4661 15.3204 13.4661 15.4192C13.4713 15.7263 13.4713 16.0281 13.4661 16.3351C13.4609 16.741 13.2163 17.0011 12.8156 17.0011C10.9735 17.0063 9.13662 17.0063 7.29453 17.0011C6.78457 17.0011 6.50877 16.5797 6.70131 16.1009C6.81579 15.8147 6.94068 15.5285 7.06556 15.2267C6.46194 15.0186 6.02483 14.6283 5.72302 14.0559C5.76985 14.3681 5.8323 14.6751 5.86872 14.9873C5.90515 15.2891 5.96239 15.5962 5.92596 15.8928C5.84271 16.5276 5.29632 16.9803 4.65627 17.0011C4.03704 17.022 3.44382 16.5796 3.32413 15.9552C3.07436 14.6595 2.84019 13.3638 2.61123 12.0629C2.48635 11.3604 2.6997 10.7411 3.18364 10.1792C3.11078 10.1739 3.05875 10.1635 3.00671 10.1635C2.69449 10.1635 2.38227 10.1739 2.07005 10.1583C1.47163 10.1323 1.00851 9.70562 0.966878 9.14883C0.920045 8.5452 1.2895 8.03525 1.87752 7.93117C2.10648 7.88954 2.34585 7.91036 2.58001 7.91036C2.98069 7.90515 3.38658 7.91556 3.78726 7.90515C3.85491 7.90515 3.95898 7.86352 3.9902 7.80628C4.47414 6.98411 4.95288 6.15672 5.42641 5.32934C5.44202 5.30853 5.44202 5.28771 5.45243 5.25649ZM7.04475 11.5269C7.66399 11.5269 8.27802 11.5269 8.89725 11.5269C9.6726 11.5217 10.1201 10.9805 9.97961 10.2156C9.84952 9.49747 9.71943 8.78457 9.59974 8.06647C9.40721 6.90605 8.89205 5.91215 8.09068 5.04835C7.62236 4.54879 6.59203 4.58002 6.21216 5.29292C5.67098 6.30243 5.07256 7.27551 4.50537 8.26941C4.38048 8.49317 4.22437 8.58163 3.97459 8.57643C3.35536 8.56602 2.74133 8.57122 2.12209 8.57643C1.81507 8.57643 1.62254 8.77937 1.63815 9.06037C1.65376 9.31534 1.84109 9.48186 2.12729 9.48186C2.95988 9.48707 3.79246 9.47666 4.62505 9.48707C4.86442 9.49227 5.00492 9.40381 5.1194 9.19566C5.52008 8.41511 5.94157 7.64497 6.34746 6.86963C6.43592 6.70831 6.56081 6.62505 6.74294 6.66148C6.90945 6.6979 6.98231 6.81759 6.99792 6.98931C7.04475 7.49406 7.09679 7.99882 7.14362 8.50357C7.18525 8.92507 7.23208 9.34657 7.2581 9.76806C7.27371 10.0178 7.14882 10.1427 6.90425 10.1531C6.8262 10.1583 6.74814 10.1531 6.67009 10.1531C5.9832 10.1583 5.29112 10.1323 4.60423 10.1844C3.77685 10.2468 3.14201 11.0534 3.2773 11.8755C3.49065 13.1765 3.73522 14.4722 3.97459 15.7679C4.04744 16.1686 4.39088 16.3975 4.75514 16.3247C5.14021 16.2466 5.34836 15.9188 5.28591 15.5077C5.09858 14.3525 4.91645 13.1973 4.73433 12.0421C4.67709 11.6726 4.79157 11.5373 5.17143 11.5373C5.79587 11.5217 6.42031 11.5269 7.04475 11.5269ZM6.27461 12.2086C6.27461 12.5468 6.27461 12.8798 6.27461 13.2077C6.27461 13.3066 6.27981 13.4054 6.29542 13.4991C6.42551 14.1704 6.98751 14.6335 7.70561 14.6335C9.50088 14.6387 11.2909 14.6387 13.0862 14.6335C13.1434 14.6335 13.2007 14.6283 13.2631 14.6231C13.6222 14.5762 13.976 14.2952 13.9968 13.9414C14.0333 13.369 14.0072 12.7914 14.0072 12.2034C11.4314 12.2086 8.86603 12.2086 6.27461 12.2086ZM14.0124 11.5217C14.0177 11.4749 14.0281 11.4384 14.0281 11.402C14.0281 10.0491 14.0281 8.70131 14.0281 7.34836C14.0281 7.10899 13.924 7.01533 13.6742 7.01533C13.1018 7.01533 12.5294 7.01533 11.957 7.01533C11.6448 7.01533 11.5563 7.10379 11.5563 7.42121C11.5563 8.72213 11.5563 10.0178 11.5563 11.3188C11.5563 11.3864 11.5615 11.454 11.5667 11.5217C12.3941 11.5217 13.2007 11.5217 14.0124 11.5217ZM7.33615 16.3143C9.17305 16.3143 10.9839 16.3143 12.7896 16.3143C12.7896 15.9708 12.7896 15.643 12.7896 15.3256C12.7688 15.3152 12.7636 15.31 12.7584 15.31C11.1244 15.3048 9.49567 15.3048 7.86172 15.3048C7.81489 15.3048 7.74204 15.3568 7.72123 15.3984C7.59113 15.695 7.46625 15.9968 7.33615 16.3143ZM6.8262 3.43521C5.79587 3.68499 4.86442 3.47164 3.985 2.89924C3.90694 3.39879 4.04224 3.80988 4.37527 4.14291C4.78636 4.554 5.28591 4.6945 5.8375 4.50717C6.33705 4.33024 6.6857 3.99721 6.8262 3.43521ZM6.81059 2.74313C6.61285 2.17593 6.25379 1.81167 5.68139 1.70239C5.09858 1.59312 4.62505 1.80126 4.24518 2.26439C5.02573 2.82118 5.85832 3.01372 6.81059 2.74313ZM6.57122 9.47145C6.52959 9.02914 6.48796 8.60765 6.44633 8.18615C6.43072 8.18615 6.42031 8.18615 6.4047 8.18615C6.18094 8.60765 5.95719 9.02914 5.72302 9.47145C6.00922 9.47145 6.27461 9.47145 6.57122 9.47145ZM5.48365 12.1826C5.46804 12.1982 5.45243 12.219 5.43682 12.2346C5.47845 12.4792 5.51487 12.7237 5.5565 12.9683C5.59813 12.7394 5.60334 12.5156 5.59293 12.2918C5.59293 12.2502 5.52008 12.219 5.48365 12.1826Z" fill="#7C7C7C"/>
<path d="M16.3589 3.35726C16.3537 4.63215 15.3026 5.67809 14.0329 5.67288C12.7424 5.67288 11.6965 4.61134 11.7069 3.31042C11.7173 2.04073 12.7736 0.994797 14.0485 1.0052C15.3286 1.01041 16.3641 2.06675 16.3589 3.35726ZM15.6929 3.34685C15.6981 2.43101 14.9592 1.68168 14.0433 1.67127C13.1327 1.66086 12.3729 2.41019 12.3677 3.32083C12.3625 4.24708 13.1066 5.00161 14.0277 5.00682C14.9383 5.01202 15.6877 4.26269 15.6929 3.34685Z" fill="#7C7C7C"/>
<path d="M14.3609 2.99308C14.4806 3.00349 14.5794 2.99829 14.6731 3.0139C14.85 3.04512 14.9593 3.18041 14.9489 3.35734C14.9385 3.52386 14.8292 3.65395 14.6523 3.65915C14.4337 3.66956 14.21 3.67476 13.9914 3.65915C13.8093 3.64874 13.7 3.52386 13.6948 3.33652C13.6896 3.02951 13.6896 2.7277 13.6948 2.42068C13.7 2.22294 13.8457 2.08765 14.0279 2.08765C14.21 2.08765 14.3453 2.22815 14.3557 2.42588C14.3661 2.61322 14.3609 2.79534 14.3609 2.99308Z" fill="#7C7C7C"/>
</svg>
