<svg width="17" height="17" viewBox="0 0 17 17" fill="none" xmlns="http://www.w3.org/2000/svg">
<path d="M5.59584 0C5.89246 0.0531249 6.1935 0.0973956 6.49011 0.168229C7.17631 0.327603 8.01745 0.757029 8.42474 1.14218C5.98985 3.56379 3.55939 5.9854 1.11565 8.41586C1.09794 8.3893 1.04924 8.3406 1.0094 8.28305C-0.327579 6.48566 -0.34086 4.02864 0.996116 2.16484C1.89481 0.916404 3.1034 0.190364 4.6396 0.0265624C4.67059 0.0221354 4.70157 0.00885414 4.73256 0C5.02032 0 5.30808 0 5.59584 0Z" fill="black"/>
<path d="M12.3694 17C12.3694 13.5601 12.3694 10.1247 12.3694 6.64062C12.697 6.71589 13.0113 6.76901 13.3124 6.85755C15.4373 7.49062 16.8407 9.29244 16.9558 11.5104C16.9603 11.5945 16.9735 11.6742 16.9824 11.7539C16.9824 11.7982 16.9824 11.8424 16.9824 11.8867C16.9603 12.0948 16.9514 12.3028 16.9204 12.5109C16.6105 14.5961 15.4905 16.0304 13.4894 16.7388C13.1574 16.8539 12.8077 16.9159 12.4668 17C12.4358 17 12.4048 17 12.3694 17Z" fill="black"/>
<path d="M11.1076 17C10.7623 16.9114 10.4037 16.8583 10.0717 16.7255C8.13263 15.9685 6.99044 14.5562 6.65841 12.4976C6.61414 12.2143 6.62742 11.9265 6.61857 11.6388C6.61414 11.5502 6.62742 11.4617 6.63185 11.3909C8.90294 10.7578 10.4214 9.34113 11.2404 7.12317C11.2404 10.4346 11.2404 13.7151 11.2404 17C11.1962 17 11.1519 17 11.1076 17Z" fill="black"/>
<path d="M9.25288 1.979C10.8953 4.01546 10.8466 6.96831 8.71278 8.9782C6.60992 10.9615 3.7943 10.7667 1.95264 9.24383C4.3831 6.82222 6.81356 4.40504 9.25288 1.979Z" fill="black"/>
</svg>
