<svg width="18" height="18" viewBox="0 0 18 18" fill="none" xmlns="http://www.w3.org/2000/svg">
<path d="M1 11.7305C1.03906 11.457 1.07031 11.1797 1.11328 10.9062C1.19922 10.3555 1.35938 9.82422 1.5625 9.30469C1.62891 9.13281 1.70703 9.09375 1.89453 9.125C2.65625 9.26562 3.41797 9.42188 4.18359 9.53906C5.86328 9.79297 7.55078 9.88281 9.25 9.83984C10.4766 9.80859 11.6953 9.71094 12.9102 9.52734C13.5703 9.42969 14.2266 9.30469 14.9141 9.18359C14.8398 9.03125 14.7891 8.89844 14.7188 8.78125C14.3398 8.17188 13.9805 7.55078 13.5625 6.96875C13.1172 6.35156 13 5.70703 13.1133 4.96484C13.2852 3.83984 13.4023 2.71094 13.543 1.58203C13.5469 1.54297 13.5469 1.50391 13.5508 1.45312C10.1875 1.45312 6.82812 1.45312 3.45703 1.45312C3.50391 1.83984 3.55078 2.22266 3.59766 2.60547C3.71484 3.5625 3.83984 4.52344 3.94922 5.48047C3.99219 5.88281 3.89062 6.26953 3.67188 6.61328C3.44531 6.97266 3.19531 7.31641 2.96484 7.67188C2.77344 7.96484 2.58984 8.26562 2.40625 8.56641C2.31641 8.71484 2.20312 8.76562 2.08203 8.70312C1.95703 8.63672 1.92578 8.50391 2.02344 8.34766C2.36719 7.80859 2.6875 7.25391 3.07031 6.74219C3.46875 6.20703 3.55859 5.64844 3.46094 5.00391C3.28125 3.79688 3.14844 2.58594 3 1.375C2.99609 1.34766 2.99609 1.31641 2.99219 1.28906C2.97656 1.09375 3.05469 1.00391 3.24609 1C3.27344 1 3.30469 1 3.33203 1C6.77734 1 10.2266 1 13.6719 1C13.9844 1 14.043 1.0625 14.0078 1.375C13.8672 2.50781 13.7227 3.64062 13.582 4.77344C13.5508 5.01953 13.5156 5.26562 13.4961 5.51562C13.4727 5.87891 13.5859 6.20312 13.7852 6.50781C14.1953 7.12891 14.6289 7.74219 15 8.38672C15.7109 9.63281 16.0312 10.9883 16 12.4258C15.9844 13.0742 15.8555 13.7031 15.7266 14.3359C15.6328 14.793 15.5469 15.2539 15.4453 15.7109C15.4219 15.8125 15.3516 15.9023 15.3008 16C13.1523 16 11.0039 16 8.85547 16C8.71484 15.8906 8.70312 15.7578 8.77344 15.6016C8.85156 15.4297 8.91406 15.2539 8.98047 15.0938C8.66406 15.0938 8.34766 15.0938 8.03125 15.0938C8.09375 15.2539 8.16016 15.4297 8.23828 15.6016C8.30859 15.7578 8.29688 15.8906 8.15625 16C6.00781 16 3.85938 16 1.71094 16C1.66406 15.9297 1.59375 15.8633 1.57812 15.7852C1.42188 15.0312 1.26953 14.2812 1.125 13.5234C1.07031 13.2383 1.04297 12.9492 1.00781 12.6602C1 12.3555 1 12.043 1 11.7305ZM1.5625 10.8047C1.80078 10.8242 2.00391 10.832 2.20703 10.8594C4.48828 11.1758 6.26953 12.293 7.53125 14.2227C7.68359 14.457 7.87109 14.582 8.125 14.6445C8.41016 14.7148 8.69531 14.7031 8.97656 14.6172C9.17969 14.5547 9.33203 14.4492 9.44531 14.2578C9.86719 13.5625 10.4062 12.9688 11.0391 12.457C12.1133 11.5938 13.3281 11.0586 14.6953 10.8789C14.9297 10.8477 15.168 10.8281 15.4375 10.8008C15.3203 10.3906 15.207 9.99219 15.0898 9.58594C10.6875 10.5352 6.3125 10.5352 1.91016 9.58594C1.79297 9.98828 1.67969 10.3906 1.5625 10.8047ZM15.5273 11.2461C14 11.3008 12.6602 11.7734 11.4766 12.6719C10.4805 13.4297 9.74609 14.3906 9.26172 15.5625C11.1992 15.5625 13.1133 15.5625 15.0625 15.5625C15.2266 14.5742 15.4102 13.5859 15.5391 12.5898C15.5977 12.1562 15.5352 11.707 15.5273 11.2461ZM7.74219 15.5625C7.14063 14.1289 6.1875 13.0156 4.86328 12.2227C3.83203 11.6055 2.71484 11.2813 1.51562 11.25C1.25781 12.7461 1.71875 14.1406 1.96875 15.5625C3.89844 15.5625 5.80859 15.5625 7.74219 15.5625Z" fill="#D82149" stroke="#D82149" stroke-width="0.25"/>
<path d="M1 3.99615C1.14062 3.80084 1.25781 3.78912 1.42578 3.95709C1.55859 4.0899 1.69141 4.23052 1.82422 4.36724C1.85547 4.34381 1.87891 4.33209 1.89453 4.31646C2.12891 4.09381 2.18359 4.09381 2.41797 4.32818C2.57812 4.48834 2.73828 4.64459 2.89453 4.80474C3.01172 4.92584 3.02344 5.05865 2.92188 5.1524C2.82812 5.24224 2.69922 5.23052 2.58594 5.11724C2.44531 4.97662 2.30859 4.83209 2.16797 4.68756C2.14062 4.70709 2.12109 4.7149 2.10938 4.73052C1.85547 4.96881 1.81641 4.96881 1.56641 4.71881C1.375 4.52349 1.1875 4.33209 1 4.14459C1 4.09381 1 4.04693 1 3.99615Z" fill="#D82149" stroke="#D82149" stroke-width="0.25"/>
<path d="M1 6.72269C1.22266 6.49613 1.44141 6.26957 1.66797 6.04691C1.78516 5.92973 1.89453 5.92973 2.01172 6.04691C2.05469 6.08988 2.08984 6.14847 2.13672 6.21097C2.30859 6.03519 2.44531 5.89066 2.58594 5.75004C2.69922 5.63676 2.82812 5.62504 2.92188 5.71488C3.02344 5.80863 3.01562 5.94144 2.89453 6.06254C2.71875 6.24222 2.54297 6.4141 2.36719 6.58988C2.19922 6.75785 2.10547 6.75785 1.9375 6.58988C1.90625 6.55863 1.875 6.53129 1.82812 6.49222C1.69141 6.63285 1.55859 6.77347 1.42578 6.90629C1.25781 7.07426 1.14062 7.06254 1 6.86723C1 6.82035 1 6.76957 1 6.72269Z" fill="#D82149" stroke="#D82149" stroke-width="0.25"/>
<path d="M15.1445 4.39848C15.3164 4.22269 15.4531 4.07816 15.5938 3.93754C15.707 3.82426 15.8359 3.81254 15.9297 3.90238C16.0313 4.00004 16.0234 4.12504 15.9024 4.25004C15.7266 4.42582 15.5508 4.6016 15.375 4.77738C15.207 4.94535 15.1172 4.94535 14.9453 4.77738C14.918 4.75004 14.8906 4.72269 14.8281 4.6641C14.6992 4.80473 14.5742 4.94535 14.4453 5.08207C14.4102 5.12113 14.3672 5.1641 14.3203 5.18363C14.2227 5.2266 14.1289 5.21098 14.0586 5.12504C13.9883 5.0391 13.9844 4.93754 14.0586 4.85551C14.2695 4.63285 14.4883 4.4141 14.7109 4.20316C14.8008 4.11723 14.9102 4.12894 15 4.21098C15.0469 4.26176 15.0859 4.32035 15.1445 4.39848Z" fill="#D82149" stroke="#D82149" stroke-width="0.25"/>
<path d="M14.8359 6.1797C15.1835 5.89454 15.1835 5.89454 15.4882 6.19923C15.621 6.33204 15.7577 6.46876 15.8905 6.60158C16.0195 6.73439 16.0312 6.85939 15.9296 6.95705C15.832 7.0508 15.707 7.03517 15.582 6.91408C15.4452 6.77736 15.3085 6.63673 15.1718 6.4922C15.1366 6.51954 15.1132 6.53517 15.0937 6.5547C14.8788 6.76173 14.8085 6.76173 14.6015 6.5547C14.4374 6.39064 14.2695 6.22658 14.1054 6.05861C13.9843 5.93751 13.9765 5.80861 14.0741 5.71095C14.1679 5.62111 14.2968 5.63283 14.4101 5.7422C14.5546 5.88673 14.6913 6.03126 14.8359 6.1797Z" fill="#D82149" stroke="#D82149" stroke-width="0.25"/>
<path d="M9.15617 5.40625C9.15617 5.53906 9.08586 5.62891 8.96867 5.64453C8.84367 5.66016 8.74992 5.59375 8.72648 5.44922C8.70304 5.3125 8.65226 5.21484 8.49992 5.21484C8.34758 5.21484 8.3007 5.32031 8.27726 5.45312C8.25383 5.58984 8.15617 5.66016 8.03117 5.64062C7.91398 5.625 7.84758 5.53516 7.85148 5.39844C7.85929 5.05469 8.15617 4.76953 8.51164 4.76953C8.85539 4.77734 9.15226 5.06641 9.15617 5.40625Z" fill="#D82149" stroke="#D82149" stroke-width="0.25"/>
</svg>
