<svg width="32" height="32" viewBox="0 0 32 32" fill="none" xmlns="http://www.w3.org/2000/svg">
<rect width="32" height="32" rx="16" fill="white"/>
<path d="M8 18.7305C8.03906 18.457 8.07031 18.1797 8.11328 17.9062C8.19922 17.3555 8.35938 16.8242 8.5625 16.3047C8.62891 16.1328 8.70703 16.0938 8.89453 16.125C9.65625 16.2656 10.418 16.4219 11.1836 16.5391C12.8633 16.793 14.5508 16.8828 16.25 16.8398C17.4766 16.8086 18.6953 16.7109 19.9102 16.5273C20.5703 16.4297 21.2266 16.3047 21.9141 16.1836C21.8398 16.0312 21.7891 15.8984 21.7188 15.7812C21.3398 15.1719 20.9805 14.5508 20.5625 13.9688C20.1172 13.3516 20 12.707 20.1133 11.9648C20.2852 10.8398 20.4023 9.71094 20.543 8.58203C20.5469 8.54297 20.5469 8.50391 20.5508 8.45312C17.1875 8.45312 13.8281 8.45312 10.457 8.45312C10.5039 8.83984 10.5508 9.22266 10.5977 9.60547C10.7148 10.5625 10.8398 11.5234 10.9492 12.4805C10.9922 12.8828 10.8906 13.2695 10.6719 13.6133C10.4453 13.9727 10.1953 14.3164 9.96484 14.6719C9.77344 14.9648 9.58984 15.2656 9.40625 15.5664C9.31641 15.7148 9.20312 15.7656 9.08203 15.7031C8.95703 15.6367 8.92578 15.5039 9.02344 15.3477C9.36719 14.8086 9.6875 14.2539 10.0703 13.7422C10.4688 13.207 10.5586 12.6484 10.4609 12.0039C10.2812 10.7969 10.1484 9.58594 10 8.375C9.99609 8.34766 9.99609 8.31641 9.99219 8.28906C9.97656 8.09375 10.0547 8.00391 10.2461 8C10.2734 8 10.3047 8 10.332 8C13.7773 8 17.2266 8 20.6719 8C20.9844 8 21.043 8.0625 21.0078 8.375C20.8672 9.50781 20.7227 10.6406 20.582 11.7734C20.5508 12.0195 20.5156 12.2656 20.4961 12.5156C20.4727 12.8789 20.5859 13.2031 20.7852 13.5078C21.1953 14.1289 21.6289 14.7422 22 15.3867C22.7109 16.6328 23.0312 17.9883 23 19.4258C22.9844 20.0742 22.8555 20.7031 22.7266 21.3359C22.6328 21.793 22.5469 22.2539 22.4453 22.7109C22.4219 22.8125 22.3516 22.9023 22.3008 23C20.1523 23 18.0039 23 15.8555 23C15.7148 22.8906 15.7031 22.7578 15.7734 22.6016C15.8516 22.4297 15.9141 22.2539 15.9805 22.0938C15.6641 22.0938 15.3477 22.0938 15.0312 22.0938C15.0938 22.2539 15.1602 22.4297 15.2383 22.6016C15.3086 22.7578 15.2969 22.8906 15.1562 23C13.0078 23 10.8594 23 8.71094 23C8.66406 22.9297 8.59375 22.8633 8.57812 22.7852C8.42188 22.0312 8.26953 21.2812 8.125 20.5234C8.07031 20.2383 8.04297 19.9492 8.00781 19.6602C8 19.3555 8 19.043 8 18.7305ZM8.5625 17.8047C8.80078 17.8242 9.00391 17.832 9.20703 17.8594C11.4883 18.1758 13.2695 19.293 14.5312 21.2227C14.6836 21.457 14.8711 21.582 15.125 21.6445C15.4102 21.7148 15.6953 21.7031 15.9766 21.6172C16.1797 21.5547 16.332 21.4492 16.4453 21.2578C16.8672 20.5625 17.4062 19.9688 18.0391 19.457C19.1133 18.5938 20.3281 18.0586 21.6953 17.8789C21.9297 17.8477 22.168 17.8281 22.4375 17.8008C22.3203 17.3906 22.207 16.9922 22.0898 16.5859C17.6875 17.5352 13.3125 17.5352 8.91016 16.5859C8.79297 16.9883 8.67969 17.3906 8.5625 17.8047ZM22.5273 18.2461C21 18.3008 19.6602 18.7734 18.4766 19.6719C17.4805 20.4297 16.7461 21.3906 16.2617 22.5625C18.1992 22.5625 20.1133 22.5625 22.0625 22.5625C22.2266 21.5742 22.4102 20.5859 22.5391 19.5898C22.5977 19.1562 22.5352 18.707 22.5273 18.2461ZM14.7422 22.5625C14.1406 21.1289 13.1875 20.0156 11.8633 19.2227C10.832 18.6055 9.71484 18.2813 8.51562 18.25C8.25781 19.7461 8.71875 21.1406 8.96875 22.5625C10.8984 22.5625 12.8086 22.5625 14.7422 22.5625Z" fill="#D82149" stroke="#D82149" stroke-width="0.25"/>
<path d="M8 10.9961C8.14062 10.8008 8.25781 10.7891 8.42578 10.9571C8.55859 11.0899 8.69141 11.2305 8.82422 11.3672C8.85547 11.3438 8.87891 11.3321 8.89453 11.3165C9.12891 11.0938 9.18359 11.0938 9.41797 11.3282C9.57812 11.4883 9.73828 11.6446 9.89453 11.8047C10.0117 11.9258 10.0234 12.0586 9.92188 12.1524C9.82812 12.2422 9.69922 12.2305 9.58594 12.1172C9.44531 11.9766 9.30859 11.8321 9.16797 11.6876C9.14062 11.7071 9.12109 11.7149 9.10938 11.7305C8.85547 11.9688 8.81641 11.9688 8.56641 11.7188C8.375 11.5235 8.1875 11.3321 8 11.1446C8 11.0938 8 11.0469 8 10.9961Z" fill="#D82149" stroke="#D82149" stroke-width="0.25"/>
<path d="M8 13.7227C8.22266 13.4961 8.44141 13.2696 8.66797 13.0469C8.78516 12.9297 8.89453 12.9297 9.01172 13.0469C9.05469 13.0899 9.08984 13.1485 9.13672 13.211C9.30859 13.0352 9.44531 12.8907 9.58594 12.75C9.69922 12.6368 9.82812 12.625 9.92188 12.7149C10.0234 12.8086 10.0156 12.9414 9.89453 13.0625C9.71875 13.2422 9.54297 13.4141 9.36719 13.5899C9.19922 13.7578 9.10547 13.7578 8.9375 13.5899C8.90625 13.5586 8.875 13.5313 8.82812 13.4922C8.69141 13.6328 8.55859 13.7735 8.42578 13.9063C8.25781 14.0743 8.14062 14.0625 8 13.8672C8 13.8204 8 13.7696 8 13.7227Z" fill="#D82149" stroke="#D82149" stroke-width="0.25"/>
<path d="M22.1445 11.3985C22.3164 11.2227 22.4531 11.0782 22.5938 10.9375C22.707 10.8243 22.8359 10.8125 22.9297 10.9024C23.0313 11 23.0234 11.125 22.9024 11.25C22.7266 11.4258 22.5508 11.6016 22.375 11.7774C22.207 11.9454 22.1172 11.9454 21.9453 11.7774C21.918 11.75 21.8906 11.7227 21.8281 11.6641C21.6992 11.8047 21.5742 11.9454 21.4453 12.0821C21.4102 12.1211 21.3672 12.1641 21.3203 12.1836C21.2227 12.2266 21.1289 12.211 21.0586 12.125C20.9883 12.0391 20.9844 11.9375 21.0586 11.8555C21.2695 11.6329 21.4883 11.4141 21.7109 11.2032C21.8008 11.1172 21.9102 11.1289 22 11.211C22.0469 11.2618 22.0859 11.3204 22.1445 11.3985Z" fill="#D82149" stroke="#D82149" stroke-width="0.25"/>
<path d="M21.8359 13.1797C22.1835 12.8945 22.1835 12.8945 22.4882 13.1992C22.621 13.332 22.7577 13.4688 22.8905 13.6016C23.0195 13.7344 23.0312 13.8594 22.9296 13.957C22.832 14.0508 22.707 14.0352 22.582 13.9141C22.4452 13.7774 22.3085 13.6367 22.1718 13.4922C22.1366 13.5195 22.1132 13.5352 22.0937 13.5547C21.8788 13.7617 21.8085 13.7617 21.6015 13.5547C21.4374 13.3906 21.2695 13.2266 21.1054 13.0586C20.9843 12.9375 20.9765 12.8086 21.0741 12.711C21.1679 12.6211 21.2968 12.6328 21.4101 12.7422C21.5546 12.8867 21.6913 13.0313 21.8359 13.1797Z" fill="#D82149" stroke="#D82149" stroke-width="0.25"/>
<path d="M16.1562 12.4062C16.1562 12.5391 16.0859 12.6289 15.9687 12.6445C15.8437 12.6602 15.7499 12.5937 15.7265 12.4492C15.703 12.3125 15.6523 12.2148 15.4999 12.2148C15.3476 12.2148 15.3007 12.3203 15.2773 12.4531C15.2538 12.5898 15.1562 12.6602 15.0312 12.6406C14.914 12.625 14.8476 12.5352 14.8515 12.3984C14.8593 12.0547 15.1562 11.7695 15.5116 11.7695C15.8554 11.7773 16.1523 12.0664 16.1562 12.4062Z" fill="#D82149" stroke="#D82149" stroke-width="0.25"/>
</svg>
