<svg width="19" height="18" viewBox="0 0 19 18" fill="none" xmlns="http://www.w3.org/2000/svg">
<g clip-path="url(#clip0_226_980)">
<path d="M16.6409 2.53484C18.1103 2.82872 18.4777 4.62872 17.596 5.62056C17.3756 5.8777 17.1185 6.06138 16.8246 6.13484C16.7144 6.17158 16.6777 6.20831 16.6409 6.31852C16.4205 7.27362 15.392 7.82464 14.4736 7.45729C14.3634 7.42056 14.3266 7.42056 14.2164 7.49403C13.2613 8.33893 11.7552 8.15525 11.0573 7.08995C11.0573 7.05321 11.0205 7.05321 11.0205 7.01648C10.6164 7.20015 10.2124 7.27362 9.80828 7.20015C8.92665 7.05321 8.30216 6.31852 8.33889 5.47362C8.33889 5.43688 8.33889 5.40015 8.33889 5.36342C8.48583 5.06954 8.33889 4.88586 8.15522 4.66546C7.23685 3.56342 7.75114 1.80015 9.11032 1.46954C9.36746 1.4328 9.62461 1.46954 9.91848 1.46954C9.99195 1.46954 10.0287 1.50627 10.1022 1.50627C10.3593 0.587906 10.9471 0.110355 11.8654 0.000150471C12.7471 -0.0733189 13.445 0.294028 13.9226 1.10219C15.2083 0.000150505 16.8613 1.17566 16.6409 2.53484ZM12.7471 7.64097C13.4083 7.64097 13.7756 7.45729 14.1062 7.08995C14.2164 6.97974 14.3266 6.94301 14.4736 7.01648C14.6573 7.08995 14.8409 7.16342 14.9879 7.20015C15.6491 7.23689 16.2001 6.79607 16.2736 6.09811C16.3103 5.91444 16.3838 5.84097 16.5675 5.80423C16.7511 5.7675 16.9348 5.69403 17.0818 5.62056C17.596 5.25321 17.743 4.73893 17.6695 4.11444C17.5593 3.45321 17.1185 3.0124 16.5307 3.0124C16.2001 3.0124 16.1634 2.93893 16.2369 2.60831C16.3471 2.09403 16.1266 1.57974 15.6858 1.28586C15.245 1.02872 14.6573 1.06546 14.2532 1.4328C13.996 1.65321 13.7022 1.57974 13.5185 1.3226C13.1144 0.661375 12.4532 0.330763 11.6817 0.477701C11.0205 0.587906 10.5062 1.10219 10.4695 1.72668C10.4695 2.05729 10.3593 2.13076 10.0654 1.98382C9.80828 1.87362 9.5144 1.83689 9.22053 1.91035C8.59604 2.09403 8.26542 2.49811 8.11848 3.1226C7.97155 3.78382 8.19195 4.33484 8.74297 4.73893C8.88991 4.84913 8.96338 4.95933 8.85318 5.10627C8.59604 5.62056 8.74297 6.17158 9.18379 6.53893C9.66134 6.94301 10.3593 6.97974 10.9103 6.6124C11.094 6.50219 11.2409 6.50219 11.3144 6.68586C11.6083 7.38382 12.1593 7.60423 12.7471 7.64097Z" fill="#7C7C7C" stroke="#7C7C7C" stroke-width="0.25"/>
<path d="M2.42464 10.3961C2.20423 10.4328 2.13076 10.3226 2.09403 10.1022C2.02056 9.44098 2.02056 8.81649 2.2777 8.192C2.42464 7.78792 2.68178 7.49405 3.08586 7.34711C3.15933 7.31037 3.19607 7.27364 3.2328 7.20017C3.26954 7.16343 3.26954 7.08996 3.26954 7.05323C3.52668 6.39201 4.00423 6.02466 4.59199 6.02466C5.43688 6.02466 5.91443 6.31854 6.17158 7.05323C6.24505 7.2369 6.31852 7.34711 6.50219 7.42058C7.01648 7.64099 7.20015 8.11854 7.31035 8.63282C7.42056 9.14711 7.42056 9.66139 7.34709 10.1757C7.31035 10.3594 7.20015 10.4328 7.01648 10.3961C6.97974 10.6165 6.94301 10.8369 6.86954 11.0573C6.8328 11.1675 6.7226 11.2777 6.61239 11.3879C6.57566 11.4614 6.50219 11.4981 6.46546 11.5716C6.31852 11.8287 6.24505 12.0859 6.06137 12.3063C5.51035 13.1879 4.11444 13.2981 3.41648 12.49C3.19607 12.2328 3.08586 11.9389 2.90219 11.6818C2.86546 11.6083 2.75525 11.5716 2.68178 11.4981C2.60831 11.3879 2.49811 11.3145 2.46137 11.2043C2.49811 10.9104 2.46137 10.6532 2.42464 10.3961ZM6.64913 10.3961C6.64913 10.3961 6.61239 10.3961 6.61239 10.4328C6.53892 10.2859 6.42872 10.1757 6.39199 10.0287C6.28178 9.73486 6.24505 9.40425 6.17158 9.11037C6.13484 8.9267 6.06137 8.88996 5.8777 8.9267C5.17974 9.14711 4.51852 9.07364 3.85729 8.85323C3.56341 8.74303 3.52668 8.77976 3.45321 9.07364C3.34301 9.44099 3.26954 9.80833 3.04913 10.1022C2.90219 10.3226 2.90219 10.5063 2.93892 10.7634C2.93892 10.8369 2.93892 10.9104 2.97566 10.9838C2.97566 11.0206 3.01239 11.0573 3.01239 11.0573C3.2328 11.094 3.26954 11.2777 3.34301 11.4614C3.45321 11.6818 3.56341 11.9022 3.71035 12.1226C4.22464 12.8206 5.36341 12.7838 5.84097 12.0491C5.95117 11.8655 6.02464 11.6818 6.13484 11.4981C6.24505 11.3145 6.28178 11.094 6.50219 10.9838C6.53893 10.9838 6.53892 10.9104 6.53892 10.8736C6.57566 10.69 6.61239 10.543 6.64913 10.3961ZM2.57158 10.0655C2.64505 9.95527 2.71852 9.84507 2.75525 9.73486C2.86546 9.47772 2.93892 9.18384 3.01239 8.9267C3.15933 8.48588 3.41648 8.33894 3.89403 8.48588C4.51852 8.70629 5.14301 8.74303 5.7675 8.55935C6.13484 8.44915 6.42872 8.63282 6.53892 9.0369C6.57566 9.25731 6.64913 9.47772 6.68586 9.69813C6.7226 9.91854 6.8328 9.99201 7.01648 10.0287C7.01648 9.91854 7.05321 9.80833 7.05321 9.69813C7.05321 9.22058 7.05321 8.77976 6.86954 8.33894C6.75933 8.04507 6.57566 7.82466 6.24505 7.75119C6.02464 7.71445 5.95117 7.60425 5.91444 7.42058C5.73076 6.72262 5.43688 6.50221 4.73892 6.46547C4.29811 6.42874 4.04097 6.64915 3.85729 6.97976C3.78382 7.1267 3.71035 7.31037 3.67362 7.49405C3.63688 7.64098 3.56341 7.71445 3.41648 7.71445C3.04913 7.75119 2.82872 8.00833 2.71852 8.30221C2.46137 8.88996 2.46137 9.47772 2.57158 10.0655Z" fill="#7C7C7C" stroke="#7C7C7C" stroke-width="0.25"/>
<path d="M0 16.7511C0.0367347 16.3102 0.0367347 15.8327 0.146939 15.3919C0.367347 14.4368 1.02857 13.8123 1.94694 13.5184C2.27755 13.4082 2.60816 13.3347 2.93878 13.2245C3.23265 13.1511 3.52653 13.1511 3.78367 13.298C4.4449 13.6286 5.10612 13.6653 5.76735 13.298C6.02449 13.1511 6.31837 13.1511 6.57551 13.2245C6.94286 13.3347 7.27347 13.4449 7.64082 13.5551C8.74286 13.9225 9.44082 14.9143 9.47755 16.0531C9.47755 16.6041 9.47755 17.1551 9.47755 17.7429C9.47755 17.8898 9.44082 18 9.29388 18C9.1102 18 9.07347 17.8898 9.07347 17.7062C9.07347 17.1919 9.07347 16.6776 9.07347 16.1633C9.07347 15.0613 8.44898 14.2531 7.42041 13.9225C7.12653 13.8123 6.83265 13.7388 6.53878 13.6653C6.31837 13.5919 6.13469 13.5919 5.95102 13.7021C5.17959 14.1062 4.40816 14.1062 3.63673 13.7021C3.45306 13.5919 3.23265 13.5919 3.04898 13.6653C2.6449 13.8123 2.20408 13.8858 1.83673 14.0694C0.991837 14.4368 0.55102 15.1347 0.514286 16.0531C0.477551 16.5674 0.514286 17.1184 0.514286 17.6327C0.514286 17.6694 0.514286 17.7429 0.514286 17.7796C0.514286 17.9266 0.440816 18 0.293878 18C0.146939 18 0.110204 17.8898 0.110204 17.7796C0.110204 17.449 0.110204 17.1184 0.110204 16.7878C0.0367347 16.7511 0 16.7511 0 16.7511Z" fill="#7C7C7C" stroke="#7C7C7C" stroke-width="0.25"/>
<path d="M10.2491 8.302C10.6165 8.302 10.9103 8.59588 10.9103 8.96323C10.9103 9.33057 10.6165 9.62445 10.2491 9.62445C9.88177 9.62445 9.58789 9.33057 9.58789 8.96323C9.58789 8.59588 9.88177 8.302 10.2491 8.302ZM10.2491 8.70608C10.1022 8.70608 9.99197 8.81629 9.99197 8.96323C9.99197 9.11016 10.1022 9.22037 10.2491 9.22037C10.3961 9.22037 10.5063 9.11016 10.5063 8.96323C10.543 8.85302 10.3961 8.70608 10.2491 8.70608Z" fill="#7C7C7C" stroke="#7C7C7C" stroke-width="0.25"/>
<path d="M8.88987 10.947C8.59599 10.947 8.33884 10.6531 8.37558 10.3593C8.41231 10.0654 8.63272 9.84497 8.9266 9.84497C9.22048 9.84497 9.47762 10.1388 9.47762 10.4327C9.44089 10.7266 9.18374 10.9837 8.88987 10.947ZM9.11027 10.4327C9.0368 10.3593 8.96333 10.2858 8.9266 10.2858C8.88987 10.2858 8.8164 10.3593 8.77966 10.396C8.77966 10.4327 8.85313 10.5062 8.88987 10.5062C8.9266 10.5429 9.00007 10.4695 9.11027 10.4327Z" fill="#7C7C7C" stroke="#7C7C7C" stroke-width="0.25"/>
<path d="M2.02029 17.0081C2.02029 17.2285 2.02029 17.4856 2.02029 17.706C2.02029 17.853 2.02029 17.9999 1.83662 17.9999C1.65295 17.9999 1.61621 17.853 1.61621 17.706C1.61621 17.2285 1.61621 16.7509 1.61621 16.2366C1.61621 16.0897 1.65295 15.9795 1.79988 15.9795C1.98356 15.9795 2.02029 16.0897 2.02029 16.2734C2.02029 16.4938 2.02029 16.7509 2.02029 17.0081Z" fill="#7C7C7C" stroke="#7C7C7C" stroke-width="0.25"/>
<path d="M8.04495 16.9714C8.04495 17.2286 8.04495 17.4857 8.04495 17.7061C8.04495 17.8531 8.00822 17.9633 7.82454 17.9633C7.6776 17.9633 7.64087 17.8531 7.64087 17.7061C7.64087 17.1919 7.64087 16.7143 7.64087 16.2C7.64087 16.0531 7.71434 15.9429 7.86128 15.9429C8.00822 15.9429 8.04495 16.0531 8.04495 16.2C8.00822 16.4939 8.04495 16.751 8.04495 16.9714Z" fill="#7C7C7C" stroke="#7C7C7C" stroke-width="0.25"/>
<path d="M12.6734 1.61646C13.2244 1.72666 13.9224 1.80013 14.5469 2.09401C15.355 2.46135 15.7959 3.41645 15.6122 4.29809C15.5755 4.55523 15.502 4.59197 15.2448 4.55523C13.7387 4.18788 12.2326 3.85727 10.7265 3.48992C10.5061 3.45319 10.4326 3.34299 10.5061 3.12258C10.7999 2.20421 11.6081 1.61646 12.6734 1.61646ZM15.2081 4.11441C15.3183 3.34299 14.804 2.57156 14.0693 2.35115C13.6652 2.24094 13.2244 2.13074 12.8204 2.05727C12.1224 1.91033 11.3877 2.27768 11.0571 2.90217C11.0204 2.97564 11.0204 3.01237 10.9836 3.08584C12.4163 3.41645 13.8122 3.74707 15.2081 4.11441Z" fill="#7C7C7C" stroke="#7C7C7C" stroke-width="0.25"/>
<path d="M14.9878 5.25321C14.5103 5.14301 14.0327 5.0328 13.5552 4.9226C13.4082 4.88586 13.2245 4.84913 13.0776 4.81239C12.9307 4.77566 12.8939 4.70219 12.9307 4.55525C12.9674 4.40831 13.0776 4.37158 13.1878 4.40831C13.8858 4.59199 14.5837 4.73892 15.245 4.9226C15.3919 4.95933 15.4654 5.0328 15.4286 5.17974C15.3552 5.62056 15.1715 6.06137 14.8041 6.35525C14.4368 6.64913 13.996 6.75933 13.5184 6.64913C12.7837 6.46545 12.049 6.31852 11.3143 6.13484C10.4694 5.91443 9.99189 5.17974 10.1756 4.33484C10.2123 4.22464 10.2123 4.11443 10.249 4.00423C10.2858 3.85729 10.3592 3.82056 10.5062 3.82056C10.6531 3.85729 10.6531 3.9675 10.6531 4.0777C10.6164 4.33484 10.5796 4.59199 10.5796 4.81239C10.6531 5.25321 10.9103 5.54709 11.3878 5.65729C12.1225 5.84096 12.8939 6.02464 13.6286 6.20831C14.3266 6.35525 14.9143 5.91443 14.9878 5.25321Z" fill="#7C7C7C" stroke="#7C7C7C" stroke-width="0.25"/>
<path d="M11.4979 4.2612C11.4244 4.51834 11.3877 4.70202 11.3142 4.88569C11.2775 4.95916 11.1673 4.9959 11.0571 4.9959C10.9836 4.9959 10.9102 4.84896 10.9102 4.77549C10.9469 4.59181 10.9836 4.40814 11.0571 4.22447C11.0938 4.151 11.204 4.07753 11.2775 4.11426C11.3877 4.11426 11.4612 4.22447 11.4979 4.2612Z" fill="#7C7C7C" stroke="#7C7C7C" stroke-width="0.25"/>
<path d="M12.1592 4.40817C12.1225 4.55511 12.1225 4.70205 12.049 4.81226C12.0123 4.88573 11.902 4.95919 11.8286 4.92246C11.7551 4.88573 11.6816 4.77552 11.6816 4.70205C11.6816 4.59185 11.7184 4.44491 11.7551 4.37144C11.7918 4.29797 11.902 4.2245 11.9755 4.26124C12.049 4.26124 12.1225 4.37144 12.1592 4.40817Z" fill="#7C7C7C" stroke="#7C7C7C" stroke-width="0.25"/>
</g>
<defs>
<clipPath id="clip0_226_980">
<rect width="18.0735" height="18" fill="white"/>
</clipPath>
</defs>
</svg>
