<svg width="18" height="18" viewBox="0 0 18 18" fill="none" xmlns="http://www.w3.org/2000/svg">
<path d="M1 8.99573C1 4.584 4.58827 1 9 1C13.4203 1 17.0043 4.58827 17 9.0128C16.9957 13.4245 13.4075 17.0043 8.99146 17C4.57973 16.9957 1 13.4117 1 8.99573ZM9.68693 12.2597C9.05973 12.3835 8.47093 12.3237 7.89493 12.0933C7.3232 11.8672 6.66187 11.3253 6.5296 10.9797C6.74293 11.0352 6.952 11.0907 7.17813 11.1461C7.28053 10.7664 7.37866 10.3995 7.4768 10.024C6.61493 9.7936 5.7744 9.56746 4.9168 9.33706C4.6864 10.1947 4.46027 11.0395 4.22987 11.8971C4.60533 11.9995 4.97653 12.0976 5.352 12.1957C5.40747 11.9995 5.45867 11.816 5.5184 11.6155C6.75573 13.3435 8.70986 13.6891 9.92586 13.3776C9.84906 13.0149 9.768 12.648 9.68693 12.2597ZM11.8544 10.5701C11.7861 10.3227 11.7179 10.0709 11.6453 9.81066C11.2656 9.91306 10.9029 10.0112 10.5232 10.1093C10.7536 10.9712 10.9797 11.816 11.2101 12.6693C12.072 12.4389 12.9168 12.2085 13.7701 11.9824C13.6677 11.5984 13.5696 11.2357 13.4715 10.8645C13.3051 10.9072 13.1515 10.9456 12.968 10.9883C13.3307 10.1904 13.4416 9.384 13.3179 8.54773C13.1941 7.71146 12.8485 6.9776 12.2853 6.33333C11.9909 6.59787 11.7093 6.85387 11.4277 7.1056C12.2683 8.1936 12.4261 9.3328 11.8544 10.5701ZM8.1296 6.55947C8.42827 6.85813 8.69706 7.12693 8.94453 7.3744C9.55466 6.76427 10.1733 6.1456 10.7835 5.53547C10.1776 4.9296 9.5632 4.31093 8.95306 3.7008C8.68853 3.96533 8.41973 4.23413 8.10826 4.5456C8.24053 4.66507 8.3856 4.7888 8.5264 4.9168C6.81546 5.2112 5.6464 6.15413 4.99787 7.77973C5.38187 7.90773 5.74027 8.03146 6.09867 8.1552C6.56373 7.00746 7.3872 6.3248 8.5776 6.0944C8.5904 6.1072 8.6032 6.12 8.616 6.1328C8.45386 6.28213 8.28747 6.4272 8.1296 6.55947Z" fill="#D82149"/>
</svg>
