<svg width="18" height="18" viewBox="0 0 18 18" fill="none" xmlns="http://www.w3.org/2000/svg">
<path d="M9 16.5C13.1421 16.5 16.5 13.1421 16.5 9C16.5 4.85786 13.1421 1.5 9 1.5C4.85786 1.5 1.5 4.85786 1.5 9C1.5 13.1421 4.85786 16.5 9 16.5Z" stroke="#7C7C7C" stroke-linecap="round" stroke-linejoin="round"/>
<path d="M5.99976 11.25C6.34906 11.7157 6.802 12.0937 7.3227 12.3541C7.84341 12.6145 8.41759 12.75 8.99976 12.75C9.58192 12.75 10.1561 12.6145 10.6768 12.3541C11.1975 12.0937 11.6505 11.7157 11.9998 11.25M11.2498 6C11.2498 6 10.4998 6.75 10.4998 7.5C11.0623 6.75 12.1873 6.75 12.7498 7.5M6.74976 6C6.74976 6 7.49976 6.75 7.49976 7.5C6.93726 6.75 5.81226 6.75 5.24976 7.5" stroke="#7C7C7C" stroke-linecap="round" stroke-linejoin="round"/>
</svg>
