<svg width="18" height="18" viewBox="0 0 18 18" fill="none" xmlns="http://www.w3.org/2000/svg">
<g clip-path="url(#clip0_226_964)">
<path d="M7.78133 18.0001C7.72508 17.9813 7.67352 17.9579 7.61727 17.9438C7.11102 17.7798 6.76415 17.3345 6.75946 16.8001C6.75008 15.9516 6.75477 15.1032 6.75946 14.2501C6.75946 14.0907 6.80633 13.9313 6.83915 13.7485C6.62352 13.7485 6.39852 13.7485 6.17821 13.7485C5.1704 13.7391 4.33602 13.097 4.11571 12.1173C3.91883 11.2641 4.19071 10.547 4.85633 9.98446C4.89383 9.95165 4.93602 9.91883 4.97821 9.88602C3.72665 8.98133 3.76883 7.2329 4.97821 6.36102C4.9454 6.32821 4.91258 6.30009 4.87508 6.27196C4.15321 5.70946 3.87196 4.77196 4.16258 3.92352C4.4579 3.06102 5.25477 2.49384 6.16884 2.48915C6.87665 2.48915 7.58446 2.48915 8.29696 2.48915C8.36258 2.48915 8.42352 2.48915 8.51727 2.48915C8.51727 2.37196 8.51727 2.25946 8.51727 2.15165C8.51727 1.84227 8.51258 1.52821 8.51727 1.21884C8.52665 0.543836 9.05633 0.00477305 9.71727 -0.00460195C10.3923 -0.0186644 10.9595 0.496961 10.9735 1.17665C10.9923 2.03915 10.9829 2.89696 10.9735 3.75946C10.9735 3.91415 10.9173 4.06884 10.8845 4.24227C11.2032 4.24227 11.522 4.23759 11.8407 4.24227C12.6891 4.25634 13.4626 4.80477 13.7626 5.59696C14.0907 6.47352 13.8329 7.41571 13.1063 8.00165C13.0688 8.03446 13.0266 8.06727 12.9751 8.10946C13.5657 8.55477 13.9032 9.12665 13.9032 9.86259C13.9032 10.6032 13.5751 11.1751 12.9798 11.6251C13.022 11.6626 13.0595 11.6954 13.097 11.7282C13.8141 12.2954 14.086 13.2329 13.7907 14.0813C13.4907 14.9345 12.7032 15.497 11.7891 15.497C11.0063 15.497 10.2188 15.497 9.43602 15.497C9.37508 15.497 9.30946 15.497 9.22508 15.497C9.22508 15.8907 9.22977 16.2704 9.22508 16.6501C9.2204 16.7954 9.21571 16.9454 9.17352 17.086C9.04696 17.5313 8.75165 17.8173 8.30633 17.9532C8.26415 17.9673 8.21727 17.9813 8.17508 17.9954C8.03915 18.0001 7.91258 18.0001 7.78133 18.0001ZM9.04227 11.2876C9.96571 11.2876 10.8938 11.2923 11.8173 11.2829C12.6938 11.2735 13.3407 10.4626 13.1673 9.60477C13.0313 8.92977 12.4688 8.47509 11.7563 8.4704C9.91884 8.46571 8.07665 8.4704 6.23915 8.4704C5.96727 8.4704 5.8079 8.33446 5.81258 8.11415C5.81727 7.89852 5.97196 7.76727 6.23446 7.76727C6.8204 7.76727 7.40633 7.76727 7.99227 7.76727C9.2579 7.76727 10.5235 7.77196 11.7891 7.76727C12.6001 7.76259 13.2188 7.1204 13.2001 6.30946C13.1813 5.55477 12.5579 4.95946 11.7751 4.95477C9.94696 4.95009 8.11883 4.95477 6.29071 4.95009C6.20633 4.95009 6.11258 4.9454 6.0329 4.91727C5.8829 4.86571 5.79852 4.71102 5.81727 4.55165C5.83602 4.39696 5.9579 4.2704 6.11727 4.25165C6.17352 4.24227 6.23446 4.24696 6.29071 4.24696C7.4204 4.24696 8.55009 4.24696 9.68446 4.24696C10.0595 4.24696 10.2751 4.03134 10.2751 3.65634C10.2751 2.85946 10.2798 2.06259 10.2751 1.26571C10.2751 0.932898 10.0407 0.693835 9.73602 0.698523C9.43602 0.703211 9.22508 0.937586 9.2204 1.2704C9.2204 1.7579 9.2204 2.24071 9.2204 2.72821C9.2204 3.0704 9.09383 3.19227 8.75165 3.19227C7.88446 3.19227 7.01727 3.18759 6.15008 3.19696C5.5829 3.20165 5.16102 3.47352 4.9079 3.97509C4.43915 4.89852 5.10477 5.99071 6.15008 6.00477C7.1204 6.01884 8.0954 6.00946 9.06571 6.00946C9.44071 6.00946 9.81571 6.00477 10.1907 6.00946C10.411 6.00946 10.5563 6.15008 10.561 6.34696C10.5657 6.55321 10.4157 6.69852 10.1907 6.7079C10.1391 6.71259 10.0876 6.7079 10.0313 6.7079C8.73758 6.7079 7.44384 6.70321 6.1454 6.7079C5.3579 6.71259 4.74852 7.3454 4.75321 8.12821C4.7579 8.90165 5.38133 9.51571 6.17821 9.5204C8.02508 9.52509 9.86727 9.5204 11.7141 9.5204C11.9813 9.5204 12.1454 9.65634 12.1407 9.88134C12.136 10.097 11.9813 10.2235 11.7188 10.2235C11.1282 10.2235 10.5376 10.2235 9.94227 10.2235C8.67665 10.2235 7.41102 10.2188 6.1454 10.2282C5.23602 10.2376 4.58446 11.0766 4.79071 11.9626C4.94071 12.6001 5.50321 13.036 6.19696 13.036C8.01102 13.0407 9.82977 13.036 11.6438 13.036C11.7095 13.036 11.7751 13.0313 11.836 13.0407C12.0141 13.0688 12.1407 13.2235 12.136 13.397C12.1313 13.5751 12.0001 13.7157 11.8173 13.7345C11.761 13.7391 11.7001 13.7391 11.6438 13.7391C10.4438 13.7391 9.24383 13.7391 8.03915 13.7391C7.67352 13.7391 7.4579 13.9501 7.4579 14.3157C7.4579 15.1173 7.4579 15.9188 7.4579 16.7251C7.4579 16.8001 7.46727 16.8798 7.49071 16.9501C7.57977 17.1891 7.82352 17.3298 8.06258 17.2876C8.31571 17.2454 8.50321 17.0298 8.5079 16.7532C8.51258 16.2657 8.5079 15.7829 8.5079 15.2954C8.5079 14.911 8.61102 14.8032 8.9954 14.8032C9.94227 14.8032 10.8938 14.8126 11.8407 14.7985C12.6751 14.7891 13.322 13.9782 13.1673 13.1626C13.0313 12.4548 12.4735 11.9907 11.7329 11.9907C9.92352 11.986 8.11415 11.9907 6.30008 11.9907C6.24383 11.9907 6.1829 11.9954 6.12665 11.9907C5.94383 11.972 5.8079 11.836 5.80321 11.6579C5.79383 11.4798 5.91571 11.3298 6.09852 11.297C6.15477 11.2876 6.21571 11.2923 6.27196 11.2923C7.20008 11.2876 8.12352 11.2876 9.04227 11.2876Z" fill="#7C7C7C"/>
<path d="M16.397 5.84528C16.547 5.69997 16.7017 5.56403 16.847 5.4234C17.0298 5.24528 17.2361 5.22653 17.3861 5.37184C17.5361 5.51715 17.522 5.73278 17.3486 5.91559C17.1751 6.0984 16.997 6.27653 16.8236 6.45934C16.5095 6.78278 16.4298 6.78747 16.0689 6.51559C15.947 6.63278 15.8251 6.75465 15.6986 6.87653C15.5298 7.04059 15.3142 7.05465 15.1689 6.91403C15.0189 6.76403 15.0282 6.56715 15.197 6.38434C15.3657 6.20622 15.5392 6.02809 15.7079 5.85466C15.947 5.61091 16.0829 5.60153 16.3548 5.82184C16.3736 5.83122 16.3923 5.84059 16.397 5.84528Z" fill="#7C7C7C"/>
<path d="M1.88455 6.51097C1.84236 6.54847 1.80017 6.58128 1.75799 6.6141C1.58455 6.74535 1.42049 6.74535 1.2658 6.59535C1.02674 6.36097 0.79705 6.12191 0.567362 5.87816C0.42205 5.72347 0.426737 5.50785 0.57205 5.3766C0.717362 5.24066 0.914237 5.24535 1.07361 5.39535C1.23299 5.54535 1.38767 5.69066 1.55642 5.85003C1.54236 5.85472 1.55642 5.85472 1.5658 5.84535C1.89392 5.58285 1.99705 5.59222 2.28767 5.89691C2.44705 6.06097 2.60643 6.22503 2.76111 6.3891C2.92517 6.56722 2.92986 6.77347 2.77049 6.91878C2.62517 7.05472 2.41892 7.03597 2.25486 6.8766C2.13767 6.75472 2.0158 6.63753 1.88455 6.51097Z" fill="#7C7C7C"/>
<path d="M1.41101 11.8077C1.37351 11.2452 1.37351 11.2452 1.9032 11.0484C2.07195 10.9874 2.2407 10.9171 2.41414 10.8609C2.6157 10.7952 2.79851 10.8796 2.86882 11.0718C2.93445 11.2499 2.85007 11.4281 2.65789 11.5124C2.57351 11.5499 2.48445 11.5781 2.39539 11.6109C2.31101 11.6437 2.22195 11.6765 2.1282 11.7187C2.13757 11.8077 2.15164 11.8921 2.16101 11.9765C2.17976 12.164 2.10007 12.2952 1.92664 12.3609C1.62664 12.4781 1.32664 12.5906 1.02195 12.6984C0.829761 12.764 0.646949 12.6796 0.571949 12.5015C0.496949 12.314 0.576636 12.1265 0.778199 12.0421C0.984449 11.9624 1.19539 11.8874 1.41101 11.8077Z" fill="#7C7C7C"/>
<path d="M15.8345 11.7188C15.6611 11.6531 15.497 11.5922 15.333 11.5313C15.1127 11.4422 15.0189 11.2688 15.0845 11.0766C15.1548 10.875 15.3423 10.7906 15.5673 10.8703C15.797 10.95 16.0267 11.0391 16.2564 11.1281C16.547 11.2406 16.6127 11.3578 16.5564 11.6672C16.547 11.7047 16.5423 11.7469 16.533 11.8031C16.7298 11.8781 16.9267 11.9531 17.1189 12.0281C17.3627 12.1219 17.4564 12.3 17.3767 12.5063C17.3017 12.7031 17.1048 12.7734 16.8658 12.6844C16.6173 12.5953 16.3736 12.4969 16.1298 12.4078C15.8158 12.2906 15.7502 12.1781 15.8111 11.85C15.8158 11.8078 15.8205 11.775 15.8345 11.7188Z" fill="#7C7C7C"/>
<path d="M1.03609 9.02336C1.23765 8.51242 1.24234 8.50774 1.79078 8.60149C1.96422 8.62961 2.13765 8.65305 2.31109 8.68586C2.55015 8.72805 2.6814 8.88742 2.64859 9.09367C2.62047 9.29992 2.44703 9.41243 2.20328 9.37961C2.0439 9.36086 1.88453 9.32805 1.73922 9.30461C1.71578 9.31867 1.7064 9.32336 1.7064 9.32805C1.51422 9.81086 1.50953 9.81555 0.984528 9.73117C0.768903 9.69836 0.557966 9.66086 0.347028 9.62336C0.103278 9.58117 -0.0232846 9.43117 0.00484044 9.22024C0.0282779 9.0093 0.197028 8.8968 0.440778 8.92492C0.637653 8.95305 0.829841 8.99055 1.03609 9.02336Z" fill="#7C7C7C"/>
<path d="M16.2421 9.30464C16.0546 9.33277 15.8859 9.36558 15.7124 9.38433C15.5062 9.40777 15.3515 9.29996 15.3093 9.12652C15.2624 8.92964 15.3796 8.73746 15.5953 8.69527C15.8812 8.63902 16.1718 8.59214 16.4578 8.54996C16.6218 8.52652 16.7671 8.62027 16.8281 8.77964C16.8562 8.85464 16.8749 8.93433 16.9031 9.01871C17.1187 8.98589 17.3249 8.95308 17.5312 8.92027C17.6812 8.89683 17.8078 8.93902 17.8968 9.07027C18.0281 9.26246 17.9343 9.53902 17.7046 9.59058C17.3624 9.66558 17.0156 9.71714 16.6687 9.76402C16.4906 9.78746 16.3687 9.68902 16.3078 9.52027C16.289 9.46402 16.2703 9.39371 16.2421 9.30464Z" fill="#7C7C7C"/>
<path d="M12.1407 6.35152C12.1454 6.54839 11.986 6.71246 11.7892 6.71246C11.6017 6.71246 11.4423 6.55308 11.4376 6.37027C11.4329 6.17808 11.597 6.01402 11.7892 6.01402C11.986 6.00933 12.136 6.16402 12.1407 6.35152Z" fill="#7C7C7C"/>
</g>
<defs>
<clipPath id="clip0_226_964">
<rect width="17.9578" height="18" fill="white"/>
</clipPath>
</defs>
</svg>
