<svg width="29" height="38" viewBox="0 0 29 38" fill="none" xmlns="http://www.w3.org/2000/svg">
<path d="M2.10044 1.07094C2.65782 2.04382 2.88077 3.11804 2.93144 4.22267C3.01252 6.00628 2.61728 7.71896 1.9991 9.37083C1.614 10.3944 1.17823 11.3977 0.833667 12.4313C0.144543 14.519 -0.230423 16.6573 0.154676 18.8665C0.580312 21.2481 1.81668 23.0722 4.0158 24.116C6.69122 25.3828 9.39704 25.2612 12.0117 23.9235C14.3729 22.7175 15.7816 20.7718 16.0349 18.1065C16.268 15.5831 15.5383 13.2928 14.1905 11.1848C13.0149 9.33029 11.4543 7.8203 9.79228 6.41165C7.42088 4.40508 4.8164 2.70254 2.19165 1.05067C2.16125 1.0304 2.12071 1.02027 2.08017 1C2.0903 1.04054 2.09031 1.05067 2.10044 1.07094ZM12.5082 11.9956C13.2278 12.9989 13.6635 14.0934 13.8257 15.2892C14.0689 17.012 13.6433 18.5929 12.7109 20.0725C12.5893 19.9914 12.4778 19.9205 12.336 19.8394C13.0656 18.6639 13.4913 17.4072 13.4406 16.029C13.3899 14.6609 12.9541 13.4144 12.1637 12.2591C12.2751 12.178 12.3765 12.0969 12.5082 11.9956Z" fill="url(#paint0_linear_115_2875)"/>
<path d="M20.4873 19C21.2455 19.6178 22.0038 20.2357 22.748 20.8676C24.2786 22.1875 25.7249 23.5917 26.8061 25.3188C27.5924 26.5545 28.0137 27.9166 27.9997 29.377C27.9856 31.5675 26.7499 33.2806 24.6577 33.8984C22.6076 34.4882 20.7119 34.1933 19.1673 32.6206C18.1563 31.5956 17.9035 30.2897 18.0299 28.8995C18.1563 27.5234 18.6337 26.2737 19.2797 25.0661C19.8273 24.0551 20.3468 23.0581 20.5575 21.9207C20.754 20.9518 20.7681 19.997 20.417 19.0562C20.4451 19.0281 20.4732 19.014 20.4873 19Z" fill="url(#paint1_linear_115_2875)"/>
<path d="M21.4873 0C22.2455 0.617843 23.0038 1.23569 23.748 1.86757C25.2786 3.18751 26.7249 4.5917 27.8061 6.31885C28.5924 7.55453 29.0137 8.9166 28.9997 10.377C28.9856 12.5675 27.7499 14.2806 25.6577 14.8984C23.6076 15.4882 21.7119 15.1933 20.1673 13.6206C19.1563 12.5956 18.9035 11.2897 19.0299 9.89953C19.1563 8.52342 19.6337 7.2737 20.2797 6.06609C20.8273 5.05508 21.3468 4.05811 21.5575 2.92071C21.754 1.95182 21.7681 0.996977 21.417 0.056171C21.4451 0.0280872 21.4732 0.0140419 21.4873 0Z" fill="url(#paint2_linear_115_2875)"/>
<path d="M9.74113 28C10.2719 28.407 10.8027 28.814 11.3236 29.2303C12.395 30.0998 13.4074 31.0248 14.1643 32.1626C14.7147 32.9766 15.0096 33.8738 14.9998 34.8359C14.9899 36.2789 14.125 37.4074 12.6604 37.8144C11.2253 38.2029 9.8984 38.0087 8.81718 36.9726C8.10948 36.2974 7.93256 35.4371 8.02102 34.5214C8.10948 33.6148 8.44368 32.7916 8.89582 31.9961C9.27916 31.3301 9.64284 30.6733 9.79028 29.924C9.92789 29.2858 9.93772 28.6568 9.69199 28.037C9.71164 28.0185 9.7313 28.0093 9.74113 28Z" fill="url(#paint3_linear_115_2875)"/>
<defs>
<linearGradient id="paint0_linear_115_2875" x1="8.03901" y1="1" x2="8.03901" y2="25" gradientUnits="userSpaceOnUse">
<stop stop-color="#FF727B"/>
<stop offset="1" stop-color="#FF3446"/>
</linearGradient>
<linearGradient id="paint1_linear_115_2875" x1="22.9999" y1="19" x2="22.9999" y2="34.1802" gradientUnits="userSpaceOnUse">
<stop stop-color="#FF727B"/>
<stop offset="1" stop-color="#FF3446"/>
</linearGradient>
<linearGradient id="paint2_linear_115_2875" x1="23.9999" y1="0" x2="23.9999" y2="15.1802" gradientUnits="userSpaceOnUse">
<stop stop-color="#FF727B"/>
<stop offset="1" stop-color="#FF3446"/>
</linearGradient>
<linearGradient id="paint3_linear_115_2875" x1="11.5" y1="28" x2="11.5" y2="38" gradientUnits="userSpaceOnUse">
<stop stop-color="#FF727B"/>
<stop offset="1" stop-color="#FF3446"/>
</linearGradient>
</defs>
</svg>
