<svg width="18" height="18" viewBox="0 0 18 18" fill="none" xmlns="http://www.w3.org/2000/svg">
<g clip-path="url(#clip0_229_1150)">
<path d="M14.6248 12.4831C14.6248 13.8258 14.0914 15.1135 13.142 16.0629C12.1926 17.0123 10.9049 17.5456 9.56226 17.5456C8.2196 17.5456 6.93193 17.0123 5.98253 16.0629C5.03312 15.1135 4.49976 13.8258 4.49976 12.4831C4.49976 8.83065 7.83576 3.32415 9.09126 1.38315C9.14176 1.30402 9.21138 1.23889 9.2937 1.19377C9.37602 1.14865 9.46838 1.125 9.56226 1.125C9.65613 1.125 9.74849 1.14865 9.83081 1.19377C9.91313 1.23889 9.98275 1.30402 10.0333 1.38315C11.2888 3.32415 14.6248 8.83065 14.6248 12.4831Z" stroke="#7C7C7C" stroke-linecap="round" stroke-linejoin="round"/>
<path d="M9.56274 15.2981C9.19321 15.2981 8.8273 15.2253 8.48593 15.0838C8.14455 14.9424 7.83441 14.735 7.57321 14.4736C7.31202 14.2122 7.1049 13.9019 6.96369 13.5604C6.82248 13.2189 6.74995 12.8529 6.75025 12.4834" stroke="#7C7C7C" stroke-linecap="round" stroke-linejoin="round"/>
</g>
<defs>
<clipPath id="clip0_229_1150">
<rect width="18" height="18" fill="white"/>
</clipPath>
</defs>
</svg>
