<svg width="36" height="46" viewBox="0 0 36 46" fill="none" xmlns="http://www.w3.org/2000/svg">
<path d="M1.42458 0.262939H33.9436ZM1.42458 0.262939H0.263184ZM1.42458 0.262939L3.74737 22.8996ZM33.9436 0.262939H35.105ZM33.9436 0.262939L31.6208 22.8996ZM3.74737 22.8996L5.56147 40.5788C5.7019 41.9477 6.24798 43.207 7.09705 44.12C7.94613 45.0329 9.03971 45.5365 10.1722 45.5362H25.196C26.3285 45.5365 27.4221 45.0329 28.2712 44.12C29.1202 43.207 29.6663 41.9477 29.8067 40.5788L31.6208 22.8996M3.74737 22.8996L8.56019 20.9472C9.23133 20.6745 9.94473 20.5921 10.646 20.7064C11.3472 20.8206 12.0178 21.1285 12.6065 21.6065L15.1081 23.6353C15.8711 24.2545 16.7673 24.585 17.6841 24.585C18.6009 24.585 19.4972 24.2545 20.2601 23.6353L22.7617 21.6065C23.3503 21.128 24.0207 20.8197 24.722 20.7049C25.4232 20.5902 26.1367 20.6721 26.808 20.9443L31.6208 22.8996" fill="#E0E0E0"/>
<path d="M1.42458 0.262939H33.9436M1.42458 0.262939H0.263184M1.42458 0.262939L3.74737 22.8996M33.9436 0.262939H35.105M33.9436 0.262939L31.6208 22.8996M3.74737 22.8996L5.56147 40.5788C5.7019 41.9477 6.24798 43.207 7.09705 44.12C7.94613 45.0329 9.03971 45.5365 10.1722 45.5362H25.196C26.3285 45.5365 27.4221 45.0329 28.2712 44.12C29.1202 43.207 29.6663 41.9477 29.8067 40.5788L31.6208 22.8996M3.74737 22.8996L8.56019 20.9472C9.23133 20.6745 9.94473 20.5921 10.646 20.7064C11.3472 20.8206 12.0178 21.1285 12.6065 21.6065L15.1081 23.6353C15.8711 24.2545 16.7673 24.585 17.6841 24.585C18.6009 24.585 19.4972 24.2545 20.2601 23.6353L22.7617 21.6065C23.3503 21.128 24.0207 20.8197 24.722 20.7049C25.4232 20.5902 26.1367 20.6721 26.808 20.9443L31.6208 22.8996" stroke="#BDBDBD" stroke-width="0.525915" stroke-linecap="round" stroke-linejoin="round" stroke-dasharray="2.1 2.1"/>
</svg>
