<svg width="18" height="18" viewBox="0 0 18 18" fill="none" xmlns="http://www.w3.org/2000/svg">
<path d="M12.4372 10.5622L12.378 10.722C12.1855 11.2362 11.8781 11.6996 11.4793 12.0769C11.0804 12.4543 10.6007 12.7356 10.0767 12.8993C9.55261 13.0631 8.99809 13.1051 8.45537 13.022C7.91264 12.9389 7.39606 12.733 6.945 12.42C6.34102 12.002 5.87937 11.4092 5.622 10.7212L5.562 10.5615M6.75 6.75C6.75 6.94891 6.67098 7.13968 6.53033 7.28033C6.38968 7.42098 6.19891 7.5 6 7.5C5.80109 7.5 5.61032 7.42098 5.46967 7.28033C5.32902 7.13968 5.25 6.94891 5.25 6.75C5.25 6.55109 5.32902 6.36032 5.46967 6.21967C5.61032 6.07902 5.80109 6 6 6C6.19891 6 6.38968 6.07902 6.53033 6.21967C6.67098 6.36032 6.75 6.55109 6.75 6.75ZM12.75 6.75C12.75 6.94891 12.671 7.13968 12.5303 7.28033C12.3897 7.42098 12.1989 7.5 12 7.5C11.8011 7.5 11.6103 7.42098 11.4697 7.28033C11.329 7.13968 11.25 6.94891 11.25 6.75C11.25 6.55109 11.329 6.36032 11.4697 6.21967C11.6103 6.07902 11.8011 6 12 6C12.1989 6 12.3897 6.07902 12.5303 6.21967C12.671 6.36032 12.75 6.55109 12.75 6.75ZM16.5 9C16.5 4.85775 13.1422 1.5 9 1.5C4.85775 1.5 1.5 4.85775 1.5 9C1.5 13.1422 4.85775 16.5 9 16.5C13.1422 16.5 16.5 13.1422 16.5 9Z" stroke="#7C7C7C" stroke-miterlimit="10" stroke-linecap="round" stroke-linejoin="round"/>
</svg>
