<svg width="17" height="17" viewBox="0 0 17 17" fill="none" xmlns="http://www.w3.org/2000/svg">
<g clip-path="url(#clip0_216_826)">
<path d="M8.25 0C7.17115 0 6.34615 0.825 6.34615 1.90385V5.71154C6.34615 6.79038 7.17115 7.61538 8.25 7.61538H12.0577L14.5962 10.1538V7.61538C15.675 7.61538 16.5 6.79038 16.5 5.71154V1.90385C16.5 0.825 15.675 0 14.5962 0H8.25ZM10.9078 1.90385H11.998L13.0693 5.71154H12.1173L11.8591 4.75962H10.9071L10.6698 5.71154H9.83654L10.9078 1.90385ZM11.4231 2.53846C11.3596 2.79231 11.2885 3.102 11.2244 3.29238L11.0467 4.125H11.8L11.6211 3.29175C11.4948 3.102 11.4231 2.79231 11.4231 2.53846ZM1.90385 6.34615C0.825 6.34615 0 7.17115 0 8.25V12.0577C0 13.1365 0.825 13.9615 1.90385 13.9615V16.5L4.44231 13.9615H8.25C9.32885 13.9615 10.1538 13.1365 10.1538 12.0577V8.25H8.25C7.04423 8.25 6.0885 7.425 5.77119 6.34615H1.90385ZM4.81927 8.19035C5.89812 8.19035 6.40581 9.07881 6.40581 10.0942C6.40581 10.9827 6.10056 11.5462 5.59286 11.8C5.84671 11.927 6.14752 11.9942 6.46483 12.0577L6.22748 12.6923C5.78325 12.5654 5.32252 12.3674 4.87829 12.1764C4.81483 12.1129 4.70377 12.1173 4.64031 12.1173C3.87877 12.0539 3.17308 11.4231 3.17308 10.1538C3.17308 9.075 3.80388 8.19035 4.81927 8.19035ZM4.81927 8.88461C4.31158 8.88461 4.06535 9.45577 4.06535 10.1538C4.06535 10.9154 4.31158 11.4231 4.81927 11.4231C5.32696 11.4231 5.59223 10.8519 5.59223 10.1538C5.59223 9.45577 5.32696 8.88461 4.81927 8.88461Z" fill="#D82149"/>
</g>
<defs>
<clipPath id="clip0_216_826">
<rect width="16.5" height="16.5" fill="white"/>
</clipPath>
</defs>
</svg>
