<svg width="18" height="18" viewBox="0 0 18 18" fill="none" xmlns="http://www.w3.org/2000/svg">
<g clip-path="url(#clip0_226_994)">
<path d="M1.50926 18C1.24207 17.8875 0.946756 17.8172 0.712381 17.6578C-0.00949435 17.1562 -0.201682 16.2328 0.220193 15.4219C0.853006 14.2078 1.49051 12.9937 2.12332 11.7844C2.45613 11.1516 2.78426 10.5187 3.11707 9.89061C3.16394 9.80624 3.23894 9.73593 3.28582 9.65155C3.30926 9.60936 3.32801 9.54843 3.31863 9.49686C3.27176 9.11718 3.21082 8.74218 3.16863 8.36718C3.10301 7.7953 3.23894 7.2703 3.65144 6.86718C3.96082 6.56718 4.12488 6.23436 4.21863 5.8078C4.48113 4.61249 5.17488 3.70311 6.21082 3.05624C6.31394 2.99061 6.34676 2.93436 6.33269 2.8078C6.22488 1.6828 7.09207 0.599988 8.19832 0.464051C9.41238 0.309363 10.4999 1.09218 10.6874 2.24999C10.7202 2.44686 10.7014 2.64843 10.7202 2.8453C10.7249 2.90624 10.7577 2.9953 10.8093 3.02343C12.0233 3.78749 12.7358 4.8703 12.9374 6.2953C12.9468 6.34686 12.9749 6.40311 13.0124 6.4453C13.1249 6.57186 13.2468 6.69374 13.3639 6.81561C13.7999 7.2703 13.9546 7.81405 13.8749 8.42811C13.828 8.78905 13.7764 9.1453 13.7343 9.50624C13.7296 9.5578 13.7624 9.61874 13.7905 9.66561C13.8327 9.74061 13.8936 9.80624 13.9358 9.88124C14.8968 11.7141 15.8436 13.5562 16.8233 15.3844C17.4374 16.5328 16.7389 17.8031 15.6186 17.9766C15.6046 17.9812 15.5905 17.9953 15.5764 18.0047C10.8843 18 6.19676 18 1.50926 18ZM7.19051 13.8422C7.15769 13.8375 7.12488 13.8328 7.09207 13.8328C6.46394 13.8328 5.84051 13.8187 5.21238 13.8375C4.95926 13.8469 4.70613 13.9125 4.45769 13.9828C4.38269 14.0016 4.29363 14.0953 4.26551 14.175C3.90457 15.2156 3.54832 16.2562 3.20144 17.2828C6.74051 17.2828 10.3264 17.2828 13.8936 17.2828C13.8093 17.0812 13.7155 16.8937 13.6499 16.6922C13.3968 15.9516 13.1155 15.2156 12.9093 14.4609C12.7921 14.025 12.5249 13.8937 12.1405 13.8516C12.1218 13.8516 12.1077 13.8469 12.0889 13.8469C11.3577 13.8422 10.6264 13.8375 9.89519 13.8328C9.88582 13.8328 9.87644 13.8422 9.86238 13.8469C9.71238 14.7422 9.26238 15.2109 8.54988 15.2203C7.81863 15.2297 7.36863 14.775 7.19051 13.8422ZM5.82176 6.81093C5.96238 7.14843 5.90144 7.46718 5.78894 7.78124C5.62488 8.23593 5.55457 8.6953 5.62019 9.17811C5.68113 9.61874 5.63894 10.0547 5.51707 10.4812C5.50301 10.5375 5.51707 10.6219 5.55457 10.6687C6.97957 12.6328 10.078 12.6328 11.4983 10.6687C11.5358 10.6172 11.5499 10.5281 11.5311 10.4672C11.4093 10.0453 11.3811 9.61405 11.4327 9.17811C11.4843 8.75155 11.4468 8.33436 11.3155 7.93124C11.1936 7.56093 11.053 7.19999 11.2358 6.79686C10.2139 6.66093 9.31863 6.28593 8.53113 5.66249C7.31707 6.45936 7.31707 6.45936 5.82176 6.81093ZM4.87957 6.11249C4.93582 6.11718 4.99676 6.12186 5.05301 6.12186C6.25769 6.15468 7.31707 5.7703 8.23113 4.98749C8.45613 4.7953 8.59676 4.7953 8.81707 4.98749C9.43113 5.52186 10.1343 5.87343 10.9311 6.03749C11.3436 6.12186 11.7608 6.1453 12.1827 6.11718C11.9108 4.3828 10.1577 3.00936 8.36238 3.1078C6.63269 3.20155 4.93582 4.66405 4.87957 6.11249ZM12.403 10.8C12.4218 10.8703 12.4358 10.9172 12.4546 10.9687C12.7874 11.9531 13.1249 12.9422 13.4577 13.9266C13.7577 14.8078 14.0483 15.6891 14.3483 16.5703C14.5639 17.2031 15.2389 17.4797 15.8108 17.175C16.3264 16.9031 16.4999 16.2937 16.2093 15.7359C15.2999 13.9922 14.3858 12.2531 13.4764 10.5094C13.4577 10.4719 13.4296 10.4344 13.4014 10.3875C13.0639 10.5281 12.7405 10.6641 12.403 10.8ZM3.65144 10.3875C3.60926 10.4625 3.58113 10.5234 3.54832 10.5844C3.12176 11.4 2.69519 12.2109 2.26863 13.0266C1.79051 13.9453 1.30769 14.8594 0.829568 15.7781C0.576443 16.2703 0.721756 16.8375 1.16238 17.1234C1.74363 17.5031 2.47488 17.2406 2.70926 16.5609C3.22957 15.0375 3.74051 13.5141 4.25613 11.9906C4.38738 11.5969 4.52332 11.2078 4.65457 10.8141C4.62176 10.7953 4.60301 10.7766 4.58426 10.7672C4.27957 10.6453 3.97957 10.5234 3.65144 10.3875ZM9.99832 2.64843C10.0686 2.17499 9.72644 1.58436 9.23426 1.31718C8.69051 1.02186 8.01551 1.10155 7.54676 1.50936C7.19988 1.81405 6.96551 2.36718 7.07332 2.64374C8.04832 2.31561 9.02332 2.3203 9.99832 2.64843ZM4.90301 10.1391C4.91238 9.88124 4.93113 9.65155 4.93113 9.41718C4.93113 9.08905 4.88426 8.76093 4.92176 8.43749C4.96863 8.07186 5.09051 7.71093 5.17957 7.34999C5.23113 7.15311 5.16082 6.97499 5.00144 6.88124C4.84207 6.79218 4.65926 6.81561 4.51863 6.95155C4.40144 7.06405 4.29363 7.18593 4.18113 7.3078C3.94676 7.56093 3.82488 7.86093 3.86707 8.20311C3.92332 8.69999 3.99363 9.20155 4.06394 9.69843C4.06863 9.74061 4.10144 9.80155 4.13894 9.8203C4.38269 9.9328 4.62644 10.0266 4.90301 10.1391ZM12.1311 10.1484C12.3655 10.0547 12.5343 9.9703 12.7077 9.91405C12.9093 9.85311 13.0311 9.75468 13.0171 9.52499C13.0124 9.41718 13.0452 9.30468 13.0593 9.19686C13.1014 8.85468 13.1577 8.51249 13.1858 8.1703C13.2186 7.72499 12.8108 7.05936 12.4124 6.87186C12.2671 6.80624 12.1264 6.8203 11.9999 6.91874C11.878 7.01718 11.8218 7.15311 11.8593 7.3078C11.878 7.39218 11.9108 7.47655 11.9389 7.56093C12.1264 8.10936 12.2014 8.67186 12.1358 9.25311C12.1077 9.53436 12.1311 9.8203 12.1311 10.1484ZM4.60769 13.1437C5.47957 13.1437 6.33738 13.1437 7.20926 13.1437C7.20926 13.0219 7.19988 12.9422 7.20926 12.8625C7.23269 12.6984 7.16707 12.6328 7.01238 12.5812C6.57644 12.4359 6.17801 12.2156 5.81707 11.9297C5.61082 11.7609 5.41394 11.5781 5.20301 11.3906C5.00144 11.9812 4.79988 12.5719 4.60769 13.1437ZM11.8546 11.3953C11.8264 11.4047 11.8124 11.4047 11.8077 11.4094C11.278 11.9672 10.6593 12.3844 9.92801 12.6281C9.89519 12.6375 9.84832 12.6891 9.84832 12.7219C9.83894 12.8531 9.84363 12.9844 9.84363 13.1531C10.7249 13.1531 11.5827 13.1531 12.4499 13.1531C12.253 12.5766 12.0514 11.9859 11.8546 11.3953ZM7.92176 12.8297C7.92176 13.2187 7.90301 13.6078 7.92644 13.9969C7.94988 14.3016 8.22176 14.5125 8.51707 14.5172C8.81238 14.5219 9.09832 14.3062 9.11707 14.0109C9.14519 13.6172 9.12176 13.2187 9.12176 12.8344C8.72332 12.8297 8.32957 12.8297 7.92176 12.8297Z" fill="#D82149"/>
<path d="M18 6.57656C17.9813 6.61406 17.9625 6.64688 17.9485 6.68438C17.8125 7.03594 17.5172 7.24688 17.1375 7.24688C16.3641 7.25156 15.5907 7.25156 14.8172 7.24688C14.2735 7.24688 13.9172 6.89062 13.9172 6.34219C13.9172 5.02031 13.9172 3.69375 13.9172 2.37187C13.9172 1.8 14.1844 1.49063 14.7657 1.40156C14.7657 1.25625 14.7657 1.10625 14.7657 0.95625C14.775 0.370312 15.1407 0.0046875 15.7125 0C15.886 0 16.0641 0 16.2375 0C16.7625 0.0046875 17.1329 0.370313 17.1469 0.895313C17.1516 1.05938 17.1469 1.22344 17.1469 1.40156C17.5922 1.42969 17.85 1.6875 17.9954 2.07656C18 3.57656 18 5.07656 18 6.57656ZM14.625 5.15625C15.5297 5.15625 16.4063 5.15625 17.2969 5.15625C17.2969 4.19063 17.2969 3.23906 17.2969 2.28281C17.2969 2.14219 17.2079 2.10938 17.086 2.10938C16.336 2.10938 15.586 2.10938 14.8407 2.10938C14.6954 2.10938 14.625 2.17031 14.6297 2.32031C14.6344 2.58281 14.6297 2.84531 14.6297 3.1125C14.625 3.7875 14.625 4.4625 14.625 5.15625ZM16.4438 1.40156C16.4438 1.22344 16.4485 1.06875 16.4438 0.909375C16.4391 0.7875 16.3829 0.707813 16.2516 0.707813C16.0547 0.703125 15.8532 0.69375 15.6563 0.7125C15.5907 0.717187 15.4922 0.80625 15.4829 0.867188C15.4594 1.04062 15.4735 1.22344 15.4735 1.40156C15.8063 1.40156 16.1157 1.40156 16.4438 1.40156Z" fill="#D82149"/>
<path d="M1.79055 4.27019C1.91243 4.11082 2.01086 3.97488 2.11868 3.84363C2.30149 3.61863 2.55461 3.61863 2.72336 3.85769C2.95305 4.18113 3.17336 4.51394 3.39368 4.84676C3.51555 5.03426 3.47336 5.24519 3.30461 5.35301C3.13586 5.46082 2.94368 5.41394 2.81711 5.23582C2.68118 5.04363 2.55461 4.85144 2.4093 4.63582C2.2968 4.78113 2.19368 4.92176 2.08586 5.05769C1.88899 5.30613 1.62649 5.30144 1.45305 5.03894C1.18118 4.63113 0.918676 4.21863 0.665551 3.81082C0.543676 3.61394 0.581176 3.41238 0.749926 3.29988C0.928051 3.18269 1.12961 3.23426 1.26086 3.43582C1.4343 3.70301 1.60305 3.97957 1.79055 4.27019Z" fill="#D82149"/>
<path d="M4.0923 2.12334C3.97042 2.17959 3.87199 2.23116 3.77355 2.27334C3.51574 2.38116 3.28605 2.26397 3.25792 1.98741C3.21574 1.57959 3.18761 1.17178 3.16886 0.763968C3.15949 0.567093 3.31417 0.412405 3.50167 0.40303C3.68449 0.393655 3.84855 0.53428 3.8673 0.735843C3.89074 0.956155 3.90011 1.17647 3.91886 1.42022C4.03136 1.35928 4.12511 1.31241 4.22824 1.27022C4.49074 1.15303 4.7298 1.27022 4.75792 1.55147C4.80011 1.95459 4.82355 2.35772 4.83761 2.76084C4.84699 2.96241 4.6923 3.11241 4.5048 3.12178C4.32199 3.13116 4.16261 2.99053 4.14386 2.78897C4.12042 2.57334 4.10636 2.36241 4.0923 2.12334Z" fill="#D82149"/>
<path d="M8.52183 9.89062C8.75621 9.93281 8.99059 9.96094 9.21559 10.0172C9.4359 10.0734 9.53902 10.2563 9.48746 10.4578C9.4359 10.6406 9.25308 10.7484 9.04215 10.6922C8.69996 10.6031 8.36246 10.6031 8.02027 10.6922C7.79527 10.7484 7.61715 10.6453 7.56558 10.4484C7.51402 10.2562 7.62652 10.0734 7.85152 10.0219C8.07183 9.96094 8.29683 9.92813 8.52183 9.89062Z" fill="#D82149"/>
<path d="M6.91871 7.87488C7.04996 7.83738 7.19059 7.81863 7.31715 7.76707C7.53278 7.67801 7.72496 7.72019 7.81871 7.89832C7.91715 8.08113 7.84684 8.28269 7.6359 8.39519C7.39215 8.52644 7.12965 8.57332 6.85778 8.54519C6.56715 8.51707 6.41246 8.37176 6.43121 8.14207C6.44996 7.92176 6.61403 7.81863 6.91871 7.87488Z" fill="#D82149"/>
<path d="M10.0313 8.59678C9.81572 8.52178 9.59072 8.46085 9.38447 8.3671C9.19697 8.27803 9.15009 8.07178 9.23916 7.90303C9.32822 7.73428 9.51103 7.68272 9.70322 7.74366C9.86728 7.79522 10.0407 7.82803 10.2095 7.83272C10.4392 7.83741 10.5938 7.92647 10.622 8.11866C10.6548 8.32491 10.5376 8.48428 10.3126 8.52647C10.2282 8.54522 10.1392 8.54522 10.0501 8.5546C10.0454 8.57335 10.036 8.58272 10.0313 8.59678Z" fill="#D82149"/>
</g>
<defs>
<clipPath id="clip0_226_994">
<rect width="18" height="18" fill="white"/>
</clipPath>
</defs>
</svg>
