<svg width="18" height="18" viewBox="0 0 18 18" fill="none" xmlns="http://www.w3.org/2000/svg">
<path d="M9.00024 0.625C7.67416 0.625 6.40277 1.15216 5.46509 2.08984C4.52743 3.02752 4.00024 4.29893 4.00024 5.625C4.00026 6.95106 4.52742 8.22249 5.46509 9.16016C6.40277 10.0978 7.67418 10.625 9.00024 10.625C10.3263 10.625 11.5977 10.0978 12.5354 9.16016C13.4731 8.22249 14.0002 6.95106 14.0002 5.625C14.0002 4.29893 13.4731 3.02752 12.5354 2.08984C11.5977 1.15216 10.3263 0.625 9.00024 0.625ZM8.93774 10.7695L8.48755 10.7246C7.22346 10.5975 6.05171 10.0047 5.19946 9.0625C4.34732 8.1203 3.87524 6.8954 3.87524 5.625C3.87526 4.63323 4.16273 3.66251 4.70337 2.83105C5.24401 1.99959 6.01465 1.34278 6.92114 0.94043C7.8276 0.538127 8.83154 0.407634 9.81079 0.564453C10.7899 0.72128 11.7023 1.15907 12.4377 1.82422C13.1732 2.48949 13.7004 3.35386 13.9543 4.3125C14.2083 5.27121 14.1791 6.2834 13.8694 7.22559C13.5597 8.16774 12.9824 9.00004 12.2092 9.62109C11.4361 10.2419 10.4995 10.6254 9.51294 10.7246L9.06274 10.7695V14H11.8127C11.8293 14 11.845 14.0068 11.8567 14.0186C11.8684 14.0303 11.8752 14.0459 11.8752 14.0625C11.8752 14.0791 11.8684 14.0947 11.8567 14.1064C11.845 14.1181 11.8293 14.125 11.8127 14.125H9.06274V17.4375C9.06273 17.4541 9.0559 17.4697 9.04419 17.4814C9.03247 17.4931 9.0168 17.5 9.00024 17.5C8.98368 17.5 8.96802 17.4931 8.9563 17.4814C8.94459 17.4697 8.93776 17.4541 8.93774 17.4375V14.125H6.18774C6.17118 14.125 6.15552 14.1181 6.1438 14.1064C6.1321 14.0947 6.12526 14.0791 6.12524 14.0625C6.12524 14.0459 6.1321 14.0303 6.1438 14.0186C6.15552 14.0068 6.17117 14 6.18774 14H8.93774V10.7695Z" fill="#7C7C7C" stroke="#7C7C7C"/>
</svg>
