<svg width="200" height="200" viewBox="0 0 200 200" fill="none" xmlns="http://www.w3.org/2000/svg">
<path d="M29.2094 102.755C29.2094 102.755 29.9031 97.8227 22.6006 95.0867C22.6006 95.0867 12.9281 94.1426 7.47534 93.6416C7.47534 93.6416 8.13045 94.7591 13.9301 100.116C13.9301 100.116 17.4561 104.836 23.853 104.778C23.853 104.778 27.9185 104.528 29.2287 103.276V102.755H29.2094Z" fill="#F4567F"/>
<path d="M78.0918 143.719C78.0918 143.719 71.8105 137.187 64.5273 139.884C64.5273 139.884 54.7199 145.318 53.3134 145.222C53.3134 145.222 53.14 146.069 64.6621 149.807C64.6621 149.807 70.0571 151.888 74.8163 149.229C74.8355 149.248 78.6698 147.341 78.0918 143.719Z" fill="#F4567F"/>
<path d="M59.2287 124.2C59.2287 124.2 64.4502 118.94 63.6025 114.046C63.6025 114.046 61.8876 108.381 53.352 99.7302L49.1516 94.605L48.6506 95.3179C48.6506 95.3179 49.9801 110.906 51.8106 115.144C51.8106 115.144 54.4888 121.368 57.8414 124.046L59.2287 124.2Z" fill="#F4567F"/>
<path d="M85.4716 121.195C85.4716 121.195 91.6565 130.732 93.3714 132.505C93.3714 132.505 99.9995 140.848 93.5833 146.031L92.5236 146.513C92.5236 146.513 85.8569 142.351 85.1055 133.738C85.1247 133.738 85.2596 122.871 85.4716 121.195Z" fill="#F4567F"/>
<path d="M24.508 80.1927C24.508 80.1927 23.0051 74.0655 25.0668 69.711C25.0668 69.711 30.5388 63.3719 34.2768 62.8131L32.8317 71.9653C32.8317 71.9653 31.772 78.1118 29.0552 79.4412C29.0745 79.4605 25.1053 80.1734 24.508 80.1927Z" fill="#F4567F"/>
<path d="M20.3076 42.6589C20.3076 42.6589 28.2845 41.1367 33.5253 43.4103C33.5253 43.4103 37.745 44.971 37.7643 47.7648C37.7643 47.7648 38.0147 50.4431 37.4945 52.6974C37.4945 52.6974 37.5909 55.3756 36.8394 55.761C36.8394 55.761 34.4309 55.4334 31.2517 54.4508C31.2517 54.4508 25.1246 52.7359 24.8934 52.1579L20.3076 42.6589Z" fill="#F4567F"/>
<path d="M19.826 42.6396C19.826 42.6396 22.7162 47.8805 23.0437 48.7861C23.0437 48.7861 25.221 51.7919 24.8356 53.2369C24.8356 53.2369 24.72 55.183 21.5986 56.6281C21.5986 56.6281 20.1343 58.5741 18.8626 61.7919C18.8626 61.7919 13.641 63.9691 11.4638 61.5799L8.18823 51.5028C8.18823 51.5028 9.15162 45.7225 12.2152 45.4913L16.0688 43.5452L19.826 42.6396Z" fill="#F4567F"/>
<path d="M21.2324 42.3699C21.2324 42.3699 31.9839 41.5991 36.4347 45.1444C36.6467 45.3178 37.6293 46.9171 37.6293 46.9171C37.6293 46.9171 39.2671 47.4951 40.9819 43.7764C40.9819 43.7764 45.6255 35.9922 46.2806 35.5683C46.2806 35.5683 42.1765 32.6974 41.8683 32.2157C41.56 31.734 42.1765 32.6974 42.1765 32.6974C42.1765 32.6974 38.3422 28.0539 34.2767 28.2273C34.2767 28.2273 30.3846 28.8824 28.8047 30.1348C28.8047 30.1348 27.3018 34.47 26.5503 35.1637L21.2324 42.3699Z" fill="#F4567F"/>
<path d="M15.7991 31.4836C15.7991 31.4836 14.9513 23.0057 18.4003 20.077C18.4003 20.077 21.0592 16.6859 21.6758 15.5684C21.6758 15.5684 28.959 20.4817 29.3251 22.8516C29.3251 22.8516 30.2885 29.3641 27.591 33.1984C27.591 33.1984 22.119 41.8304 20.6932 42.5626C20.6932 42.5626 19.3059 36.6666 17.9764 34.9903L15.7991 31.4836Z" fill="#F4567F"/>
<path d="M0.384766 31.1175C0.384766 31.1175 8.92041 28.9981 10.9435 28.9017C10.9435 28.9017 17.167 31.5029 18.9011 36.8593L20.616 42.2543C20.616 42.2543 13.5447 43.7187 10.5389 46.5318C10.5389 46.5318 5.14392 45.2986 3.1208 40.3468C3.1208 40.3468 0.9628 33.1021 0.384766 31.1175Z" fill="#F4567F"/>
<path d="M108.034 159.807C108.246 160.038 108.227 160.27 107.996 160.462C107.764 160.655 107.552 160.52 107.379 160.347C106.358 159.364 105.298 158.42 104.123 157.649C100.924 155.607 97.88 153.295 94.6044 151.349C93.2364 150.539 91.9262 149.634 90.5389 148.882C88.4387 147.746 86.2037 146.84 83.9493 146.05C82.3886 145.491 80.7894 145.048 79.1516 144.682C78.9204 144.624 78.747 144.586 78.6699 144.932C78.2846 146.705 77.2441 148.073 75.8183 149.133C73.853 150.616 71.5794 151.117 69.1709 151.021C66.9551 150.925 64.8549 150.289 62.7932 149.557C59.826 148.478 56.878 147.322 53.853 146.435C53.6218 146.358 53.3713 146.262 53.1786 146.127C52.7547 145.857 52.7354 145.376 53.1015 145.048C53.3327 144.836 53.6218 144.721 53.9108 144.605C56.5505 143.622 59.036 142.331 61.4445 140.886C62.9281 140 64.5081 139.287 66.2229 139.017C69.1131 138.555 71.8299 139.171 74.4503 140.385C75.6256 140.944 76.7239 141.599 77.7065 142.466C77.88 142.62 78.0919 142.755 78.2075 142.967C78.5929 143.68 79.248 143.834 79.9416 143.969C81.1748 144.22 82.3693 144.586 83.5447 144.971C83.7181 145.029 83.8915 145.087 84.1227 145.048C83.9108 144.913 83.6796 144.778 83.4676 144.663C78.169 141.638 72.8703 138.613 67.668 135.453C64.2191 133.353 60.8665 131.079 57.5139 128.825C54.1998 126.59 50.8857 124.316 47.0514 122.967C44.0456 121.907 40.9821 121.214 37.7836 121.349C36.3193 121.406 34.8549 121.638 33.4098 121.907C33.0437 121.985 32.8125 122.216 32.5813 122.466C32.0225 123.102 31.5023 123.776 30.8279 124.316C29.5755 125.299 28.1304 125.8 26.5505 125.915C25.009 126.031 23.4869 125.896 22.0033 125.53C21.695 125.453 21.3867 125.356 21.0977 125.202C20.2884 124.778 20.0957 124.065 20.5774 123.275C20.8279 122.871 21.1747 122.543 21.5216 122.235C23.2557 120.732 25.3366 120.077 27.5524 119.769C29.3058 119.518 30.9821 119.711 32.5428 120.616C33.0437 120.906 33.564 120.983 34.1035 120.867C39.6719 119.769 44.9127 120.867 49.9609 123.218C50.0957 123.275 50.2306 123.391 50.4233 123.372C50.3848 123.198 50.2499 123.141 50.1536 123.044C45.4715 119.056 41.1555 114.721 37.3019 109.923C36.011 108.304 34.3732 107.071 32.7547 105.838C31.9069 105.183 31.0013 104.605 30.1343 103.969C29.7875 103.719 29.4984 103.68 29.0938 103.873C27.5717 104.566 25.9724 105.067 24.2769 105.202C21.3482 105.433 18.7663 104.643 16.4541 102.832C15.2788 101.907 14.1805 100.886 13.1015 99.8265C11.4445 98.208 9.80673 96.551 7.95702 95.1252C7.32118 94.6242 6.62754 94.2003 5.91463 93.8149C5.60634 93.6415 5.25952 93.4874 5.41367 93.0635C5.58708 92.6011 5.97243 92.736 6.31925 92.813C8.32311 93.2369 10.327 93.5452 12.3694 93.7571C14.6622 94.0076 16.9744 93.9498 19.2865 94.104C22.5428 94.2966 25.4522 95.2986 27.7258 97.7456C28.9589 99.0558 29.6333 100.616 29.7875 102.408C29.8067 102.582 29.8453 102.697 29.9994 102.813C31.2711 103.738 32.5813 104.586 33.8722 105.607C33.8915 105.395 33.7952 105.318 33.7181 105.221C31.4252 101.985 29.3636 98.5934 27.5331 95.0674C25.8761 92.9479 25.4522 90.2697 24.1805 87.9768C22.4464 84.8361 21.0591 81.4835 18.6892 78.7282C16.878 76.6088 14.7971 74.8169 12.4272 73.3525C12.2152 73.2177 12.0225 73.1406 11.772 73.1791C11.6757 73.1984 11.5601 73.1791 11.4638 73.1406C10.0379 72.6782 8.59286 72.2928 7.20557 71.6955C5.25952 70.8477 3.91078 69.3834 2.79324 67.6493C2.6391 67.418 2.5813 67.1483 2.77397 66.9171C2.94738 66.6859 3.1786 66.6473 3.44835 66.7244C4.95124 67.1097 6.45413 67.418 7.91848 67.919C9.22869 68.3622 10.2114 69.1907 10.9628 70.3467C11.3674 70.9633 11.8106 71.5413 12.2537 72.1194C12.3308 72.235 12.4657 72.3313 12.5813 72.4084C16.0302 74.5664 18.9397 77.2639 21.1555 80.6743C21.194 80.7128 21.2325 80.7514 21.3482 80.7706C21.2904 80.5587 21.2133 80.3467 21.1555 80.1348C19.6911 75.761 18.4772 71.3101 17.8029 66.7244C17.6295 65.6069 17.5139 64.4893 17.3983 63.3525C17.3597 62.9479 17.2248 62.813 16.8202 62.8901C15.8568 63.0442 14.8742 63.2176 13.8915 63.0828C13.1786 62.9864 12.5042 62.813 11.8877 62.4469C11.0399 61.9267 10.4618 61.1945 10.3655 60.1926C10.1921 58.4778 9.63332 56.8785 8.84334 55.3564C7.97629 53.6608 7.668 51.8496 8.05336 49.9614C8.28457 48.8631 8.72773 47.8997 9.47918 47.0712C9.69112 46.8207 9.72966 46.7051 9.36357 46.6281C6.91656 46.0308 5.20172 44.4893 3.93004 42.3699C3.08226 40.944 2.50422 39.4026 2.02253 37.8227C1.46376 36.0308 0.904995 34.2388 0.249889 32.4662C-0.28961 31.0019 -0.000592417 30.5202 1.5601 30.366C3.1786 30.1926 4.73929 29.8072 6.24218 29.2099C7.20557 28.8246 8.16896 28.4778 9.20943 28.4585C11.4445 28.4007 13.3135 29.3448 14.9898 30.7128C15.1054 30.8092 15.2403 30.9248 15.3751 31.0404C15.51 30.8477 15.4329 30.6743 15.4329 30.5009C15.3559 28.7668 15.3366 27.0327 15.5678 25.2986C15.8376 23.3333 16.7046 21.6377 17.9378 20.1155C19.0553 18.7283 20.0957 17.341 20.8665 15.7225C21.2904 14.8169 21.8877 14.7783 22.5235 15.5491C23.3135 16.5125 24.3347 17.1676 25.3751 17.8034C25.6256 17.9575 25.8761 18.1117 26.1266 18.2466C28.2846 19.3834 29.3828 21.2138 29.7297 23.5837C29.9801 25.2986 30.0187 27.0134 29.6911 28.709C29.6719 28.8053 29.6333 28.9017 29.6911 29.0173C29.8453 29.0558 29.9609 28.9402 30.0957 28.8824C33.4483 27.2639 36.6661 27.3988 39.6333 29.7687C40.7123 30.6358 41.7335 31.5606 42.7932 32.4469C43.7374 33.2369 44.7586 33.9306 45.8954 34.4508C46.088 34.5279 46.2614 34.6435 46.4349 34.7591C46.8395 35.0481 46.9551 35.4527 46.7239 35.8766C46.589 36.1271 46.4156 36.3776 46.2229 36.6088C44.4117 38.8053 42.8896 41.1945 41.5794 43.7186C41.1747 44.5086 40.7316 45.2986 40.1535 45.9922C39.6911 46.5317 39.1902 47.0327 38.4387 47.1483C38.2846 47.1676 38.2268 47.2639 38.2653 47.3988C38.6507 48.9209 38.2653 50.4045 38.0148 51.8882C37.8414 52.9094 37.8992 53.9498 37.7643 54.971C37.6487 56.0115 37.09 56.4161 36.0302 56.262C35.4715 56.1849 34.932 56.0115 34.4117 55.8188C32.6198 55.1252 30.8087 54.5664 28.9204 54.2003C27.7451 53.9691 26.6275 53.5837 25.5871 52.9672C25.3366 52.813 25.2595 52.8901 25.2403 53.1598C25.1439 54.6049 24.3925 55.6261 23.1208 56.2427C21.695 56.9363 20.8279 58.0346 20.3848 59.5182C20.1536 60.2889 19.8453 61.0211 19.4021 61.6762C19.1902 62.0038 18.9589 62.3699 18.6121 62.5433C18.2075 62.736 18.1882 63.0057 18.2268 63.3911C18.6699 67.9768 19.6526 72.4662 21.0013 76.8785C21.984 80.0963 23.0823 83.2369 24.3925 86.339C24.4503 86.4932 24.4888 86.6666 24.6622 86.8207C24.72 86.4354 24.6237 86.1078 24.5851 85.761C24.4503 84.4893 24.3925 83.2177 24.431 81.9267C24.4503 81.4643 24.3732 81.0211 24.2191 80.5972C23.3713 78.1117 23.1786 75.5683 23.6603 72.9864C24.2191 70.0192 25.799 67.6878 28.2075 65.8766C29.9994 64.5279 31.9647 63.4681 33.853 62.2543C34.4117 61.8882 34.932 62.2157 34.8934 62.8901C34.8742 63.4489 34.7008 63.9884 34.6044 64.5279C34.2383 66.4546 33.8722 68.3622 33.5062 70.2889C33.1593 72.1386 32.7547 73.9884 32.1767 75.7995C31.772 77.0327 31.2133 78.208 30.2306 79.1136C28.9589 80.2889 27.4753 80.8477 25.7412 80.3467C25.4715 80.2697 25.4137 80.366 25.3944 80.6165C25.1439 83.9884 25.4522 87.3217 26.3963 90.5587C26.8973 92.3313 27.8992 93.9113 28.7663 95.5298C31.0399 99.8265 33.6988 103.873 36.6468 107.726C37.379 108.69 38.2268 109.537 39.0746 110.385C39.1902 110.27 39.1131 110.193 39.0938 110.116C37.9185 107.148 37.3404 104.046 36.8973 100.925C36.5119 98.2273 36.2614 95.5298 36.2807 92.7938C36.2807 91.4065 36.3963 90.0385 36.6853 88.6704C36.8009 88.0539 36.7239 87.4373 36.7239 86.8207C36.7046 86.0115 36.6853 85.2022 36.7817 84.393C36.9551 82.8708 37.6102 81.5221 38.4965 80.2889C39.0167 79.5568 39.5755 78.8246 40.115 78.0924C40.2692 77.8805 40.4618 77.7263 40.7509 77.8034C41.0206 77.8612 41.1362 78.0731 41.1747 78.3236C41.3482 79.4797 41.5794 80.6358 41.5986 81.8111C41.5986 82.4855 41.4638 83.1213 41.2325 83.7571C40.8857 84.7205 40.404 85.6069 39.8453 86.4546C39.4021 87.129 38.8626 87.7071 38.1497 88.0924C37.7451 88.3236 37.5524 88.6512 37.4753 89.1136C37.09 91.2138 37.09 93.3333 37.2248 95.4334C37.4561 99.2099 37.957 102.948 38.8819 106.628C39.537 109.21 40.6352 111.541 42.1189 113.776C43.7374 116.223 45.9532 118.054 48.0341 120.019C52.5042 124.239 57.4946 127.803 62.6006 131.214C62.6969 131.272 62.7932 131.329 62.8896 131.387C62.9859 131.291 62.9089 131.233 62.8703 131.195C61.406 129.441 60.327 127.457 59.4214 125.376C59.2865 125.048 59.0746 124.836 58.747 124.682C57.1863 123.988 56.0688 122.755 55.009 121.464C52.5428 118.42 51.1169 114.894 50.3077 111.079C49.6333 107.938 49.325 104.759 48.9782 101.561C48.7663 99.6724 48.5351 97.8034 48.3231 95.9151C48.2846 95.5683 48.2653 95.2022 48.2846 94.8554C48.3231 94.181 48.8819 93.9113 49.4406 94.2774C49.826 94.5279 50.115 94.8747 50.404 95.2408C52.0996 97.3988 53.7952 99.5568 55.6063 101.638C57.2826 103.584 58.9782 105.53 60.5774 107.534C61.7142 108.959 62.7162 110.501 63.3905 112.196C64.7586 115.588 64.142 118.67 61.9262 121.503C61.3289 122.274 60.6738 122.986 60.0379 123.719C59.8838 123.892 59.7875 124.046 59.9031 124.297C60.9435 126.801 62.1959 129.171 64.0264 131.195C65.0476 132.312 66.3 133.179 67.5139 134.104C70.6738 136.493 74.1998 138.227 77.5524 140.27C77.7451 140.385 77.9378 140.482 78.1304 140.578C78.1497 140.597 78.1882 140.578 78.2075 140.578C78.2653 140.462 78.169 140.424 78.1112 140.366C75.3559 137.418 73.7374 133.853 72.5428 130.058C72.2345 129.114 71.9455 128.15 71.6564 127.206C71.5986 127.033 71.5408 126.879 71.4252 126.744C69.8645 124.952 68.9782 122.832 68.6314 120.52C68.246 118.054 68.1497 115.588 68.2846 113.083C68.2846 113.064 68.2846 113.044 68.2846 113.044C68.3424 112.582 68.4002 112.1 68.9011 111.907C69.4214 111.715 69.8067 112.042 70.1343 112.389C71.2133 113.487 71.9455 114.798 72.6006 116.166C73.8722 118.805 74.0842 121.58 73.6025 124.432C73.4098 125.511 73.1979 126.57 72.774 127.572C72.7162 127.707 72.7354 127.823 72.774 127.958C73.6796 130.963 74.6815 133.931 76.3385 136.609C77.9185 139.152 79.9031 141.31 82.4079 142.967C84.932 144.624 87.5909 146.05 90.1728 147.591C92.2923 148.863 94.3732 150.193 96.4734 151.484C96.589 151.561 96.7239 151.638 96.8588 151.715C96.9166 151.541 96.8009 151.484 96.7431 151.406C95.6834 150.173 94.6815 148.882 93.7952 147.495C93.7181 147.38 93.641 147.283 93.5062 147.225C91.7528 146.647 90.4233 145.472 89.248 144.123C86.6275 141.156 85.221 137.669 84.932 133.738C84.7971 131.946 84.8549 130.154 84.9705 128.362C85.1054 126.089 84.9127 123.834 84.643 121.599C84.6044 121.329 84.6044 121.079 84.6237 120.809C84.643 120.597 84.7586 120.424 84.9705 120.347C85.1825 120.27 85.3944 120.327 85.5293 120.482C85.7027 120.674 85.8568 120.867 85.9724 121.079C88.0534 124.624 90.5196 127.9 92.9859 131.175C93.7952 132.254 94.5466 133.372 95.1825 134.586C96.589 137.283 97.0514 140.116 96.2807 143.083C95.9532 144.335 95.3751 145.433 94.2769 146.204C94.0071 146.378 94.1998 146.532 94.2769 146.686C95.4329 148.536 96.801 150.231 98.2653 151.85C99.537 153.256 100.944 154.489 102.543 155.491C104.103 156.474 105.529 157.63 106.917 158.844C107.302 159.171 107.629 159.537 108.034 159.807ZM90.0765 142.563C90.4811 142.774 90.8665 143.063 91.3674 143.179C91.3482 142.871 91.1169 142.794 91.0013 142.64C91.1747 142.64 91.1362 142.524 91.0977 142.428C90.8087 141.695 90.5774 140.925 89.8453 140.462C90.0187 140.559 90.1728 140.655 90.3462 140.751C90.404 140.559 90.3077 140.443 90.2692 140.308C89.8067 139.017 89.4406 137.707 89.1131 136.397C89.036 136.108 88.8241 135.742 89.248 135.549C89.6911 135.337 89.8067 135.742 89.9994 136.108C90.404 133.719 90.115 131.406 90.0187 129.114C90.1535 129.827 90.1728 130.559 90.2114 131.291C90.3077 132.794 90.3462 134.316 90.115 135.819C90.0572 136.185 89.9801 136.551 90.1343 136.898C90.2114 137.09 90.2692 137.052 90.3655 136.898C90.2306 138.073 92.4079 143.911 93.2942 144.759C93.4869 144.316 93.5061 143.834 93.564 143.391C93.8722 140.886 93.9878 138.381 93.6603 135.877C93.4291 134.123 93.1401 132.389 91.8298 131.04C91.5986 130.79 91.4252 130.501 91.2133 130.231C91.1555 130.154 91.1169 130.019 90.9243 130.019C90.8857 131.31 90.9821 132.62 90.8665 133.43C90.8665 132.717 90.8279 131.541 90.8857 130.347C90.9243 129.653 90.5004 129.268 90.0765 128.728C90.0572 128.921 90.0572 128.998 90.0572 129.094C89.9801 128.767 89.9223 128.458 89.7104 128.169C88.3616 126.397 87.1092 124.566 85.9724 122.659C85.8954 122.543 85.8568 122.37 85.6449 122.331C85.6449 122.505 85.6449 122.659 85.6641 122.794C85.8761 124.721 85.9532 126.667 85.8376 128.593C85.7605 129.942 85.6834 131.291 85.7605 132.64C85.799 133.545 85.7605 134.47 86.2229 135.299C86.0688 135.183 85.9532 135.144 86.0302 135.414C86.1844 136.031 86.3193 136.667 86.4734 137.302C86.7046 138.285 87.2056 139.094 87.8607 139.846C88.5929 140.694 89.4406 141.406 90.3077 142.081C90.115 142.062 89.9994 141.927 89.8453 141.83C89.0168 141.272 88.3231 140.597 87.7065 139.827C87.6102 139.692 87.5331 139.537 87.2441 139.422C87.7065 140.289 87.9763 141.137 88.6699 141.715C88.5543 141.869 88.6699 141.965 88.747 142.062C89.7682 143.507 90.905 144.798 92.4079 145.78C92.5428 145.857 92.6584 145.973 92.8703 145.973C92.4657 145.183 92.0803 144.432 91.7142 143.661C91.5986 143.41 91.4252 143.256 91.1555 143.141C90.7509 143.064 90.3462 142.929 90.0765 142.563ZM76.3963 143.179C76.3385 143.16 76.2807 143.16 76.2422 143.121C75.009 142.177 73.6218 141.503 72.2537 140.809C70.616 140 68.8819 139.595 67.0514 139.807C66.7624 139.846 66.4541 139.827 66.1266 140.038C66.9358 140.25 67.6873 140.424 68.4387 140.616C70.5389 141.156 72.6391 141.676 74.4503 143.006C74.9705 143.391 75.7027 143.237 76.3385 143.275C76.3385 143.275 76.3578 143.198 76.3963 143.179C76.6853 143.314 76.9744 143.507 77.4368 143.391C75.7605 141.927 73.9108 140.963 71.8491 140.366C71.9455 140.462 72.0803 140.539 72.1959 140.597C73.0823 141.079 73.9879 141.541 74.8549 142.042C75.4137 142.351 75.9532 142.697 76.3963 143.179ZM93.6025 145.318C93.5832 145.356 93.5832 145.453 93.6603 145.414C93.7952 145.356 93.7952 145.202 93.853 145.087C94.2961 144.065 94.5466 142.967 94.7778 141.888C95.1632 140.058 95.3559 138.247 94.9898 136.397C94.932 136.127 94.8934 135.838 94.5852 135.549C94.7778 136.936 94.6815 138.208 94.6622 139.48C94.643 138.362 94.5852 137.245 94.5659 136.146C94.5466 135.01 93.93 134.181 93.3135 133.198C93.2942 133.353 93.2749 133.41 93.2942 133.468C93.641 134.605 93.8337 135.78 93.93 136.956C94.142 139.557 93.9686 142.139 93.3905 144.682C93.352 144.932 93.3135 145.164 93.6025 145.318ZM27.4175 68.0153C27.4175 67.919 27.379 67.8227 27.2634 67.8805C27.1478 67.9575 27.0707 68.0539 26.9744 68.1502C24.8934 70.4431 24.1998 73.1984 24.2769 76.2042C24.2961 77.129 24.3732 78.0346 24.6044 78.9595C24.7586 78.8439 24.7393 78.709 24.7778 78.5741C25.009 77.3602 25.3559 76.1849 25.8183 75.0288C26.0688 74.4123 26.2229 73.7957 26.2036 73.1213C26.1844 72.5818 26.3 72.0423 26.4541 71.5221C26.7431 70.5394 26.8973 69.5375 27.2634 68.5741C26.9936 69.6724 26.7239 70.7899 26.4734 71.8882C26.3385 72.5047 26.2422 73.1213 26.2614 73.8728C26.7817 73.0442 27.2248 72.3313 27.668 71.6184C27.6487 71.734 27.6295 71.8689 27.7643 71.9267C28.2846 72.1965 28.1304 72.5433 27.8799 72.9094C27.1863 73.9498 26.6468 75.0674 26.2807 76.2812C26.1266 76.8015 26.1073 76.8015 26.6468 76.7244C26.1458 76.8207 25.9724 77.1483 25.8568 77.6107C25.7605 78.0346 25.8761 78.1117 26.2614 78.0924C27.7258 78.0346 28.9782 77.4373 30.1535 76.6473C30.9243 76.1271 31.4445 75.4913 31.6179 74.5664C31.7142 73.9691 31.9069 73.3718 32.0803 72.6974C31.8106 72.8323 31.7142 73.0057 31.5986 73.1598C30.5004 74.5471 29.2094 75.7032 27.5717 76.4161C27.2634 76.551 26.9744 76.7437 26.6275 76.7244C28.7663 75.9151 30.4233 74.4893 31.8106 72.7167C32.0418 72.4277 32.1959 72.1194 32.2923 71.734C32.8703 68.998 33.2749 66.2427 33.8915 63.5067C33.9108 63.4296 33.93 63.3718 33.8337 63.2755C33.3327 63.5837 32.8125 63.9113 32.273 64.2196C31.3674 64.7398 30.4618 65.26 30.0187 66.3005C30.0187 66.3198 29.9801 66.3198 29.9416 66.339C29.9801 66.0115 30.2884 65.8188 30.3848 65.3949C29.4792 65.9537 28.6892 66.551 27.9377 67.1676C27.7065 67.418 27.5139 67.6685 27.4175 68.0153ZM26.4349 99.9999C26.2614 99.9229 26.1844 99.7494 26.088 99.6146C25.2595 98.3622 24.3539 97.1676 23.3135 96.0886C23.1208 95.8766 22.9088 95.7032 22.6391 95.6069C21.7913 95.3371 20.9243 95.1252 20.0572 95.1252C19.7104 95.1252 19.4214 95.0481 19.0938 95.0288C18.6507 94.9903 18.1882 95.0288 17.668 95.0288C18.4002 95.4527 19.0938 95.761 19.6526 96.3005C19.2287 96.1849 18.9397 95.8573 18.5736 95.6454C17.957 95.2986 17.379 94.9325 16.6275 94.9325C13.9108 94.9132 11.194 94.6435 8.51579 94.181C8.41945 94.1618 8.30384 94.104 8.1497 94.2581C8.22677 94.2966 8.28457 94.3159 8.32311 94.3545C9.92234 95.5491 11.3674 96.9556 12.7932 98.3429C13.0437 98.5934 13.3135 98.8053 13.6603 98.9016C13.3135 98.9402 13.564 99.0751 13.641 99.1521C14.0649 99.576 14.5081 99.9807 14.932 100.405C15.1825 100.674 15.4715 100.848 15.8954 100.771C15.7412 100.848 15.6063 100.771 15.4907 100.906C15.9917 101.368 16.5119 101.811 17.0514 102.235C17.2634 102.408 17.4753 102.466 17.7451 102.447C19.8067 102.293 21.8299 101.907 23.8144 101.272C24.0457 101.195 24.3154 101.137 24.5466 100.886C23.9878 100.616 23.4483 100.385 22.9281 100.116C22.562 99.9228 22.2345 99.9229 21.8491 100.096C21.0206 100.462 20.1728 100.751 19.2865 100.906C20.2306 100.539 21.2325 100.27 22.2537 99.8072C21.5794 99.5182 20.9821 99.2485 20.404 98.998C20.327 98.9595 20.1921 98.9787 20.0957 98.998C18.458 99.4604 16.8009 99.3448 15.1632 99.2099C14.643 99.1714 14.1035 99.1329 13.641 98.8631C15.7605 99.2292 17.8992 99.287 20.0765 98.9209C19.9223 98.709 19.7297 98.6704 19.6911 98.497C19.6526 98.3236 19.6719 98.1695 19.8067 98.0539C19.9609 97.8997 20.1343 97.919 20.3077 97.9961C20.8857 98.2466 21.4638 98.497 22.0418 98.7475C22.1574 98.8053 22.3308 98.9402 22.3115 98.6319C22.6006 98.9595 22.9667 99.1521 23.352 99.3448C23.9878 99.6724 24.7008 99.865 25.2981 100.25C25.6834 100.501 26.1266 100.694 26.5505 100.886C26.6468 100.944 26.878 101.098 26.7431 100.771C27.2826 101.484 28.1304 101.695 28.8433 102.196C28.9975 100.019 25.4715 96.0308 23.352 95.9729C24.5659 97.2061 25.6063 98.5356 26.4349 99.9999ZM51.5408 112.004C51.2904 112.1 51.4638 112.274 51.5023 112.408C52.2152 115.222 53.3905 117.842 55.0861 120.193C55.9532 121.387 56.8973 122.543 58.1112 123.43C58.2653 123.545 58.4194 123.699 58.6314 123.699C58.6892 123.507 58.5929 123.391 58.5351 123.256C57.7643 121.175 57.1478 119.037 56.7431 116.859C56.589 116.069 56.2422 115.433 55.6642 114.894C55.3751 114.624 55.0861 114.354 54.7778 114.104C54.2191 113.661 53.641 113.237 53.063 112.794C53.2364 112.794 53.352 112.909 53.4869 113.006C54.5081 113.699 55.51 114.432 56.3771 115.376C56.3193 114.836 56.2036 114.316 56.1266 113.776C56.0688 113.41 55.9146 113.121 55.6449 112.871C54.8356 112.081 53.8915 111.445 52.9281 110.867C52.5042 110.616 52.0803 110.366 51.6564 110.116C53.2171 110.79 54.6237 111.715 55.9339 112.948C55.8954 112.062 55.6641 111.31 55.51 110.559C55.1632 108.767 54.4695 107.071 53.7566 105.395C53.5254 104.875 53.564 104.566 53.8722 104.489C54.3539 104.354 54.431 104.759 54.5466 105.067C55.6834 107.63 56.4734 110.289 56.8588 113.063C56.9358 113.661 57.1285 114.239 57.2056 114.836C57.3405 115.78 57.5717 116.705 57.7643 117.63C57.7836 117.688 57.8221 117.726 57.8992 117.726C57.9763 117.534 58.0534 117.36 58.1304 117.168C57.5909 118.69 58.4965 119.981 58.8048 121.368C58.8048 121.387 58.8819 121.406 58.9011 121.445C58.8626 121.927 59.1324 122.312 59.248 122.755C59.325 123.063 59.4599 123.064 59.6526 122.832C60.2114 122.158 60.7894 121.484 61.3482 120.809C62.4657 119.403 63.063 117.823 63.1786 116.031C63.2557 114.875 63.0245 113.776 62.5428 112.717C62.485 113.218 62.485 113.699 62.4079 114.2C62.0803 116.3 61.1555 118.15 60.0572 119.923C60.0765 119.749 60.1728 119.595 60.2692 119.441C60.9435 118.131 61.6179 116.801 62.0225 115.356C62.5428 113.449 62.5235 111.638 61.2326 110.019C61.0591 109.788 60.905 109.518 60.7316 109.287C60.6738 109.21 60.6545 109.056 60.4426 109.075C60.6931 110.713 60.4811 112.312 60.1536 113.911C60.3462 112.389 60.5774 110.867 60.404 109.326C60.3077 108.555 59.826 108.092 59.3058 107.457C59.325 107.669 59.325 107.746 59.3443 107.803C59.4792 108.651 59.5948 109.518 59.5177 110.385C59.4406 111.272 59.3058 112.139 59.1324 112.986C58.8626 114.354 58.6314 115.722 58.169 117.033C58.458 115.665 58.747 114.277 59.0168 112.909C59.3058 111.387 59.537 109.884 59.3443 108.324C59.2672 107.669 59.1131 107.09 58.6507 106.57C57.167 104.894 55.7412 103.179 54.2961 101.484C52.7354 99.6724 51.2711 97.7841 49.7875 95.8959C49.6141 95.6647 49.4599 95.4334 49.1709 95.2793C49.0746 95.472 49.1324 95.6261 49.1516 95.7803C49.4214 97.9575 49.6911 100.154 49.9031 102.351C50.1343 104.721 50.404 107.071 50.8279 109.403C50.8665 109.672 50.9435 109.884 51.2326 109.981C51.1169 109.961 50.9435 109.942 50.9821 110.116C51.1362 110.771 51.0977 111.445 51.5408 112.004ZM73.0245 144.624C72.9089 144.836 72.7932 145.029 72.6198 145.183C70.7123 147.148 68.535 148.651 65.8183 149.306C65.6834 149.345 65.5485 149.326 65.4715 149.48C67.1863 150 68.9397 150.289 70.7316 150.116C72.9667 149.904 74.9512 149.075 76.4927 147.399C77.167 146.667 77.6873 145.838 77.9185 144.855C77.9763 144.605 77.957 144.432 77.6295 144.393C76.3578 144.181 75.0668 144.046 73.7759 143.969C73.5832 143.95 73.4291 144.027 73.352 144.2C73.3905 143.95 73.2364 143.95 73.063 143.95C72.3886 143.969 71.7142 143.988 71.0399 143.988C70.7701 143.988 70.5389 144.085 70.3462 144.297C70.4233 143.95 70.1728 144.085 70.0379 144.085C69.036 144.181 68.0341 144.335 67.0514 144.624C66.7817 144.701 66.5505 144.663 66.4541 144.354C66.3771 144.085 66.5119 143.911 66.7624 143.815C68.2075 143.314 69.7297 143.218 71.2133 143.064C72.0803 142.967 73.0052 143.044 73.8915 143.102C73.9879 143.102 74.1035 143.16 74.1613 143.006C73.1208 142.312 72.0225 141.753 70.7894 141.426C69.7682 141.156 68.7663 140.867 67.7451 140.578C65.4329 139.942 65.2788 139.942 63.1401 141.021C63.0823 141.04 63.0245 141.06 62.9859 141.098C62.9089 141.156 62.774 141.156 62.7932 141.31C64.3154 141.464 65.8568 141.599 67.3405 142.004C66.2422 141.811 65.1439 141.676 64.0457 141.522C63.0823 141.368 62.2152 141.406 61.3289 141.965C59.2094 143.333 56.9166 144.432 54.5466 145.318C54.3925 145.376 54.1998 145.376 54.1227 145.607C54.2576 145.665 54.3732 145.703 54.4888 145.742C57.0514 146.474 59.537 147.399 62.0225 148.362C62.4272 148.516 62.8318 148.632 63.2557 148.439C63.2364 148.574 62.9859 148.497 63.0245 148.709C63.3327 148.805 63.641 148.94 63.9686 149.017C64.1035 149.056 64.2961 148.959 64.3539 149.037C64.6815 149.383 65.0668 149.364 65.4907 149.268C68.5158 148.574 70.9243 146.879 73.0245 144.624ZM21.984 16.5125C21.8299 16.4161 21.9069 16.1078 21.7142 16.1078C21.5023 16.1078 21.483 16.3776 21.406 16.5317C21.1169 17.052 20.8665 17.6107 20.5389 18.1117C20.0187 18.8824 19.4406 19.6146 18.8626 20.3467C17.7836 21.6762 16.878 23.102 16.5505 24.7976C16.1073 27.0905 16.1266 29.4219 16.3385 31.734C16.3578 32.0038 16.5119 32.2157 16.6853 32.4277C17.6487 33.5837 18.458 34.8361 19.0938 36.2042C19.1516 36.3198 19.1709 36.4546 19.3636 36.551C18.7085 33.9691 18.0534 31.445 17.3597 28.9209C18.6892 32.6396 19.2287 36.5703 20.6545 40.3275C20.5582 39.0173 20.4811 37.7649 20.3848 36.5317C20.404 36.5317 20.4233 36.5317 20.4426 36.5317C20.5582 38.0346 20.6738 39.5375 20.7894 41.0404C21.0977 40.3853 21.1362 39.7109 21.2325 39.0365C21.2325 39.0943 21.2325 39.1521 21.2518 39.2099C21.2518 39.2677 21.2518 39.3256 21.3482 39.3256C22.5235 34.181 22.9281 29.0365 21.772 23.8342C22.2152 25.4527 22.5042 27.0905 22.6006 28.7668C22.7547 31.7533 22.4464 34.7205 21.8491 37.6493C21.6179 38.8053 21.3289 39.9421 21.0591 41.0789C21.0206 41.2716 20.9821 41.4257 21.2711 41.3872C21.1169 41.4835 21.0399 41.6377 21.0784 41.8304C22.0418 40.7706 22.6584 39.499 23.4291 38.3236C23.2942 38.6126 23.1593 38.9017 22.9667 39.3063C23.1015 39.1907 23.1401 39.1714 23.1593 39.1329C24.2961 37.4373 25.4715 35.7803 26.5697 34.0462C28.5351 30.944 29.537 27.5914 28.9204 23.8535C28.5543 21.6377 27.5524 19.9999 25.5293 18.9209C24.3539 18.3044 23.1593 17.6493 22.273 16.5895C22.1574 16.5125 22.0996 16.3198 21.984 16.5125ZM13.8915 62.1001C14.4503 62.3699 14.5659 62.3121 14.6044 61.6955C14.643 62.2735 14.72 62.3121 15.3173 62.235C16.011 62.1387 16.7239 62.023 17.4368 61.9845C17.8607 61.9652 17.957 61.8111 17.957 61.4257C17.9378 60.4045 18.1304 59.4026 18.3424 58.4007C18.3424 58.5548 18.3424 58.6897 18.3038 58.8439C18.169 59.6916 18.0148 60.5394 17.9956 61.4065C17.9956 61.5414 17.9185 61.7533 18.0726 61.8111C18.246 61.8689 18.3424 61.6762 18.4387 61.5606C18.9397 60.9633 19.2672 60.2697 19.4792 59.5375C20.0187 57.6493 21.0399 56.1656 22.9088 55.3756C22.9281 55.3756 22.9281 55.3564 22.9474 55.3564C24.1227 54.6435 24.5851 53.603 24.3347 52.235C24.142 51.1753 23.6796 50.2311 23.1208 49.3256C22.3308 48.0153 21.5408 46.7051 20.8279 45.3564C20.7894 45.26 20.7509 45.1444 20.5967 45.1059C21.1362 47.1676 21.6757 49.2099 22.2152 51.2331C21.9455 50.578 21.7335 49.9229 21.5601 49.2292C21.1747 47.7649 20.7894 46.3198 20.4233 44.8554C20.327 44.4893 20.0765 44.2196 20.0187 43.8535C19.9801 43.5259 19.7104 43.2755 19.4599 43.0828C19.2672 42.9479 19.036 43.1791 18.8048 43.2562C18.747 43.2755 18.6892 43.2562 18.6314 43.2562C17.5717 43.3718 16.589 43.6415 15.9146 44.5664C15.6449 44.9518 15.2981 45.2793 15.009 45.6454C13.8144 47.1676 12.6006 48.6897 11.772 50.4816C12.7547 47.8805 14.6044 45.8766 16.5119 43.815C16.3578 43.8535 16.3 43.8535 16.2229 43.892C14.3347 44.6435 12.5235 45.4913 10.9435 46.84C9.2865 48.2658 8.63139 50.0385 8.78553 52.1579C8.88187 53.4681 9.38284 54.6242 9.98014 55.7803C10.4426 56.6859 10.8087 57.63 10.9821 58.6319C11.0591 59.1714 11.1362 59.7109 11.2325 60.2311C11.3096 60.655 11.5023 61.0404 11.8684 61.3294C11.9455 61.1945 11.9262 61.1175 11.8877 61.0404C12.0803 61.4065 12.273 61.7726 12.7162 61.9074C13.0437 62.023 13.3713 62.1386 13.7374 62.1965C13.7759 62.1965 13.8915 62.2543 13.8915 62.1001ZM44.1805 37.3217C44.3732 37.0905 44.72 37.1676 44.8934 36.8978C45.1246 36.5317 45.4137 36.1849 45.7027 35.8573C45.9532 35.5683 45.8761 35.4335 45.5485 35.2793C44.7586 34.894 43.9686 34.4701 43.1979 34.0654C43.2171 34.0462 43.2557 34.0269 43.2557 34.0076C43.2557 33.9884 43.2364 33.9498 43.2171 33.9306C42.8703 33.6608 42.5042 33.4103 42.1767 33.102C41.8877 32.8323 41.5408 32.6589 41.2518 32.3506C40.5004 31.5992 39.6526 30.9055 38.8048 30.2504C35.7798 27.919 32.0803 28.4585 29.5948 30.0963C29.4021 30.2119 29.2287 30.3467 29.1516 30.578C28.3424 32.9094 27.0322 34.971 25.6063 36.9556C25.5485 37.0327 25.4329 37.1098 25.4715 37.2832C26.0688 36.8207 26.6275 36.3583 27.2248 35.9344C28.8241 34.7783 30.4233 33.6223 32.2923 32.9286C33.0245 32.6589 33.7952 32.5047 34.5851 32.4855C33.8722 32.6396 33.1593 32.7938 32.4657 33.0635C29.6911 34.181 27.3212 35.9344 25.0861 37.8805C24.4117 38.4585 24.0649 39.3063 23.6025 40.077C24.8164 39.3063 26.088 38.6512 27.3597 38.0346C27.2634 38.1309 27.1478 38.1888 27.0322 38.2466C25.9532 38.8439 24.8549 39.4219 23.8337 40.0963C23.352 40.4046 22.9859 40.8092 22.6776 41.2909C22.5428 41.5028 22.6006 41.7726 22.2537 41.9267C23.4869 42.0809 24.3732 41.3101 25.3944 41.1175C24.8934 41.3294 24.3925 41.5414 23.8915 41.7533C24.7008 41.8111 25.51 41.8496 26.2807 41.6377C28.5736 41.0211 30.8472 40.3853 33.1786 39.8843C34.0071 39.7109 34.8356 39.5375 35.6641 39.3641C32.5813 40.077 29.5177 40.8477 26.4156 41.6955C26.6083 41.8304 26.7624 41.7918 26.8973 41.7918C29.3443 41.8882 31.7335 42.235 34.0071 43.1598C35.4329 43.7572 36.7431 44.5279 37.6102 45.8766C37.8414 46.2234 38.4387 46.2812 38.7855 46.05C39.537 45.5491 39.9609 44.7783 40.3848 44.0269C41.6179 41.7918 42.8125 39.5375 44.3925 37.4951C44.4503 37.4373 44.5466 37.341 44.4888 37.2832C44.3925 37.2061 44.2769 37.2061 44.1805 37.3217ZM2.11887 34.2388C1.65644 34.0462 1.79132 34.2774 1.82985 34.4123C2.1574 35.472 2.50422 36.5317 2.83178 37.6107C3.31347 39.1136 3.85297 40.578 4.66222 41.946C5.87609 43.9884 7.51386 45.472 9.92234 45.973C10.2692 46.05 10.5389 46.0115 10.8087 45.7803C11.1362 45.4913 11.5216 45.26 11.8877 45.0096C12.2537 44.7591 12.6391 44.5471 13.0437 44.3545C13.3713 44.181 13.6988 43.9884 14.0649 43.8535C15.0668 43.4874 16.0495 43.0442 17.0707 42.736C17.957 42.4662 18.8433 42.1965 19.7682 42.1001C20.0379 42.0616 20.0187 42.023 19.9994 41.8111C19.8453 41.0019 19.5562 40.2311 19.4021 39.4412C19.325 38.9787 19.036 38.5934 18.9011 38.1309C18.6699 37.2832 18.2653 36.4932 17.8221 35.7225C16.6661 33.6801 15.2788 31.8304 13.2364 30.578C11.4638 29.4797 9.59478 28.9787 7.53313 29.6916C6.28072 30.1348 5.04758 30.6743 3.67956 30.9633C4.14199 31.2331 4.62368 31.2138 5.02831 31.445C4.60442 31.3679 4.18053 31.2716 3.75663 31.1753C3.14006 31.0211 2.85105 31.0404 2.52349 31.2716C3.14006 31.445 3.7759 31.6184 4.39247 31.7918C5.02831 31.9845 5.64488 32.235 6.24218 32.5047C6.80095 32.7745 7.37898 33.0442 7.93775 33.314C7.76434 33.3333 7.6102 33.2755 7.47532 33.1984C6.14584 32.5433 4.7971 31.946 3.35201 31.5799C2.75471 31.4257 2.17667 31.1753 1.54083 31.2716C1.5023 31.2716 1.46376 31.3101 1.40596 31.3294C1.5601 31.445 1.65644 31.5028 1.75278 31.5799C1.6179 31.5799 1.52157 31.5221 1.42523 31.4835C1.29035 31.4257 1.11694 31.2909 0.982067 31.445C0.847192 31.5992 0.943531 31.7726 1.0206 31.946C1.09767 32.1001 1.13621 32.2543 1.19401 32.4084C1.34816 32.9864 1.40596 33.6993 2.11887 34.2388ZM20.7894 43.2369C20.7894 43.5452 21.0784 43.6415 21.0784 43.7379C21.0399 44.2003 21.5794 44.4123 21.5986 44.7205C21.6179 45.183 21.9069 45.4335 22.0611 45.7803C22.273 46.262 22.5813 46.7051 22.8318 47.1676C23.4869 48.3236 24.2961 49.3834 24.7393 50.6358C24.932 51.1945 25.1632 51.657 25.7219 52.0038C26.8973 52.7552 28.1882 53.1406 29.5948 53.4681C29.4021 53.0442 29.036 52.9094 28.8048 52.524C29.2865 52.8708 29.5177 53.3718 29.9994 53.5259C30.4811 53.6993 31.0013 53.7572 31.5023 53.892C32.3693 54.1232 33.2171 54.4315 34.0649 54.7591C34.7778 55.0288 35.4907 55.3178 36.2614 55.4142C36.7431 55.472 36.878 55.3564 36.9358 54.894C36.9936 54.3737 36.9551 53.8342 36.9936 53.314C37.09 52.1001 37.3404 50.9055 37.5331 49.6916C37.8029 47.8419 37.2634 46.262 35.722 45.1059C34.7971 44.4315 33.7759 43.9691 32.6969 43.6223C30.0765 42.7745 27.3983 42.6203 24.6815 42.7167C24.4117 42.7167 24.1227 42.736 23.853 42.7552C26.7239 43.2369 28.8048 43.7572 29.6911 44.2966C29.4406 44.2196 29.3058 44.181 29.1709 44.1232C27.0707 43.3718 24.8934 42.9864 22.6776 42.8901C22.0803 42.8708 21.4445 42.7745 20.8665 43.1984C23.7374 44.0462 26.4349 45.183 28.9975 46.6859C26.3 45.3371 23.6603 44.104 20.7894 43.2369ZM17.6102 102.543C19.5755 104.701 26.088 105.067 28.6892 103.179C28.6699 103.141 28.6507 103.102 28.6121 103.083C27.4368 102.351 26.2036 101.695 24.9512 101.06C24.7778 100.983 24.643 101.021 24.4888 101.098C23.0052 101.811 21.406 102.1 19.7875 102.312C19.0746 102.428 18.3424 102.466 17.6102 102.543ZM31.0399 76.1464C30.693 76.4161 30.3462 76.7244 29.9801 76.9749C28.8048 77.7649 27.5331 78.2851 26.0688 78.1502C25.8376 78.1309 25.7412 78.208 25.7219 78.42C25.7027 78.5934 25.6641 78.7668 25.6256 78.9402C25.5293 79.2485 25.6834 79.4026 25.9532 79.499C26.4349 79.6531 26.9358 79.7302 27.4175 79.6338C29.3636 79.2677 30.3848 77.919 31.0399 76.1464ZM93.8722 145.356C95.5485 144.509 96.4541 139.653 95.3173 137.457C95.4522 140.231 94.8934 142.832 93.8722 145.356Z" fill="#D82149"/>
<path d="M107.706 159.961C107.649 159.615 107.764 159.345 107.976 159.037C109.479 156.879 111.599 155.453 113.872 154.22C117.88 152.062 121.945 150.058 125.934 147.88C133.236 143.892 140.385 139.711 147.186 134.932C158.015 127.322 167.764 118.516 176.049 108.15C180.905 102.062 185.452 95.761 189.132 88.8824C193.545 80.655 196.435 71.9074 197.822 62.6974C198.882 55.7032 198.574 48.7668 196.647 41.946C194.797 35.3757 191.599 29.576 186.955 24.5664C181.907 19.1329 176.184 14.6435 169.479 11.4258C165.606 9.57604 161.502 8.63192 157.263 8.26583C152.389 7.86121 147.649 8.47778 143.082 10.2697C139.036 11.8689 135.452 14.2389 132.119 16.9942C128.959 19.5953 126.223 22.6011 123.583 25.7032C120.365 29.5182 117.283 33.4489 114.296 37.4758C113.641 38.3429 113.044 39.2485 112.466 40.1733C112.311 40.4238 112.157 40.6936 111.811 40.5009C111.464 40.289 111.637 40.0192 111.791 39.7687C112.87 37.9575 114.084 36.2427 115.356 34.5857C118.728 30.1348 122.196 25.761 125.972 21.6377C129.787 17.4759 134.046 13.892 139.017 11.1945C144.797 8.05388 150.982 6.85928 157.533 7.39878C163.853 7.91901 169.595 10.0577 174.932 13.4103C181.175 17.341 186.57 22.1772 190.963 28.0924C194.527 32.9094 196.782 38.3429 198.092 44.1811C199.768 51.6184 199.556 59.0558 198.053 66.4932C195.741 77.9768 191.155 88.4778 184.527 98.131C179.267 105.78 173.545 113.025 166.936 119.576C159.267 127.187 150.828 133.815 141.714 139.615C133.371 144.913 124.72 149.653 115.895 154.104C114.527 154.798 113.198 155.53 111.945 156.416C110.674 157.302 109.518 158.304 108.651 159.615C108.4 160 108.111 160.116 107.706 159.961Z" fill="#D82149"/>
<path d="M38.3809 36.1657C34.3732 36.6281 30.7123 38.2081 26.9165 39.6917C28.4387 38.5164 36.2999 36.1079 38.3809 36.1657Z" fill="#D82149"/>
<path d="M31.0205 34.8362C33.9492 33.7957 36.9743 33.1792 40.0571 32.7745C36.9935 33.2562 33.9878 33.9691 31.0205 34.8362Z" fill="#D82149"/>
<path d="M41.2517 39.6146C39.4598 40.1541 37.6679 40.6744 35.876 41.2139C37.6101 40.5395 39.402 40.0192 41.2517 39.6146Z" fill="#D82149"/>
<path d="M43.1979 34.0462C42.7162 34.1618 42.2345 34.1233 41.7528 34.1425C40.5582 34.2003 39.3828 34.2389 38.1882 34.3352C39.8453 34.0847 41.5216 33.9691 43.1979 34.0462Z" fill="#D82149"/>
<path d="M44.1806 37.3217C43.2558 37.3796 42.3694 37.7071 41.4446 37.842C42.3309 37.6108 43.2172 37.2447 44.1806 37.3217Z" fill="#D82149"/>
<path d="M38.4964 37.2447C37.7064 37.4374 36.9164 37.6108 36.1264 37.8034C36.1264 37.7842 36.1072 37.7649 36.1072 37.7264C36.8972 37.5337 37.6871 37.3603 38.4771 37.1676C38.4771 37.1869 38.4771 37.2061 38.4964 37.2447Z" fill="#D82149"/>
<path d="M9.28638 32.7168C12.928 34.1812 15.9723 36.5511 18.7469 39.2679C15.876 36.7052 12.8124 34.3931 9.28638 32.7168Z" fill="#D82149"/>
<path d="M15.8953 40.7515C13.4483 39.422 11.0398 38.0154 8.59277 36.7245C11.1361 37.8806 13.5446 39.2678 15.8953 40.7515Z" fill="#D82149"/>
<path d="M18.7277 41.0789C16.9358 39.8073 15.1246 38.5741 13.2942 37.3795C15.221 38.4585 17.0514 39.6724 18.7277 41.0789Z" fill="#D82149"/>
<path d="M7.7644 35.3179C9.65265 36.1271 11.4638 37.1483 13.2365 38.2273C11.406 37.2639 9.57558 36.2813 7.7644 35.3179Z" fill="#D82149"/>
<path d="M9.51758 42.0231C10.2883 42.4084 11.059 42.8131 11.849 43.1984C11.0012 42.9287 10.2498 42.524 9.51758 42.0231Z" fill="#D82149"/>
<path d="M9.19015 39.8073C9.84525 40.1348 10.5004 40.4624 11.1747 40.7899C11.1555 40.8092 11.1555 40.8284 11.1362 40.8477C10.4811 40.5394 9.80672 40.2119 9.15161 39.9036C9.15161 39.8651 9.17088 39.8458 9.19015 39.8073Z" fill="#D82149"/>
<path d="M12.6583 32.37C12.0417 32.0617 11.4444 31.7534 10.8278 31.4451C10.8086 31.4258 10.7893 31.4066 10.77 31.368C11.4444 31.6571 12.0995 31.9653 12.6583 32.37Z" fill="#D82149"/>
<path d="M3.62167 34.2581C2.98583 33.9498 2.52341 33.4489 2.00317 32.9865C2.54267 33.4103 3.15924 33.7379 3.62167 34.2581Z" fill="#D82149"/>
<path d="M3.62183 34.2775C4.02645 34.4123 4.2962 34.7592 4.62375 35.0289C4.27693 34.7784 3.87231 34.605 3.62183 34.2775Z" fill="#D82149"/>
<path d="M18.7083 44.2968C16.8201 48.5935 15.7411 53.1021 15.587 57.8035C15.4906 53.0251 16.6274 48.5549 18.7083 44.2968Z" fill="#D82149"/>
<path d="M18.6506 53.1406C18.7662 50.5202 19.2479 47.9768 19.826 45.4335C19.3828 47.9961 18.9782 50.5587 18.6506 53.1406Z" fill="#D82149"/>
<path d="M11.8683 61.0212C11.56 59.4027 11.5215 57.7842 11.9647 56.1849C11.7527 57.3988 11.772 58.6319 11.8105 59.8458C11.8105 60.2504 11.9647 60.6358 11.8683 61.0212Z" fill="#D82149"/>
<path d="M16.9744 56.3198C17.1092 54.7013 17.2827 53.1021 17.6487 51.5221C17.4175 53.1021 17.1863 54.7206 16.9744 56.3198Z" fill="#D82149"/>
<path d="M13.8914 62.1002C13.6409 60.7129 13.5061 59.3063 13.6409 57.8998C13.6217 59.1907 13.7373 60.4817 13.9107 61.7533C13.93 61.869 13.8914 61.9846 13.8914 62.1002Z" fill="#D82149"/>
<path d="M12.9858 52.9286C13.2556 51.9653 13.5639 50.9826 14.0263 50.0577C13.6987 51.0404 13.3712 52.0038 13.0436 52.9865C13.0244 53.025 12.9858 53.0057 12.9858 52.9286Z" fill="#D82149"/>
<path d="M15.587 58.709C15.5485 59.6916 15.4714 60.6936 15.4907 61.6955C15.4329 60.6936 15.4521 59.7109 15.587 58.709Z" fill="#D82149"/>
<path d="M21.2326 41.3872C21.1362 41.2523 21.2133 41.1367 21.2518 41.0211C22.1959 38.7668 22.8318 36.4354 23.2171 34.0269C23.2364 33.9498 23.2749 33.892 23.3135 33.8342C22.9859 36.3005 22.4272 38.709 21.3867 40.9826C21.3289 41.0982 21.2133 41.2138 21.2326 41.3872Z" fill="#D82149"/>
<path d="M24.4887 25.7032C24.4695 23.237 23.8914 20.867 23.2363 18.4971C23.9878 20.8477 24.72 23.1984 24.4887 25.7032Z" fill="#D82149"/>
<path d="M26.7239 25.9923C26.6083 23.9113 26.1458 21.8882 25.7412 19.8458C26.2807 21.8497 26.8009 23.8728 26.7239 25.9923Z" fill="#D82149"/>
<path d="M23.4097 25.5106C23.6023 27.7072 23.6409 29.923 23.506 32.1388C23.5253 29.923 23.5253 27.7264 23.4097 25.5106Z" fill="#D82149"/>
<path d="M24.7007 34.4508C24.8548 32.8323 25.0282 31.2138 25.1824 29.5953C25.1631 31.2138 24.9704 32.8323 24.7007 34.4508Z" fill="#D82149"/>
<path d="M19.1131 27.3796C18.9975 25.9345 18.8048 24.4894 18.6506 23.0443C18.9204 24.4701 19.0938 25.9152 19.1131 27.3796Z" fill="#D82149"/>
<path d="M21.9263 22.1772C21.6758 21.079 21.4253 19.9807 21.1748 18.8632C21.5409 19.9614 21.8299 21.0597 21.9263 22.1772Z" fill="#D82149"/>
<path d="M21.5022 33.2177C21.5022 34.4123 21.5022 35.6069 21.5022 36.8015C21.4829 36.8015 21.4829 36.8015 21.4636 36.8015C21.4636 35.6069 21.4636 34.4123 21.4636 33.2177C21.4636 33.2177 21.4829 33.2177 21.5022 33.2177Z" fill="#D82149"/>
<path d="M21.9646 16.5318C22.2343 17.1676 22.3885 17.842 22.5426 18.5163C22.35 17.8612 22.0224 17.2254 21.9646 16.5318Z" fill="#D82149"/>
<path d="M21.1362 29.9807C21.3674 30.5009 21.3096 31.0597 21.3096 31.6185C21.2518 31.079 21.194 30.5202 21.1362 29.9807Z" fill="#D82149"/>
<path d="M21.1363 29.9807C21.0592 29.4412 21.0014 28.8824 20.9243 28.3429C21.0399 28.8824 21.2326 29.4219 21.1363 29.9807Z" fill="#D82149"/>
<path d="M29.749 46.1272C28.2461 45.2794 26.7047 44.4894 25.0669 43.9114C26.7432 44.3931 28.3039 45.1638 29.749 46.1272Z" fill="#D82149"/>
<path d="M32.2729 45.9344C33.641 46.4932 34.7778 47.3988 35.8375 48.4007C34.7007 47.5144 33.5639 46.6281 32.2729 45.9344Z" fill="#D82149"/>
<path d="M30.0764 50.8862C31.0783 51.8882 32.0803 52.8901 33.0822 53.892C32.0417 52.9286 31.0205 51.9652 30.0764 50.8862Z" fill="#D82149"/>
<path d="M28.3809 52.2351C27.8992 51.7919 27.4175 51.368 26.9165 50.9248C26.9358 50.9056 26.955 50.867 26.9743 50.8478C27.456 51.2909 27.957 51.7148 28.4387 52.158C28.4387 52.1773 28.4194 52.1965 28.3809 52.2351Z" fill="#D82149"/>
<path d="M23.9108 46.4932C23.4869 46.1464 23.0631 45.7996 22.6392 45.4528C23.1401 45.7032 23.5447 46.0693 23.9108 46.4932Z" fill="#D82149"/>
<path d="M69.4984 144.875C69.4984 145.01 69.3827 145.067 69.2864 145.144C67.533 146.397 65.7219 147.572 63.6795 148.343C63.5253 148.401 63.3712 148.42 63.217 148.478C64.0648 148.073 64.9126 147.688 65.7411 147.264C67.0706 146.57 68.2845 145.723 69.4984 144.875Z" fill="#D82149"/>
<path d="M88.4194 138.767C88.1882 138.748 88.1111 138.516 87.9955 138.362C87.5909 137.842 87.2441 137.303 86.9165 136.724C87.0899 136.744 87.1284 136.898 87.2055 137.014C87.6101 137.592 88.0148 138.189 88.4194 138.767Z" fill="#D82149"/>
<path d="M27.6873 71.657C28.0919 70.1349 28.7085 68.7091 29.4021 67.3025C29.5755 66.9749 29.7104 66.6089 29.9801 66.3391C29.9801 66.3776 29.9801 66.4355 29.9609 66.474C29.0553 68.131 28.3616 69.8844 27.6873 71.657Z" fill="#D82149"/>
<path d="M93.6026 145.318C93.7182 144.451 93.9494 143.622 94.1613 142.775C93.9879 143.622 93.9686 144.509 93.6026 145.318Z" fill="#D82149"/>
<path d="M115.279 55.7803C114.739 55.8959 114.219 55.8381 113.699 55.7225C111.502 55.2793 109.518 54.3545 107.61 53.2369C107.494 53.1791 107.379 53.1021 107.263 53.0443C107.244 53.025 107.205 53.0443 107.167 53.0635C107.321 53.8728 107.494 54.6628 107.61 55.472C107.861 57.1869 107.976 58.921 107.668 60.6551C107.61 61.0019 107.514 61.3487 107.36 61.657C106.897 62.6011 106.03 62.6589 105.433 61.7919C105.163 61.3872 104.99 60.9248 104.855 60.4624C104.219 58.1695 104.315 55.8959 104.913 53.6223C104.99 53.3333 105.047 53.0443 105.163 52.7745C105.491 52.1001 105.279 51.4836 104.97 50.8863C104.624 50.2312 104.257 49.6146 103.872 48.921C103.737 49.1522 103.814 49.3449 103.814 49.5183C103.891 51.0212 103.756 52.4855 103.256 53.9113C103.082 54.4123 102.832 54.8747 102.446 55.2601C101.656 56.0501 100.654 55.9152 100.115 54.9133C99.7295 54.2003 99.6717 53.4296 99.691 52.6397C99.7488 51.1753 100.153 49.8073 100.847 48.5163C101.232 47.7842 101.598 47.052 102.022 46.3391C102.177 46.0501 102.157 45.8381 102.003 45.5684C101.598 44.8747 101.271 44.1618 100.847 43.4874C100.038 42.1772 99.479 40.7321 98.6698 39.4219C98.5927 39.2871 98.5349 39.1136 98.3808 39.0173C98.2844 39.1136 98.3422 39.2292 98.3422 39.3256C98.4964 40.7321 98.5156 42.1387 98.2073 43.5452C98.0917 44.0462 97.9183 44.5279 97.5908 44.9518C96.8586 45.8766 95.7796 45.8381 95.1438 44.8362C94.6235 44.0269 94.4887 43.1021 94.4501 42.1772C94.3923 40.867 94.6043 39.5953 94.9318 38.3429C95.1823 37.3988 95.452 36.4739 95.7025 35.5298C95.7025 35.5106 95.7025 35.4913 95.7218 35.4913C96.242 34.9133 95.7989 34.4701 95.5098 34.0269C93.8914 31.4643 92.1958 28.9595 90.3846 26.5318C90.269 26.3776 90.1919 26.2042 89.9993 26.1271C89.9414 26.3198 90.0571 26.4547 90.1149 26.5896C90.77 28.3237 91.2517 30.1156 91.3865 31.9845C91.4443 32.7553 91.4443 33.5067 91.2517 34.2581C91.0975 34.7976 90.8663 35.2986 90.2497 35.4335C89.6524 35.5491 89.2285 35.2215 88.8817 34.7976C88.323 34.1425 87.9954 33.3718 87.7449 32.5626C87.1669 30.7321 87.0127 28.8439 86.9742 26.9556C86.9549 25.4913 86.8201 24.0269 86.6467 22.5626C86.5888 21.9845 86.3384 21.6185 85.9915 21.2524C85.0667 20.2504 84.1033 19.2678 83.1014 18.3429C81.6756 17.0327 80.2112 15.761 78.612 14.6628C78.4964 14.5857 78.4 14.4701 78.2074 14.4508C78.2266 14.6435 78.3615 14.7591 78.4578 14.894C79.6332 16.4547 80.6929 18.0924 81.3673 19.9614C81.6563 20.7321 81.8875 21.5221 81.9068 22.3699C81.9068 22.9479 81.8682 23.5645 81.2709 23.8535C80.6736 24.1425 80.1534 23.8343 79.691 23.4682C78.8239 22.7745 78.2266 21.8689 77.7449 20.8863C76.6274 18.6705 76.0108 16.3005 75.6833 13.8535C75.5677 12.9865 75.2401 12.4855 74.4501 12.1002C71.7334 10.7707 68.9395 9.67241 65.953 9.0751C65.7796 9.03657 65.6062 9.0173 65.3943 8.97876C65.4906 9.19071 65.6447 9.20998 65.7796 9.28705C67.032 9.96142 68.1881 10.7707 69.0551 11.9075C69.479 12.4855 69.8259 13.1021 69.9415 13.815C70.0956 14.7976 69.5561 15.4913 68.5542 15.5491C67.9569 15.5876 67.4174 15.4335 66.8779 15.2023C66.0879 14.8747 65.3557 14.4123 64.7006 13.8921C63.0821 12.6204 61.7334 11.0982 60.5002 9.46046C60.3654 9.26778 60.1534 9.0751 60.1727 8.84389C60.2112 8.38146 59.9415 8.40073 59.6332 8.40073C57.0706 8.36219 54.5465 8.59341 52.0609 9.13291C51.3673 9.28705 50.6736 9.47973 49.98 9.74948C50.1534 9.78801 50.3268 9.80728 50.5002 9.84582C52.8316 10.2312 54.9318 11.1753 56.8201 12.6011C57.2247 12.9094 57.61 13.2755 57.8605 13.7186C58.3422 14.5664 57.9183 15.3371 56.9549 15.3949C56.2806 15.4335 55.6447 15.2601 55.0089 15.0481C53.2363 14.4316 51.637 13.4682 50.0571 12.447C49.0744 11.8111 48.0147 11.2909 46.9164 10.8477C46.7237 10.7707 46.5503 10.7707 46.3576 10.8477C44.6621 11.5221 43.0243 12.2928 41.4443 13.2177C40.7892 13.5838 40.1341 13.9306 39.5368 14.4508C39.768 14.4316 39.9993 14.4123 40.2497 14.393C41.8297 14.2967 43.3326 14.4894 44.6621 15.4335C44.8933 15.5876 45.1052 15.7803 45.2786 16.0115C46.0301 16.9556 45.7218 17.919 44.585 18.2659C43.7565 18.5163 42.8894 18.4778 42.0609 18.3429C40.269 18.0346 38.5542 17.4373 36.9357 16.6474C36.5696 16.4739 36.3191 16.4932 36.0301 16.7437C35.664 17.0713 35.2786 17.3603 34.874 17.63C34.7391 17.7264 34.585 17.9961 34.4116 17.7071C34.2767 17.4951 34.0455 17.2447 34.3345 16.9556C34.4887 16.8208 34.6428 16.6859 34.8162 16.5703C35.2594 16.2042 35.7796 15.9344 36.0879 15.4335C36.1264 15.3757 36.165 15.3564 36.2228 15.3179C37.6679 14.6435 38.8817 13.5838 40.2883 12.8516C40.5195 12.736 40.6158 12.5626 40.6736 12.3121C41.1746 9.98069 41.7334 7.66855 42.9858 5.58763C43.3133 5.04813 43.6794 4.5279 44.1418 4.08474C44.3153 3.91133 44.5272 3.75718 44.7584 3.68011C45.2594 3.5067 45.6833 3.71865 45.8374 4.21961C45.9916 4.70131 45.8952 5.14447 45.7796 5.6069C45.4906 6.64736 44.9704 7.55295 44.3923 8.43927C43.7758 9.38339 43.1206 10.3082 42.5041 11.2524C42.427 11.368 42.3114 11.4836 42.2921 11.6377C42.4463 11.7341 42.5426 11.5992 42.639 11.5414C44.9896 10.3468 47.4366 9.38339 49.98 8.68975C50.2305 8.61268 50.3653 8.49707 50.4617 8.24659C51.1553 6.51248 51.7912 4.75911 52.8509 3.19842C53.6409 2.04235 54.585 1.05969 55.8567 0.423851C56.5503 0.0770307 57.2825 -0.154183 58.0725 -4.06317e-05C58.9395 0.17337 59.4212 0.78994 59.3634 1.67626C59.3056 2.44697 58.9395 3.08281 58.4964 3.66085C57.3981 5.10593 55.9723 6.18493 54.5079 7.24466C54.2767 7.41807 54.0455 7.57221 53.8336 7.84196C54.1226 7.80343 54.3923 7.78416 54.6813 7.74562C59.5368 7.12905 64.296 7.49514 68.9973 8.88243C69.3827 8.99803 69.6139 8.90169 69.9415 8.67048C72.3307 6.84004 74.9896 5.81884 78.0725 6.262C78.5927 6.33907 79.0937 6.51248 79.5368 6.82077C80.3653 7.3988 80.4039 8.30439 79.6524 8.99803C79.2478 9.36412 78.7276 9.57607 78.2266 9.74948C76.6467 10.2697 75.0282 10.3468 73.3904 10.289C73.2555 10.289 73.1399 10.2697 72.9858 10.2697C73.0628 10.4624 73.217 10.4817 73.3519 10.5395C76.6659 12.0423 79.6717 14.0269 82.4077 16.4354C82.7546 16.7437 83.0436 16.8208 83.4675 16.6281C84.2574 16.262 85.0667 15.9537 85.8567 15.6069C87.1669 15.0481 88.4964 14.6435 89.9222 14.5086C90.7314 14.4508 91.5214 14.4894 92.2536 14.8362C93.5638 15.4335 93.7179 16.7437 92.5619 17.63C91.637 18.3237 90.5387 18.5356 89.4212 18.6897C87.9954 18.8824 86.5696 18.7861 85.163 18.5163C85.0282 18.4971 84.8933 18.4007 84.7391 18.4778C84.7391 18.6319 84.874 18.709 84.9511 18.8054C87.9954 21.8304 90.6544 25.183 93.0821 28.709C93.3711 29.1329 93.7372 29.3063 94.1996 29.3834C95.2594 29.5761 96.2998 29.3449 97.3596 29.2485C98.7468 29.1136 100.134 28.9017 101.521 29.1136C102.273 29.2292 102.986 29.4605 103.583 29.9614C104.585 30.7707 104.489 31.8882 103.352 32.4855C102.446 32.9672 101.444 32.9672 100.462 32.8323C98.5349 32.6011 96.7623 31.9075 95.0474 31.0404C94.9511 30.9826 94.8355 30.9441 94.7199 30.8863C94.6235 31.079 94.7777 31.1753 94.8547 31.2716C97.0127 34.5086 98.9395 37.8612 100.731 41.3102C100.905 41.657 101.078 41.7148 101.444 41.5992C103.236 41.0212 105.028 40.5395 106.936 40.6551C107.957 40.7129 108.959 40.9248 109.845 41.4643C110.616 41.9267 111.271 42.524 111.117 43.5452C110.963 44.5472 110.173 44.9518 109.306 45.1637C108.188 45.4335 107.051 45.3179 105.934 45.0867C104.778 44.8555 103.66 44.4894 102.581 44.0077C102.466 43.9499 102.369 43.8535 102.215 43.9113C102.177 44.0847 102.292 44.1811 102.369 44.2967C103.506 46.3583 104.681 48.4007 105.799 50.4624C106.049 50.9441 106.358 51.1368 106.897 51.1368C108.901 51.156 110.847 51.4258 112.735 52.1194C113.583 52.4277 114.392 52.7938 115.124 53.3333C115.433 53.5452 115.703 53.7765 115.914 54.0847C116.415 54.8747 116.146 55.5684 115.279 55.7803Z" fill="#D82149"/>
<path d="M161.329 51.9267C160.269 53.7765 159.845 55.8188 159.749 57.919C159.595 61.3102 160.346 64.5664 161.522 67.7071C162.254 69.6531 163.082 71.5607 163.737 73.526C165.048 77.4951 165.76 81.5607 165.028 85.761C164.219 90.289 161.868 93.7572 157.687 95.7418C152.601 98.1503 147.456 97.919 142.485 95.3757C137.996 93.0828 135.317 89.3834 134.836 84.316C134.392 79.5183 135.78 75.1637 138.342 71.156C140.577 67.63 143.545 64.7591 146.705 62.0809C151.213 58.2659 156.165 55.0289 161.155 51.8882C161.213 51.8497 161.29 51.8304 161.367 51.7919C161.348 51.8689 161.348 51.8882 161.329 51.9267ZM141.541 72.6975C140.173 74.605 139.344 76.6859 139.036 78.9595C138.574 82.235 139.383 85.2408 141.155 88.0539C141.387 87.8998 141.599 87.7649 141.868 87.6108C140.481 85.3757 139.672 82.9865 139.768 80.3661C139.864 77.7649 140.693 75.395 142.196 73.1984C141.984 73.0443 141.791 72.8901 141.541 72.6975Z" fill="#D82149"/>
<path d="M127.514 70C126.473 70.8478 125.433 71.6956 124.412 72.5626C122.312 74.3738 120.327 76.3006 118.843 78.6705C117.764 80.3661 117.186 82.2351 117.206 84.2389C117.225 87.2447 118.92 89.5954 121.791 90.4432C124.604 91.2524 127.206 90.8478 129.325 88.6898C130.712 87.2832 131.059 85.4913 130.886 83.5838C130.712 81.6956 130.057 79.9807 129.171 78.3237C128.419 76.9364 127.707 75.5684 127.417 74.0077C127.148 72.6782 127.128 71.368 127.61 70.0771C127.572 70.0385 127.533 70.0193 127.514 70Z" fill="#D82149"/>
<path d="M130.963 92.0038C130.153 93.2177 129.286 94.4315 128.477 95.6839C127.552 97.129 126.782 98.6512 126.416 100.327C126.049 101.965 126.146 103.584 126.974 105.067C128.053 106.994 130.365 107.842 132.562 107.168C133.198 106.975 133.853 106.686 134.392 106.301C136.146 105.087 136.724 103.044 135.992 100.944C135.491 99.5375 134.624 98.3814 133.622 97.3217C132.755 96.4161 131.907 95.472 131.502 94.2581C131.252 93.5452 131.136 92.7938 130.963 92.0038Z" fill="#D82149"/>
<path d="M52.7355 168.709C53.1402 168.998 53.3521 169.518 53.3521 170.25V170.424C53.3521 170.751 53.2943 171.233 53.198 171.869C53.1016 172.505 52.986 172.89 52.8704 173.044C52.7933 173.141 52.7163 173.179 52.6585 173.179C52.5814 173.179 52.5236 173.121 52.4658 173.006C52.2731 172.563 51.907 172.196 51.406 171.907C50.9051 171.618 50.2692 171.406 49.4985 171.272C48.7278 171.137 47.8608 171.06 46.8781 171.06C44.8935 171.06 42.5621 171.329 39.9224 171.85C40.1536 172.119 40.2692 172.428 40.2692 172.794C40.2692 173.179 40.1536 173.603 39.9224 174.027C39.6912 174.47 39.3444 175.029 38.9012 175.703C38.6122 176.127 38.4003 176.435 38.2847 176.647C38.2461 176.724 38.1883 176.821 38.1113 176.936C39.3829 176.435 41.0592 176.089 43.1594 175.896C43.2943 175.896 43.4099 175.877 43.5255 175.877C44.7972 175.877 45.4716 176.532 45.5486 177.823V177.9C45.5486 178.189 45.5294 178.516 45.4716 178.902C45.4138 179.268 45.3367 179.538 45.2403 179.692C45.1633 179.807 45.0862 179.865 45.0091 179.865C44.9321 179.865 44.8743 179.807 44.8165 179.711C44.643 179.21 44.2577 178.844 43.6797 178.593C43.1016 178.362 42.3887 178.227 41.5409 178.227C40.2692 178.227 38.9783 178.459 37.6488 178.921C38.0342 180.077 38.3039 181.368 38.4581 182.813C38.4966 183.275 38.5351 183.738 38.5351 184.162C38.5351 185.433 38.3232 186.493 37.9186 187.36C37.5139 188.227 36.9744 188.863 36.3193 189.287C35.6642 189.711 34.9513 189.923 34.2192 189.923C33.5255 189.923 32.8704 189.749 32.2731 189.383C31.6565 189.037 31.1748 188.516 30.7895 187.861C30.4041 187.206 30.2307 186.416 30.2307 185.511C30.2307 184.432 30.5005 183.295 31.0592 182.062C31.6565 180.732 32.408 179.403 33.2943 178.073C34.1806 176.744 35.1633 175.337 36.2615 173.854C36.4928 173.545 36.6469 173.333 36.7432 173.218C36.7625 173.198 36.7818 173.179 36.801 173.141C37.0323 172.813 37.1864 172.582 37.2827 172.466C36.6084 172.659 36.0496 172.909 35.5872 173.237C35.1247 173.564 34.8357 173.988 34.6816 174.528C34.6623 174.586 34.643 174.663 34.643 174.759C34.6238 174.894 34.5852 174.99 34.566 175.067C34.5274 175.144 34.4696 175.164 34.3926 175.164C34.3155 175.164 34.2384 175.125 34.1228 175.067C33.487 174.701 33.0631 174.22 32.8511 173.622C32.7548 173.314 32.7163 173.044 32.7163 172.775C32.7163 172.177 32.9475 171.696 33.4292 171.368C33.9109 171.04 34.5467 170.751 35.356 170.539C37.8222 169.884 40.5775 169.345 43.6604 168.902C46.724 168.459 49.2481 168.247 51.2326 168.227C51.8107 168.285 52.3309 168.42 52.7355 168.709ZM36.8781 183.892C36.8781 182.852 36.7047 181.599 36.3386 180.096C35.934 180.906 35.6064 181.676 35.3367 182.408C35.0669 183.141 34.8935 183.834 34.7972 184.47C34.7587 184.721 34.7201 184.952 34.7201 185.164C34.7201 185.607 34.7972 185.934 34.9706 186.185C35.144 186.416 35.356 186.551 35.5872 186.551C35.8762 186.551 36.1459 186.378 36.3964 186.05C36.6469 185.722 36.7818 185.241 36.8396 184.624C36.8781 184.393 36.8781 184.143 36.8781 183.892Z" fill="#D82149"/>
<path d="M57.2249 191.85C57.3213 191.811 57.4754 191.715 57.6873 191.58C57.8415 191.484 57.9571 191.407 58.0534 191.368C58.1498 191.329 58.2268 191.291 58.3232 191.291C58.5159 191.291 58.6507 191.464 58.7471 191.83C58.7856 191.985 58.8049 192.139 58.8049 192.312C58.8049 192.659 58.7278 193.006 58.5737 193.333C58.4195 193.68 58.2076 194.065 57.9186 194.547C57.8222 194.701 57.7452 194.817 57.7066 194.913C57.3405 195.53 56.8781 196.012 56.2808 196.339C55.6835 196.667 55.0284 196.84 54.3155 196.879H54.1035C53.0631 196.879 52.0033 196.59 50.9436 196.012C49.8839 195.433 48.9976 194.605 48.2654 193.545C47.5332 192.486 47.1093 191.272 46.9937 189.904C44.9128 189.653 43.8723 188.632 43.8723 186.801C43.8723 185.279 44.6045 183.198 46.0688 180.559C46.8396 179.191 47.4947 177.919 48.0727 176.744C48.6507 175.588 49.1324 174.451 49.5178 173.333C49.9031 172.216 50.0958 171.272 50.0958 170.462C50.0958 170.212 50.0766 169.981 50.038 169.788C50.0187 169.653 49.9417 169.46 49.8068 169.191C49.6912 168.94 49.6334 168.767 49.6334 168.67C49.6334 168.478 49.8068 168.343 50.1729 168.285C50.4041 168.247 50.6353 168.247 50.8665 168.247C51.7529 168.247 52.5236 168.478 53.1979 168.94C54.2769 169.711 54.8357 170.655 54.8357 171.773C54.8357 172.331 54.7201 172.929 54.4696 173.564C54.2191 174.2 53.9109 174.778 53.564 175.356C53.2172 175.915 52.7548 176.609 52.196 177.399C51.5987 178.247 51.2134 178.863 51.0014 179.229C49.5178 181.811 48.7471 184.123 48.67 186.185V186.397C48.67 187.399 48.9205 188.381 49.4022 189.306C49.9031 190.231 50.5775 191.002 51.4253 191.58C52.3116 192.177 53.3136 192.486 54.4311 192.486C55.3174 192.466 56.2615 192.254 57.2249 191.85ZM67.0708 180.52C67.2635 180.405 67.4754 180.347 67.6873 180.347C67.9571 180.347 68.169 180.424 68.3617 180.597C68.5544 180.771 68.6507 181.002 68.6507 181.291C68.6507 181.561 68.5544 181.869 68.3617 182.177C67.8415 183.083 67.1478 183.776 66.2615 184.297C65.3752 184.817 64.4889 185.067 63.6026 185.067C63.3135 185.067 63.0245 185.048 62.774 184.99C62.1575 185.954 61.4253 186.801 60.5968 187.553C59.7683 188.304 58.8819 188.882 57.9571 189.306C57.0322 189.73 56.1266 189.923 55.2403 189.923C54.354 189.923 53.5833 189.711 52.9282 189.306C52.2731 188.882 51.7721 188.304 51.406 187.553C51.0592 186.801 50.8665 185.954 50.8665 184.99C50.8665 184.085 51.0207 183.16 51.329 182.177C51.5794 181.368 51.9263 180.597 52.3694 179.846C52.8126 179.094 53.2943 178.42 53.8531 177.803C54.3925 177.168 54.8935 176.859 55.3367 176.859C55.6064 176.859 55.8184 176.975 55.9725 177.206C56.1267 177.437 56.2037 177.746 56.2037 178.15C56.2037 178.227 56.2037 178.304 56.1845 178.381C56.2808 177.283 56.6854 176.358 57.3791 175.588C58.0727 174.817 59.0168 174.432 60.1922 174.432C61.1941 174.432 62.0419 174.663 62.7162 175.106C63.3906 175.549 63.8916 176.146 64.2191 176.898C64.5467 177.649 64.7008 178.459 64.7008 179.364C64.7008 180.019 64.6238 180.674 64.4504 181.31C64.2769 181.965 64.0457 182.563 63.7374 183.141C64.8164 182.948 65.7798 182.254 66.5698 181.06C66.7047 180.828 66.8781 180.636 67.0708 180.52ZM58.0149 185.202C58.4581 184.971 58.8627 184.682 59.2673 184.297C58.3424 183.796 57.6103 183.102 57.0708 182.196C56.5313 181.291 56.2423 180.347 56.1845 179.326C55.8762 179.692 55.5872 180.058 55.3559 180.462C55.1247 180.867 54.9513 181.252 54.8357 181.599C54.7008 182.042 54.6238 182.505 54.6238 182.986C54.6238 183.699 54.7972 184.297 55.1247 184.798C55.4523 185.299 55.9725 185.53 56.6854 185.53C57.1286 185.53 57.5717 185.414 58.0149 185.202ZM61.1748 180.27C61.1748 179.73 61.0592 179.345 60.828 179.075C60.5968 178.805 60.327 178.67 59.9802 178.67C59.6141 178.67 59.3058 178.805 59.0168 179.075C58.7278 179.345 58.5929 179.672 58.5929 180.077C58.5929 180.405 58.7085 180.751 58.9398 181.098C59.171 181.464 59.5371 181.811 60.0188 182.177C60.2692 182.351 60.4426 182.447 60.539 182.447C60.6161 182.447 60.6739 182.408 60.7317 182.312C60.7702 182.216 60.828 182.062 60.9243 181.811C60.9436 181.734 60.9629 181.676 60.9821 181.618C61.117 181.117 61.1748 180.674 61.1748 180.27Z" fill="#D82149"/>
<path d="M71.6566 178.227C71.6566 178.054 71.5988 177.9 71.4832 177.765C71.3676 177.649 71.2327 177.572 71.0978 177.572C70.8666 177.572 70.674 177.726 70.5198 178.015C69.7684 179.518 68.9977 180.906 68.2077 182.196C67.9572 182.601 67.6104 182.813 67.2057 182.813C66.936 182.813 66.6855 182.717 66.4736 182.524C66.2616 182.331 66.1653 182.1 66.1653 181.811C66.1653 181.58 66.2424 181.329 66.4158 181.098C66.9167 180.328 67.3214 179.538 67.6682 178.709C68.015 177.881 68.1691 177.091 68.1691 176.358C68.1691 175.299 67.7838 174.451 67.0323 173.815C66.8975 173.68 66.8397 173.545 66.8397 173.391C66.8397 173.16 66.9745 172.929 67.2443 172.697C67.514 172.466 67.7838 172.312 68.0343 172.235C68.4003 172.1 68.7857 172.042 69.1711 172.042C69.6335 172.042 70.0574 172.139 70.4427 172.312C70.8281 172.486 71.1557 172.717 71.3869 173.006C71.6181 173.295 71.7337 173.603 71.7337 173.95C71.7337 174.046 71.7144 174.162 71.6951 174.277C72.0612 174.181 72.4273 174.143 72.7934 174.143C73.6605 174.143 74.4119 174.374 75.067 174.855C76.0497 175.549 76.5314 176.397 76.5314 177.36C76.5314 178.054 76.3387 178.748 75.9341 179.48C75.5294 180.193 74.9707 181.079 74.2192 182.1C73.6797 182.813 73.2366 183.468 72.909 184.065C72.6778 184.47 72.5815 184.817 72.5815 185.087C72.5815 185.26 72.62 185.395 72.7163 185.472C72.8127 185.568 72.9476 185.607 73.121 185.607C73.3329 185.607 73.5834 185.53 73.8724 185.395C74.1614 185.26 74.4504 185.048 74.7202 184.798C75.9148 183.584 76.9167 182.351 77.7067 181.098C77.8416 180.867 77.9957 180.694 78.1884 180.578C78.3811 180.462 78.593 180.405 78.805 180.405C79.0747 180.405 79.2867 180.482 79.4794 180.655C79.672 180.828 79.7684 181.06 79.7684 181.329C79.7684 181.599 79.672 181.907 79.4794 182.216C78.5738 183.699 77.6682 185.01 76.7433 186.146C75.8185 187.302 74.8743 188.208 73.9302 188.902C72.9861 189.595 72.0805 189.942 71.2327 189.961H71.1749C70.1345 189.961 69.4023 189.711 68.9206 189.21C68.4582 188.709 68.2269 188.035 68.2269 187.206C68.2269 186.705 68.304 186.185 68.4389 185.645C68.593 185.106 68.7857 184.566 69.0169 184.046L71.5217 178.632C71.6181 178.497 71.6566 178.362 71.6566 178.227Z" fill="#D82149"/>
<path d="M92.5236 180.578C92.7162 180.462 92.9282 180.405 93.1401 180.405C93.4099 180.405 93.6218 180.482 93.8145 180.655C94.0072 180.828 94.1035 181.06 94.1035 181.329C94.1035 181.599 94.0072 181.907 93.8145 182.216C92.9089 183.699 92.0033 185.01 91.0785 186.146C90.1536 187.302 89.2095 188.208 88.2654 188.902C87.3213 189.595 86.4157 189.942 85.5679 189.961H85.5294C84.8742 189.961 84.2384 189.769 83.6218 189.364C83.0053 188.979 82.5621 188.381 82.2538 187.591C81.7721 188.362 81.2326 188.96 80.6546 189.345C80.0766 189.73 79.4985 189.942 78.9205 189.942H78.8434C77.8993 189.904 77.2056 189.595 76.7432 189.017C76.2808 188.439 76.0688 187.688 76.0688 186.724C76.0688 185.607 76.3386 184.335 76.8781 182.929C77.4176 181.522 78.1498 180.154 79.0554 178.863C79.9609 177.572 80.9436 176.513 82.0226 175.703C83.0823 174.894 84.1035 174.489 85.1055 174.489C85.8954 174.489 86.6662 174.836 87.4561 175.53C87.6873 175.222 88.0149 174.952 88.4388 174.778C88.8627 174.605 89.2673 174.489 89.7105 174.489C90.2307 174.489 90.6546 174.644 91.0014 174.933C91.3482 175.222 91.5216 175.684 91.5216 176.281C91.5216 176.859 91.329 177.572 90.9436 178.42C90.5583 179.268 89.9417 180.25 89.0939 181.368C88.2076 182.543 87.6103 183.449 87.2635 184.104C87.0322 184.509 86.9359 184.855 86.9359 185.125C86.9359 185.299 86.9744 185.434 87.0708 185.511C87.1671 185.607 87.302 185.645 87.4561 185.645C87.6873 185.645 87.9378 185.568 88.2268 185.434C88.5159 185.299 88.7856 185.087 89.0746 184.836C90.25 183.661 91.2519 182.428 92.0611 181.137C92.1767 180.886 92.3309 180.694 92.5236 180.578ZM86.1652 178.459C86.1652 178.227 86.1267 178.054 86.0303 177.938C85.934 177.823 85.7991 177.765 85.645 177.765C85.3945 177.765 85.0862 177.9 84.7201 178.15C84.354 178.401 83.9879 178.767 83.6026 179.249C83.1594 179.788 82.7933 180.308 82.4658 180.848C82.1382 181.387 81.7529 182.062 81.3097 182.89C81.2904 182.929 81.2712 182.967 81.2712 182.986C80.8665 183.719 80.6739 184.297 80.6739 184.74C80.6739 184.971 80.7317 185.164 80.8473 185.279C80.9629 185.395 81.117 185.472 81.329 185.472C81.695 185.472 82.1189 185.279 82.6199 184.894C83.1209 184.509 83.5448 183.988 83.9109 183.353C84.0843 183.064 84.3347 182.62 84.6623 182.023C84.9899 181.426 85.2403 180.983 85.4137 180.694C85.9147 179.73 86.1652 178.998 86.1652 178.459Z" fill="#D82149"/>
<path d="M120.481 171.31C120.481 171.811 120.366 172.389 120.154 173.006C119.942 173.622 119.653 174.277 119.287 174.952C118.92 175.626 118.535 176.301 118.111 176.975C117.687 177.63 117.129 178.497 116.454 179.538C115.78 180.539 115.24 181.387 114.797 182.081C114.354 182.755 113.949 183.449 113.564 184.123C113.102 184.933 112.735 185.742 112.485 186.532C112.235 187.322 112.1 187.996 112.1 188.574C112.1 188.979 112.157 189.326 112.312 189.576C112.35 189.653 112.369 189.73 112.369 189.788C112.369 189.942 112.254 190.019 112.003 190.019C111.098 190.019 110.346 189.923 109.768 189.711C109.19 189.499 108.766 189.191 108.497 188.786C108.227 188.381 108.092 187.9 108.092 187.302C108.092 186.801 108.188 186.223 108.381 185.588C108.574 184.952 108.863 184.258 109.229 183.487C109.845 182.331 110.154 181.445 110.154 180.848C110.154 180.27 109.884 179.865 109.325 179.653C108.766 179.441 107.88 179.345 106.647 179.345C106.416 179.345 106.146 179.345 105.857 179.364C105.529 179.827 105.009 180.539 104.335 181.464C103.121 183.102 102.235 184.335 101.676 185.164C102.273 185.723 102.813 186.281 103.294 186.821C103.776 187.36 104.181 187.919 104.508 188.478C105.125 189.499 105.433 190.539 105.433 191.618C105.433 192.775 105.067 193.892 104.315 195.01C103.583 196.108 102.466 197.148 100.963 198.092C99.9609 198.728 98.9783 199.21 98.0149 199.557C97.0322 199.904 96.1459 200.077 95.3174 200.077C94.4696 200.077 93.7567 199.904 93.1787 199.538C92.1575 198.882 91.6565 197.842 91.6565 196.416C91.6565 195.395 91.8877 194.22 92.3694 192.89C92.8511 191.561 93.4677 190.173 94.2384 188.728C95.0091 187.283 95.8954 185.742 96.9359 184.104C94.4696 182.1 93.2365 180.559 93.2365 179.499C93.2365 178.902 93.6025 178.439 94.3347 178.112C95.0669 177.784 95.9918 177.572 97.09 177.457C98.2076 177.341 99.6334 177.245 101.387 177.187C102.1 176.069 102.581 175.202 102.851 174.586C103.737 172.601 104.181 171.156 104.181 170.231C104.181 169.923 104.142 169.653 104.046 169.441C104.026 169.422 104.007 169.383 103.988 169.326C103.853 169.075 103.795 168.902 103.795 168.805C103.795 168.613 103.988 168.478 104.354 168.42C104.566 168.381 104.797 168.381 105.028 168.381C105.51 168.381 105.992 168.439 106.473 168.574C106.955 168.709 107.36 168.863 107.707 169.094C108.824 169.807 109.383 170.771 109.383 171.985C109.383 172.717 109.209 173.507 108.843 174.354C108.497 175.222 107.996 176.146 107.341 177.148C108.651 177.168 109.653 177.399 110.327 177.842C111.001 178.266 111.406 178.863 111.502 179.615C111.579 179.499 111.695 179.326 111.849 179.075C112.735 177.707 113.448 176.551 114.007 175.626C114.566 174.701 115.028 173.776 115.414 172.852C115.799 171.927 115.992 171.137 115.992 170.443C115.992 170.27 115.972 170.096 115.953 169.942C115.934 169.807 115.857 169.595 115.722 169.326C115.606 169.075 115.549 168.902 115.549 168.805C115.549 168.613 115.722 168.478 116.088 168.42C116.319 168.381 116.57 168.381 116.782 168.381C117.668 168.381 118.439 168.613 119.094 169.075C120.019 169.518 120.481 170.289 120.481 171.31ZM97.8607 180.617C97.5717 180.751 97.4176 180.925 97.4176 181.117C97.4176 181.252 97.4754 181.407 97.6102 181.561C97.7259 181.715 97.9185 181.907 98.169 182.139C98.3039 181.946 98.4773 181.638 98.7471 181.252C99.0361 180.809 99.248 180.482 99.3829 180.27C98.67 180.366 98.169 180.482 97.8607 180.617ZM100.481 186.956C99.7683 188.15 99.2287 189.152 98.8627 190C98.3617 191.137 98.1112 192.177 98.1112 193.141C98.1112 193.892 98.2654 194.489 98.5736 194.952C98.8819 195.414 99.2866 195.626 99.826 195.626C100.057 195.626 100.288 195.588 100.539 195.491C100.963 195.337 101.367 195.067 101.791 194.644C102.196 194.239 102.543 193.757 102.793 193.179C103.044 192.62 103.179 192.023 103.179 191.426C103.179 190.751 103.005 190.135 102.678 189.538C102.08 188.632 101.348 187.765 100.481 186.956Z" fill="#F4567F"/>
<path d="M132.1 180.578C132.292 180.462 132.504 180.405 132.716 180.405C132.986 180.405 133.198 180.482 133.391 180.655C133.583 180.828 133.68 181.06 133.68 181.349C133.68 181.618 133.583 181.907 133.391 182.235C132.62 183.487 131.888 184.566 131.194 185.472C128.901 188.497 126.107 190 122.813 190C121.753 190 120.828 189.73 120.019 189.21C119.21 188.69 118.574 187.996 118.15 187.129C117.707 186.262 117.495 185.318 117.495 184.297C117.495 183.757 117.553 183.237 117.687 182.697C118.015 181.329 118.67 180.019 119.633 178.748C120.597 177.476 121.753 176.455 123.063 175.665C124.393 174.875 125.722 174.489 127.052 174.489C128.131 174.489 128.959 174.74 129.499 175.26C130.038 175.78 130.327 176.455 130.327 177.283C130.327 178.189 130.019 179.171 129.422 180.212C128.805 181.252 127.957 182.177 126.878 183.025C125.799 183.854 124.547 184.451 123.179 184.778C123.795 185.222 124.566 185.453 125.452 185.453C126.319 185.453 127.186 185.222 128.054 184.778C128.94 184.335 129.73 183.661 130.423 182.775C130.924 182.139 131.31 181.599 131.599 181.118C131.734 180.886 131.907 180.694 132.1 180.578ZM124.508 182.37C125.125 181.888 125.587 181.368 125.896 180.828C126.185 180.289 126.339 179.788 126.339 179.326C126.339 178.979 126.262 178.709 126.107 178.497C125.953 178.285 125.722 178.189 125.433 178.189C124.894 178.189 124.238 178.555 123.468 179.306C122.543 180.482 122.08 181.599 122.08 182.64C122.08 182.948 122.119 183.256 122.215 183.526C123.121 183.256 123.892 182.871 124.508 182.37Z" fill="#F4567F"/>
<path d="M146.358 180.578C146.551 180.462 146.763 180.405 146.974 180.405C147.244 180.405 147.456 180.482 147.649 180.655C147.842 180.828 147.938 181.06 147.938 181.329C147.938 181.599 147.842 181.907 147.649 182.216C146.743 183.699 145.838 185.01 144.913 186.146C143.988 187.302 143.044 188.208 142.1 188.902C141.156 189.595 140.25 189.942 139.402 189.961H139.364C138.709 189.961 138.073 189.769 137.456 189.364C136.84 188.979 136.396 188.381 136.088 187.591C135.606 188.362 135.067 188.96 134.489 189.345C133.911 189.73 133.333 189.942 132.755 189.942H132.678C131.734 189.904 131.04 189.595 130.578 189.017C130.115 188.439 129.903 187.688 129.903 186.724C129.903 185.607 130.173 184.335 130.712 182.929C131.252 181.522 131.984 180.154 132.89 178.863C133.795 177.572 134.778 176.513 135.857 175.703C136.917 174.894 137.938 174.489 138.94 174.489C139.73 174.489 140.5 174.836 141.29 175.53C141.522 175.222 141.849 174.952 142.273 174.778C142.697 174.605 143.102 174.489 143.545 174.489C144.065 174.489 144.489 174.644 144.836 174.933C145.183 175.222 145.356 175.684 145.356 176.281C145.356 176.859 145.163 177.572 144.778 178.42C144.393 179.268 143.776 180.25 142.928 181.368C142.042 182.543 141.445 183.449 141.098 184.104C140.867 184.509 140.77 184.855 140.77 185.125C140.77 185.299 140.809 185.434 140.905 185.511C141.001 185.607 141.136 185.645 141.29 185.645C141.522 185.645 141.772 185.568 142.061 185.434C142.35 185.299 142.62 185.087 142.909 184.836C144.084 183.661 145.086 182.428 145.895 181.137C146.011 180.886 146.165 180.694 146.358 180.578ZM140 178.459C140 178.227 139.961 178.054 139.865 177.938C139.768 177.823 139.633 177.765 139.479 177.765C139.229 177.765 138.921 177.9 138.554 178.15C138.188 178.401 137.822 178.767 137.437 179.249C136.994 179.788 136.628 180.308 136.3 180.848C135.973 181.387 135.587 182.062 135.144 182.89C135.125 182.929 135.106 182.967 135.106 182.986C134.701 183.719 134.508 184.297 134.508 184.74C134.508 184.971 134.566 185.164 134.682 185.279C134.797 185.395 134.951 185.472 135.163 185.472C135.529 185.472 135.953 185.279 136.454 184.894C136.955 184.509 137.379 183.988 137.745 183.353C137.919 183.064 138.169 182.62 138.497 182.023C138.824 181.426 139.075 180.983 139.248 180.694C139.749 179.73 140 178.998 140 178.459Z" fill="#F4567F"/>
<path d="M150.944 178.227C150.944 178.054 150.886 177.9 150.77 177.765C150.655 177.649 150.52 177.572 150.385 177.572C150.154 177.572 149.961 177.726 149.807 178.015C149.055 179.518 148.285 180.906 147.495 182.196C147.244 182.601 146.897 182.813 146.493 182.813C146.223 182.813 145.973 182.717 145.761 182.524C145.549 182.331 145.452 182.1 145.452 181.811C145.452 181.58 145.529 181.329 145.703 181.098C146.204 180.328 146.608 179.538 146.955 178.709C147.302 177.881 147.456 177.091 147.456 176.358C147.456 175.299 147.071 174.451 146.319 173.815C146.184 173.68 146.127 173.545 146.127 173.391C146.127 173.16 146.262 172.929 146.531 172.697C146.801 172.466 147.071 172.312 147.321 172.235C147.687 172.1 148.073 172.042 148.458 172.042C148.92 172.042 149.344 172.139 149.73 172.312C150.115 172.486 150.443 172.717 150.674 173.006C150.905 173.295 151.021 173.603 151.021 173.95C151.021 174.046 151.001 174.162 150.982 174.277C151.348 174.181 151.714 174.143 152.08 174.143C152.947 174.143 153.699 174.374 154.354 174.855C155.337 175.549 155.818 176.397 155.818 177.36C155.818 178.054 155.626 178.748 155.221 179.48C154.816 180.193 154.258 181.079 153.506 182.1C152.967 182.813 152.524 183.468 152.196 184.065C151.965 184.47 151.868 184.817 151.868 185.087C151.868 185.26 151.907 185.395 152.003 185.472C152.1 185.568 152.235 185.607 152.408 185.607C152.62 185.607 152.87 185.53 153.159 185.395C153.448 185.26 153.737 185.048 154.007 184.798C155.202 183.584 156.204 182.351 156.994 181.098C157.129 180.867 157.283 180.694 157.475 180.578C157.668 180.462 157.88 180.405 158.092 180.405C158.362 180.405 158.574 180.482 158.766 180.655C158.959 180.828 159.055 181.06 159.055 181.329C159.055 181.599 158.959 181.907 158.766 182.216C157.861 183.699 156.955 185.01 156.03 186.146C155.105 187.302 154.161 188.208 153.217 188.902C152.273 189.595 151.368 189.942 150.52 189.961H150.462C149.421 189.961 148.689 189.711 148.208 189.21C147.745 188.709 147.514 188.035 147.514 187.206C147.514 186.705 147.591 186.185 147.726 185.645C147.88 185.106 148.073 184.566 148.304 184.046L150.809 178.632C150.905 178.497 150.944 178.362 150.944 178.227Z" fill="#F4567F"/>
<path d="M167.456 180.539C167.649 180.424 167.861 180.366 168.073 180.366C168.343 180.366 168.574 180.462 168.766 180.636C168.959 180.809 169.055 181.04 169.055 181.329C169.055 181.599 168.959 181.888 168.766 182.216C168.4 182.813 168.015 183.41 167.591 184.027C166.396 185.78 165.009 187.206 163.449 188.304C161.888 189.422 160.212 189.961 158.458 189.961C157.398 189.961 156.628 189.672 156.146 189.094C155.664 188.516 155.433 187.726 155.433 186.744C155.433 186.05 155.529 185.299 155.741 184.47C155.953 183.642 156.204 182.813 156.512 182.004C156.82 181.195 157.148 180.443 157.495 179.769C157.842 179.094 158.15 178.555 158.42 178.131C158.689 177.726 158.901 177.399 159.036 177.187C158.535 177.36 158.131 177.514 157.842 177.669C157.687 177.726 157.553 177.746 157.456 177.746C157.283 177.746 157.186 177.649 157.186 177.476C157.186 177.322 157.264 177.09 157.437 176.801C157.707 176.358 158.092 175.992 158.632 175.684C159.171 175.376 159.807 175.144 160.558 174.952C161.156 174.027 161.637 173.218 161.965 172.524C162.312 171.83 162.466 171.233 162.466 170.751C162.466 170.539 162.427 170.347 162.35 170.173C162.312 170.096 162.292 170.019 162.292 169.961C162.292 169.788 162.408 169.692 162.639 169.692H162.716C163.275 169.73 163.853 170.019 164.45 170.539C165.452 171.445 165.973 172.408 165.973 173.43C165.973 173.776 165.915 174.123 165.799 174.489C166.782 174.701 167.264 175.356 167.264 176.435V176.532C167.264 176.801 167.206 177.129 167.129 177.534C167.052 177.938 166.936 178.208 166.82 178.381C166.743 178.478 166.686 178.516 166.608 178.516C166.531 178.516 166.474 178.459 166.416 178.343C166.223 177.63 165.587 177.129 164.508 176.859C164.104 177.399 163.776 177.803 163.526 178.112C162.427 179.48 161.637 180.655 161.156 181.638C160.674 182.62 160.443 183.468 160.443 184.143C160.443 184.624 160.558 184.99 160.79 185.26C161.021 185.511 161.348 185.645 161.734 185.645C162.235 185.645 162.813 185.433 163.468 185.01C164.123 184.586 164.759 183.969 165.375 183.179C165.414 183.121 165.472 183.044 165.568 182.948C166.204 182.119 166.666 181.484 166.955 181.06C167.109 180.848 167.264 180.674 167.456 180.539Z" fill="#F4567F"/>
</svg>
