<svg width="200" height="200" viewBox="0 0 200 200" fill="none" xmlns="http://www.w3.org/2000/svg">
<path d="M108.034 159.808C108.246 160.039 108.227 160.27 107.996 160.463C107.764 160.655 107.552 160.52 107.379 160.347C106.358 159.364 105.298 158.42 104.123 157.65C100.924 155.607 97.8799 153.295 94.6044 151.349C93.2364 150.54 91.9262 149.634 90.5389 148.883C88.4387 147.746 86.2036 146.84 83.9493 146.05C82.3886 145.492 80.7894 145.048 79.1516 144.682C78.9204 144.624 78.747 144.586 78.6699 144.933C78.2846 146.705 77.2441 148.073 75.8183 149.133C73.853 150.617 71.5794 151.118 69.1709 151.021C66.9551 150.925 64.8549 150.289 62.7932 149.557C59.826 148.478 56.878 147.322 53.853 146.436C53.6218 146.359 53.3713 146.262 53.1786 146.127C52.7547 145.858 52.7354 145.376 53.1015 145.048C53.3327 144.836 53.6218 144.721 53.9108 144.605C56.5505 143.623 59.036 142.332 61.4445 140.887C62.9281 140 64.5081 139.287 66.2229 139.018C69.1131 138.555 71.8298 139.172 74.4503 140.386C75.6256 140.944 76.7239 141.599 77.7065 142.466C77.8799 142.621 78.0919 142.755 78.2075 142.967C78.5929 143.68 79.248 143.834 79.9416 143.969C81.1747 144.22 82.3693 144.586 83.5447 144.971C83.7181 145.029 83.8915 145.087 84.1227 145.048C83.9108 144.913 83.6796 144.779 83.4676 144.663C78.169 141.638 72.8703 138.613 67.668 135.453C64.2191 133.353 60.8665 131.079 57.5139 128.825C54.1998 126.59 50.8857 124.316 47.0514 122.967C44.0456 121.908 40.9821 121.214 37.7836 121.349C36.3193 121.407 34.8549 121.638 33.4098 121.908C33.0437 121.985 32.8125 122.216 32.5813 122.466C32.0225 123.102 31.5023 123.777 30.8279 124.316C29.5755 125.299 28.1304 125.8 26.5505 125.915C25.009 126.031 23.4869 125.896 22.0033 125.53C21.695 125.453 21.3867 125.357 21.0977 125.202C20.2884 124.779 20.0957 124.066 20.5774 123.276C20.8279 122.871 21.1747 122.544 21.5216 122.235C23.2557 120.732 25.3366 120.077 27.5524 119.769C29.3058 119.518 30.9821 119.711 32.5428 120.617C33.0437 120.906 33.5639 120.983 34.1035 120.867C39.6718 119.769 44.9127 120.867 49.9609 123.218C50.0957 123.276 50.2306 123.391 50.4233 123.372C50.3848 123.199 50.2499 123.141 50.1535 123.044C45.4715 119.056 41.1555 114.721 37.3019 109.923C36.011 108.305 34.3732 107.071 32.7547 105.838C31.9069 105.183 31.0013 104.605 30.1343 103.969C29.7875 103.719 29.4984 103.68 29.0938 103.873C27.5717 104.567 25.9724 105.068 24.2769 105.202C21.3482 105.434 18.7663 104.644 16.4541 102.833C15.2788 101.908 14.1805 100.886 13.1015 99.8268C11.4445 98.2083 9.80673 96.5512 7.95702 95.1254C7.32118 94.6245 6.62754 94.2006 5.91463 93.8152C5.60634 93.6418 5.25952 93.4877 5.41367 93.0638C5.58708 92.6013 5.97243 92.7362 6.31925 92.8133C8.32311 93.2372 10.327 93.5455 12.3693 93.7574C14.6622 94.0079 16.9744 93.9501 19.2865 94.1042C22.5428 94.2969 25.4522 95.2988 27.7258 97.7458C28.9589 99.0561 29.6333 100.617 29.7875 102.409C29.8067 102.582 29.8453 102.698 29.9994 102.813C31.2711 103.738 32.5813 104.586 33.8722 105.607C33.8915 105.395 33.7952 105.318 33.7181 105.222C31.4252 101.985 29.3636 98.5936 27.5331 95.0676C25.8761 92.9482 25.4522 90.2699 24.1805 87.9771C22.4464 84.8364 21.0591 81.4838 18.6892 78.7285C16.878 76.609 14.7971 74.8171 12.4272 73.3528C12.2152 73.2179 12.0225 73.1408 11.772 73.1794C11.6757 73.1986 11.5601 73.1794 11.4638 73.1408C10.0379 72.6784 8.59286 72.293 7.20557 71.6957C5.25952 70.848 3.91078 69.3836 2.79324 67.6495C2.6391 67.4183 2.5813 67.1485 2.77397 66.9173C2.94738 66.6861 3.1786 66.6476 3.44835 66.7246C4.95124 67.11 6.45413 67.4183 7.91848 67.9193C9.22869 68.3624 10.2114 69.1909 10.9628 70.347C11.3674 70.9636 11.8106 71.5416 12.2537 72.1196C12.3308 72.2352 12.4657 72.3316 12.5813 72.4087C16.0302 74.5666 18.9397 77.2641 21.1555 80.6746C21.194 80.7131 21.2325 80.7516 21.3482 80.7709C21.2903 80.5589 21.2133 80.347 21.1555 80.135C19.6911 75.7613 18.4772 71.3104 17.8029 66.7246C17.6295 65.6071 17.5139 64.4896 17.3983 63.3528C17.3597 62.9482 17.2248 62.8133 16.8202 62.8903C15.8568 63.0445 14.8742 63.2179 13.8915 63.083C13.1786 62.9867 12.5042 62.8133 11.8877 62.4472C11.0399 61.927 10.4618 61.1948 10.3655 60.1929C10.1921 58.478 9.63332 56.8788 8.84334 55.3566C7.97628 53.6611 7.668 51.8499 8.05336 49.9616C8.28457 48.8634 8.72773 47.9 9.47918 47.0715C9.69112 46.821 9.72966 46.7054 9.36357 46.6283C6.91656 46.031 5.20172 44.4896 3.93004 42.3701C3.08226 40.9443 2.50422 39.4029 2.02253 37.8229C1.46376 36.031 0.904995 34.2391 0.249889 32.4665C-0.28961 31.0021 -0.000592417 30.5204 1.5601 30.3663C3.1786 30.1929 4.73929 29.8075 6.24218 29.2102C7.20557 28.8248 8.16896 28.478 9.20943 28.4587C11.4445 28.4009 13.3135 29.3451 14.9898 30.7131C15.1054 30.8094 15.2403 30.925 15.3751 31.0406C15.51 30.848 15.4329 30.6745 15.4329 30.5011C15.3559 28.767 15.3366 27.0329 15.5678 25.2988C15.8376 23.3335 16.7046 21.6379 17.9377 20.1158C19.0553 18.7285 20.0957 17.3412 20.8665 15.7227C21.2903 14.8171 21.8877 14.7786 22.5235 15.5493C23.3135 16.5127 24.3347 17.1678 25.3751 17.8036C25.6256 17.9578 25.8761 18.1119 26.1266 18.2468C28.2846 19.3836 29.3828 21.214 29.7297 23.584C29.9801 25.2988 30.0187 27.0137 29.6911 28.7092C29.6719 28.8056 29.6333 28.9019 29.6911 29.0175C29.8453 29.0561 29.9609 28.9404 30.0957 28.8826C33.4483 27.2641 36.6661 27.399 39.6333 29.769C40.7123 30.636 41.7335 31.5609 42.7932 32.4472C43.7374 33.2372 44.7586 33.9308 45.8954 34.451C46.088 34.5281 46.2614 34.6437 46.4349 34.7593C46.8395 35.0483 46.9551 35.453 46.7239 35.8769C46.589 36.1273 46.4156 36.3778 46.2229 36.609C44.4117 38.8056 42.8896 41.1948 41.5794 43.7189C41.1747 44.5088 40.7316 45.2988 40.1535 45.9925C39.6911 46.532 39.1902 47.0329 38.4387 47.1485C38.2846 47.1678 38.2268 47.2641 38.2653 47.399C38.6507 48.9212 38.2653 50.4048 38.0148 51.8884C37.8414 52.9096 37.8992 53.9501 37.7643 54.9713C37.6487 56.0117 37.09 56.4164 36.0302 56.2622C35.4715 56.1851 34.932 56.0117 34.4117 55.8191C32.6198 55.1254 30.8087 54.5666 28.9204 54.2006C27.7451 53.9693 26.6275 53.584 25.5871 52.9674C25.3366 52.8133 25.2595 52.8903 25.2403 53.1601C25.1439 54.6052 24.3925 55.6264 23.1208 56.2429C21.695 56.9366 20.8279 58.0349 20.3848 59.5185C20.1535 60.2892 19.8453 61.0214 19.4021 61.6765C19.1902 62.004 18.9589 62.3701 18.6121 62.5435C18.2075 62.7362 18.1882 63.006 18.2268 63.3913C18.6699 67.9771 19.6526 72.4665 21.0013 76.8788C21.984 80.0965 23.0823 83.2372 24.3925 86.3393C24.4503 86.4934 24.4888 86.6668 24.6622 86.821C24.72 86.4356 24.6237 86.1081 24.5851 85.7613C24.4503 84.4896 24.3925 83.2179 24.431 81.927C24.4503 81.4645 24.3732 81.0214 24.2191 80.5975C23.3713 78.1119 23.1786 75.5686 23.6603 72.9867C24.2191 70.0194 25.799 67.688 28.2075 65.8769C29.9994 64.5281 31.9647 63.4684 33.853 62.2545C34.4117 61.8884 34.932 62.216 34.8934 62.8903C34.8742 63.4491 34.7008 63.9886 34.6044 64.5281C34.2383 66.4549 33.8722 68.3624 33.5061 70.2892C33.1593 72.1389 32.7547 73.9886 32.1767 75.7998C31.772 77.0329 31.2133 78.2083 30.2306 79.1139C28.9589 80.2892 27.4753 80.848 25.7412 80.347C25.4715 80.2699 25.4137 80.3663 25.3944 80.6167C25.1439 83.9886 25.4522 87.322 26.3963 90.5589C26.8973 92.3316 27.8992 93.9115 28.7663 95.53C31.0399 99.8268 33.6988 103.873 36.6468 107.727C37.379 108.69 38.2268 109.538 39.0745 110.386C39.1902 110.27 39.1131 110.193 39.0938 110.116C37.9185 107.149 37.3404 104.046 36.8973 100.925C36.5119 98.2275 36.2614 95.53 36.2807 92.794C36.2807 91.4067 36.3963 90.0387 36.6853 88.6707C36.8009 88.0541 36.7239 87.4376 36.7239 86.821C36.7046 86.0117 36.6853 85.2025 36.7817 84.3932C36.9551 82.8711 37.6102 81.5223 38.4965 80.2892C39.0167 79.557 39.5755 78.8248 40.115 78.0927C40.2692 77.8807 40.4618 77.7266 40.7508 77.8036C41.0206 77.8614 41.1362 78.0734 41.1747 78.3239C41.3481 79.4799 41.5794 80.636 41.5986 81.8114C41.5986 82.4857 41.4638 83.1216 41.2325 83.7574C40.8857 84.7208 40.404 85.6071 39.8453 86.4549C39.4021 87.1293 38.8626 87.7073 38.1497 88.0927C37.7451 88.3239 37.5524 88.6514 37.4753 89.1139C37.09 91.2141 37.09 93.3335 37.2248 95.4337C37.4561 99.2102 37.957 102.948 38.8819 106.628C39.537 109.21 40.6352 111.542 42.1189 113.777C43.7374 116.224 45.9532 118.054 48.0341 120.019C52.5042 124.239 57.4946 127.804 62.6006 131.214C62.6969 131.272 62.7932 131.33 62.8896 131.387C62.9859 131.291 62.9088 131.233 62.8703 131.195C61.406 129.441 60.327 127.457 59.4214 125.376C59.2865 125.048 59.0746 124.836 58.747 124.682C57.1863 123.989 56.0688 122.755 55.009 121.465C52.5428 118.42 51.1169 114.894 50.3077 111.079C49.6333 107.939 49.325 104.759 48.9782 101.561C48.7663 99.6726 48.535 97.8036 48.3231 95.9154C48.2846 95.5686 48.2653 95.2025 48.2846 94.8557C48.3231 94.1813 48.8819 93.9115 49.4406 94.2776C49.826 94.5281 50.115 94.8749 50.404 95.241C52.0996 97.399 53.7952 99.557 55.6063 101.638C57.2826 103.584 58.9782 105.53 60.5774 107.534C61.7142 108.96 62.7162 110.501 63.3905 112.197C64.7586 115.588 64.142 118.671 61.9262 121.503C61.3289 122.274 60.6738 122.987 60.0379 123.719C59.8838 123.892 59.7875 124.046 59.9031 124.297C60.9435 126.802 62.1959 129.172 64.0264 131.195C65.0476 132.312 66.3 133.179 67.5139 134.104C70.6738 136.493 74.1998 138.228 77.5524 140.27C77.7451 140.386 77.9378 140.482 78.1304 140.578C78.1497 140.597 78.1882 140.578 78.2075 140.578C78.2653 140.463 78.169 140.424 78.1112 140.366C75.3559 137.418 73.7374 133.854 72.5428 130.058C72.2345 129.114 71.9455 128.15 71.6564 127.206C71.5986 127.033 71.5408 126.879 71.4252 126.744C69.8645 124.952 68.9782 122.833 68.6314 120.52C68.246 118.054 68.1497 115.588 68.2846 113.083C68.2846 113.064 68.2846 113.044 68.2846 113.044C68.3424 112.582 68.4002 112.1 68.9011 111.908C69.4214 111.715 69.8067 112.043 70.1343 112.389C71.2133 113.488 71.9455 114.798 72.6006 116.166C73.8722 118.806 74.0842 121.58 73.6025 124.432C73.4098 125.511 73.1979 126.571 72.774 127.572C72.7162 127.707 72.7354 127.823 72.774 127.958C73.6796 130.964 74.6815 133.931 76.3385 136.609C77.9185 139.152 79.9031 141.31 82.4079 142.967C84.932 144.624 87.5909 146.05 90.1728 147.592C92.2923 148.863 94.3732 150.193 96.4734 151.484C96.589 151.561 96.7239 151.638 96.8587 151.715C96.9165 151.542 96.8009 151.484 96.7431 151.407C95.6834 150.174 94.6815 148.883 93.7952 147.495C93.7181 147.38 93.641 147.283 93.5061 147.226C91.7528 146.648 90.4233 145.472 89.248 144.123C86.6275 141.156 85.221 137.669 84.932 133.738C84.7971 131.946 84.8549 130.154 84.9705 128.362C85.1054 126.089 84.9127 123.834 84.643 121.599C84.6044 121.33 84.6044 121.079 84.6237 120.809C84.6429 120.597 84.7586 120.424 84.9705 120.347C85.1824 120.27 85.3944 120.328 85.5293 120.482C85.7027 120.675 85.8568 120.867 85.9724 121.079C88.0534 124.624 90.5196 127.9 92.9859 131.176C93.7952 132.255 94.5466 133.372 95.1824 134.586C96.589 137.283 97.0514 140.116 96.2807 143.083C95.9532 144.335 95.3751 145.434 94.2769 146.204C94.0071 146.378 94.1998 146.532 94.2769 146.686C95.4329 148.536 96.8009 150.231 98.2653 151.85C99.537 153.256 100.944 154.49 102.543 155.492C104.103 156.474 105.529 157.63 106.917 158.844C107.302 159.172 107.629 159.538 108.034 159.808ZM90.0765 142.563C90.4811 142.775 90.8665 143.064 91.3674 143.179C91.3482 142.871 91.1169 142.794 91.0013 142.64C91.1747 142.64 91.1362 142.524 91.0977 142.428C90.8087 141.696 90.5774 140.925 89.8453 140.463C90.0187 140.559 90.1728 140.655 90.3462 140.752C90.404 140.559 90.3077 140.443 90.2692 140.308C89.8067 139.018 89.4406 137.707 89.1131 136.397C89.036 136.108 88.8241 135.742 89.248 135.549C89.6911 135.337 89.8067 135.742 89.9994 136.108C90.404 133.719 90.115 131.407 90.0187 129.114C90.1535 129.827 90.1728 130.559 90.2113 131.291C90.3077 132.794 90.3462 134.316 90.115 135.819C90.0572 136.185 89.9801 136.551 90.1343 136.898C90.2113 137.091 90.2692 137.052 90.3655 136.898C90.2306 138.073 92.4079 143.912 93.2942 144.759C93.4869 144.316 93.5061 143.834 93.5639 143.391C93.8722 140.887 93.9878 138.382 93.6603 135.877C93.4291 134.123 93.1401 132.389 91.8298 131.041C91.5986 130.79 91.4252 130.501 91.2133 130.231C91.1555 130.154 91.1169 130.019 90.9243 130.019C90.8857 131.31 90.9821 132.621 90.8665 133.43C90.8665 132.717 90.8279 131.542 90.8857 130.347C90.9243 129.653 90.5004 129.268 90.0765 128.729C90.0572 128.921 90.0572 128.998 90.0572 129.095C89.9801 128.767 89.9223 128.459 89.7104 128.17C88.3616 126.397 87.1092 124.567 85.9724 122.659C85.8954 122.544 85.8568 122.37 85.6449 122.332C85.6449 122.505 85.6449 122.659 85.6641 122.794C85.8761 124.721 85.9532 126.667 85.8376 128.594C85.7605 129.942 85.6834 131.291 85.7605 132.64C85.799 133.545 85.7605 134.47 86.2229 135.299C86.0688 135.183 85.9532 135.145 86.0302 135.414C86.1844 136.031 86.3193 136.667 86.4734 137.303C86.7046 138.285 87.2056 139.095 87.8607 139.846C88.5929 140.694 89.4406 141.407 90.3077 142.081C90.115 142.062 89.9994 141.927 89.8453 141.831C89.0167 141.272 88.3231 140.597 87.7065 139.827C87.6102 139.692 87.5331 139.538 87.2441 139.422C87.7065 140.289 87.9763 141.137 88.6699 141.715C88.5543 141.869 88.6699 141.965 88.747 142.062C89.7682 143.507 90.905 144.798 92.4079 145.781C92.5428 145.858 92.6584 145.973 92.8703 145.973C92.4657 145.183 92.0803 144.432 91.7142 143.661C91.5986 143.411 91.4252 143.256 91.1555 143.141C90.7508 143.064 90.3462 142.929 90.0765 142.563ZM76.3963 143.179C76.3385 143.16 76.2807 143.16 76.2422 143.122C75.009 142.177 73.6218 141.503 72.2537 140.809C70.616 140 68.8819 139.596 67.0514 139.807C66.7624 139.846 66.4541 139.827 66.1266 140.039C66.9358 140.251 67.6873 140.424 68.4387 140.617C70.5389 141.156 72.6391 141.676 74.4503 143.006C74.9705 143.391 75.7027 143.237 76.3385 143.276C76.3385 143.276 76.3578 143.199 76.3963 143.179C76.6853 143.314 76.9744 143.507 77.4368 143.391C75.7605 141.927 73.9108 140.964 71.8491 140.366C71.9455 140.463 72.0803 140.54 72.1959 140.597C73.0823 141.079 73.9878 141.542 74.8549 142.043C75.4137 142.351 75.9532 142.698 76.3963 143.179ZM93.6025 145.318C93.5832 145.357 93.5832 145.453 93.6603 145.414C93.7952 145.357 93.7952 145.202 93.853 145.087C94.2961 144.066 94.5466 142.967 94.7778 141.888C95.1632 140.058 95.3559 138.247 94.9898 136.397C94.932 136.127 94.8934 135.838 94.5851 135.549C94.7778 136.937 94.6815 138.208 94.6622 139.48C94.6429 138.362 94.5851 137.245 94.5659 136.147C94.5466 135.01 93.93 134.181 93.3135 133.199C93.2942 133.353 93.2749 133.411 93.2942 133.468C93.641 134.605 93.8337 135.781 93.93 136.956C94.142 139.557 93.9686 142.139 93.3905 144.682C93.352 144.933 93.3135 145.164 93.6025 145.318ZM27.4175 68.0156C27.4175 67.9193 27.379 67.8229 27.2634 67.8807C27.1478 67.9578 27.0707 68.0541 26.9744 68.1505C24.8934 70.4433 24.1998 73.1986 24.2769 76.2044C24.2961 77.1293 24.3732 78.0349 24.6044 78.9597C24.7586 78.8441 24.7393 78.7092 24.7778 78.5744C25.009 77.3605 25.3559 76.1851 25.8183 75.0291C26.0688 74.4125 26.2229 73.7959 26.2036 73.1216C26.1844 72.5821 26.3 72.0426 26.4541 71.5223C26.7431 70.5397 26.8973 69.5377 27.2634 68.5744C26.9936 69.6726 26.7239 70.7902 26.4734 71.8884C26.3385 72.505 26.2422 73.1216 26.2614 73.873C26.7817 73.0445 27.2248 72.3316 27.668 71.6187C27.6487 71.7343 27.6295 71.8692 27.7643 71.927C28.2846 72.1967 28.1304 72.5435 27.8799 72.9096C27.1863 73.9501 26.6468 75.0676 26.2807 76.2815C26.1266 76.8017 26.1073 76.8017 26.6468 76.7246C26.1458 76.821 25.9724 77.1485 25.8568 77.611C25.7605 78.0349 25.8761 78.1119 26.2614 78.0927C27.7258 78.0349 28.9782 77.4376 30.1535 76.6476C30.9243 76.1273 31.4445 75.4915 31.6179 74.5667C31.7142 73.9693 31.9069 73.372 32.0803 72.6977C31.8106 72.8325 31.7142 73.006 31.5986 73.1601C30.5004 74.5474 29.2094 75.7035 27.5717 76.4164C27.2634 76.5512 26.9744 76.7439 26.6275 76.7246C28.7663 75.9154 30.4233 74.4896 31.8106 72.7169C32.0418 72.4279 32.1959 72.1196 32.2923 71.7343C32.8703 68.9982 33.2749 66.243 33.8915 63.5069C33.9108 63.4298 33.93 63.372 33.8337 63.2757C33.3327 63.584 32.8125 63.9115 32.273 64.2198C31.3674 64.7401 30.4618 65.2603 30.0187 66.3008C30.0187 66.32 29.9801 66.32 29.9416 66.3393C29.9801 66.0117 30.2884 65.8191 30.3848 65.3952C29.4792 65.9539 28.6892 66.5512 27.9377 67.1678C27.7065 67.4183 27.5139 67.6688 27.4175 68.0156ZM26.4349 100C26.2614 99.9231 26.1844 99.7497 26.088 99.6148C25.2595 98.3624 24.3539 97.1678 23.3135 96.0888C23.1208 95.8769 22.9088 95.7035 22.6391 95.6071C21.7913 95.3374 20.9243 95.1254 20.0572 95.1254C19.7104 95.1254 19.4214 95.0483 19.0938 95.0291C18.6507 94.9905 18.1882 95.0291 17.668 95.0291C18.4002 95.453 19.0938 95.7613 19.6526 96.3008C19.2287 96.1852 18.9397 95.8576 18.5736 95.6457C17.957 95.2988 17.379 94.9327 16.6275 94.9327C13.9108 94.9135 11.194 94.6437 8.51579 94.1813C8.41945 94.162 8.30384 94.1042 8.1497 94.2584C8.22677 94.2969 8.28457 94.3162 8.32311 94.3547C9.92234 95.5493 11.3674 96.9559 12.7932 98.3431C13.0437 98.5936 13.3135 98.8056 13.6603 98.9019C13.3135 98.9404 13.564 99.0753 13.641 99.1524C14.0649 99.5763 14.5081 99.9809 14.932 100.405C15.1825 100.675 15.4715 100.848 15.8954 100.771C15.7412 100.848 15.6063 100.771 15.4907 100.906C15.9917 101.368 16.5119 101.811 17.0514 102.235C17.2634 102.409 17.4753 102.466 17.7451 102.447C19.8067 102.293 21.8299 101.908 23.8144 101.272C24.0457 101.195 24.3154 101.137 24.5466 100.886C23.9878 100.617 23.4483 100.386 22.9281 100.116C22.562 99.9231 22.2345 99.9231 21.8491 100.097C21.0206 100.463 20.1728 100.752 19.2865 100.906C20.2306 100.54 21.2325 100.27 22.2537 99.8075C21.5794 99.5185 20.9821 99.2487 20.404 98.9983C20.327 98.9597 20.1921 98.979 20.0957 98.9983C18.458 99.4607 16.8009 99.3451 15.1632 99.2102C14.643 99.1717 14.1035 99.1331 13.641 98.8634C15.7605 99.2295 17.8992 99.2873 20.0765 98.9212C19.9223 98.7092 19.7297 98.6707 19.6911 98.4973C19.6526 98.3239 19.6719 98.1697 19.8067 98.0541C19.9609 97.9 20.1343 97.9193 20.3077 97.9963C20.8857 98.2468 21.4638 98.4973 22.0418 98.7478C22.1574 98.8056 22.3308 98.9404 22.3115 98.6322C22.6006 98.9597 22.9667 99.1524 23.352 99.3451C23.9878 99.6726 24.7008 99.8653 25.2981 100.251C25.6834 100.501 26.1266 100.694 26.5505 100.886C26.6468 100.944 26.878 101.098 26.7431 100.771C27.2826 101.484 28.1304 101.696 28.8433 102.197C28.9975 100.019 25.4715 96.031 23.352 95.9732C24.5659 97.2063 25.6063 98.5358 26.4349 100ZM51.5408 112.004C51.2904 112.1 51.4638 112.274 51.5023 112.409C52.2152 115.222 53.3905 117.842 55.0861 120.193C55.9532 121.387 56.8973 122.544 58.1112 123.43C58.2653 123.545 58.4194 123.7 58.6314 123.7C58.6892 123.507 58.5929 123.391 58.535 123.256C57.7643 121.176 57.1478 119.037 56.7431 116.86C56.589 116.07 56.2422 115.434 55.6641 114.894C55.3751 114.624 55.0861 114.355 54.7778 114.104C54.2191 113.661 53.641 113.237 53.063 112.794C53.2364 112.794 53.352 112.91 53.4869 113.006C54.5081 113.7 55.51 114.432 56.3771 115.376C56.3192 114.836 56.2036 114.316 56.1266 113.777C56.0688 113.411 55.9146 113.122 55.6449 112.871C54.8356 112.081 53.8915 111.445 52.9281 110.867C52.5042 110.617 52.0803 110.366 51.6564 110.116C53.2171 110.79 54.6237 111.715 55.9339 112.948C55.8954 112.062 55.6641 111.31 55.51 110.559C55.1632 108.767 54.4695 107.071 53.7566 105.395C53.5254 104.875 53.5639 104.567 53.8722 104.49C54.3539 104.355 54.431 104.759 54.5466 105.068C55.6834 107.63 56.4734 110.289 56.8587 113.064C56.9358 113.661 57.1285 114.239 57.2056 114.836C57.3404 115.781 57.5717 116.705 57.7643 117.63C57.7836 117.688 57.8221 117.727 57.8992 117.727C57.9763 117.534 58.0534 117.36 58.1304 117.168C57.5909 118.69 58.4965 119.981 58.8048 121.368C58.8048 121.387 58.8819 121.407 58.9011 121.445C58.8626 121.927 59.1324 122.312 59.248 122.755C59.325 123.064 59.4599 123.064 59.6526 122.833C60.2113 122.158 60.7894 121.484 61.3482 120.809C62.4657 119.403 63.063 117.823 63.1786 116.031C63.2557 114.875 63.0245 113.777 62.5428 112.717C62.485 113.218 62.485 113.7 62.4079 114.201C62.0803 116.301 61.1555 118.15 60.0572 119.923C60.0765 119.75 60.1728 119.596 60.2692 119.441C60.9435 118.131 61.6179 116.802 62.0225 115.357C62.5428 113.449 62.5235 111.638 61.2325 110.019C61.0591 109.788 60.905 109.518 60.7316 109.287C60.6738 109.21 60.6545 109.056 60.4426 109.075C60.693 110.713 60.4811 112.312 60.1535 113.912C60.3462 112.389 60.5774 110.867 60.404 109.326C60.3077 108.555 59.826 108.093 59.3058 107.457C59.325 107.669 59.325 107.746 59.3443 107.804C59.4792 108.651 59.5948 109.518 59.5177 110.386C59.4406 111.272 59.3058 112.139 59.1324 112.987C58.8626 114.355 58.6314 115.723 58.169 117.033C58.458 115.665 58.747 114.278 59.0167 112.91C59.3058 111.387 59.537 109.885 59.3443 108.324C59.2672 107.669 59.1131 107.091 58.6507 106.571C57.167 104.894 55.7412 103.179 54.2961 101.484C52.7354 99.6726 51.2711 97.7844 49.7875 95.8961C49.6141 95.6649 49.4599 95.4337 49.1709 95.2796C49.0745 95.4722 49.1324 95.6264 49.1516 95.7805C49.4214 97.9578 49.6911 100.154 49.9031 102.351C50.1343 104.721 50.404 107.071 50.8279 109.403C50.8665 109.673 50.9435 109.885 51.2325 109.981C51.1169 109.962 50.9435 109.942 50.9821 110.116C51.1362 110.771 51.0977 111.445 51.5408 112.004ZM73.0245 144.624C72.9089 144.836 72.7932 145.029 72.6198 145.183C70.7123 147.149 68.535 148.651 65.8183 149.307C65.6834 149.345 65.5485 149.326 65.4715 149.48C67.1863 150 68.9397 150.289 70.7316 150.116C72.9666 149.904 74.9512 149.075 76.4927 147.399C77.167 146.667 77.6873 145.838 77.9185 144.856C77.9763 144.605 77.957 144.432 77.6295 144.393C76.3578 144.181 75.0668 144.046 73.7759 143.969C73.5832 143.95 73.4291 144.027 73.352 144.201C73.3905 143.95 73.2364 143.95 73.063 143.95C72.3886 143.969 71.7142 143.989 71.0399 143.989C70.7701 143.989 70.5389 144.085 70.3462 144.297C70.4233 143.95 70.1728 144.085 70.0379 144.085C69.036 144.181 68.0341 144.335 67.0514 144.624C66.7817 144.702 66.5505 144.663 66.4541 144.355C66.3771 144.085 66.5119 143.912 66.7624 143.815C68.2075 143.314 69.7297 143.218 71.2133 143.064C72.0803 142.967 73.0052 143.044 73.8915 143.102C73.9878 143.102 74.1035 143.16 74.1613 143.006C73.1208 142.312 72.0225 141.754 70.7894 141.426C69.7682 141.156 68.7663 140.867 67.7451 140.578C65.4329 139.942 65.2788 139.942 63.1401 141.021C63.0823 141.041 63.0245 141.06 62.9859 141.098C62.9088 141.156 62.774 141.156 62.7932 141.31C64.3154 141.465 65.8568 141.599 67.3404 142.004C66.2422 141.811 65.1439 141.676 64.0456 141.522C63.0823 141.368 62.2152 141.407 61.3289 141.965C59.2094 143.334 56.9165 144.432 54.5466 145.318C54.3925 145.376 54.1998 145.376 54.1227 145.607C54.2576 145.665 54.3732 145.703 54.4888 145.742C57.0514 146.474 59.537 147.399 62.0225 148.362C62.4272 148.517 62.8318 148.632 63.2557 148.439C63.2364 148.574 62.9859 148.497 63.0245 148.709C63.3327 148.806 63.641 148.94 63.9686 149.018C64.1035 149.056 64.2961 148.96 64.3539 149.037C64.6815 149.384 65.0668 149.364 65.4907 149.268C68.5158 148.574 70.9243 146.879 73.0245 144.624ZM21.984 16.5127C21.8299 16.4164 21.9069 16.1081 21.7142 16.1081C21.5023 16.1081 21.483 16.3778 21.406 16.532C21.1169 17.0522 20.8665 17.611 20.5389 18.1119C20.0187 18.8826 19.4406 19.6148 18.8626 20.347C17.7836 21.6765 16.878 23.1023 16.5505 24.7979C16.1073 27.0907 16.1266 29.4221 16.3385 31.7343C16.3578 32.004 16.5119 32.216 16.6853 32.4279C17.6487 33.584 18.458 34.8364 19.0938 36.2044C19.1516 36.32 19.1709 36.4549 19.3636 36.5512C18.7085 33.9693 18.0534 31.4453 17.3597 28.9212C18.6892 32.6399 19.2287 36.5705 20.6545 40.3277C20.5582 39.0175 20.4811 37.7651 20.3848 36.532C20.404 36.532 20.4233 36.532 20.4426 36.532C20.5582 38.0349 20.6738 39.5377 20.7894 41.0406C21.0977 40.3855 21.1362 39.7112 21.2325 39.0368C21.2325 39.0946 21.2325 39.1524 21.2518 39.2102C21.2518 39.268 21.2518 39.3258 21.3482 39.3258C22.5235 34.1813 22.9281 29.0368 21.772 23.8345C22.2152 25.453 22.5042 27.0907 22.6006 28.767C22.7547 31.7535 22.4464 34.7208 21.8491 37.6495C21.6179 38.8056 21.3289 39.9424 21.0591 41.0792C21.0206 41.2718 20.9821 41.426 21.2711 41.3875C21.1169 41.4838 21.0399 41.6379 21.0784 41.8306C22.0418 40.7709 22.6584 39.4992 23.4291 38.3239C23.2942 38.6129 23.1593 38.9019 22.9667 39.3065C23.1015 39.1909 23.1401 39.1717 23.1593 39.1331C24.2961 37.4376 25.4715 35.7805 26.5697 34.0464C28.5351 30.9443 29.537 27.5917 28.9204 23.8537C28.5543 21.6379 27.5524 20.0002 25.5293 18.9212C24.3539 18.3046 23.1593 17.6495 22.273 16.5898C22.1574 16.5127 22.0996 16.32 21.984 16.5127ZM13.8915 62.1004C14.4503 62.3701 14.5659 62.3123 14.6044 61.6957C14.643 62.2738 14.72 62.3123 15.3173 62.2352C16.011 62.1389 16.7239 62.0233 17.4368 61.9848C17.8607 61.9655 17.957 61.8113 17.957 61.426C17.9377 60.4048 18.1304 59.4029 18.3424 58.4009C18.3424 58.5551 18.3424 58.69 18.3038 58.8441C18.169 59.6919 18.0148 60.5397 17.9956 61.4067C17.9956 61.5416 17.9185 61.7535 18.0726 61.8113C18.246 61.8692 18.3424 61.6765 18.4387 61.5609C18.9397 60.9636 19.2672 60.2699 19.4792 59.5377C20.0187 57.6495 21.0399 56.1659 22.9088 55.3759C22.9281 55.3759 22.9281 55.3566 22.9474 55.3566C24.1227 54.6437 24.5851 53.6033 24.3347 52.2352C24.142 51.1755 23.6796 50.2314 23.1208 49.3258C22.3308 48.0156 21.5408 46.7054 20.8279 45.3566C20.7894 45.2603 20.7509 45.1447 20.5967 45.1061C21.1362 47.1678 21.6757 49.2102 22.2152 51.2333C21.9455 50.5782 21.7335 49.9231 21.5601 49.2295C21.1747 47.7651 20.7894 46.32 20.4233 44.8557C20.327 44.4896 20.0765 44.2198 20.0187 43.8537C19.9801 43.5262 19.7104 43.2757 19.4599 43.083C19.2672 42.9482 19.036 43.1794 18.8048 43.2564C18.747 43.2757 18.6892 43.2564 18.6314 43.2564C17.5717 43.372 16.589 43.6418 15.9146 44.5666C15.6449 44.952 15.2981 45.2796 15.009 45.6456C13.8144 47.1678 12.6006 48.69 11.772 50.4819C12.7547 47.8807 14.6044 45.8769 16.5119 43.8152C16.3578 43.8537 16.3 43.8537 16.2229 43.8923C14.3347 44.6437 12.5235 45.4915 10.9435 46.8403C9.2865 48.2661 8.63139 50.0387 8.78553 52.1582C8.88187 53.4684 9.38284 54.6245 9.98014 55.7805C10.4426 56.6861 10.8087 57.6302 10.9821 58.6322C11.0591 59.1717 11.1362 59.7112 11.2325 60.2314C11.3096 60.6553 11.5023 61.0406 11.8684 61.3297C11.9455 61.1948 11.9262 61.1177 11.8877 61.0406C12.0803 61.4067 12.273 61.7728 12.7162 61.9077C13.0437 62.0233 13.3713 62.1389 13.7374 62.1967C13.7759 62.1967 13.8915 62.2545 13.8915 62.1004ZM44.1805 37.3219C44.3732 37.0907 44.72 37.1678 44.8934 36.8981C45.1246 36.532 45.4137 36.1851 45.7027 35.8576C45.9532 35.5686 45.8761 35.4337 45.5485 35.2796C44.7586 34.8942 43.9686 34.4703 43.1979 34.0657C43.2171 34.0464 43.2557 34.0271 43.2557 34.0079C43.2557 33.9886 43.2364 33.9501 43.2171 33.9308C42.8703 33.6611 42.5042 33.4106 42.1767 33.1023C41.8876 32.8325 41.5408 32.6591 41.2518 32.3508C40.5004 31.5994 39.6526 30.9058 38.8048 30.2507C35.7798 27.9192 32.0803 28.4587 29.5948 30.0965C29.4021 30.2121 29.2287 30.347 29.1516 30.5782C28.3424 32.9096 27.0322 34.9713 25.6063 36.9559C25.5485 37.0329 25.4329 37.11 25.4715 37.2834C26.0688 36.821 26.6275 36.3586 27.2248 35.9347C28.8241 34.7786 30.4233 33.6225 32.2923 32.9289C33.0245 32.6591 33.7952 32.505 34.5851 32.4857C33.8722 32.6399 33.1593 32.794 32.4657 33.0638C29.6911 34.1813 27.3212 35.9347 25.0861 37.8807C24.4117 38.4587 24.0649 39.3065 23.6025 40.0772C24.8164 39.3065 26.088 38.6514 27.3597 38.0349C27.2634 38.1312 27.1478 38.189 27.0322 38.2468C25.9532 38.8441 24.8549 39.4221 23.8337 40.0965C23.352 40.4048 22.9859 40.8094 22.6776 41.2911C22.5428 41.5031 22.6006 41.7728 22.2537 41.927C23.4869 42.0811 24.3732 41.3104 25.3944 41.1177C24.8934 41.3297 24.3925 41.5416 23.8915 41.7535C24.7008 41.8113 25.51 41.8499 26.2807 41.6379C28.5736 41.0214 30.8472 40.3855 33.1786 39.8846C34.0071 39.7112 34.8356 39.5377 35.6641 39.3643C32.5813 40.0772 29.5177 40.848 26.4156 41.6957C26.6083 41.8306 26.7624 41.7921 26.8973 41.7921C29.3443 41.8884 31.7335 42.2352 34.0071 43.1601C35.4329 43.7574 36.7431 44.5281 37.6102 45.8769C37.8414 46.2237 38.4387 46.2815 38.7855 46.0503C39.537 45.5493 39.9609 44.7786 40.3848 44.0271C41.6179 41.7921 42.8125 39.5377 44.3925 37.4954C44.4503 37.4376 44.5466 37.3412 44.4888 37.2834C44.3925 37.2063 44.2769 37.2063 44.1805 37.3219ZM2.11887 34.2391C1.65644 34.0464 1.79131 34.2776 1.82985 34.4125C2.1574 35.4722 2.50422 36.532 2.83178 37.611C3.31347 39.1139 3.85297 40.5782 4.66222 41.9462C5.87609 43.9886 7.51386 45.4722 9.92234 45.9732C10.2692 46.0503 10.5389 46.0117 10.8087 45.7805C11.1362 45.4915 11.5216 45.2603 11.8877 45.0098C12.2537 44.7593 12.6391 44.5474 13.0437 44.3547C13.3713 44.1813 13.6988 43.9886 14.0649 43.8537C15.0668 43.4877 16.0495 43.0445 17.0707 42.7362C17.957 42.4665 18.8433 42.1967 19.7682 42.1004C20.0379 42.0618 20.0187 42.0233 19.9994 41.8113C19.8453 41.0021 19.5562 40.2314 19.4021 39.4414C19.325 38.979 19.036 38.5936 18.9011 38.1312C18.6699 37.2834 18.2653 36.4934 17.8221 35.7227C16.6661 33.6803 15.2788 31.8306 13.2364 30.5782C11.4638 29.4799 9.59478 28.979 7.53313 29.6919C6.28072 30.135 5.04758 30.6745 3.67956 30.9636C4.14199 31.2333 4.62368 31.214 5.02831 31.4453C4.60442 31.3682 4.18052 31.2719 3.75663 31.1755C3.14006 31.0214 2.85105 31.0406 2.52349 31.2719C3.14006 31.4453 3.7759 31.6187 4.39247 31.7921C5.02831 31.9848 5.64488 32.2352 6.24218 32.505C6.80095 32.7747 7.37898 33.0445 7.93775 33.3142C7.76434 33.3335 7.6102 33.2757 7.47532 33.1986C6.14584 32.5435 4.79709 31.9462 3.35201 31.5801C2.75471 31.426 2.17667 31.1755 1.54083 31.2719C1.5023 31.2719 1.46376 31.3104 1.40596 31.3297C1.5601 31.4453 1.65644 31.5031 1.75278 31.5801C1.6179 31.5801 1.52157 31.5223 1.42523 31.4838C1.29035 31.426 1.11694 31.2911 0.982067 31.4453C0.847192 31.5994 0.943531 31.7728 1.0206 31.9462C1.09767 32.1004 1.13621 32.2545 1.19401 32.4086C1.34816 32.9867 1.40596 33.6996 2.11887 34.2391ZM20.7894 43.2372C20.7894 43.5455 21.0784 43.6418 21.0784 43.7381C21.0399 44.2006 21.5794 44.4125 21.5986 44.7208C21.6179 45.1832 21.9069 45.4337 22.0611 45.7805C22.273 46.2622 22.5813 46.7054 22.8318 47.1678C23.4869 48.3239 24.2961 49.3836 24.7393 50.636C24.932 51.1948 25.1632 51.6572 25.7219 52.004C26.8973 52.7555 28.1882 53.1408 29.5948 53.4684C29.4021 53.0445 29.036 52.9096 28.8048 52.5243C29.2865 52.8711 29.5177 53.372 29.9994 53.5262C30.4811 53.6996 31.0013 53.7574 31.5023 53.8923C32.3693 54.1235 33.2171 54.4318 34.0649 54.7593C34.7778 55.0291 35.4907 55.3181 36.2614 55.4144C36.7431 55.4722 36.878 55.3566 36.9358 54.8942C36.9936 54.374 36.9551 53.8345 36.9936 53.3142C37.09 52.1004 37.3404 50.9058 37.5331 49.6919C37.8029 47.8422 37.2634 46.2622 35.7219 45.1061C34.7971 44.4318 33.7759 43.9693 32.6969 43.6225C30.0765 42.7747 27.3982 42.6206 24.6815 42.7169C24.4117 42.7169 24.1227 42.7362 23.853 42.7555C26.7239 43.2372 28.8048 43.7574 29.6911 44.2969C29.4406 44.2198 29.3058 44.1813 29.1709 44.1235C27.0707 43.372 24.8934 42.9867 22.6776 42.8903C22.0803 42.8711 21.4445 42.7747 20.8665 43.1986C23.7374 44.0464 26.4349 45.1832 28.9975 46.6861C26.3 45.3374 23.6603 44.1042 20.7894 43.2372ZM17.6102 102.544C19.5755 104.702 26.088 105.068 28.6892 103.179C28.6699 103.141 28.6507 103.102 28.6121 103.083C27.4368 102.351 26.2036 101.696 24.9512 101.06C24.7778 100.983 24.643 101.021 24.4888 101.098C23.0052 101.811 21.406 102.1 19.7875 102.312C19.0746 102.428 18.3424 102.466 17.6102 102.544ZM31.0399 76.1466C30.693 76.4164 30.3462 76.7246 29.9801 76.9751C28.8048 77.7651 27.5331 78.2853 26.0688 78.1505C25.8376 78.1312 25.7412 78.2083 25.7219 78.4202C25.7027 78.5936 25.6641 78.767 25.6256 78.9404C25.5293 79.2487 25.6834 79.4029 25.9532 79.4992C26.4349 79.6534 26.9358 79.7304 27.4175 79.6341C29.3636 79.268 30.3848 77.9193 31.0399 76.1466ZM93.8722 145.357C95.5485 144.509 96.4541 139.653 95.3173 137.457C95.4522 140.231 94.8934 142.833 93.8722 145.357Z" fill="white"/>
<path d="M107.706 159.962C107.649 159.615 107.764 159.345 107.976 159.037C109.479 156.879 111.599 155.453 113.872 154.22C117.88 152.062 121.945 150.058 125.934 147.881C133.236 143.892 140.385 139.711 147.186 134.933C158.015 127.322 167.764 118.517 176.049 108.151C180.905 102.062 185.452 95.7614 189.132 88.8828C193.545 80.6554 196.435 71.9078 197.822 62.6978C198.882 55.7036 198.574 48.7672 196.647 41.9464C194.797 35.376 191.599 29.5764 186.955 24.5668C181.907 19.1332 176.184 14.6438 169.479 11.4261C165.606 9.57641 161.502 8.63228 157.263 8.2662C152.389 7.86157 147.649 8.47814 143.082 10.27C139.036 11.8693 135.452 14.2392 132.119 16.9945C128.959 19.5957 126.223 22.6015 123.583 25.7036C120.365 29.5186 117.283 33.4492 114.296 37.4762C113.641 38.3433 113.044 39.2489 112.466 40.1737C112.311 40.4242 112.157 40.6939 111.811 40.5013C111.464 40.2893 111.637 40.0196 111.791 39.7691C112.87 37.9579 114.084 36.2431 115.356 34.586C118.728 30.1352 122.196 25.7614 125.972 21.6381C129.787 17.4762 134.046 13.8924 139.017 11.1949C144.797 8.05425 150.982 6.85965 157.533 7.39914C163.853 7.91938 169.595 10.0581 174.932 13.4107C181.175 17.3413 186.57 22.1776 190.963 28.0928C194.527 32.9097 196.782 38.3433 198.092 44.1814C199.768 51.6188 199.556 59.0562 198.053 66.4936C195.741 77.9772 191.155 88.4781 184.527 98.1313C179.267 105.781 173.545 113.025 166.936 119.576C159.267 127.187 150.828 133.815 141.714 139.615C133.371 144.914 124.72 149.653 115.895 154.104C114.527 154.798 113.198 155.53 111.945 156.416C110.674 157.303 109.518 158.305 108.651 159.615C108.4 160 108.111 160.116 107.706 159.962Z" fill="white"/>
<path d="M38.3809 36.1658C34.3732 36.6282 30.7123 38.2082 26.9165 39.6918C28.4387 38.5165 36.2999 36.108 38.3809 36.1658Z" fill="white"/>
<path d="M31.021 34.8363C33.9497 33.7959 36.9748 33.1793 40.0576 32.7747C36.994 33.2564 33.9882 33.9693 31.021 34.8363Z" fill="white"/>
<path d="M41.2524 39.615C39.4605 40.1545 37.6686 40.6747 35.8767 41.2142C37.6108 40.5398 39.4027 40.0196 41.2524 39.615Z" fill="white"/>
<path d="M43.1986 34.0463C42.7169 34.1619 42.2352 34.1234 41.7535 34.1427C40.5589 34.2005 39.3836 34.239 38.189 34.3353C39.846 34.0848 41.5223 33.9692 43.1986 34.0463Z" fill="white"/>
<path d="M44.1801 37.3217C43.2553 37.3796 42.3689 37.7071 41.4441 37.842C42.3304 37.6108 43.2167 37.2447 44.1801 37.3217Z" fill="white"/>
<path d="M38.4964 37.2447C37.7064 37.4374 36.9164 37.6108 36.1264 37.8034C36.1264 37.7842 36.1072 37.7649 36.1072 37.7264C36.8972 37.5337 37.6871 37.3603 38.4771 37.1676C38.4771 37.1869 38.4771 37.2061 38.4964 37.2447Z" fill="white"/>
<path d="M9.28638 32.717C12.928 34.1814 15.9723 36.5513 18.7469 39.2681C15.876 36.7055 12.8124 34.3933 9.28638 32.717Z" fill="white"/>
<path d="M15.896 40.7516C13.449 39.4221 11.0405 38.0156 8.59351 36.7246C11.1369 37.8807 13.5453 39.268 15.896 40.7516Z" fill="white"/>
<path d="M18.7278 41.0792C16.9359 39.8075 15.1248 38.5744 13.2943 37.3798C15.2211 38.4588 17.0515 39.6726 18.7278 41.0792Z" fill="white"/>
<path d="M7.7644 35.3182C9.65265 36.1275 11.4638 37.1487 13.2365 38.2277C11.406 37.2643 9.57558 36.2816 7.7644 35.3182Z" fill="white"/>
<path d="M9.5177 42.0233C10.2884 42.4087 11.0591 42.8133 11.8491 43.1987C11.0013 42.9289 10.2499 42.5243 9.5177 42.0233Z" fill="white"/>
<path d="M9.19027 39.8076C9.84538 40.1352 10.5005 40.4627 11.1749 40.7903C11.1556 40.8095 11.1556 40.8288 11.1363 40.8481C10.4812 40.5398 9.80684 40.2122 9.15173 39.904C9.15173 39.8654 9.171 39.8462 9.19027 39.8076Z" fill="white"/>
<path d="M12.6578 32.3702C12.0412 32.0619 11.4439 31.7536 10.8273 31.4454C10.8081 31.4261 10.7888 31.4068 10.7695 31.3683C11.4439 31.6573 12.099 31.9656 12.6578 32.3702Z" fill="white"/>
<path d="M3.62167 34.2581C2.98583 33.9498 2.52341 33.4489 2.00317 32.9865C2.54267 33.4103 3.15924 33.7379 3.62167 34.2581Z" fill="white"/>
<path d="M3.62183 34.2777C4.02645 34.4126 4.2962 34.7594 4.62375 35.0292C4.27693 34.7787 3.87231 34.6053 3.62183 34.2777Z" fill="white"/>
<path d="M18.708 44.2968C16.8197 48.5935 15.7407 53.1021 15.5866 57.8035C15.4903 53.0251 16.6271 48.5549 18.708 44.2968Z" fill="white"/>
<path d="M18.6508 53.1408C18.7664 50.5204 19.2481 47.9771 19.8261 45.4337C19.3829 47.9963 18.9783 50.559 18.6508 53.1408Z" fill="white"/>
<path d="M11.8686 61.0213C11.5603 59.4028 11.5217 57.7843 11.9649 56.1851C11.753 57.3989 11.7722 58.6321 11.8108 59.8459C11.8108 60.2506 11.9649 60.6359 11.8686 61.0213Z" fill="white"/>
<path d="M16.9738 56.32C17.1086 54.7015 17.282 53.1023 17.6481 51.5223C17.4169 53.1023 17.1857 54.7208 16.9738 56.32Z" fill="white"/>
<path d="M13.8917 62.1002C13.6412 60.7129 13.5063 59.3063 13.6412 57.8998C13.6219 59.1907 13.7375 60.4817 13.9109 61.7533C13.9302 61.869 13.8917 61.9846 13.8917 62.1002Z" fill="white"/>
<path d="M12.9861 52.9288C13.2558 51.9654 13.5641 50.9827 14.0265 50.0579C13.699 51.0405 13.3714 52.0039 13.0439 52.9866C13.0246 53.0251 12.9861 53.0058 12.9861 52.9288Z" fill="white"/>
<path d="M15.5873 58.7095C15.5487 59.6921 15.4717 60.6941 15.4909 61.696C15.4331 60.6941 15.4524 59.7114 15.5873 58.7095Z" fill="white"/>
<path d="M21.2322 41.3877C21.1359 41.2528 21.2129 41.1372 21.2515 41.0216C22.1956 38.7673 22.8314 36.4359 23.2168 34.0274C23.236 33.9503 23.2746 33.8925 23.3131 33.8347C22.9856 36.301 22.4268 38.7095 21.3863 40.9831C21.3285 41.0987 21.2129 41.2143 21.2322 41.3877Z" fill="white"/>
<path d="M24.4887 25.7036C24.4695 23.2373 23.8914 20.8674 23.2363 18.4974C23.9878 20.8481 24.72 23.1988 24.4887 25.7036Z" fill="white"/>
<path d="M26.7235 25.9927C26.6079 23.9118 26.1455 21.8887 25.7408 19.8463C26.2803 21.8502 26.8006 23.8733 26.7235 25.9927Z" fill="white"/>
<path d="M23.4099 25.5105C23.6026 27.707 23.6411 29.9228 23.5063 32.1386C23.5255 29.9228 23.5255 27.7263 23.4099 25.5105Z" fill="white"/>
<path d="M24.7015 34.4511C24.8557 32.8326 25.0291 31.2141 25.1832 29.5956C25.164 31.2141 24.9713 32.8326 24.7015 34.4511Z" fill="white"/>
<path d="M19.1132 27.3798C18.9976 25.9347 18.8049 24.4896 18.6508 23.0446C18.9205 24.4704 19.0939 25.9155 19.1132 27.3798Z" fill="white"/>
<path d="M21.9263 22.1775C21.6758 21.0792 21.4253 19.9809 21.1748 18.8634C21.5409 19.9617 21.8299 21.0599 21.9263 22.1775Z" fill="white"/>
<path d="M21.5022 33.218C21.5022 34.4126 21.5022 35.6072 21.5022 36.8018C21.4829 36.8018 21.4829 36.8018 21.4636 36.8018C21.4636 35.6072 21.4636 34.4126 21.4636 33.218C21.4636 33.218 21.4829 33.218 21.5022 33.218Z" fill="white"/>
<path d="M21.9642 16.532C22.234 17.1678 22.3881 17.8422 22.5423 18.5166C22.3496 17.8615 22.022 17.2256 21.9642 16.532Z" fill="white"/>
<path d="M21.1359 29.981C21.3671 30.5012 21.3093 31.06 21.3093 31.6187C21.2515 31.0792 21.1937 30.5205 21.1359 29.981Z" fill="white"/>
<path d="M21.1368 29.981C21.0597 29.4415 21.0019 28.8828 20.9248 28.3433C21.0404 28.8828 21.2331 29.4223 21.1368 29.981Z" fill="white"/>
<path d="M29.7496 46.1272C28.2467 45.2794 26.7053 44.4894 25.0675 43.9114C26.7438 44.3931 28.3045 45.1638 29.7496 46.1272Z" fill="white"/>
<path d="M32.2728 45.9348C33.6408 46.4936 34.7776 47.3992 35.8374 48.4011C34.7006 47.5148 33.5638 46.6285 32.2728 45.9348Z" fill="white"/>
<path d="M30.0765 50.8867C31.0785 51.8886 32.0804 52.8906 33.0823 53.8925C32.0419 52.9291 31.0207 51.9657 30.0765 50.8867Z" fill="white"/>
<path d="M28.3809 52.2354C27.8992 51.7923 27.4175 51.3684 26.9165 50.9252C26.9358 50.9059 26.955 50.8674 26.9743 50.8481C27.456 51.2913 27.957 51.7152 28.4387 52.1584C28.4387 52.1776 28.4194 52.1969 28.3809 52.2354Z" fill="white"/>
<path d="M23.9108 46.4933C23.4869 46.1465 23.0631 45.7997 22.6392 45.4529C23.1401 45.7034 23.5447 46.0695 23.9108 46.4933Z" fill="white"/>
<path d="M69.4988 144.875C69.4988 145.01 69.3832 145.067 69.2869 145.144C67.5335 146.397 65.7224 147.572 63.68 148.343C63.5258 148.401 63.3717 148.42 63.2175 148.478C64.0653 148.073 64.9131 147.688 65.7416 147.264C67.0711 146.57 68.285 145.723 69.4988 144.875Z" fill="white"/>
<path d="M88.4199 138.767C88.1887 138.748 88.1116 138.517 87.996 138.362C87.5914 137.842 87.2445 137.303 86.917 136.725C87.0904 136.744 87.1289 136.898 87.206 137.014C87.6106 137.592 88.0153 138.189 88.4199 138.767Z" fill="white"/>
<path d="M27.6873 71.657C28.0919 70.1349 28.7085 68.7091 29.4021 67.3025C29.5755 66.9749 29.7104 66.6089 29.9801 66.3391C29.9801 66.3776 29.9801 66.4355 29.9609 66.474C29.0553 68.131 28.3616 69.8844 27.6873 71.657Z" fill="white"/>
<path d="M93.6032 145.318C93.7188 144.451 93.95 143.622 94.1619 142.775C93.9885 143.622 93.9693 144.509 93.6032 145.318Z" fill="white"/>
<path d="M115.279 55.7804C114.739 55.896 114.219 55.8382 113.699 55.7226C111.502 55.2795 109.518 54.3546 107.61 53.2371C107.494 53.1793 107.379 53.1022 107.263 53.0444C107.244 53.0251 107.205 53.0444 107.167 53.0637C107.321 53.8729 107.494 54.6629 107.61 55.4721C107.861 57.187 107.976 58.9211 107.668 60.6552C107.61 61.002 107.514 61.3488 107.36 61.6571C106.897 62.6012 106.03 62.659 105.433 61.792C105.163 61.3874 104.99 60.9249 104.855 60.4625C104.219 58.1696 104.315 55.896 104.913 53.6224C104.99 53.3334 105.047 53.0444 105.163 52.7747C105.491 52.1003 105.279 51.4837 104.97 50.8864C104.624 50.2313 104.257 49.6147 103.872 48.9211C103.737 49.1523 103.814 49.345 103.814 49.5184C103.891 51.0213 103.756 52.4856 103.256 53.9114C103.082 54.4124 102.832 54.8748 102.446 55.2602C101.656 56.0502 100.654 55.9153 100.115 54.9134C99.7295 54.2005 99.6717 53.4298 99.691 52.6398C99.7488 51.1754 100.153 49.8074 100.847 48.5165C101.232 47.7843 101.598 47.0521 102.022 46.3392C102.177 46.0502 102.157 45.8382 102.003 45.5685C101.598 44.8748 101.271 44.1619 100.847 43.4876C100.038 42.1773 99.479 40.7323 98.6698 39.4221C98.5927 39.2872 98.5349 39.1138 98.3808 39.0174C98.2844 39.1138 98.3422 39.2294 98.3422 39.3257C98.4964 40.7323 98.5156 42.1388 98.2073 43.5454C98.0917 44.0463 97.9183 44.528 97.5908 44.9519C96.8586 45.8768 95.7796 45.8382 95.1438 44.8363C94.6235 44.0271 94.4887 43.1022 94.4501 42.1773C94.3923 40.8671 94.6043 39.5955 94.9318 38.3431C95.1823 37.3989 95.452 36.4741 95.7025 35.5299C95.7025 35.5107 95.7025 35.4914 95.7218 35.4914C96.242 34.9134 95.7989 34.4702 95.5098 34.0271C93.8914 31.4644 92.1958 28.9596 90.3846 26.5319C90.269 26.3777 90.1919 26.2043 89.9993 26.1273C89.9414 26.3199 90.0571 26.4548 90.1149 26.5897C90.77 28.3238 91.2517 30.1157 91.3865 31.9847C91.4443 32.7554 91.4443 33.5068 91.2517 34.2583C91.0975 34.7978 90.8663 35.2987 90.2497 35.4336C89.6524 35.5492 89.2285 35.2217 88.8817 34.7978C88.323 34.1427 87.9954 33.372 87.7449 32.5627C87.1669 30.7323 87.0127 28.844 86.9742 26.9558C86.9549 25.4914 86.8201 24.0271 86.6467 22.5627C86.5888 21.9847 86.3384 21.6186 85.9915 21.2525C85.0667 20.2506 84.1033 19.2679 83.1014 18.3431C81.6756 17.0328 80.2112 15.7612 78.612 14.6629C78.4964 14.5858 78.4 14.4702 78.2074 14.4509C78.2266 14.6436 78.3615 14.7592 78.4578 14.8941C79.6332 16.4548 80.6929 18.0926 81.3673 19.9615C81.6563 20.7323 81.8875 21.5222 81.9068 22.37C81.9068 22.9481 81.8682 23.5646 81.2709 23.8536C80.6736 24.1427 80.1534 23.8344 79.691 23.4683C78.8239 22.7747 78.2266 21.8691 77.7449 20.8864C76.6274 18.6706 76.0108 16.3007 75.6833 13.8536C75.5677 12.9866 75.2401 12.4856 74.4501 12.1003C71.7334 10.7708 68.9395 9.67253 65.953 9.07523C65.7796 9.03669 65.6062 9.01742 65.3943 8.97889C65.4906 9.19083 65.6447 9.2101 65.7796 9.28717C67.032 9.96155 68.1881 10.7708 69.0551 11.9076C69.479 12.4856 69.8259 13.1022 69.9415 13.8151C70.0956 14.7978 69.5561 15.4914 68.5542 15.5492C67.9569 15.5878 67.4174 15.4336 66.8779 15.2024C66.0879 14.8748 65.3557 14.4124 64.7006 13.8922C63.0821 12.6205 61.7334 11.0983 60.5002 9.46058C60.3654 9.26791 60.1534 9.07523 60.1727 8.84401C60.2112 8.38159 59.9415 8.40085 59.6332 8.40085C57.0706 8.36232 54.5465 8.59353 52.0609 9.13303C51.3673 9.28717 50.6736 9.47985 49.98 9.7496C50.1534 9.78814 50.3268 9.8074 50.5002 9.84594C52.8316 10.2313 54.9318 11.1754 56.8201 12.6012C57.2247 12.9095 57.61 13.2756 57.8605 13.7188C58.3422 14.5666 57.9183 15.3373 56.9549 15.3951C56.2806 15.4336 55.6447 15.2602 55.0089 15.0483C53.2363 14.4317 51.637 13.4683 50.0571 12.4471C49.0744 11.8113 48.0147 11.291 46.9164 10.8479C46.7237 10.7708 46.5503 10.7708 46.3576 10.8479C44.6621 11.5222 43.0243 12.293 41.4443 13.2178C40.7892 13.5839 40.1341 13.9307 39.5368 14.4509C39.768 14.4317 39.9993 14.4124 40.2497 14.3931C41.8297 14.2968 43.3326 14.4895 44.6621 15.4336C44.8933 15.5878 45.1052 15.7804 45.2786 16.0116C46.0301 16.9558 45.7218 17.9192 44.585 18.266C43.7565 18.5165 42.8894 18.4779 42.0609 18.3431C40.269 18.0348 38.5542 17.4375 36.9357 16.6475C36.5696 16.4741 36.3191 16.4933 36.0301 16.7438C35.664 17.0714 35.2786 17.3604 34.874 17.6301C34.7391 17.7265 34.585 17.9962 34.4116 17.7072C34.2767 17.4953 34.0455 17.2448 34.3345 16.9558C34.4887 16.8209 34.6428 16.686 34.8162 16.5704C35.2594 16.2043 35.7796 15.9346 36.0879 15.4336C36.1264 15.3758 36.165 15.3565 36.2228 15.318C37.6679 14.6436 38.8817 13.5839 40.2883 12.8517C40.5195 12.7361 40.6158 12.5627 40.6736 12.3122C41.1746 9.98081 41.7334 7.66868 42.9858 5.58775C43.3133 5.04825 43.6794 4.52802 44.1418 4.08486C44.3153 3.91145 44.5272 3.75731 44.7584 3.68024C45.2594 3.50683 45.6833 3.71877 45.8374 4.21973C45.9916 4.70143 45.8952 5.14459 45.7796 5.60702C45.4906 6.64748 44.9704 7.55307 44.3923 8.43939C43.7758 9.38351 43.1206 10.3084 42.5041 11.2525C42.427 11.3681 42.3114 11.4837 42.2921 11.6378C42.4463 11.7342 42.5426 11.5993 42.639 11.5415C44.9896 10.3469 47.4366 9.38351 49.98 8.68987C50.2305 8.6128 50.3653 8.49719 50.4617 8.24671C51.1553 6.51261 51.7912 4.75923 52.8509 3.19854C53.6409 2.04247 54.585 1.05981 55.8567 0.423974C56.5503 0.0771527 57.2825 -0.154061 58.0725 8.14423e-05C58.9395 0.173492 59.4212 0.790062 59.3634 1.67638C59.3056 2.4471 58.9395 3.08293 58.4964 3.66097C57.3981 5.10605 55.9723 6.18505 54.5079 7.24478C54.2767 7.41819 54.0455 7.57234 53.8336 7.84209C54.1226 7.80355 54.3923 7.78428 54.6813 7.74575C59.5368 7.12918 64.296 7.49527 68.9973 8.88255C69.3827 8.99816 69.6139 8.90182 69.9415 8.6706C72.3307 6.84016 74.9896 5.81896 78.0725 6.26212C78.5927 6.3392 79.0937 6.51261 79.5368 6.82089C80.3653 7.39893 80.4039 8.30451 79.6524 8.99816C79.2478 9.36424 78.7276 9.57619 78.2266 9.7496C76.6467 10.2698 75.0282 10.3469 73.3904 10.2891C73.2555 10.2891 73.1399 10.2698 72.9858 10.2698C73.0628 10.4625 73.217 10.4818 73.3519 10.5396C76.6659 12.0425 79.6717 14.0271 82.4077 16.4355C82.7546 16.7438 83.0436 16.8209 83.4675 16.6282C84.2574 16.2621 85.0667 15.9538 85.8567 15.607C87.1669 15.0483 88.4964 14.6436 89.9222 14.5088C90.7314 14.4509 91.5214 14.4895 92.2536 14.8363C93.5638 15.4336 93.7179 16.7438 92.5619 17.6301C91.637 18.3238 90.5387 18.5357 89.4212 18.6899C87.9954 18.8825 86.5696 18.7862 85.163 18.5165C85.0282 18.4972 84.8933 18.4009 84.7391 18.4779C84.7391 18.6321 84.874 18.7091 84.9511 18.8055C87.9954 21.8305 90.6544 25.1831 93.0821 28.7091C93.3711 29.133 93.7372 29.3064 94.1996 29.3835C95.2594 29.5762 96.2998 29.345 97.3596 29.2486C98.7468 29.1138 100.134 28.9018 101.521 29.1138C102.273 29.2294 102.986 29.4606 103.583 29.9615C104.585 30.7708 104.489 31.8883 103.352 32.4856C102.446 32.9673 101.444 32.9673 100.462 32.8325C98.5349 32.6012 96.7623 31.9076 95.0474 31.0405C94.9511 30.9827 94.8355 30.9442 94.7199 30.8864C94.6235 31.0791 94.7777 31.1754 94.8547 31.2718C97.0127 34.5088 98.9395 37.8614 100.731 41.3103C100.905 41.6571 101.078 41.7149 101.444 41.5993C103.236 41.0213 105.028 40.5396 106.936 40.6552C107.957 40.713 108.959 40.9249 109.845 41.4644C110.616 41.9269 111.271 42.5242 111.117 43.5454C110.963 44.5473 110.173 44.9519 109.306 45.1639C108.188 45.4336 107.051 45.318 105.934 45.0868C104.778 44.8556 103.66 44.4895 102.581 44.0078C102.466 43.95 102.369 43.8536 102.215 43.9115C102.177 44.0849 102.292 44.1812 102.369 44.2968C103.506 46.3585 104.681 48.4009 105.799 50.4625C106.049 50.9442 106.358 51.1369 106.897 51.1369C108.901 51.1562 110.847 51.4259 112.735 52.1195C113.583 52.4278 114.392 52.7939 115.124 53.3334C115.433 53.5454 115.703 53.7766 115.914 54.0849C116.415 54.8748 116.146 55.5685 115.279 55.7804Z" fill="white"/>
<path d="M161.33 51.927C160.27 53.7767 159.846 55.8191 159.75 57.9193C159.596 61.3104 160.347 64.5667 161.522 67.7073C162.255 69.6534 163.083 71.5609 163.738 73.5262C165.048 77.4954 165.761 81.5609 165.029 85.7613C164.22 90.2892 161.869 93.7574 157.688 95.742C152.601 98.1505 147.457 97.9193 142.486 95.3759C137.996 93.0831 135.318 89.3836 134.836 84.3162C134.393 79.5185 135.781 75.164 138.343 71.1563C140.578 67.6303 143.545 64.7594 146.705 62.0811C151.214 58.2661 156.166 55.0291 161.156 51.8885C161.214 51.8499 161.291 51.8306 161.368 51.7921C161.349 51.8692 161.349 51.8885 161.33 51.927ZM141.542 72.6977C140.174 74.6052 139.345 76.6861 139.037 78.9597C138.574 82.2353 139.384 85.2411 141.156 88.0542C141.387 87.9 141.599 87.7651 141.869 87.611C140.482 85.3759 139.673 82.9867 139.769 80.3663C139.865 77.7651 140.694 75.3952 142.197 73.1987C141.985 73.0445 141.792 72.8904 141.542 72.6977Z" fill="white"/>
<path d="M127.514 69.9999C126.474 70.8477 125.433 71.6954 124.412 72.5625C122.312 74.3737 120.327 76.3005 118.844 78.6704C117.765 80.366 117.187 82.235 117.206 84.2388C117.225 87.2446 118.921 89.5953 121.792 90.443C124.605 91.2523 127.206 90.8477 129.325 88.6897C130.713 87.2831 131.06 85.4912 130.886 83.5837C130.713 81.6954 130.058 79.9806 129.171 78.3236C128.42 76.9363 127.707 75.5683 127.418 74.0076C127.148 72.6781 127.129 71.3679 127.611 70.077C127.572 70.0384 127.534 70.0191 127.514 69.9999Z" fill="white"/>
<path d="M130.964 92.0038C130.154 93.2177 129.287 94.4315 128.478 95.6839C127.553 97.129 126.782 98.6512 126.416 100.327C126.05 101.965 126.147 103.584 126.975 105.067C128.054 106.994 130.366 107.842 132.563 107.168C133.199 106.975 133.854 106.686 134.393 106.301C136.147 105.087 136.725 103.044 135.992 100.944C135.492 99.5375 134.624 98.3814 133.623 97.3217C132.755 96.4161 131.908 95.472 131.503 94.2581C131.253 93.5452 131.137 92.7938 130.964 92.0038Z" fill="white"/>
<path d="M52.7358 168.709C53.1404 168.998 53.3523 169.518 53.3523 170.251V170.424C53.3523 170.752 53.2945 171.233 53.1982 171.869C53.1019 172.505 52.9863 172.89 52.8706 173.044C52.7936 173.141 52.7165 173.179 52.6587 173.179C52.5816 173.179 52.5238 173.121 52.466 173.006C52.2733 172.563 51.9073 172.197 51.4063 171.908C50.9053 171.619 50.2695 171.407 49.4988 171.272C48.7281 171.137 47.861 171.06 46.8784 171.06C44.8938 171.06 42.5624 171.33 39.9227 171.85C40.1539 172.12 40.2695 172.428 40.2695 172.794C40.2695 173.179 40.1539 173.603 39.9227 174.027C39.6915 174.47 39.3446 175.029 38.9015 175.703C38.6125 176.127 38.4005 176.436 38.2849 176.647C38.2464 176.725 38.1886 176.821 38.1115 176.936C39.3832 176.436 41.0595 176.089 43.1597 175.896C43.2945 175.896 43.4101 175.877 43.5258 175.877C44.7974 175.877 45.4718 176.532 45.5489 177.823V177.9C45.5489 178.189 45.5296 178.516 45.4718 178.902C45.414 179.268 45.3369 179.538 45.2406 179.692C45.1635 179.807 45.0864 179.865 45.0094 179.865C44.9323 179.865 44.8745 179.807 44.8167 179.711C44.6433 179.21 44.2579 178.844 43.6799 178.594C43.1019 178.362 42.389 178.227 41.5412 178.227C40.2695 178.227 38.9785 178.459 37.6491 178.921C38.0344 180.077 38.3042 181.368 38.4583 182.813C38.4969 183.276 38.5354 183.738 38.5354 184.162C38.5354 185.434 38.3234 186.493 37.9188 187.36C37.5142 188.227 36.9747 188.863 36.3196 189.287C35.6645 189.711 34.9516 189.923 34.2194 189.923C33.5258 189.923 32.8706 189.75 32.2733 189.383C31.6568 189.037 31.1751 188.516 30.7897 187.861C30.4044 187.206 30.231 186.416 30.231 185.511C30.231 184.432 30.5007 183.295 31.0595 182.062C31.6568 180.732 32.4082 179.403 33.2945 178.073C34.1809 176.744 35.1635 175.337 36.2618 173.854C36.493 173.545 36.6471 173.333 36.7435 173.218C36.7627 173.199 36.782 173.179 36.8013 173.141C37.0325 172.813 37.1866 172.582 37.283 172.466C36.6086 172.659 36.0498 172.909 35.5874 173.237C35.125 173.565 34.836 173.988 34.6818 174.528C34.6626 174.586 34.6433 174.663 34.6433 174.759C34.624 174.894 34.5855 174.99 34.5662 175.067C34.5277 175.145 34.4699 175.164 34.3928 175.164C34.3157 175.164 34.2387 175.125 34.1231 175.067C33.4872 174.701 33.0633 174.22 32.8514 173.622C32.755 173.314 32.7165 173.044 32.7165 172.775C32.7165 172.177 32.9477 171.696 33.4294 171.368C33.9111 171.041 34.5469 170.752 35.3562 170.54C37.8225 169.884 40.5778 169.345 43.6606 168.902C46.7242 168.459 49.2483 168.247 51.2329 168.227C51.8109 168.285 52.3311 168.42 52.7358 168.709ZM36.8784 183.892C36.8784 182.852 36.7049 181.599 36.3389 180.096C35.9342 180.906 35.6067 181.676 35.3369 182.409C35.0672 183.141 34.8938 183.834 34.7974 184.47C34.7589 184.721 34.7204 184.952 34.7204 185.164C34.7204 185.607 34.7974 185.935 34.9708 186.185C35.1442 186.416 35.3562 186.551 35.5874 186.551C35.8764 186.551 36.1462 186.378 36.3967 186.05C36.6471 185.723 36.782 185.241 36.8398 184.624C36.8784 184.393 36.8784 184.143 36.8784 183.892Z" fill="white"/>
<path d="M57.2252 191.85C57.3215 191.811 57.4756 191.715 57.6876 191.58C57.8417 191.483 57.9573 191.406 58.0537 191.368C58.15 191.329 58.2271 191.291 58.3234 191.291C58.5161 191.291 58.651 191.464 58.7473 191.83C58.7859 191.984 58.8051 192.139 58.8051 192.312C58.8051 192.659 58.7281 193.006 58.5739 193.333C58.4198 193.68 58.2078 194.065 57.9188 194.547C57.8225 194.701 57.7454 194.817 57.7069 194.913C57.3408 195.53 56.8783 196.011 56.281 196.339C55.6837 196.666 55.0286 196.84 54.3157 196.878H54.1038C53.0633 196.878 52.0036 196.589 50.9439 196.011C49.8841 195.433 48.9978 194.605 48.2656 193.545C47.5334 192.485 47.1096 191.272 46.9939 189.903C44.913 189.653 43.8726 188.632 43.8726 186.801C43.8726 185.279 44.6047 183.198 46.0691 180.559C46.8398 179.191 47.4949 177.919 48.0729 176.744C48.651 175.587 49.1327 174.451 49.518 173.333C49.9034 172.216 50.0961 171.272 50.0961 170.462C50.0961 170.212 50.0768 169.981 50.0383 169.788C50.019 169.653 49.9419 169.46 49.8071 169.191C49.6914 168.94 49.6336 168.767 49.6336 168.67C49.6336 168.478 49.8071 168.343 50.1731 168.285C50.4044 168.246 50.6356 168.246 50.8668 168.246C51.7531 168.246 52.5238 168.478 53.1982 168.94C54.2772 169.711 54.8359 170.655 54.8359 171.772C54.8359 172.331 54.7203 172.929 54.4699 173.564C54.2194 174.2 53.9111 174.778 53.5643 175.356C53.2175 175.915 52.755 176.609 52.1963 177.399C51.599 178.246 51.2136 178.863 51.0017 179.229C49.518 181.811 48.7473 184.123 48.6702 186.185V186.397C48.6702 187.399 48.9207 188.381 49.4024 189.306C49.9034 190.231 50.5778 191.002 51.4255 191.58C52.3119 192.177 53.3138 192.485 54.4313 192.485C55.3176 192.466 56.2618 192.254 57.2252 191.85ZM67.071 180.52C67.2637 180.404 67.4756 180.347 67.6876 180.347C67.9573 180.347 68.1693 180.424 68.362 180.597C68.5546 180.771 68.651 181.002 68.651 181.291C68.651 181.561 68.5546 181.869 68.362 182.177C67.8417 183.083 67.1481 183.776 66.2618 184.297C65.3755 184.817 64.4891 185.067 63.6028 185.067C63.3138 185.067 63.0248 185.048 62.7743 184.99C62.1577 185.954 61.4256 186.801 60.597 187.553C59.7685 188.304 58.8822 188.882 57.9573 189.306C57.0325 189.73 56.1269 189.923 55.2406 189.923C54.3543 189.923 53.5835 189.711 52.9284 189.306C52.2733 188.882 51.7724 188.304 51.4063 187.553C51.0595 186.801 50.8668 185.954 50.8668 184.99C50.8668 184.085 51.0209 183.16 51.3292 182.177C51.5797 181.368 51.9265 180.597 52.3697 179.846C52.8128 179.094 53.2945 178.42 53.8533 177.803C54.3928 177.167 54.8938 176.859 55.3369 176.859C55.6067 176.859 55.8186 176.975 55.9728 177.206C56.1269 177.437 56.204 177.745 56.204 178.15C56.204 178.227 56.204 178.304 56.1847 178.381C56.281 177.283 56.6857 176.358 57.3793 175.587C58.0729 174.817 59.0171 174.431 60.1924 174.431C61.1943 174.431 62.0421 174.663 62.7165 175.106C63.3909 175.549 63.8918 176.146 64.2194 176.898C64.5469 177.649 64.7011 178.458 64.7011 179.364C64.7011 180.019 64.624 180.674 64.4506 181.31C64.2772 181.965 64.046 182.562 63.7377 183.14C64.8167 182.948 65.7801 182.254 66.5701 181.06C66.7049 180.828 66.8783 180.636 67.071 180.52ZM58.0151 185.202C58.4583 184.971 58.8629 184.682 59.2675 184.297C58.3427 183.796 57.6105 183.102 57.071 182.196C56.5315 181.291 56.2425 180.347 56.1847 179.325C55.8764 179.692 55.5874 180.058 55.3562 180.462C55.125 180.867 54.9516 181.252 54.8359 181.599C54.7011 182.042 54.624 182.505 54.624 182.986C54.624 183.699 54.7974 184.297 55.125 184.798C55.4525 185.298 55.9728 185.53 56.6857 185.53C57.1288 185.53 57.572 185.414 58.0151 185.202ZM61.1751 180.27C61.1751 179.73 61.0595 179.345 60.8282 179.075C60.597 178.805 60.3273 178.67 59.9805 178.67C59.6144 178.67 59.3061 178.805 59.0171 179.075C58.7281 179.345 58.5932 179.672 58.5932 180.077C58.5932 180.404 58.7088 180.751 58.94 181.098C59.1712 181.464 59.5373 181.811 60.019 182.177C60.2695 182.351 60.4429 182.447 60.5392 182.447C60.6163 182.447 60.6741 182.408 60.7319 182.312C60.7704 182.216 60.8282 182.061 60.9246 181.811C60.9439 181.734 60.9631 181.676 60.9824 181.618C61.1173 181.117 61.1751 180.674 61.1751 180.27Z" fill="white"/>
<path d="M71.6566 178.228C71.6566 178.054 71.5988 177.9 71.4832 177.765C71.3676 177.65 71.2327 177.572 71.0978 177.572C70.8666 177.572 70.674 177.727 70.5198 178.016C69.7684 179.519 68.9977 180.906 68.2077 182.197C67.9572 182.601 67.6104 182.813 67.2057 182.813C66.936 182.813 66.6855 182.717 66.4736 182.524C66.2616 182.332 66.1653 182.1 66.1653 181.811C66.1653 181.58 66.2424 181.33 66.4158 181.098C66.9167 180.328 67.3214 179.538 67.6682 178.709C68.015 177.881 68.1691 177.091 68.1691 176.359C68.1691 175.299 67.7838 174.451 67.0323 173.815C66.8975 173.68 66.8397 173.545 66.8397 173.391C66.8397 173.16 66.9745 172.929 67.2443 172.698C67.514 172.466 67.7838 172.312 68.0343 172.235C68.4003 172.1 68.7857 172.043 69.1711 172.043C69.6335 172.043 70.0574 172.139 70.4427 172.312C70.8281 172.486 71.1557 172.717 71.3869 173.006C71.6181 173.295 71.7337 173.603 71.7337 173.95C71.7337 174.046 71.7144 174.162 71.6951 174.278C72.0612 174.181 72.4273 174.143 72.7934 174.143C73.6605 174.143 74.4119 174.374 75.067 174.856C76.0497 175.549 76.5314 176.397 76.5314 177.361C76.5314 178.054 76.3387 178.748 75.9341 179.48C75.5294 180.193 74.9707 181.079 74.2192 182.1C73.6797 182.813 73.2366 183.468 72.909 184.066C72.6778 184.47 72.5815 184.817 72.5815 185.087C72.5815 185.26 72.62 185.395 72.7163 185.472C72.8127 185.569 72.9476 185.607 73.121 185.607C73.3329 185.607 73.5834 185.53 73.8724 185.395C74.1614 185.26 74.4504 185.048 74.7202 184.798C75.9148 183.584 76.9167 182.351 77.7067 181.098C77.8416 180.867 77.9957 180.694 78.1884 180.578C78.3811 180.463 78.593 180.405 78.805 180.405C79.0747 180.405 79.2867 180.482 79.4794 180.655C79.672 180.829 79.7684 181.06 79.7684 181.33C79.7684 181.599 79.672 181.908 79.4794 182.216C78.5738 183.7 77.6682 185.01 76.7433 186.147C75.8185 187.303 74.8743 188.208 73.9302 188.902C72.9861 189.596 72.0805 189.942 71.2327 189.962H71.1749C70.1345 189.962 69.4023 189.711 68.9206 189.21C68.4582 188.709 68.2269 188.035 68.2269 187.206C68.2269 186.705 68.304 186.185 68.4389 185.646C68.593 185.106 68.7857 184.567 69.0169 184.046L71.5217 178.632C71.6181 178.497 71.6566 178.362 71.6566 178.228Z" fill="white"/>
<path d="M92.5238 180.578C92.7165 180.463 92.9284 180.405 93.1404 180.405C93.4101 180.405 93.6221 180.482 93.8148 180.655C94.0074 180.829 94.1038 181.06 94.1038 181.33C94.1038 181.599 94.0074 181.908 93.8148 182.216C92.9092 183.7 92.0036 185.01 91.0787 186.147C90.1539 187.303 89.2097 188.208 88.2656 188.902C87.3215 189.596 86.4159 189.942 85.5681 189.962H85.5296C84.8745 189.962 84.2387 189.769 83.6221 189.364C83.0055 188.979 82.5623 188.382 82.2541 187.592C81.7724 188.362 81.2329 188.96 80.6548 189.345C80.0768 189.73 79.4988 189.942 78.9207 189.942H78.8437C77.8995 189.904 77.2059 189.596 76.7435 189.018C76.281 188.44 76.0691 187.688 76.0691 186.725C76.0691 185.607 76.3388 184.335 76.8783 182.929C77.4178 181.522 78.15 180.154 79.0556 178.863C79.9612 177.572 80.9439 176.513 82.0228 175.704C83.0826 174.894 84.1038 174.49 85.1057 174.49C85.8957 174.49 86.6664 174.836 87.4564 175.53C87.6876 175.222 88.0151 174.952 88.439 174.779C88.8629 174.605 89.2675 174.49 89.7107 174.49C90.2309 174.49 90.6548 174.644 91.0017 174.933C91.3485 175.222 91.5219 175.684 91.5219 176.282C91.5219 176.86 91.3292 177.572 90.9439 178.42C90.5585 179.268 89.9419 180.251 89.0941 181.368C88.2078 182.544 87.6105 183.449 87.2637 184.104C87.0325 184.509 86.9361 184.856 86.9361 185.125C86.9361 185.299 86.9747 185.434 87.071 185.511C87.1674 185.607 87.3022 185.646 87.4564 185.646C87.6876 185.646 87.9381 185.569 88.2271 185.434C88.5161 185.299 88.7859 185.087 89.0749 184.836C90.2502 183.661 91.2521 182.428 92.0614 181.137C92.177 180.887 92.3311 180.694 92.5238 180.578ZM86.1654 178.459C86.1654 178.228 86.1269 178.054 86.0306 177.939C85.9342 177.823 85.7993 177.765 85.6452 177.765C85.3947 177.765 85.0864 177.9 84.7203 178.151C84.3543 178.401 83.9882 178.767 83.6028 179.249C83.1597 179.788 82.7936 180.309 82.466 180.848C82.1385 181.388 81.7531 182.062 81.3099 182.89C81.2907 182.929 81.2714 182.967 81.2714 182.987C80.8668 183.719 80.6741 184.297 80.6741 184.74C80.6741 184.971 80.7319 185.164 80.8475 185.28C80.9631 185.395 81.1173 185.472 81.3292 185.472C81.6953 185.472 82.1192 185.28 82.6202 184.894C83.1211 184.509 83.545 183.989 83.9111 183.353C84.0845 183.064 84.335 182.621 84.6625 182.023C84.9901 181.426 85.2406 180.983 85.414 180.694C85.9149 179.73 86.1654 178.998 86.1654 178.459Z" fill="white"/>
<path d="M120.481 171.31C120.481 171.811 120.365 172.389 120.153 173.006C119.941 173.622 119.652 174.278 119.286 174.952C118.92 175.626 118.535 176.301 118.111 176.975C117.687 177.63 117.128 178.497 116.454 179.538C115.78 180.54 115.24 181.387 114.797 182.081C114.354 182.755 113.949 183.449 113.564 184.123C113.101 184.933 112.735 185.742 112.485 186.532C112.234 187.322 112.099 187.996 112.099 188.574C112.099 188.979 112.157 189.326 112.311 189.576C112.35 189.653 112.369 189.73 112.369 189.788C112.369 189.942 112.254 190.019 112.003 190.019C111.097 190.019 110.346 189.923 109.768 189.711C109.19 189.499 108.766 189.191 108.496 188.786C108.227 188.382 108.092 187.9 108.092 187.303C108.092 186.802 108.188 186.224 108.381 185.588C108.573 184.952 108.862 184.258 109.229 183.488C109.845 182.331 110.153 181.445 110.153 180.848C110.153 180.27 109.884 179.865 109.325 179.653C108.766 179.441 107.88 179.345 106.647 179.345C106.415 179.345 106.146 179.345 105.857 179.364C105.529 179.827 105.009 180.54 104.334 181.464C103.121 183.102 102.234 184.335 101.676 185.164C102.273 185.723 102.812 186.281 103.294 186.821C103.776 187.36 104.18 187.919 104.508 188.478C105.124 189.499 105.433 190.54 105.433 191.619C105.433 192.775 105.067 193.892 104.315 195.01C103.583 196.108 102.466 197.148 100.963 198.093C99.9607 198.728 98.978 199.21 98.0146 199.557C97.032 199.904 96.1457 200.077 95.3171 200.077C94.4694 200.077 93.7564 199.904 93.1784 199.538C92.1572 198.883 91.6562 197.842 91.6562 196.416C91.6562 195.395 91.8875 194.22 92.3692 192.89C92.8509 191.561 93.4674 190.173 94.2381 188.728C95.0089 187.283 95.8952 185.742 96.9356 184.104C94.4694 182.1 93.2362 180.559 93.2362 179.499C93.2362 178.902 93.6023 178.439 94.3345 178.112C95.0667 177.784 95.9915 177.572 97.0898 177.457C98.2073 177.341 99.6331 177.245 101.387 177.187C102.099 176.069 102.581 175.202 102.851 174.586C103.737 172.601 104.18 171.156 104.18 170.231C104.18 169.923 104.142 169.653 104.045 169.441C104.026 169.422 104.007 169.384 103.988 169.326C103.853 169.075 103.795 168.902 103.795 168.805C103.795 168.613 103.988 168.478 104.354 168.42C104.566 168.382 104.797 168.382 105.028 168.382C105.51 168.382 105.992 168.439 106.473 168.574C106.955 168.709 107.36 168.863 107.706 169.094C108.824 169.807 109.383 170.771 109.383 171.985C109.383 172.717 109.209 173.507 108.843 174.355C108.496 175.222 107.995 176.147 107.34 177.148C108.65 177.168 109.652 177.399 110.327 177.842C111.001 178.266 111.406 178.863 111.502 179.615C111.579 179.499 111.695 179.326 111.849 179.075C112.735 177.707 113.448 176.551 114.007 175.626C114.566 174.701 115.028 173.777 115.413 172.852C115.799 171.927 115.992 171.137 115.992 170.443C115.992 170.27 115.972 170.096 115.953 169.942C115.934 169.807 115.857 169.595 115.722 169.326C115.606 169.075 115.548 168.902 115.548 168.805C115.548 168.613 115.722 168.478 116.088 168.42C116.319 168.382 116.57 168.382 116.781 168.382C117.668 168.382 118.439 168.613 119.094 169.075C120.018 169.518 120.481 170.289 120.481 171.31ZM97.8605 180.617C97.5715 180.752 97.4173 180.925 97.4173 181.118C97.4173 181.252 97.4751 181.407 97.61 181.561C97.7256 181.715 97.9183 181.908 98.1688 182.139C98.3037 181.946 98.4771 181.638 98.7468 181.252C99.0358 180.809 99.2478 180.482 99.3826 180.27C98.6697 180.366 98.1688 180.482 97.8605 180.617ZM100.481 186.956C99.768 188.15 99.2285 189.152 98.8624 190C98.3615 191.137 98.111 192.177 98.111 193.141C98.111 193.892 98.2651 194.489 98.5734 194.952C98.8817 195.414 99.2863 195.626 99.8258 195.626C100.057 195.626 100.288 195.588 100.539 195.491C100.963 195.337 101.367 195.068 101.791 194.644C102.196 194.239 102.543 193.757 102.793 193.179C103.044 192.621 103.178 192.023 103.178 191.426C103.178 190.752 103.005 190.135 102.677 189.538C102.08 188.632 101.348 187.765 100.481 186.956Z" fill="white"/>
<path d="M132.1 180.578C132.293 180.463 132.505 180.405 132.717 180.405C132.987 180.405 133.199 180.482 133.391 180.655C133.584 180.829 133.68 181.06 133.68 181.349C133.68 181.619 133.584 181.908 133.391 182.235C132.62 183.488 131.888 184.567 131.195 185.472C128.902 188.497 126.108 190 122.813 190C121.753 190 120.829 189.73 120.019 189.21C119.21 188.69 118.574 187.996 118.15 187.129C117.707 186.262 117.495 185.318 117.495 184.297C117.495 183.757 117.553 183.237 117.688 182.698C118.015 181.33 118.671 180.019 119.634 178.748C120.597 177.476 121.753 176.455 123.064 175.665C124.393 174.875 125.723 174.49 127.052 174.49C128.131 174.49 128.96 174.74 129.499 175.26C130.039 175.781 130.328 176.455 130.328 177.283C130.328 178.189 130.019 179.172 129.422 180.212C128.805 181.253 127.958 182.177 126.879 183.025C125.8 183.854 124.547 184.451 123.179 184.779C123.796 185.222 124.567 185.453 125.453 185.453C126.32 185.453 127.187 185.222 128.054 184.779C128.94 184.335 129.73 183.661 130.424 182.775C130.925 182.139 131.31 181.599 131.599 181.118C131.734 180.887 131.908 180.694 132.1 180.578ZM124.509 182.37C125.125 181.888 125.588 181.368 125.896 180.829C126.185 180.289 126.339 179.788 126.339 179.326C126.339 178.979 126.262 178.709 126.108 178.497C125.954 178.285 125.723 178.189 125.434 178.189C124.894 178.189 124.239 178.555 123.468 179.307C122.543 180.482 122.081 181.599 122.081 182.64C122.081 182.948 122.12 183.256 122.216 183.526C123.121 183.256 123.892 182.871 124.509 182.37Z" fill="white"/>
<path d="M146.358 180.578C146.55 180.463 146.762 180.405 146.974 180.405C147.244 180.405 147.456 180.482 147.648 180.655C147.841 180.829 147.938 181.06 147.938 181.33C147.938 181.599 147.841 181.908 147.648 182.216C146.743 183.7 145.837 185.01 144.912 186.147C143.988 187.303 143.043 188.208 142.099 188.902C141.155 189.596 140.25 189.942 139.402 189.962H139.363C138.708 189.962 138.072 189.769 137.456 189.364C136.839 188.979 136.396 188.382 136.088 187.592C135.606 188.362 135.067 188.96 134.489 189.345C133.911 189.73 133.333 189.942 132.754 189.942H132.677C131.733 189.904 131.04 189.596 130.577 189.018C130.115 188.44 129.903 187.688 129.903 186.725C129.903 185.607 130.173 184.335 130.712 182.929C131.252 181.522 131.984 180.154 132.889 178.863C133.795 177.572 134.778 176.513 135.857 175.704C136.916 174.894 137.938 174.49 138.939 174.49C139.729 174.49 140.5 174.836 141.29 175.53C141.521 175.222 141.849 174.952 142.273 174.779C142.697 174.605 143.101 174.49 143.544 174.49C144.065 174.49 144.489 174.644 144.835 174.933C145.182 175.222 145.356 175.684 145.356 176.282C145.356 176.86 145.163 177.572 144.778 178.42C144.392 179.268 143.776 180.251 142.928 181.368C142.042 182.544 141.444 183.449 141.097 184.104C140.866 184.509 140.77 184.856 140.77 185.125C140.77 185.299 140.808 185.434 140.905 185.511C141.001 185.607 141.136 185.646 141.29 185.646C141.521 185.646 141.772 185.569 142.061 185.434C142.35 185.299 142.62 185.087 142.909 184.836C144.084 183.661 145.086 182.428 145.895 181.137C146.011 180.887 146.165 180.694 146.358 180.578ZM139.999 178.459C139.999 178.228 139.961 178.054 139.864 177.939C139.768 177.823 139.633 177.765 139.479 177.765C139.228 177.765 138.92 177.9 138.554 178.151C138.188 178.401 137.822 178.767 137.437 179.249C136.993 179.788 136.627 180.309 136.3 180.848C135.972 181.388 135.587 182.062 135.144 182.89C135.124 182.929 135.105 182.967 135.105 182.987C134.701 183.719 134.508 184.297 134.508 184.74C134.508 184.971 134.566 185.164 134.681 185.28C134.797 185.395 134.951 185.472 135.163 185.472C135.529 185.472 135.953 185.28 136.454 184.894C136.955 184.509 137.379 183.989 137.745 183.353C137.918 183.064 138.169 182.621 138.496 182.023C138.824 181.426 139.074 180.983 139.248 180.694C139.749 179.73 139.999 178.998 139.999 178.459Z" fill="white"/>
<path d="M150.944 178.228C150.944 178.054 150.886 177.9 150.771 177.765C150.655 177.65 150.52 177.572 150.385 177.572C150.154 177.572 149.961 177.727 149.807 178.016C149.056 179.519 148.285 180.906 147.495 182.197C147.245 182.601 146.898 182.813 146.493 182.813C146.223 182.813 145.973 182.717 145.761 182.524C145.549 182.332 145.453 182.1 145.453 181.811C145.453 181.58 145.53 181.33 145.703 181.098C146.204 180.328 146.609 179.538 146.956 178.709C147.302 177.881 147.456 177.091 147.456 176.359C147.456 175.299 147.071 174.451 146.32 173.815C146.185 173.68 146.127 173.545 146.127 173.391C146.127 173.16 146.262 172.929 146.532 172.698C146.801 172.466 147.071 172.312 147.322 172.235C147.688 172.1 148.073 172.043 148.458 172.043C148.921 172.043 149.345 172.139 149.73 172.312C150.115 172.486 150.443 172.717 150.674 173.006C150.905 173.295 151.021 173.603 151.021 173.95C151.021 174.046 151.002 174.162 150.983 174.278C151.349 174.181 151.715 174.143 152.081 174.143C152.948 174.143 153.699 174.374 154.354 174.856C155.337 175.549 155.819 176.397 155.819 177.361C155.819 178.054 155.626 178.748 155.221 179.48C154.817 180.193 154.258 181.079 153.507 182.1C152.967 182.813 152.524 183.468 152.196 184.066C151.965 184.47 151.869 184.817 151.869 185.087C151.869 185.26 151.907 185.395 152.004 185.472C152.1 185.569 152.235 185.607 152.408 185.607C152.62 185.607 152.871 185.53 153.16 185.395C153.449 185.26 153.738 185.048 154.008 184.798C155.202 183.584 156.204 182.351 156.994 181.098C157.129 180.867 157.283 180.694 157.476 180.578C157.668 180.463 157.88 180.405 158.092 180.405C158.362 180.405 158.574 180.482 158.767 180.655C158.959 180.829 159.056 181.06 159.056 181.33C159.056 181.599 158.959 181.908 158.767 182.216C157.861 183.7 156.956 185.01 156.031 186.147C155.106 187.303 154.162 188.208 153.218 188.902C152.273 189.596 151.368 189.942 150.52 189.962H150.462C149.422 189.962 148.69 189.711 148.208 189.21C147.746 188.709 147.514 188.035 147.514 187.206C147.514 186.705 147.591 186.185 147.726 185.646C147.88 185.106 148.073 184.567 148.304 184.046L150.809 178.632C150.905 178.497 150.944 178.362 150.944 178.228Z" fill="white"/>
<path d="M167.457 180.54C167.649 180.424 167.861 180.366 168.073 180.366C168.343 180.366 168.574 180.462 168.767 180.636C168.959 180.809 169.056 181.041 169.056 181.33C169.056 181.599 168.959 181.888 168.767 182.216C168.401 182.813 168.015 183.41 167.591 184.027C166.397 185.78 165.01 187.206 163.449 188.304C161.888 189.422 160.212 189.962 158.459 189.962C157.399 189.962 156.628 189.673 156.146 189.094C155.665 188.516 155.433 187.726 155.433 186.744C155.433 186.05 155.53 185.299 155.742 184.47C155.954 183.642 156.204 182.813 156.512 182.004C156.821 181.195 157.148 180.443 157.495 179.769C157.842 179.094 158.15 178.555 158.42 178.131C158.69 177.726 158.902 177.399 159.037 177.187C158.536 177.36 158.131 177.515 157.842 177.669C157.688 177.726 157.553 177.746 157.457 177.746C157.283 177.746 157.187 177.649 157.187 177.476C157.187 177.322 157.264 177.091 157.437 176.802C157.707 176.358 158.092 175.992 158.632 175.684C159.171 175.376 159.807 175.145 160.559 174.952C161.156 174.027 161.638 173.218 161.965 172.524C162.312 171.831 162.466 171.233 162.466 170.752C162.466 170.54 162.428 170.347 162.351 170.173C162.312 170.096 162.293 170.019 162.293 169.962C162.293 169.788 162.408 169.692 162.64 169.692H162.717C163.275 169.73 163.854 170.019 164.451 170.54C165.453 171.445 165.973 172.409 165.973 173.43C165.973 173.777 165.915 174.123 165.8 174.489C166.782 174.701 167.264 175.357 167.264 176.436V176.532C167.264 176.802 167.206 177.129 167.129 177.534C167.052 177.938 166.936 178.208 166.821 178.382C166.744 178.478 166.686 178.516 166.609 178.516C166.532 178.516 166.474 178.459 166.416 178.343C166.223 177.63 165.588 177.129 164.509 176.859C164.104 177.399 163.776 177.804 163.526 178.112C162.428 179.48 161.638 180.655 161.156 181.638C160.674 182.62 160.443 183.468 160.443 184.143C160.443 184.624 160.559 184.99 160.79 185.26C161.021 185.511 161.349 185.646 161.734 185.646C162.235 185.646 162.813 185.434 163.468 185.01C164.123 184.586 164.759 183.969 165.376 183.179C165.414 183.121 165.472 183.044 165.568 182.948C166.204 182.12 166.667 181.484 166.956 181.06C167.11 180.848 167.264 180.674 167.457 180.54Z" fill="white"/>
</svg>
