<svg width="31" height="31" viewBox="0 0 31 31" fill="none" xmlns="http://www.w3.org/2000/svg">
<path d="M7.56413 18.2215L6.59472 21.8404L3.05158 21.9154C1.9927 19.9514 1.39209 17.7043 1.39209 15.3165C1.39209 13.0074 1.95365 10.8299 2.94905 8.9126H2.94981L6.1042 9.49091L7.48602 12.6264C7.19681 13.4695 7.03917 14.3746 7.03917 15.3165C7.03928 16.3386 7.22444 17.318 7.56413 18.2215Z" fill="#FBBB00"/>
<path d="M28.9984 12.7156C29.1583 13.5579 29.2417 14.4278 29.2417 15.3169C29.2417 16.3138 29.1369 17.2863 28.9372 18.2243C28.2593 21.4163 26.4881 24.2035 24.0345 26.1759L24.0337 26.1751L20.0606 25.9724L19.4983 22.4621C21.1264 21.5073 22.3987 20.0131 23.069 18.2243H15.623V12.7156H23.1776H28.9984Z" fill="#518EF8"/>
<path d="M24.034 26.1756L24.0347 26.1763C21.6484 28.0944 18.6171 29.2421 15.3173 29.2421C10.0144 29.2421 5.40392 26.2781 3.052 21.9163L7.56454 18.2224C8.74048 21.3608 11.768 23.5949 15.3173 23.5949C16.8428 23.5949 18.2721 23.1825 19.4985 22.4626L24.034 26.1756Z" fill="#28B446"/>
<path d="M24.2049 4.59783L19.6939 8.29093C18.4246 7.49755 16.9242 7.03923 15.3168 7.03923C11.6871 7.03923 8.60302 9.37581 7.48599 12.6267L2.94974 8.91298H2.94897C5.26647 4.44482 9.93506 1.39209 15.3168 1.39209C18.6954 1.39209 21.7933 2.5956 24.2049 4.59783Z" fill="#F14336"/>
</svg>
