<svg width="18" height="18" viewBox="0 0 18 18" fill="none" xmlns="http://www.w3.org/2000/svg">
<path d="M9.37475 16.6875C13.4133 16.6875 16.6873 13.4136 16.6873 9.375C16.6873 5.33642 13.4133 2.0625 9.37475 2.0625C5.33617 2.0625 2.06226 5.33642 2.06226 9.375C2.06226 13.4136 5.33617 16.6875 9.37475 16.6875Z" stroke="#7C7C7C" stroke-linecap="round" stroke-linejoin="round"/>
<path d="M7 6.51514C7.26956 6.51519 7.48828 6.73384 7.48828 7.00342C7.48822 7.27295 7.26953 7.49164 7 7.4917C6.73042 7.4917 6.51178 7.27298 6.51172 7.00342C6.51172 6.73381 6.73039 6.51514 7 6.51514Z" fill="#7C7C7C" stroke="#7C7C7C"/>
<path d="M11.7458 6.51514C12.0154 6.51519 12.2341 6.73384 12.2341 7.00342C12.2341 7.27295 12.0154 7.49164 11.7458 7.4917C11.4763 7.4917 11.2576 7.27298 11.2576 7.00342C11.2576 6.73381 11.4762 6.51514 11.7458 6.51514Z" fill="#7C7C7C" stroke="#7C7C7C"/>
<path d="M12.9295 9.9679C13.1477 9.9679 13.3271 10.145 13.305 10.3632C13.2174 11.2396 12.8396 12.0616 12.2315 12.6988C11.6234 13.336 10.8199 13.7517 9.94847 13.8801C9.07709 14.0084 8.18781 13.842 7.42182 13.4072C6.65584 12.9724 6.05705 12.2942 5.72054 11.4802C5.57261 11.1233 5.47779 10.7467 5.43911 10.3624C5.41697 10.145 5.59642 9.9679 5.81461 9.9679H12.9295Z" stroke="#7C7C7C" stroke-width="1.45283" stroke-linecap="round" stroke-linejoin="round"/>
</svg>
