<svg width="18" height="18" viewBox="0 0 18 18" fill="none" xmlns="http://www.w3.org/2000/svg">
<g clip-path="url(#clip0_226_1056)">
<path d="M2.64571 -0.000191648C2.80052 0.131161 2.95064 0.267205 3.11014 0.393866C3.56049 0.759777 4.01553 1.11631 4.48934 1.50098C4.1938 1.60419 3.92171 1.69332 3.62617 1.79652C3.9827 2.08269 4.31108 2.34539 4.65822 2.62686C4.54095 2.77698 4.42367 2.91771 4.29231 3.0819C3.67308 2.57995 3.05854 2.09207 2.42054 1.58073C2.72077 1.47753 2.98817 1.38839 3.2884 1.28519C2.93657 1.00372 2.60349 0.736321 2.25635 0.454851C2.37832 0.300043 2.4956 0.149926 2.60819 -0.00488281C2.62226 -0.000191648 2.63633 -0.000191648 2.64571 -0.000191648Z" fill="#7C7C7C"/>
<path d="M16.9772 9.97344C16.8083 9.88899 16.6488 9.80924 16.4659 9.72011C16.5269 9.59345 16.5879 9.48086 16.6395 9.35889C16.8506 8.86632 16.6442 8.29869 16.1469 8.09228C15.5183 7.83426 14.9272 7.52465 14.3596 7.1259C14.3924 7.19157 14.4252 7.26194 14.4581 7.32762C15.1195 8.65522 15.9733 9.84677 17.0195 10.8976C17.4651 11.3479 17.7607 11.8734 17.8545 12.5067C18.0374 13.7123 17.4698 14.8663 16.3908 15.434C16.1938 15.5372 16.1328 15.6451 16.1375 15.8608C16.1516 16.5035 16.1422 17.1509 16.1422 17.7936C16.1422 17.8593 16.1422 17.9203 16.1422 17.9953C13.4307 17.9953 10.7333 17.9953 8.01711 17.9953C7.87637 17.0712 7.73095 16.147 7.58552 15.19C7.51515 15.2416 7.46355 15.2791 7.41664 15.312C6.93345 15.6873 6.45964 16.0673 5.97176 16.4332C4.76613 17.3198 3.08669 16.6818 2.77239 15.2182C2.68794 14.8382 2.73016 14.4629 2.84744 14.0923C3.44322 12.244 4.03431 10.3909 4.6207 8.53794C4.65354 8.43942 4.64885 8.31745 4.6254 8.21894C4.49873 7.67945 4.31578 7.14466 4.23603 6.60049C3.92641 4.51761 5.29623 2.43942 7.32751 1.8671C9.64025 1.21503 12.2251 2.40189 13.3275 4.6302C13.4354 4.85068 13.5386 5.07586 13.6137 5.31042C13.6981 5.56843 13.8435 5.77953 14.0218 5.97656C14.641 6.65209 15.3775 7.16343 16.2313 7.4965C16.8553 7.74044 17.2259 8.18141 17.2962 8.85694C17.3431 9.26507 17.1883 9.6216 16.9772 9.97344ZM8.51437 17.4136C10.1 17.4136 11.6528 17.4136 13.2149 17.4136C13.2149 16.6349 13.2149 15.8702 13.2149 15.1103C12.8443 15.0305 12.6473 14.8382 12.6426 14.5332C12.6332 13.9609 12.6332 13.3839 12.6473 12.8116C12.6567 12.4926 12.7786 12.2158 13.0132 11.9953C13.1539 12.1361 13.2853 12.258 13.426 12.3988C13.229 12.5911 13.2243 12.835 13.229 13.0837C13.2337 13.459 13.229 13.8343 13.229 14.2096C13.229 14.3081 13.229 14.4066 13.229 14.5098C14.0171 14.5098 14.7818 14.5098 15.5605 14.5098C15.5605 14.2002 15.5605 13.8999 15.5605 13.6044C15.5605 12.5348 14.9319 11.7655 13.8858 11.545C13.3087 11.423 12.8256 11.1509 12.4409 10.7053C12.3424 10.5927 12.2579 10.466 12.1406 10.3159C12.1078 10.4144 12.0703 10.4848 12.0656 10.5598C12.0515 10.7193 12.0656 10.8741 12.0562 11.0336C12.014 11.8358 11.4933 12.4973 10.7521 12.7037C9.97801 12.9195 9.19928 12.6286 8.73955 11.9531C8.59412 11.742 8.45339 11.5262 8.31265 11.3104C8.24697 11.2119 8.17661 11.1884 8.06402 11.24C7.29936 11.5731 6.60976 12.0141 5.99522 12.577C5.9483 12.6193 5.91077 12.6896 5.90139 12.7553C5.86386 13.0227 5.83102 13.2901 5.80757 13.5575C5.80288 13.6091 5.81226 13.6795 5.8451 13.717C6.23446 14.1157 6.62383 14.5098 7.02258 14.9085C7.14455 14.8147 7.24776 14.7256 7.36034 14.6552C7.48231 14.5802 7.48701 14.4863 7.47293 14.3597C7.44009 14.0876 7.41195 13.8108 7.41664 13.5387C7.43071 13.1259 7.53392 12.7318 7.73564 12.3612C7.9139 12.4504 8.07809 12.5348 8.24697 12.6239C8.01711 13.1024 7.94205 13.5903 8.01242 14.097C8.11562 14.81 8.2329 15.5184 8.3408 16.2314C8.3924 16.6114 8.45339 17.0102 8.51437 17.4136ZM16.1375 14.8992C16.1938 14.871 16.2173 14.8663 16.236 14.8522C16.9819 14.3644 17.3385 13.6748 17.2962 12.7881C17.2681 12.2111 17.0241 11.7279 16.6207 11.3245C15.8514 10.5551 15.1852 9.70604 14.6035 8.78188C13.9327 7.72168 13.4542 6.57234 13.0273 5.39486C12.7317 4.5786 12.2485 3.8843 11.5683 3.34482C10.48 2.47695 9.23681 2.08759 7.85292 2.34091C6.08904 2.6646 4.85057 4.14232 4.77082 5.92965C4.74737 6.45037 4.84588 6.95702 5.02884 7.46835C5.34314 7.08837 5.72313 6.90072 6.19694 6.93825C6.31421 6.94763 6.36582 6.9101 6.41742 6.82097C6.68013 6.38938 6.81617 5.92496 6.80679 5.41831C6.8021 5.24474 6.80679 5.07586 6.80679 4.86945C6.88654 4.93043 6.93345 4.96327 6.97567 4.99611C7.33689 5.28227 7.69342 5.5825 8.06402 5.85928C9.14299 6.65678 10.6113 6.45506 11.4463 5.40893C11.4745 5.37609 11.5073 5.34326 11.5402 5.30103C11.695 5.41831 11.8357 5.52621 11.9999 5.64818C11.8826 5.78892 11.7747 5.92496 11.6575 6.06569C11.7184 6.18297 11.7794 6.30025 11.8404 6.41284C11.8873 6.40346 11.9155 6.39408 11.9436 6.38938C12.5769 6.2205 13.1774 6.63802 13.2149 7.2854C13.2384 7.69353 13.0742 8.03129 12.7411 8.27054C12.6473 8.34091 12.6332 8.40659 12.6285 8.51448C12.6051 8.84756 12.5582 9.17594 12.5253 9.50432C12.5206 9.5653 12.4972 9.63567 12.5112 9.69197C12.6801 10.2971 13.3697 10.8694 14.0406 10.9492C13.5668 10.4988 13.2243 9.97813 12.971 9.38235C13.1399 9.29791 13.3087 9.21347 13.4823 9.12903C13.548 9.25569 13.6043 9.36827 13.6653 9.48555C13.9374 10.0203 14.308 10.4848 14.8099 10.8178C15.1055 11.0149 15.4291 11.1697 15.7528 11.3151C16.3533 11.5872 16.7708 12.0235 17.0007 12.6615C16.8083 12.7225 16.6348 12.7834 16.4659 12.8397C16.1281 12.2393 15.8795 11.9719 15.6262 11.9343C15.6965 12.0469 15.7716 12.1595 15.8373 12.2768C16.0671 12.6943 16.1516 13.1447 16.1469 13.6138C16.1375 14.0407 16.1375 14.4582 16.1375 14.8992ZM11.2024 6.44568C9.80444 7.23379 8.53314 7.05084 7.36973 6.07977C7.21492 6.45975 7.0648 6.83035 6.90061 7.22441C7.24776 7.50119 7.40726 7.89994 7.38849 8.41128C7.52454 8.35498 7.64181 8.32214 7.74502 8.26116C7.85292 8.19548 7.94205 8.10166 8.05933 8.00315C8.18599 8.06882 8.35018 8.14857 8.51906 8.23301C8.29858 8.67867 7.8623 8.97422 7.38849 8.97422C7.21961 8.97422 7.11171 9.03051 7.03665 9.19001C7.20554 9.41988 7.3838 9.64974 7.55737 9.8843C8.02649 10.5223 8.65041 10.8882 9.43384 11.0055C10.9585 11.2307 12.3142 9.82801 12.0187 8.31745C11.8873 7.62785 11.4604 7.07899 11.2024 6.44568ZM4.5691 15.1759C4.88341 14.8382 5.08982 14.4488 5.14611 13.9938C5.31031 12.6146 5.4698 11.2354 5.63869 9.85616C5.64807 9.77172 5.69498 9.67789 5.75597 9.61691C6.02336 9.33544 6.30014 9.06804 6.57223 8.79126C6.81148 8.54732 6.87246 8.22363 6.73642 7.93278C6.60976 7.66069 6.34705 7.50588 6.04213 7.51996C5.72782 7.53403 5.49326 7.72637 5.38536 8.06413C5.23525 8.51917 5.08982 8.97891 4.94439 9.43395C4.42368 11.0759 3.89826 12.7178 3.37755 14.355C3.18521 14.9648 3.39162 15.5934 3.87481 15.9641C4.35331 16.33 5.00538 16.3769 5.50733 16.0438C5.86855 15.8046 6.20163 15.5231 6.52532 15.2745C6.22977 14.9836 5.9483 14.7021 5.66214 14.416C5.53079 14.8476 5.31969 15.251 4.98192 15.5747C4.84119 15.4433 4.70984 15.312 4.5691 15.1759ZM15.5417 17.4183C15.5417 16.6349 15.5417 15.8702 15.5417 15.115C14.9553 15.115 14.383 15.115 13.8107 15.115C13.8107 15.889 13.8107 16.649 13.8107 17.4183C14.3924 17.4183 14.9647 17.4183 15.5417 17.4183ZM7.54799 10.785C7.24306 10.4003 6.92407 10.0063 6.60976 9.61221C6.31891 9.80455 6.14064 10.0532 6.15471 10.4097C6.15941 10.5551 6.12188 10.7006 6.10311 10.846C6.07027 11.1415 6.03744 11.4418 6.0046 11.7279C6.53939 11.4042 7.05542 11.0852 7.54799 10.785ZM9.18521 11.5497C9.46199 12.0516 10.0296 12.2815 10.5691 12.1361C11.0664 12 11.4557 11.5215 11.4463 11.0477C10.7661 11.5262 10.0202 11.6857 9.18521 11.5497ZM12.4784 7.72637C12.6567 7.53403 12.6895 7.29947 12.5675 7.12121C12.4596 6.96171 12.2861 6.90541 12.1172 6.97578C12.2392 7.22441 12.3564 7.47774 12.4784 7.72637Z" fill="#7C7C7C"/>
<path d="M0 3.41517C0.0703675 3.22283 0.136044 3.05395 0.206411 2.871C0.783425 3.08679 1.35106 3.29789 1.96091 3.52776C1.86708 3.2416 1.78264 2.98828 1.68413 2.68335C2.46755 2.94605 3.21814 3.19469 3.9828 3.44801C3.91712 3.64035 3.86083 3.81392 3.79515 3.99688C3.40109 3.86552 3.02111 3.73886 2.6036 3.60282C2.70211 3.90774 2.79593 4.18452 2.89914 4.49883C1.91869 4.13761 0.971071 3.78108 0 3.41517Z" fill="#7C7C7C"/>
<path d="M0.17345 7.21967C0.126538 7.02734 0.0796265 6.85376 0.0327148 6.65673C0.637875 6.50193 1.23365 6.35181 1.87165 6.19231C1.66993 6.00935 1.49167 5.84985 1.27587 5.65752C2.04992 5.3995 2.76297 5.16025 3.50418 4.91162C3.56516 5.09458 3.62615 5.26815 3.69182 5.46049C3.26024 5.60591 2.84272 5.74665 2.41114 5.89207C2.61286 6.08441 2.80988 6.27206 3.00222 6.45971C2.99284 6.47847 2.98346 6.49723 2.97408 6.516C2.04992 6.74587 1.12576 6.98042 0.17345 7.21967Z" fill="#7C7C7C"/>
<path d="M10.6817 4.70049C10.8131 4.83653 10.9445 4.96788 11.0758 5.09923C10.3111 6.10314 8.64578 5.95303 7.79199 4.80838C7.92334 4.67234 8.0547 4.54099 8.20012 4.39087C8.30802 4.50346 8.40653 4.62074 8.51443 4.72863C9.11959 5.32441 9.96869 5.34318 10.5973 4.77085C10.6255 4.7474 10.6536 4.72394 10.6817 4.70049Z" fill="#7C7C7C"/>
<path d="M5.95319 4.82715C6.14083 4.87406 6.31441 4.91628 6.49267 4.96319C6.38008 5.65748 6.16429 6.26734 5.47938 6.6051C5.39494 6.43622 5.3105 6.27672 5.24951 6.15006C5.41839 5.94365 5.61073 5.77476 5.72332 5.55897C5.8406 5.34318 5.87813 5.08516 5.95319 4.82715Z" fill="#7C7C7C"/>
<path d="M10.588 9.26489C10.588 9.46661 10.588 9.65426 10.588 9.83721C9.96406 9.93104 9.79049 10.0436 9.37767 10.5878C9.22286 10.4846 9.06336 10.3814 8.89917 10.2735C9.29323 9.6308 9.84209 9.29773 10.588 9.26489Z" fill="#7C7C7C"/>
<path d="M10.3394 7.09302C10.5176 7.18215 10.6818 7.26659 10.846 7.34634C10.6255 7.86237 10.0438 8.1626 9.44336 8.07347C9.44336 7.89521 9.44336 7.71694 9.44336 7.51991C9.81396 7.53868 10.1423 7.45893 10.3394 7.09302Z" fill="#7C7C7C"/>
</g>
<defs>
<clipPath id="clip0_226_1056">
<rect width="17.8874" height="18" fill="white"/>
</clipPath>
</defs>
</svg>
