<svg width="30" height="34" viewBox="0 0 30 34" fill="none" xmlns="http://www.w3.org/2000/svg">
<path d="M2.10019 2.07094C2.65757 3.04382 2.88053 4.11804 2.9312 5.22267C3.01227 7.00628 2.61704 8.71896 1.99885 10.3708C1.61375 11.3944 1.17799 12.3977 0.833423 13.4313C0.1443 15.519 -0.230667 17.6573 0.154432 19.8665C0.580068 22.2481 1.81644 24.0722 4.01556 25.116C6.69098 26.3828 9.3968 26.2612 12.0114 24.9235C14.3727 23.7175 15.7813 21.7718 16.0347 19.1065C16.2678 16.5831 15.5381 14.2927 14.1903 12.1848C13.0147 10.3303 11.454 8.8203 9.79203 7.41165C7.42064 5.40508 4.81616 3.70254 2.1914 2.05067C2.161 2.0304 2.12046 2.02027 2.07992 2C2.09006 2.04054 2.09006 2.05067 2.10019 2.07094ZM12.508 12.9956C13.2275 13.9989 13.6633 15.0933 13.8254 16.2892C14.0687 18.012 13.643 19.5929 12.7107 21.0725C12.5891 20.9914 12.4776 20.9205 12.3357 20.8394C13.0654 19.6639 13.491 18.4072 13.4403 17.029C13.3897 15.6609 12.9539 14.4144 12.1634 13.2591C12.2749 13.178 12.3762 13.0969 12.508 12.9956Z" fill="url(#paint0_linear_115_2870)"/>
<path d="M22.4873 18C23.2455 18.6178 24.0038 19.2357 24.748 19.8676C26.2786 21.1875 27.7249 22.5917 28.8061 24.3188C29.5924 25.5545 30.0137 26.9166 29.9997 28.377C29.9856 30.5675 28.7499 32.2806 26.6577 32.8984C24.6076 33.4882 22.7119 33.1933 21.1673 31.6206C20.1563 30.5956 19.9035 29.2897 20.0299 27.8995C20.1563 26.5234 20.6337 25.2737 21.2797 24.0661C21.8273 23.0551 22.3468 22.0581 22.5575 20.9207C22.754 19.9518 22.7681 18.997 22.417 18.0562C22.4451 18.0281 22.4732 18.014 22.4873 18Z" fill="url(#paint1_linear_115_2870)"/>
<path d="M20.4873 0C21.2455 0.617843 22.0038 1.23569 22.748 1.86757C24.2786 3.18751 25.7249 4.5917 26.8061 6.31885C27.5924 7.55453 28.0137 8.9166 27.9997 10.377C27.9856 12.5675 26.7499 14.2806 24.6577 14.8984C22.6076 15.4882 20.7119 15.1933 19.1673 13.6206C18.1563 12.5956 17.9035 11.2897 18.0299 9.89953C18.1563 8.52342 18.6337 7.2737 19.2797 6.06609C19.8273 5.05508 20.3468 4.05811 20.5575 2.92071C20.754 1.95182 20.7681 0.996977 20.417 0.056171C20.4451 0.0280872 20.4732 0.0140419 20.4873 0Z" fill="url(#paint2_linear_115_2870)"/>
<defs>
<linearGradient id="paint0_linear_115_2870" x1="8.03876" y1="2" x2="8.03876" y2="26" gradientUnits="userSpaceOnUse">
<stop stop-color="#FF727B"/>
<stop offset="1" stop-color="#FF3446"/>
</linearGradient>
<linearGradient id="paint1_linear_115_2870" x1="24.9999" y1="18" x2="24.9999" y2="33.1802" gradientUnits="userSpaceOnUse">
<stop stop-color="#FF727B"/>
<stop offset="1" stop-color="#FF3446"/>
</linearGradient>
<linearGradient id="paint2_linear_115_2870" x1="22.9999" y1="0" x2="22.9999" y2="15.1802" gradientUnits="userSpaceOnUse">
<stop stop-color="#FF727B"/>
<stop offset="1" stop-color="#FF3446"/>
</linearGradient>
</defs>
</svg>
