<svg width="15" height="15" viewBox="0 0 15 15" fill="none" xmlns="http://www.w3.org/2000/svg">
<path d="M7.40925 1.40925C6.98744 1.83119 6.75048 2.40338 6.75048 3C6.75048 3.59662 6.98744 4.16881 7.40925 4.59075L7.47675 4.6545L7.54725 4.71675L7.61925 4.77675L7.73775 4.863C8.09064 5.10211 8.50419 5.23606 8.93025 5.24925L9 5.2485V9.75075H8.931C8.49202 9.76411 8.06654 9.90565 7.70704 10.1579C7.34753 10.4102 7.06971 10.7622 6.90784 11.1704C6.74597 11.5787 6.70712 12.0254 6.79609 12.4555C6.88505 12.8856 7.09794 13.2802 7.4085 13.5907C7.46253 13.6446 7.49937 13.7133 7.51433 13.7881C7.5293 13.863 7.52173 13.9405 7.49257 14.011C7.46342 14.0816 7.414 14.1418 7.35057 14.1842C7.28714 14.2266 7.21255 14.2493 7.13625 14.2493L2.25 14.25C1.65326 14.25 1.08097 14.0129 0.65901 13.591C0.237053 13.169 0 12.5967 0 12V3C0 2.40326 0.237053 1.83097 0.65901 1.40901C1.08097 0.987053 1.65326 0.75 2.25 0.75H7.1355C7.21192 0.749899 7.28666 0.772471 7.35025 0.814859C7.41384 0.857247 7.46342 0.917546 7.49273 0.988125C7.52204 1.0587 7.52975 1.13639 7.51489 1.21135C7.50003 1.28632 7.46326 1.35519 7.40925 1.40925Z" fill="#D82149"/>
<path d="M11.25 8.25C11.4489 8.25 11.6396 8.32902 11.7803 8.46967C11.9209 8.61032 12 8.80109 12 9V12.438L12.9697 11.4697C13.0989 11.3406 13.2707 11.263 13.453 11.2516C13.6352 11.2401 13.8154 11.2956 13.9597 11.4075L14.0302 11.4697C14.1708 11.6104 14.2498 11.8011 14.2498 12C14.2498 12.1989 14.1708 12.3896 14.0302 12.5303L11.7802 14.7803C11.7541 14.8065 11.726 14.8309 11.6962 14.853L11.6137 14.9062L11.5282 14.9468L11.4495 14.973L11.3377 14.9955L11.25 15L11.1937 14.9977L11.0992 14.985L11.016 14.9625L10.9327 14.9295L10.8592 14.8905L10.7872 14.8403L10.7197 14.7803L8.46971 12.5303C8.33309 12.3888 8.2575 12.1993 8.25921 12.0027C8.26092 11.8061 8.33979 11.6179 8.47885 11.4789C8.6179 11.3398 8.80601 11.261 9.00266 11.2592C9.19931 11.2575 9.38876 11.3331 9.53021 11.4697L10.5 12.4395V9C10.5 8.80109 10.579 8.61032 10.7196 8.46967C10.8603 8.32902 11.051 8.25 11.25 8.25ZM11.139 0.00824994L11.1825 0.00299996L11.25 0L11.3062 0.00225002L11.4007 0.015L11.484 0.0375L11.5672 0.0705001L11.6407 0.1095L11.7187 0.165L11.7802 0.21975L14.0302 2.46975C14.1018 2.53894 14.159 2.62169 14.1983 2.7132C14.2376 2.8047 14.2583 2.90311 14.2592 3.0027C14.26 3.10228 14.241 3.20104 14.2033 3.29322C14.1656 3.38539 14.1099 3.46913 14.0395 3.53955C13.9691 3.60997 13.8853 3.66566 13.7932 3.70337C13.701 3.74108 13.6022 3.76005 13.5027 3.75919C13.4031 3.75832 13.3047 3.73763 13.2132 3.69833C13.1217 3.65902 13.0389 3.60188 12.9697 3.53025L12 2.56125V6C12 6.19891 11.9209 6.38968 11.7803 6.53033C11.6396 6.67098 11.4489 6.75 11.25 6.75C11.051 6.75 10.8603 6.67098 10.7196 6.53033C10.579 6.38968 10.5 6.19891 10.5 6V2.56125L9.53021 3.53025C9.40107 3.65938 9.22924 3.73696 9.04697 3.74842C8.8647 3.75988 8.68451 3.70444 8.54021 3.5925L8.46971 3.53025C8.32911 3.3896 8.25012 3.19887 8.25012 3C8.25012 2.80113 8.32911 2.6104 8.46971 2.46975L10.7197 0.21975C10.7462 0.19275 10.7742 0.1685 10.8037 0.147L10.8862 0.09375L10.9717 0.0532501L11.0505 0.027L11.139 0.00824994Z" fill="#D82149"/>
</svg>
