<svg width="15" height="18" viewBox="0 0 15 18" fill="none" xmlns="http://www.w3.org/2000/svg">
<g clip-path="url(#clip0_226_1021)">
<path d="M2.72593 9.54119C2.46034 9.38083 2.16969 9.26057 1.95421 9.06513C1.38795 8.54898 1.21757 7.89754 1.46312 7.17092C1.64853 6.61469 1.82392 6.06346 1.86401 5.47716C1.88406 5.12137 1.88907 4.76558 1.87403 4.40979C1.80388 2.73607 2.43528 1.40812 3.78328 0.425933C4.3796 -0.0100355 5.04107 -0.0952248 5.74764 0.115243C5.83283 0.140299 5.94308 0.140299 6.03328 0.115243C6.73985 -0.100236 7.40132 -0.0200578 7.99764 0.4109C9.31056 1.36302 9.957 2.6609 9.90187 4.2795C9.87181 5.19152 9.97704 6.07849 10.3078 6.93039C10.6034 7.69709 10.4731 8.37861 9.89185 8.96491C9.87682 8.97994 9.86178 8.99999 9.84675 9.02504C10.6485 9.46101 11.4453 9.89197 12.2671 10.338C12.3022 10.0172 12.3373 9.71658 12.3674 9.41591C12.4125 8.96992 12.4576 8.51892 12.4926 8.06792C12.4976 7.98774 12.4576 7.88751 12.4074 7.82738C12.202 7.60689 11.9915 7.39642 11.771 7.18596C11.6357 7.06068 11.5956 6.92538 11.6608 6.74999C11.756 6.49442 11.8412 6.22883 11.9214 5.96825C11.9665 5.82293 12.0617 5.73774 12.212 5.71268C12.6831 5.62248 13.1541 5.52226 13.6302 5.42705C13.8206 5.38696 13.9408 5.44709 14.021 5.6325C14.3067 6.29397 14.5873 6.95544 14.8679 7.61691C14.898 7.68707 14.903 7.77727 14.903 7.85244C14.8378 9.28061 14.7877 10.7038 14.7025 12.1319C14.6324 13.3647 13.3245 14.1665 12.1569 13.6954C11.2799 13.3396 10.418 12.9538 9.55109 12.5829C9.48595 12.5529 9.41579 12.5278 9.36568 12.5078C9.33561 12.8886 9.3306 13.2544 9.27047 13.6203C9.1953 14.0963 8.95978 14.5122 8.70922 14.9231C8.65911 15.0033 8.63907 15.1236 8.64408 15.2188C8.72426 16.0106 8.81446 16.7973 8.90466 17.5891C8.93472 17.8647 8.81446 18 8.53383 18C6.07838 18 3.62292 18 1.16746 18C0.992073 18 0.871806 17.9298 0.796639 17.7695C0.616238 17.3936 0.420804 17.0178 0.235392 16.642C-0.00514264 16.1509 -0.055254 15.6397 0.0650133 15.1086C0.325592 13.941 0.576149 12.7734 0.836728 11.6108C1.03717 10.6988 1.56835 10.0523 2.42526 9.67148C2.53049 9.62638 2.63573 9.58128 2.72593 9.54119ZM3.58784 9.82682C3.18695 10.0072 2.79608 10.1576 2.42526 10.348C2.01936 10.5584 1.69864 10.8892 1.55833 11.3252C1.37793 11.9014 1.26267 12.4978 1.12236 13.0891C1.60844 13.2745 2.05443 13.4449 2.52047 13.6203C2.52047 13.5701 2.52548 13.5401 2.52047 13.51C2.42526 12.9889 2.48038 12.4777 2.59564 11.9666C2.63071 11.8162 2.70087 11.711 2.86123 11.691C3.08673 11.6609 3.24207 11.8463 3.18695 12.0919C3.08673 12.5479 3.03662 13.0039 3.12682 13.4699C3.21702 13.941 3.46757 14.3368 3.7031 14.7427C3.75822 14.838 3.80332 14.9632 3.7933 15.0735C3.76824 15.4493 3.71312 15.8201 3.67303 16.191C3.62793 16.5868 3.58784 16.9827 3.54274 17.3836C5.13127 17.3836 6.69976 17.3836 8.27826 17.3836C8.20811 16.7472 8.14296 16.1258 8.0678 15.5044C8.02771 15.1687 7.99764 14.858 8.22314 14.5423C8.74931 13.8157 8.86457 12.9939 8.64408 12.1269C8.609 11.9816 8.609 11.8513 8.72927 11.7511C8.84953 11.6459 8.98483 11.6759 9.11512 11.7361C9.39074 11.8563 9.66635 11.9716 9.95198 12.0969C10.1975 11.4404 10.4381 10.809 10.6836 10.1475C10.3078 9.9521 9.95198 9.73662 9.57114 9.5913C9.23038 9.46101 8.85956 9.4109 8.50377 9.33072C8.37348 9.30065 8.30833 9.35077 8.25321 9.48106C8.01267 10.0724 7.74207 10.6487 7.51156 11.245C7.3061 11.7711 7.11568 11.7962 6.70978 11.4554C6.55944 11.3302 6.39909 11.2199 6.21869 11.0846C6.21869 11.3652 6.21869 11.5958 6.21869 11.8263C6.21869 11.8764 6.21869 11.9265 6.21869 11.9766C6.20867 12.152 6.08339 12.2823 5.92804 12.2823C5.76267 12.2873 5.62737 12.157 5.62236 11.9666C5.61735 11.6809 5.62236 11.4003 5.62236 11.1097C5.58227 11.1197 5.57225 11.1197 5.56223 11.1297C5.37682 11.265 5.19141 11.4053 5.00599 11.5456C4.71034 11.7661 4.56 11.7311 4.38962 11.3953C4.11401 10.8792 3.85844 10.368 3.58784 9.82682ZM2.94642 4.19431C3.01657 3.93373 3.05666 3.89364 3.33728 3.85355C3.75822 3.79342 4.17916 3.73328 4.6051 3.68818C4.75544 3.67315 4.85566 3.62304 4.93083 3.48774C5.14631 3.12192 5.37682 2.76112 5.60232 2.40032C5.78773 2.10466 6.02325 2.10466 6.20867 2.40032C6.43918 2.77114 6.66468 3.14698 6.90521 3.51279C6.95532 3.58796 7.06056 3.65812 7.15076 3.67315C7.52659 3.74331 7.90243 3.79342 8.28328 3.84353C8.50377 3.86858 8.64909 3.95878 8.65911 4.17426C8.8796 4.22437 9.08005 4.27449 9.29552 4.3246C9.30054 4.23941 9.31056 4.1442 9.31056 4.054C9.27047 2.7511 8.73929 1.69876 7.68695 0.927047C7.19085 0.561234 6.65967 0.506111 6.0884 0.736624C5.97314 0.781724 5.81279 0.786735 5.69753 0.741635C5.13127 0.521145 4.6051 0.576267 4.11401 0.927047C3.37236 1.45322 2.87125 2.14976 2.61568 3.0217C2.49541 3.43261 2.44029 3.84854 2.47537 4.2795C2.64575 4.24943 2.79608 4.21936 2.94642 4.19431ZM10.4982 12.3374C11.1547 12.618 11.781 12.9087 12.4225 13.1492C13.2092 13.4449 14.0511 12.8836 14.0962 12.0468C14.1613 10.9193 14.1964 9.79175 14.2866 8.66925C14.3317 8.108 14.2666 7.59186 13.991 7.10077C13.9208 6.97549 13.8757 6.83518 13.8206 6.70489C13.7254 6.48941 13.6352 6.27393 13.5349 6.05344C13.3044 6.09854 13.089 6.16869 12.8735 6.17872C12.5227 6.19375 12.3373 6.36413 12.3022 6.69988C12.2922 6.77504 12.3122 6.87025 12.3573 6.92037C12.5528 7.13083 12.7582 7.33629 12.9637 7.53172C13.0839 7.64698 13.124 7.77226 13.104 7.93763C13.0038 8.87972 12.9086 9.8168 12.8133 10.7589C12.7783 11.0997 12.5878 11.1999 12.2822 11.0345C11.9264 10.8441 11.5706 10.6436 11.2048 10.4482C11.1847 10.4883 11.1647 10.5184 11.1496 10.5534C10.9442 11.1498 10.7237 11.7311 10.4982 12.3374ZM3.57281 4.42983C3.57281 4.89086 3.5678 5.34186 3.57281 5.79286C3.58784 6.86524 4.3796 7.78729 5.42693 7.96268C6.49931 8.14308 7.53662 7.54175 7.91245 6.52449C8.16301 5.84297 8.00265 5.1364 8.05777 4.42983C7.67192 4.3697 7.31112 4.29954 6.9453 4.26446C6.70477 4.23941 6.55944 4.13417 6.44419 3.93373C6.27882 3.64308 6.09341 3.36246 5.90299 3.05678C5.69252 3.39253 5.49708 3.6982 5.31167 4.0089C5.22147 4.16424 5.09619 4.2344 4.9208 4.25444C4.47481 4.30455 4.03383 4.3697 3.57281 4.42983ZM2.71089 17.3986C2.5355 17.0429 2.39018 16.7021 2.19976 16.3914C2.00432 16.0707 1.97927 15.77 2.1296 15.4243C2.28495 15.0534 2.39018 14.6626 2.52047 14.2667C2.00933 14.0713 1.51824 13.8858 1.00711 13.6904C0.876817 14.2617 0.751539 14.7979 0.631272 15.3441C0.561116 15.6648 0.591183 15.9805 0.726483 16.2812C0.88684 16.6269 1.06223 16.9677 1.23762 17.3034C1.25766 17.3435 1.31279 17.3986 1.35288 17.3986C1.79386 17.3986 2.23985 17.3986 2.71089 17.3986ZM2.39519 6.16368C2.26991 6.56959 2.13962 6.9805 2.01435 7.39141C1.79887 8.09297 2.23985 8.80455 2.96646 8.9148C3.23205 8.95489 3.50766 8.93985 3.76824 8.98996C4.17916 9.07014 4.44976 8.69431 4.40967 8.35856C4.40466 8.28841 4.35956 8.20322 4.30443 8.16814C3.64798 7.74219 3.22704 7.15589 3.03662 6.39921C3.02158 6.3491 2.95143 6.28896 2.8963 6.27393C2.73094 6.22382 2.56056 6.19876 2.39519 6.16368ZM9.40577 6.10355C9.16524 6.15867 8.9247 6.20878 8.68918 6.27894C8.63907 6.29397 8.58895 6.35912 8.57392 6.41424C8.41858 7.0256 8.09786 7.53674 7.61679 7.95266C7.56167 7.99776 7.52158 8.09798 7.52659 8.17315C7.54163 8.47883 7.7972 8.70934 8.10789 8.72939C8.39853 8.74943 8.69419 8.7795 8.98483 8.79954C9.02993 8.80455 9.08506 8.79954 9.13016 8.7795C9.70644 8.51391 9.98205 7.8825 9.78662 7.29119C9.66134 6.88028 9.52604 6.47437 9.40577 6.10355ZM4.99096 8.47883C4.99096 8.62916 4.94085 8.78952 5.00098 8.87471C5.28662 9.26558 5.60232 9.63139 5.91802 10.0172C6.3139 9.58128 6.69475 9.16034 7.0806 8.7344C7.0355 8.61914 6.98539 8.49887 6.93027 8.36858C6.30889 8.61914 5.67749 8.65923 4.99096 8.47883ZM4.81056 10.9243C5.04107 10.7489 5.25655 10.5885 5.47203 10.4231C5.17136 10.0523 4.88573 9.70155 4.60009 9.35077C4.44475 9.44097 4.30443 9.52114 4.1541 9.60633C4.36958 10.0423 4.58506 10.4682 4.81056 10.9243ZM6.98539 10.9092C7.23094 10.348 7.47147 9.80177 7.71201 9.25054C7.62682 9.21045 7.56668 9.1854 7.49653 9.15032C7.11568 9.57627 6.73985 10.0022 6.35399 10.4332C6.56446 10.5985 6.76991 10.7489 6.98539 10.9092ZM2.97648 16.5768C2.99152 16.5768 3.00655 16.5768 3.02158 16.5768C3.07169 16.1308 3.10677 15.6848 3.17192 15.2439C3.20198 15.0434 3.11178 14.9181 2.99152 14.7578C2.86624 15.1236 2.75098 15.4644 2.64074 15.8051C2.6257 15.8452 2.64074 15.9053 2.66078 15.9454C2.76602 16.1559 2.87125 16.3664 2.97648 16.5768ZM8.65911 5.65255C8.85956 5.6776 9.00989 5.61747 9.11011 5.45711C9.20532 5.30678 9.20031 5.14642 9.09508 5.0011C8.98985 4.85077 8.84452 4.79564 8.6541 4.8207C8.65911 5.10633 8.65911 5.37694 8.65911 5.65255ZM2.95644 4.8207C2.761 4.80065 2.61568 4.87582 2.53049 5.04119C2.45031 5.18651 2.45533 5.34186 2.55555 5.48217C2.65076 5.61747 2.78105 5.68261 2.95644 5.65255C2.95644 5.36691 2.95644 5.09631 2.95644 4.8207Z" fill="#7C7C7C"/>
<path d="M5.55214 7.14078C5.28655 7.14078 5.14624 7.04557 5.15125 6.83009C5.15626 6.62464 5.28655 6.53444 5.60225 6.53945C5.87286 6.53945 6.10337 6.45927 6.30381 6.28388C6.46918 6.13856 6.64958 6.14858 6.76484 6.28889C6.88009 6.4292 6.86005 6.58956 6.69969 6.73488C6.389 7.01551 6.02319 7.1458 5.55214 7.14078Z" fill="#7C7C7C"/>
<path d="M6.51929 5.18148C6.55437 5.07624 6.57441 4.95097 6.63454 4.84573C6.75481 4.62524 6.94523 4.61021 7.12563 4.78059C7.16572 4.82068 7.22586 4.84573 7.28098 4.86077C7.44635 4.89584 7.55659 4.98103 7.55659 5.16143C7.55659 5.3268 7.46639 5.42201 7.30102 5.4621C7.25592 5.47212 7.20581 5.51221 7.18076 5.5523C7.10559 5.66756 7.01038 5.78783 6.87007 5.74273C6.75982 5.70765 6.66461 5.59239 6.59445 5.49217C6.54434 5.417 6.54935 5.30175 6.51929 5.18148Z" fill="#7C7C7C"/>
<path d="M5.9029 6.04838C5.53208 6.05339 5.44188 5.94815 5.47696 5.57232C5.49199 5.427 5.49199 5.28668 5.51204 5.14136C5.53709 4.96096 5.66738 4.85072 5.82774 4.86074C5.99812 4.87076 6.10836 5.00606 6.10335 5.19648C6.09834 5.33178 6.07829 5.45205 6.23364 5.54225C6.29878 5.57733 6.32885 5.74771 6.3038 5.83791C6.28375 5.91809 6.16849 5.98824 6.08331 6.03835C6.03821 6.06842 5.96304 6.04838 5.9029 6.04838Z" fill="#7C7C7C"/>
<path d="M5.10114 5.18635C5.07108 5.31163 5.07609 5.41686 5.02597 5.48702C4.95081 5.59225 4.84557 5.71252 4.73533 5.73758C4.65515 5.75261 4.53989 5.62232 4.44468 5.55718C4.39958 5.52711 4.35448 5.477 4.30437 5.46196C4.15404 5.41185 4.06885 5.32165 4.06885 5.1613C4.07386 5.00094 4.16406 4.91575 4.31439 4.87065C4.37954 4.8506 4.45471 4.82054 4.50482 4.77544C4.6752 4.62009 4.86061 4.63011 4.97586 4.83056C5.036 4.94081 5.06105 5.07611 5.10114 5.18635Z" fill="#7C7C7C"/>
</g>
<defs>
<clipPath id="clip0_226_1021">
<rect width="14.8931" height="18" fill="white"/>
</clipPath>
</defs>
</svg>
