<svg width="174" height="35" viewBox="0 0 174 35" fill="none" xmlns="http://www.w3.org/2000/svg">
<path d="M6.36374 22.4037C6.36374 22.4037 6.5149 21.3288 4.9235 20.7325C4.9235 20.7325 2.81562 20.5268 1.62732 20.4176C1.62732 20.4176 1.77008 20.6611 3.03397 21.8284C3.03397 21.8284 3.80238 22.8572 5.19643 22.8446C5.19643 22.8446 6.08241 22.79 6.36794 22.5171V22.4037H6.36374Z" fill="#F4567F"/>
<path d="M17.0152 31.3308C17.0152 31.3308 15.6464 29.9074 14.0592 30.4952C14.0592 30.4952 11.9219 31.6793 11.6154 31.6583C11.6154 31.6583 11.5776 31.8431 14.0886 32.6577C14.0886 32.6577 15.2643 33.1112 16.3014 32.5317C16.3056 32.5359 17.1412 32.1202 17.0152 31.3308Z" fill="#F4567F"/>
<path d="M12.9076 27.0769C12.9076 27.0769 14.0456 25.9306 13.8608 24.8641C13.8608 24.8641 13.4871 23.6296 11.627 21.7442L10.7116 20.6273L10.6024 20.7827C10.6024 20.7827 10.8921 24.1796 11.291 25.1034C11.291 25.1034 11.8747 26.4597 12.6053 27.0433L12.9076 27.0769Z" fill="#F4567F"/>
<path d="M18.6258 26.4224C18.6258 26.4224 19.9737 28.5008 20.3474 28.8871C20.3474 28.8871 21.7918 30.7053 20.3936 31.8348L20.1626 31.9398C20.1626 31.9398 18.7098 31.0328 18.546 29.1559C18.5502 29.1559 18.5796 26.7877 18.6258 26.4224Z" fill="#F4567F"/>
<path d="M5.34082 17.4863C5.34082 17.4863 5.0133 16.151 5.46259 15.2021C5.46259 15.2021 6.65509 13.8206 7.46969 13.6989L7.15477 15.6934C7.15477 15.6934 6.92382 17.0328 6.33177 17.3225C6.33597 17.3267 5.47099 17.4821 5.34082 17.4863Z" fill="#F4567F"/>
<path d="M4.42346 9.30744C4.42346 9.30744 6.16183 8.97572 7.30394 9.4712C7.30394 9.4712 8.22352 9.81131 8.22771 10.4202C8.22771 10.4202 8.2823 11.0038 8.16893 11.4951C8.16893 11.4951 8.18992 12.0787 8.02616 12.1627C8.02616 12.1627 7.50129 12.0913 6.80847 11.8772C6.80847 11.8772 5.4732 11.5035 5.42281 11.3775L4.42346 9.30744Z" fill="#F4567F"/>
<path d="M4.31925 9.30298C4.31925 9.30298 4.94909 10.4451 5.02047 10.6424C5.02047 10.6424 5.49496 11.2975 5.41098 11.6124C5.41098 11.6124 5.38578 12.0365 4.70555 12.3514C4.70555 12.3514 4.38643 12.7755 4.1093 13.4767C4.1093 13.4767 2.97138 13.9512 2.4969 13.4306L1.78308 11.2345C1.78308 11.2345 1.99303 9.97481 2.66066 9.92442L3.50045 9.50033L4.31925 9.30298Z" fill="#F4567F"/>
<path d="M4.62512 9.24395C4.62512 9.24395 6.96814 9.076 7.9381 9.8486C7.98429 9.88639 8.19843 10.2349 8.19843 10.2349C8.19843 10.2349 8.55534 10.3609 8.92905 9.55048C8.92905 9.55048 9.941 7.8541 10.0838 7.76172C10.0838 7.76172 9.18938 7.13608 9.1222 7.0311C9.05502 6.92613 9.18938 7.13608 9.18938 7.13608C9.18938 7.13608 8.35379 6.12413 7.46781 6.16192C7.46781 6.16192 6.61962 6.30469 6.27531 6.57762C6.27531 6.57762 5.94779 7.52238 5.78403 7.67354L4.62512 9.24395Z" fill="#F4567F"/>
<path d="M3.44426 6.87202C3.44426 6.87202 3.25951 5.02448 4.01112 4.38624C4.01112 4.38624 4.59058 3.64723 4.72494 3.40369C4.72494 3.40369 6.31215 4.47442 6.39193 4.99089C6.39193 4.99089 6.60188 6.41014 6.01402 7.24573C6.01402 7.24573 4.82152 9.12686 4.5108 9.28642C4.5108 9.28642 4.20847 8.00154 3.91875 7.63623L3.44426 6.87202Z" fill="#F4567F"/>
<path d="M0.0825195 6.7916C0.0825195 6.7916 1.94266 6.32971 2.38355 6.30872C2.38355 6.30872 3.73981 6.87557 4.11771 8.04288L4.49142 9.21859C4.49142 9.21859 2.95041 9.53771 2.29537 10.1508C2.29537 10.1508 1.11966 9.88202 0.678771 8.80289C0.678771 8.80289 0.208488 7.22409 0.0825195 6.7916Z" fill="#F4567F"/>
<path d="M23.5434 34.837C23.5896 34.8874 23.5854 34.9377 23.535 34.9797C23.4846 35.0217 23.4384 34.9923 23.4006 34.9545C23.1781 34.7404 22.9472 34.5346 22.691 34.3667C21.994 33.9216 21.3306 33.4177 20.6167 32.9936C20.3186 32.8173 20.0331 32.6199 19.7308 32.4562C19.2731 32.2084 18.786 32.0111 18.2947 31.8389C17.9546 31.7171 17.6061 31.6206 17.2492 31.5408C17.1988 31.5282 17.161 31.5198 17.1442 31.5954C17.0602 31.9817 16.8335 32.2798 16.5228 32.5108C16.0945 32.8341 15.599 32.9432 15.0741 32.9222C14.5912 32.9013 14.1335 32.7627 13.6843 32.6031C13.0376 32.368 12.3952 32.1161 11.7359 31.9229C11.6856 31.9061 11.631 31.8851 11.589 31.8557C11.4966 31.7969 11.4924 31.692 11.5722 31.6206C11.6226 31.5744 11.6856 31.5492 11.7485 31.524C12.3238 31.3099 12.8655 31.0285 13.3903 30.7136C13.7137 30.5204 14.058 30.3651 14.4317 30.3063C15.0615 30.2055 15.6536 30.3399 16.2246 30.6044C16.4808 30.7262 16.7201 30.869 16.9343 31.0579C16.972 31.0915 17.0182 31.1209 17.0434 31.1671C17.1274 31.3224 17.2702 31.356 17.4213 31.3854C17.6901 31.44 17.9504 31.5198 18.2065 31.6038C18.2443 31.6164 18.2821 31.629 18.3325 31.6206C18.2863 31.5912 18.2359 31.5618 18.1897 31.5366C17.035 30.8774 15.8803 30.2181 14.7466 29.5295C13.995 29.0718 13.2644 28.5763 12.5337 28.0851C11.8115 27.598 11.0893 27.1025 10.2537 26.8086C9.59868 26.5776 8.93104 26.4265 8.23402 26.4559C7.9149 26.4685 7.59578 26.5188 7.28086 26.5776C7.20108 26.5944 7.15069 26.6448 7.1003 26.6994C6.97853 26.838 6.86516 26.9849 6.7182 27.1025C6.44526 27.3166 6.13034 27.4258 5.78603 27.451C5.45011 27.4762 5.1184 27.4468 4.79508 27.367C4.72789 27.3502 4.66071 27.3292 4.59772 27.2957C4.42137 27.2033 4.37938 27.0479 4.48435 26.8758C4.53894 26.7876 4.61452 26.7162 4.6901 26.649C5.06801 26.3215 5.52149 26.1787 6.00437 26.1115C6.38648 26.057 6.75179 26.0989 7.0919 26.2963C7.20108 26.3593 7.31445 26.3761 7.43202 26.3509C8.64552 26.1115 9.78763 26.3509 10.8878 26.8632C10.9172 26.8758 10.9465 26.9009 10.9885 26.8968C10.9801 26.859 10.9507 26.8464 10.9297 26.8254C9.9094 25.9562 8.96884 25.0114 8.12904 23.9659C7.84771 23.6132 7.4908 23.3444 7.13809 23.0757C6.95334 22.9329 6.75599 22.807 6.56703 22.6684C6.49145 22.6138 6.42847 22.6054 6.34029 22.6474C6.00857 22.7986 5.66006 22.9077 5.29055 22.9371C4.65231 22.9875 4.08965 22.8154 3.58578 22.4207C3.32964 22.2191 3.0903 21.9966 2.85516 21.7656C2.49405 21.4129 2.13714 21.0518 1.73404 20.7411C1.59547 20.6319 1.44431 20.5395 1.28895 20.4556C1.22177 20.4178 1.14619 20.3842 1.17978 20.2918C1.21757 20.191 1.30155 20.2204 1.37713 20.2372C1.81382 20.3296 2.25051 20.3968 2.6956 20.443C3.19527 20.4975 3.69915 20.4849 4.20302 20.5185C4.91265 20.5605 5.54669 20.7789 6.04217 21.3121C6.3109 21.5977 6.45786 21.9378 6.49145 22.3283C6.49565 22.3661 6.50405 22.3913 6.53764 22.4165C6.81477 22.618 7.1003 22.8028 7.38163 23.0253C7.38583 22.9791 7.36484 22.9623 7.34804 22.9413C6.84836 22.2359 6.39908 21.4969 6.00018 20.7285C5.63907 20.2666 5.54669 19.6829 5.26956 19.1833C4.89165 18.4988 4.58933 17.7682 4.07286 17.1678C3.67815 16.7059 3.22467 16.3154 2.7082 15.9963C2.66201 15.9669 2.62002 15.9501 2.56543 15.9585C2.54444 15.9627 2.51924 15.9585 2.49825 15.9501C2.18753 15.8493 1.8726 15.7653 1.57028 15.6352C1.14619 15.4504 0.852258 15.1313 0.608719 14.7534C0.575128 14.703 0.562531 14.6442 0.60452 14.5938C0.642311 14.5434 0.692698 14.535 0.751484 14.5518C1.079 14.6358 1.40652 14.703 1.72564 14.8122C2.01117 14.9087 2.22532 15.0893 2.38908 15.3412C2.47725 15.4756 2.57383 15.6016 2.67041 15.7275C2.6872 15.7527 2.71659 15.7737 2.74179 15.7905C3.4934 16.2608 4.12744 16.8487 4.61032 17.5919C4.61872 17.6003 4.62712 17.6087 4.65231 17.6129C4.63971 17.5667 4.62292 17.5205 4.61032 17.4743C4.2912 16.5211 4.02667 15.5512 3.8797 14.5518C3.84191 14.3083 3.81672 14.0647 3.79153 13.817C3.78313 13.7288 3.75374 13.6994 3.66556 13.7162C3.45561 13.7498 3.24146 13.7876 3.02732 13.7582C2.87196 13.7372 2.72499 13.6994 2.59063 13.6197C2.40587 13.5063 2.2799 13.3467 2.25891 13.1284C2.22112 12.7547 2.09935 12.4062 1.92719 12.0744C1.73824 11.7049 1.67105 11.3102 1.75503 10.8987C1.80542 10.6594 1.902 10.4494 2.06576 10.2689C2.11194 10.2143 2.12034 10.1891 2.04056 10.1723C1.5073 10.0422 1.13359 9.70623 0.856457 9.24435C0.671703 8.93363 0.545735 8.59771 0.440761 8.2534C0.318991 7.86289 0.197222 7.47239 0.0544573 7.08609C-0.0631134 6.76697 -0.000129103 6.66199 0.339986 6.6284C0.692698 6.59061 1.03281 6.50663 1.36033 6.37646C1.57028 6.29248 1.78023 6.2169 2.00697 6.2127C2.49405 6.20011 2.90135 6.40586 3.26666 6.70398C3.29185 6.72498 3.32124 6.75017 3.35064 6.77536C3.38003 6.73337 3.36323 6.69558 3.36323 6.65779C3.34644 6.27989 3.34224 5.90198 3.39263 5.52408C3.45141 5.09578 3.64036 4.72627 3.9091 4.39456C4.15264 4.09223 4.37938 3.78991 4.54734 3.4372C4.63971 3.23984 4.76988 3.23145 4.90845 3.39941C5.0806 3.60935 5.30315 3.75212 5.52989 3.89068C5.58448 3.92427 5.63907 3.95787 5.69365 3.98726C6.16393 4.235 6.40328 4.6339 6.47886 5.15037C6.53344 5.52408 6.54184 5.89778 6.47046 6.26729C6.46626 6.28829 6.45786 6.30928 6.47046 6.33447C6.50405 6.34287 6.52924 6.31768 6.55864 6.30508C7.28925 5.95237 7.99048 5.98176 8.63712 6.49823C8.87226 6.68719 9.0948 6.88874 9.32575 7.08189C9.5315 7.25404 9.75404 7.40521 10.0018 7.51858C10.0438 7.53538 10.0816 7.56057 10.1193 7.58576C10.2075 7.64875 10.2327 7.73692 10.1823 7.8293C10.1529 7.88389 10.1151 7.93847 10.0732 7.98886C9.67846 8.46754 9.34674 8.98821 9.06121 9.53828C8.97303 9.71043 8.87646 9.88259 8.75049 10.0338C8.64972 10.1513 8.54054 10.2605 8.37678 10.2857C8.34319 10.2899 8.3306 10.3109 8.33899 10.3403C8.42297 10.672 8.33899 10.9953 8.28441 11.3186C8.24662 11.5412 8.25921 11.7679 8.22982 11.9905C8.20463 12.2172 8.08286 12.3054 7.85191 12.2718C7.73014 12.255 7.61257 12.2172 7.4992 12.1752C7.1087 12.0241 6.714 11.9023 6.3025 11.8225C6.04636 11.7721 5.80282 11.6881 5.57608 11.5538C5.52149 11.5202 5.5047 11.537 5.5005 11.5958C5.47951 11.9107 5.31575 12.1332 5.03862 12.2676C4.72789 12.4188 4.53894 12.6581 4.44236 12.9814C4.39198 13.1494 4.32479 13.3089 4.22822 13.4517C4.18203 13.5231 4.13164 13.6029 4.05606 13.6407C3.96788 13.6826 3.96368 13.7414 3.97208 13.8254C4.06866 14.8248 4.2828 15.8031 4.57673 16.7647C4.79088 17.4659 5.03022 18.1503 5.31575 18.8264C5.32834 18.86 5.33674 18.8977 5.37453 18.9313C5.38713 18.8474 5.36613 18.776 5.35774 18.7004C5.32834 18.4233 5.31575 18.1461 5.32414 17.8648C5.32834 17.764 5.31155 17.6674 5.27796 17.5751C5.0932 17.0334 5.05121 16.4791 5.15619 15.9165C5.27796 15.2698 5.62227 14.7618 6.14714 14.3671C6.53764 14.0731 6.96593 13.8422 7.37743 13.5777C7.4992 13.4979 7.61257 13.5693 7.60418 13.7162C7.59998 13.838 7.56219 13.9556 7.54119 14.0731C7.46141 14.493 7.38163 14.9087 7.30185 15.3286C7.22627 15.7317 7.13809 16.1348 7.01212 16.5295C6.92394 16.7983 6.80218 17.0544 6.58803 17.2518C6.3109 17.5079 5.98758 17.6297 5.60967 17.5205C5.55089 17.5037 5.53829 17.5247 5.53409 17.5793C5.47951 18.3141 5.54669 19.0405 5.75244 19.7459C5.86161 20.1322 6.07996 20.4766 6.26891 20.8293C6.76438 21.7656 7.34384 22.6474 7.98628 23.4872C8.14584 23.6971 8.33059 23.8819 8.51535 24.0667C8.54054 24.0415 8.52375 24.0247 8.51955 24.0079C8.26341 23.3612 8.13744 22.6852 8.04087 22.005C7.95689 21.4171 7.9023 20.8293 7.9065 20.233C7.9065 19.9307 7.93169 19.6326 7.99468 19.3344C8.01987 19.2001 8.00308 19.0657 8.00308 18.9313C7.99888 18.755 7.99468 18.5786 8.01567 18.4023C8.05346 18.0705 8.19623 17.7766 8.38938 17.5079C8.50275 17.3483 8.62452 17.1888 8.74209 17.0292C8.77568 16.983 8.81767 16.9494 8.88066 16.9662C8.93944 16.9788 8.96464 17.025 8.97303 17.0796C9.01082 17.3315 9.06121 17.5835 9.06541 17.8396C9.06541 17.9866 9.03602 18.1251 8.98563 18.2637C8.91005 18.4736 8.80508 18.6668 8.68331 18.8516C8.58673 18.9985 8.46916 19.1245 8.3138 19.2085C8.22562 19.2589 8.18363 19.3302 8.16683 19.431C8.08286 19.8887 8.08286 20.3506 8.11225 20.8083C8.16264 21.6313 8.27181 22.4459 8.47336 23.2479C8.61612 23.8105 8.85546 24.3186 9.17878 24.8057C9.5315 25.3389 10.0144 25.7378 10.4679 26.1661C11.442 27.0857 12.5295 27.8625 13.6423 28.6057C13.6633 28.6183 13.6843 28.6309 13.7053 28.6435C13.7263 28.6225 13.7095 28.6099 13.7011 28.6015C13.3819 28.2194 13.1468 27.7869 12.9494 27.3334C12.9201 27.2621 12.8739 27.2159 12.8025 27.1823C12.4624 27.0311 12.2188 26.7624 11.9879 26.4811C11.4504 25.8176 11.1397 25.0492 10.9633 24.2178C10.8164 23.5334 10.7492 22.8406 10.6736 22.1435C10.6274 21.732 10.577 21.3247 10.5308 20.9132C10.5224 20.8377 10.5182 20.7579 10.5224 20.6823C10.5308 20.5353 10.6526 20.4766 10.7744 20.5563C10.8584 20.6109 10.9213 20.6865 10.9843 20.7663C11.3538 21.2366 11.7233 21.7068 12.1181 22.1603C12.4834 22.5844 12.8529 23.0085 13.2014 23.4452C13.4491 23.7559 13.6675 24.0919 13.8144 24.4614C14.1126 25.2004 13.9782 25.8722 13.4953 26.4895C13.3651 26.6574 13.2224 26.8128 13.0838 26.9723C13.0502 27.0101 13.0292 27.0437 13.0544 27.0983C13.2812 27.6442 13.5541 28.1606 13.953 28.6015C14.1755 28.8451 14.4485 29.034 14.713 29.2356C15.4016 29.7562 16.17 30.1341 16.9007 30.5792C16.9426 30.6044 16.9846 30.6254 17.0266 30.6464C17.0308 30.6506 17.0392 30.6464 17.0434 30.6464C17.056 30.6212 17.035 30.6128 17.0224 30.6002C16.422 29.9578 16.0693 29.181 15.8089 28.3538C15.7417 28.148 15.6788 27.9381 15.6158 27.7323C15.6032 27.6946 15.5906 27.661 15.5654 27.6316C15.2253 27.2411 15.0321 26.7792 14.9565 26.2753C14.8726 25.7378 14.8516 25.2004 14.881 24.6545C14.881 24.6503 14.881 24.6461 14.881 24.6461C14.8936 24.5453 14.9062 24.4404 15.0153 24.3984C15.1287 24.3564 15.2127 24.4278 15.2841 24.5033C15.5192 24.7427 15.6788 25.0282 15.8215 25.3263C16.0987 25.9016 16.1448 26.5062 16.0399 27.1277C15.9979 27.3628 15.9517 27.5938 15.8593 27.8121C15.8467 27.8415 15.8509 27.8667 15.8593 27.8961C16.0567 28.5511 16.275 29.1978 16.6361 29.7814C16.9804 30.3357 17.4129 30.806 17.9588 31.1671C18.5089 31.5282 19.0883 31.8389 19.651 32.1748C20.1129 32.452 20.5663 32.7417 21.024 33.023C21.0492 33.0398 21.0786 33.0566 21.108 33.0734C21.1206 33.0356 21.0954 33.023 21.0828 33.0062C20.8519 32.7375 20.6335 32.4562 20.4404 32.1538C20.4236 32.1286 20.4068 32.1077 20.3774 32.0951C19.9953 31.9691 19.7056 31.713 19.4494 31.419C18.8784 30.7724 18.5718 30.0124 18.5089 29.1558C18.4795 28.7653 18.4921 28.3748 18.5173 27.9843C18.5466 27.4888 18.5047 26.9975 18.4459 26.5104C18.4375 26.4517 18.4375 26.3971 18.4417 26.3383C18.4459 26.2921 18.4711 26.2543 18.5173 26.2375C18.5634 26.2207 18.6096 26.2333 18.639 26.2669C18.6768 26.3089 18.7104 26.3509 18.7356 26.3971C19.1891 27.1697 19.7266 27.8835 20.264 28.5973C20.4404 28.8325 20.6041 29.076 20.7427 29.3405C21.0492 29.9284 21.15 30.5456 20.982 31.1923C20.9107 31.4652 20.7847 31.7046 20.5454 31.8725C20.4866 31.9103 20.5286 31.9439 20.5454 31.9775C20.7973 32.3806 21.0954 32.7501 21.4145 33.1028C21.6917 33.4093 21.9982 33.6781 22.3467 33.8964C22.6868 34.1106 22.9975 34.3625 23.2999 34.627C23.3838 34.6984 23.4552 34.7782 23.5434 34.837ZM19.63 31.0789C19.7182 31.1251 19.8021 31.1881 19.9113 31.2133C19.9071 31.1461 19.8567 31.1293 19.8315 31.0957C19.8693 31.0957 19.8609 31.0705 19.8525 31.0495C19.7895 30.89 19.7392 30.722 19.5796 30.6212C19.6174 30.6422 19.651 30.6632 19.6888 30.6842C19.7014 30.6422 19.6804 30.617 19.672 30.5876C19.5712 30.3063 19.4914 30.0208 19.42 29.7352C19.4032 29.6723 19.357 29.5925 19.4494 29.5505C19.546 29.5043 19.5712 29.5925 19.6132 29.6723C19.7014 29.1516 19.6384 28.6477 19.6174 28.148C19.6468 28.3034 19.651 28.463 19.6594 28.6225C19.6804 28.95 19.6888 29.2818 19.6384 29.6093C19.6258 29.6891 19.609 29.7688 19.6426 29.8444C19.6594 29.8864 19.672 29.878 19.693 29.8444C19.6636 30.1006 20.1381 31.3728 20.3312 31.5576C20.3732 31.461 20.3774 31.356 20.39 31.2595C20.4572 30.7136 20.4824 30.1677 20.411 29.6219C20.3606 29.2398 20.2976 28.8619 20.0121 28.5679C19.9617 28.5133 19.9239 28.4504 19.8777 28.3916C19.8651 28.3748 19.8567 28.3454 19.8147 28.3454C19.8063 28.6267 19.8273 28.9122 19.8021 29.0886C19.8021 28.9332 19.7937 28.6771 19.8063 28.4168C19.8147 28.2656 19.7224 28.1816 19.63 28.0641C19.6258 28.106 19.6258 28.1228 19.6258 28.1438C19.609 28.0725 19.5964 28.0053 19.5502 27.9423C19.2563 27.556 18.9833 27.1571 18.7356 26.7414C18.7188 26.7162 18.7104 26.6784 18.6642 26.67C18.6642 26.7078 18.6642 26.7414 18.6684 26.7708C18.7146 27.1907 18.7314 27.6148 18.7062 28.0347C18.6894 28.3286 18.6726 28.6225 18.6894 28.9164C18.6978 29.1138 18.6894 29.3153 18.7902 29.4959C18.7566 29.4707 18.7314 29.4623 18.7482 29.5211C18.7818 29.6555 18.8112 29.794 18.8448 29.9326C18.8952 30.1467 19.0043 30.3231 19.1471 30.4869C19.3067 30.6716 19.4914 30.827 19.6804 30.9739C19.6384 30.9697 19.6132 30.9403 19.5796 30.9193C19.399 30.7976 19.2479 30.6506 19.1135 30.4827C19.0925 30.4533 19.0757 30.4197 19.0127 30.3945C19.1135 30.5834 19.1723 30.7682 19.3235 30.8942C19.2983 30.9277 19.3235 30.9487 19.3403 30.9697C19.5628 31.2847 19.8105 31.566 20.1381 31.7801C20.1674 31.7969 20.1926 31.8221 20.2388 31.8221C20.1507 31.65 20.0667 31.4862 19.9869 31.3182C19.9617 31.2637 19.9239 31.2301 19.8651 31.2049C19.7769 31.1881 19.6888 31.1587 19.63 31.0789ZM16.6487 31.2133C16.6361 31.2091 16.6235 31.2091 16.6151 31.2007C16.3464 30.9949 16.0441 30.848 15.7459 30.6968C15.389 30.5204 15.0111 30.4323 14.6122 30.4785C14.5492 30.4869 14.4821 30.4827 14.4107 30.5288C14.587 30.575 14.7508 30.6128 14.9146 30.6548C15.3722 30.7724 15.8299 30.8858 16.2246 31.1755C16.338 31.2595 16.4976 31.2259 16.6361 31.2343C16.6361 31.2343 16.6403 31.2175 16.6487 31.2133C16.7117 31.2427 16.7747 31.2847 16.8755 31.2595C16.5102 30.9403 16.1071 30.7304 15.6578 30.6002C15.6788 30.6212 15.7082 30.638 15.7333 30.6506C15.9265 30.7556 16.1239 30.8564 16.3128 30.9655C16.4346 31.0327 16.5521 31.1083 16.6487 31.2133ZM20.3984 31.6794C20.3942 31.6878 20.3942 31.7088 20.411 31.7004C20.4404 31.6878 20.4404 31.6542 20.453 31.629C20.5495 31.4064 20.6041 31.1671 20.6545 30.9319C20.7385 30.533 20.7805 30.1383 20.7007 29.7352C20.6881 29.6765 20.6797 29.6135 20.6125 29.5505C20.6545 29.8528 20.6335 30.1299 20.6293 30.4071C20.6251 30.1635 20.6125 29.92 20.6083 29.6807C20.6041 29.4329 20.4698 29.2524 20.3354 29.0382C20.3312 29.0718 20.327 29.0844 20.3312 29.097C20.4068 29.3447 20.4488 29.6009 20.4698 29.857C20.516 30.4239 20.4782 30.9865 20.3522 31.5408C20.3438 31.5954 20.3354 31.6458 20.3984 31.6794ZM5.97498 14.8332C5.97498 14.8122 5.96658 14.7912 5.94139 14.8038C5.9162 14.8206 5.8994 14.8416 5.87841 14.8625C5.42492 15.3622 5.27376 15.9627 5.29055 16.6177C5.29475 16.8193 5.31155 17.0166 5.36193 17.2182C5.39553 17.193 5.39133 17.1636 5.39972 17.1342C5.45011 16.8696 5.52569 16.6135 5.62647 16.3616C5.68105 16.2272 5.71465 16.0928 5.71045 15.9459C5.70625 15.8283 5.73144 15.7107 5.76503 15.5974C5.82802 15.3832 5.86161 15.1649 5.94139 14.9549C5.8826 15.1943 5.82382 15.4378 5.76923 15.6771C5.73984 15.8115 5.71885 15.9459 5.72304 16.1096C5.83642 15.9291 5.93299 15.7737 6.02957 15.6184C6.02537 15.6436 6.02117 15.6729 6.05056 15.6855C6.16393 15.7443 6.13034 15.8199 6.07576 15.8997C5.92459 16.1264 5.80702 16.37 5.72724 16.6345C5.69365 16.7479 5.68945 16.7479 5.80702 16.7311C5.69785 16.7521 5.66006 16.8235 5.63487 16.9242C5.61387 17.0166 5.63907 17.0334 5.72304 17.0292C6.04216 17.0166 6.3151 16.8864 6.57123 16.7143C6.73919 16.6009 6.85256 16.4624 6.89035 16.2608C6.91135 16.1306 6.95334 16.0005 6.99113 15.8535C6.93234 15.8829 6.91135 15.9207 6.88615 15.9543C6.64681 16.2566 6.36548 16.5085 6.00857 16.6639C5.94139 16.6933 5.87841 16.7353 5.80282 16.7311C6.26891 16.5547 6.63002 16.244 6.93234 15.8577C6.98273 15.7947 7.01632 15.7275 7.03732 15.6436C7.16329 15.0473 7.25146 14.4469 7.38583 13.8506C7.39003 13.8338 7.39423 13.8212 7.37323 13.8002C7.26406 13.8674 7.15069 13.9388 7.03312 14.006C6.83577 14.1193 6.63842 14.2327 6.54184 14.4594C6.54184 14.4636 6.53344 14.4636 6.52504 14.4678C6.53344 14.3965 6.60063 14.3545 6.62162 14.2621C6.42427 14.3839 6.25211 14.514 6.08835 14.6484C6.03797 14.703 5.99598 14.7576 5.97498 14.8332ZM5.76083 21.8034C5.72304 21.7866 5.70625 21.7488 5.68525 21.7194C5.5047 21.4465 5.30735 21.1862 5.0806 20.951C5.03862 20.9048 4.99243 20.8671 4.93364 20.8461C4.74889 20.7873 4.55993 20.7411 4.37098 20.7411C4.2954 20.7411 4.23242 20.7243 4.16103 20.7201C4.06446 20.7117 3.96368 20.7201 3.85031 20.7201C4.00987 20.8125 4.16103 20.8797 4.2828 20.9972C4.19043 20.972 4.12744 20.9006 4.04766 20.8545C3.9133 20.7789 3.78733 20.6991 3.62357 20.6991C3.03152 20.6949 2.43946 20.6361 1.85581 20.5353C1.83481 20.5311 1.80962 20.5185 1.77603 20.5521C1.79282 20.5605 1.80542 20.5647 1.81382 20.5731C2.16233 20.8335 2.47725 21.14 2.78798 21.4423C2.84256 21.4969 2.90135 21.5431 2.97693 21.5641C2.90135 21.5725 2.95593 21.6019 2.97273 21.6187C3.06511 21.711 3.16168 21.7992 3.25406 21.8916C3.30865 21.9504 3.37163 21.9882 3.46401 21.9714C3.43042 21.9882 3.40102 21.9714 3.37583 22.0008C3.485 22.1015 3.59837 22.1981 3.71594 22.2905C3.76213 22.3283 3.80832 22.3409 3.86711 22.3367C4.3164 22.3031 4.75729 22.2191 5.18978 22.0805C5.24017 22.0638 5.29895 22.0512 5.34934 21.9966C5.22757 21.9378 5.11 21.8874 4.99663 21.8286C4.91685 21.7866 4.84546 21.7866 4.76148 21.8244C4.58093 21.9042 4.39618 21.9672 4.20302 22.0008C4.40877 21.921 4.62712 21.8622 4.84966 21.7614C4.7027 21.6984 4.57253 21.6397 4.44656 21.5851C4.42977 21.5767 4.40037 21.5809 4.37938 21.5851C4.02247 21.6858 3.66136 21.6607 3.30445 21.6313C3.19108 21.6229 3.0735 21.6145 2.97273 21.5557C3.43461 21.6355 3.9007 21.6481 4.37518 21.5683C4.34159 21.5221 4.2996 21.5137 4.2912 21.4759C4.2828 21.4381 4.287 21.4045 4.3164 21.3793C4.34999 21.3457 4.38778 21.3499 4.42557 21.3667C4.55154 21.4213 4.67751 21.4759 4.80347 21.5305C4.82867 21.5431 4.86646 21.5725 4.86226 21.5053C4.92524 21.5767 5.00502 21.6187 5.089 21.6607C5.22757 21.732 5.38293 21.774 5.5131 21.858C5.59708 21.9126 5.69365 21.9546 5.78603 21.9966C5.80702 22.0092 5.85741 22.0428 5.82802 21.9714C5.94559 22.1267 6.13034 22.1729 6.2857 22.2821C6.3193 21.8076 5.55089 20.9384 5.089 20.9258C5.35354 21.1946 5.58028 21.4843 5.76083 21.8034ZM11.2321 24.4194C11.1775 24.4404 11.2153 24.4782 11.2237 24.5075C11.379 25.1206 11.6352 25.6917 12.0047 26.2039C12.1936 26.4643 12.3994 26.7162 12.6639 26.9093C12.6975 26.9345 12.7311 26.9681 12.7773 26.9681C12.7899 26.9261 12.7689 26.901 12.7563 26.8716C12.5883 26.4181 12.454 25.952 12.3658 25.4775C12.3322 25.3053 12.2566 25.1668 12.1306 25.0492C12.0677 24.9904 12.0047 24.9316 11.9375 24.8771C11.8157 24.7805 11.6898 24.6881 11.5638 24.5915C11.6016 24.5915 11.6268 24.6167 11.6562 24.6377C11.8787 24.7889 12.0971 24.9484 12.286 25.1542C12.2734 25.0366 12.2482 24.9232 12.2314 24.8057C12.2188 24.7259 12.1852 24.6629 12.1264 24.6083C11.9501 24.4362 11.7443 24.2976 11.5344 24.1716C11.442 24.117 11.3496 24.0625 11.2573 24.0079C11.5974 24.1548 11.9039 24.3564 12.1894 24.6251C12.181 24.432 12.1306 24.2682 12.0971 24.1044C12.0215 23.7139 11.8703 23.3444 11.715 22.9791C11.6646 22.8658 11.673 22.7986 11.7401 22.7818C11.8451 22.7524 11.8619 22.8406 11.8871 22.9077C12.1348 23.4662 12.307 24.0457 12.391 24.6503C12.4078 24.7805 12.4498 24.9064 12.4666 25.0366C12.496 25.2424 12.5463 25.4439 12.5883 25.6455C12.5925 25.6581 12.6009 25.6665 12.6177 25.6665C12.6345 25.6245 12.6513 25.5867 12.6681 25.5447C12.5505 25.8764 12.7479 26.1577 12.8151 26.4601C12.8151 26.4643 12.8319 26.4685 12.8361 26.4769C12.8277 26.5818 12.8865 26.6658 12.9117 26.7624C12.9284 26.8296 12.9578 26.8296 12.9998 26.7792C13.1216 26.6322 13.2476 26.4853 13.3693 26.3383C13.6129 26.0318 13.743 25.6875 13.7682 25.2969C13.785 25.045 13.7346 24.8057 13.6297 24.5747C13.6171 24.6839 13.6171 24.7889 13.6003 24.8981C13.5289 25.3557 13.3273 25.7588 13.088 26.1451C13.0922 26.1073 13.1132 26.0738 13.1342 26.0402C13.2812 25.7546 13.4281 25.4649 13.5163 25.15C13.6297 24.7343 13.6255 24.3396 13.3441 23.9869C13.3064 23.9365 13.2728 23.8777 13.235 23.8273C13.2224 23.8105 13.2182 23.7769 13.172 23.7811C13.2266 24.138 13.1804 24.4866 13.109 24.8351C13.151 24.5033 13.2014 24.1716 13.1636 23.8357C13.1426 23.6678 13.0376 23.567 12.9243 23.4284C12.9284 23.4746 12.9284 23.4914 12.9326 23.504C12.962 23.6888 12.9872 23.8777 12.9704 24.0667C12.9536 24.2598 12.9243 24.4488 12.8865 24.6335C12.8277 24.9316 12.7773 25.2298 12.6765 25.5153C12.7395 25.2172 12.8025 24.9148 12.8613 24.6167C12.9243 24.285 12.9746 23.9575 12.9326 23.6174C12.9159 23.4746 12.8823 23.3486 12.7815 23.2353C12.4582 22.87 12.1474 22.4962 11.8325 22.1267C11.4924 21.732 11.1733 21.3205 10.85 20.909C10.8122 20.8587 10.7786 20.8083 10.7156 20.7747C10.6946 20.8167 10.7072 20.8503 10.7114 20.8839C10.7702 21.3583 10.829 21.837 10.8752 22.3157C10.9255 22.8322 10.9843 23.3444 11.0767 23.8525C11.0851 23.9113 11.1019 23.9575 11.1649 23.9785C11.1397 23.9743 11.1019 23.9701 11.1103 24.0079C11.1439 24.1506 11.1355 24.2976 11.2321 24.4194ZM15.9139 31.5282C15.8887 31.5744 15.8635 31.6164 15.8257 31.65C15.41 32.0783 14.9355 32.4058 14.3435 32.5485C14.3141 32.5569 14.2847 32.5527 14.2679 32.5863C14.6416 32.6997 15.0237 32.7627 15.4142 32.7249C15.9013 32.6787 16.3338 32.4982 16.6697 32.1328C16.8167 31.9733 16.9301 31.7927 16.9804 31.5786C16.993 31.524 16.9888 31.4862 16.9175 31.4778C16.6403 31.4316 16.359 31.4022 16.0777 31.3854C16.0357 31.3812 16.0021 31.398 15.9853 31.4358C15.9937 31.3812 15.9601 31.3812 15.9223 31.3812C15.7753 31.3854 15.6284 31.3896 15.4814 31.3896C15.4226 31.3896 15.3722 31.4106 15.3302 31.4568C15.347 31.3812 15.2925 31.4106 15.2631 31.4106C15.0447 31.4316 14.8264 31.4652 14.6122 31.5282C14.5534 31.545 14.5031 31.5366 14.4821 31.4694C14.4653 31.4106 14.4947 31.3728 14.5492 31.3518C14.8642 31.2427 15.1959 31.2217 15.5192 31.1881C15.7082 31.1671 15.9097 31.1839 16.1029 31.1965C16.1239 31.1965 16.149 31.2091 16.1616 31.1755C15.9349 31.0243 15.6956 30.9026 15.4268 30.8312C15.2043 30.7724 14.9859 30.7094 14.7634 30.6464C14.2595 30.5079 14.2259 30.5079 13.7598 30.743C13.7472 30.7472 13.7346 30.7514 13.7263 30.7598C13.7095 30.7724 13.6801 30.7724 13.6843 30.806C14.016 30.8396 14.3519 30.869 14.6752 30.9571C14.4359 30.9151 14.1965 30.8858 13.9572 30.8522C13.7472 30.8186 13.5583 30.827 13.3651 30.9487C12.9033 31.2469 12.4036 31.4862 11.8871 31.6794C11.8535 31.692 11.8115 31.692 11.7947 31.7423C11.8241 31.7549 11.8493 31.7633 11.8745 31.7717C12.433 31.9313 12.9746 32.1328 13.5163 32.3428C13.6045 32.3764 13.6927 32.4016 13.785 32.3596C13.7808 32.389 13.7262 32.3722 13.7346 32.4184C13.8018 32.4394 13.869 32.4688 13.9404 32.4856C13.9698 32.494 14.0118 32.473 14.0244 32.4898C14.0958 32.5653 14.1797 32.5611 14.2721 32.5401C14.9314 32.389 15.4562 32.0195 15.9139 31.5282ZM4.79088 3.60935C4.75729 3.58836 4.77408 3.52117 4.73209 3.52117C4.6859 3.52117 4.6817 3.57996 4.66491 3.61355C4.60192 3.72692 4.54734 3.84869 4.47596 3.95787C4.36258 4.12582 4.23662 4.28538 4.11065 4.44494C3.8755 4.73467 3.67815 5.0454 3.60677 5.4149C3.5102 5.91458 3.51439 6.42265 3.56058 6.92653C3.56478 6.98531 3.59837 7.0315 3.63616 7.07769C3.84611 7.32963 4.02247 7.60256 4.16103 7.90068C4.17363 7.92588 4.17783 7.95527 4.21982 7.97626C4.07705 7.41361 3.93429 6.86354 3.78313 6.31348C4.07286 7.12388 4.19043 7.98046 4.50115 8.79926C4.48015 8.51373 4.46336 8.2408 4.44236 7.97207C4.44656 7.97207 4.45076 7.97207 4.45496 7.97207C4.48015 8.29958 4.50535 8.6271 4.53054 8.95462C4.59772 8.81186 4.60612 8.66489 4.62712 8.51793C4.62712 8.53053 4.62712 8.54312 4.63132 8.55572C4.63132 8.56832 4.63132 8.58091 4.65231 8.58091C4.90845 7.45979 4.99663 6.33867 4.74469 5.20496C4.84126 5.55767 4.90425 5.91458 4.92524 6.27989C4.95884 6.93073 4.89165 7.57736 4.76148 8.21561C4.7111 8.46754 4.64811 8.71528 4.58933 8.96302C4.58093 9.00501 4.57253 9.0386 4.63552 9.0302C4.60192 9.0512 4.58513 9.08479 4.59353 9.12678C4.80347 8.89584 4.93784 8.6187 5.1058 8.36257C5.07641 8.42555 5.04701 8.48854 5.00502 8.57672C5.03442 8.55152 5.04281 8.54732 5.04701 8.53893C5.29475 8.16942 5.55089 7.80831 5.79023 7.4304C6.21852 6.75437 6.43687 6.02375 6.3025 5.20915C6.22272 4.72627 6.00437 4.36936 5.56348 4.13422C5.30735 3.99986 5.04701 3.85709 4.85386 3.62615C4.82867 3.60935 4.81607 3.56736 4.79088 3.60935ZM3.02732 13.5441C3.14909 13.6029 3.17428 13.5903 3.18268 13.4559C3.19108 13.5819 3.20787 13.5903 3.33804 13.5735C3.4892 13.5525 3.64456 13.5273 3.79992 13.5189C3.8923 13.5147 3.9133 13.4811 3.9133 13.3971C3.9091 13.1746 3.95109 12.9562 3.99727 12.7379C3.99727 12.7715 3.99727 12.8009 3.98888 12.8345C3.95948 13.0192 3.92589 13.204 3.92169 13.3929C3.92169 13.4223 3.9049 13.4685 3.93849 13.4811C3.97628 13.4937 3.99727 13.4517 4.01827 13.4265C4.12744 13.2963 4.19882 13.1452 4.24501 12.9856C4.36258 12.5741 4.58513 12.2508 4.99243 12.0786C4.99663 12.0786 4.99663 12.0744 5.00082 12.0744C5.25696 11.9191 5.35774 11.6923 5.30315 11.3942C5.26116 11.1633 5.16038 10.9575 5.03862 10.7602C4.86646 10.4746 4.6943 10.1891 4.53894 9.89519C4.53054 9.87419 4.52214 9.849 4.48855 9.8406C4.60612 10.2899 4.72369 10.735 4.84126 11.1759C4.78248 11.0331 4.73629 10.8903 4.6985 10.7392C4.61452 10.4201 4.53054 10.1051 4.45076 9.78601C4.42977 9.70623 4.37518 9.64745 4.36258 9.56767C4.35419 9.49629 4.2954 9.4417 4.24081 9.39971C4.19882 9.37032 4.14844 9.42071 4.09805 9.4375C4.08545 9.4417 4.07286 9.4375 4.06026 9.4375C3.82932 9.46269 3.61517 9.52148 3.46821 9.72303C3.40942 9.80701 3.33384 9.87839 3.27086 9.95817C3.01052 10.2899 2.74599 10.6216 2.56543 11.0121C2.77958 10.4453 3.18268 10.0086 3.59837 9.55927C3.56478 9.56767 3.55219 9.56767 3.53539 9.57607C3.12389 9.73983 2.72919 9.92458 2.38488 10.2185C2.02377 10.5292 1.881 10.9155 1.91459 11.3774C1.93559 11.6629 2.04476 11.9149 2.17493 12.1668C2.2757 12.3642 2.35548 12.5699 2.39327 12.7883C2.41007 12.9058 2.42687 13.0234 2.44786 13.1368C2.46466 13.2292 2.50665 13.3131 2.58643 13.3761C2.60322 13.3467 2.59902 13.3299 2.59063 13.3131C2.63261 13.3929 2.6746 13.4727 2.77118 13.5021C2.84256 13.5273 2.91394 13.5525 2.99372 13.5651C3.00212 13.5651 3.02732 13.5777 3.02732 13.5441ZM9.62807 8.14422C9.67006 8.09384 9.74564 8.11063 9.78343 8.05185C9.83382 7.97207 9.8968 7.89649 9.95979 7.8251C10.0144 7.76212 9.99758 7.73273 9.9262 7.69913C9.75404 7.61516 9.58188 7.52278 9.41392 7.4346C9.41812 7.4304 9.42652 7.4262 9.42652 7.422C9.42652 7.4178 9.42232 7.40941 9.41812 7.40521C9.34254 7.34642 9.26276 7.29184 9.19138 7.22465C9.1284 7.16587 9.05281 7.12808 8.98983 7.06089C8.82607 6.89713 8.64132 6.74597 8.45656 6.60321C7.79733 6.09513 6.99113 6.2127 6.44946 6.56962C6.40747 6.59481 6.36968 6.6242 6.35289 6.67459C6.17653 7.18266 5.891 7.63195 5.58028 8.06444C5.56768 8.08124 5.54249 8.09803 5.55089 8.13583C5.68105 8.03505 5.80282 7.93428 5.93299 7.8419C6.28151 7.58996 6.63002 7.33802 7.03732 7.18686C7.19688 7.12808 7.36484 7.09448 7.53699 7.09029C7.38163 7.12388 7.22627 7.15747 7.07511 7.21625C6.47046 7.45979 5.95399 7.8419 5.46691 8.26599C5.31994 8.39196 5.24436 8.57672 5.14359 8.74467C5.40812 8.57672 5.68525 8.43395 5.96238 8.29958C5.94139 8.32058 5.9162 8.33318 5.891 8.34577C5.65586 8.47594 5.41652 8.60191 5.19398 8.74887C5.089 8.81606 5.00922 8.90423 4.94204 9.00921C4.91265 9.0554 4.92524 9.11418 4.84966 9.14777C5.1184 9.18137 5.31155 9.01341 5.53409 8.97142C5.42492 9.01761 5.31575 9.06379 5.20657 9.10998C5.38293 9.12258 5.55929 9.13098 5.72724 9.08479C6.22692 8.95042 6.72239 8.81186 7.23047 8.70268C7.41102 8.66489 7.59158 8.6271 7.77213 8.58931C7.1003 8.74467 6.43267 8.91263 5.75664 9.09739C5.79863 9.12678 5.83222 9.11838 5.86161 9.11838C6.39488 9.13937 6.91555 9.21496 7.41102 9.41651C7.72175 9.54667 8.00727 9.71463 8.19623 10.0086C8.24662 10.0841 8.37678 10.0967 8.45236 10.0463C8.61612 9.93718 8.7085 9.76922 8.80088 9.60546C9.06961 9.11838 9.32995 8.6271 9.67426 8.18201C9.68686 8.16942 9.70785 8.14842 9.69525 8.13583C9.67426 8.11903 9.64907 8.11903 9.62807 8.14422ZM0.461756 7.47239C0.360981 7.4304 0.390374 7.48079 0.398771 7.51018C0.470154 7.74112 0.545735 7.97207 0.617117 8.20721C0.722091 8.53473 0.839662 8.85385 1.01602 9.15197C1.28055 9.59706 1.63746 9.92038 2.16233 10.0296C2.23791 10.0463 2.2967 10.038 2.35548 9.98756C2.42687 9.92458 2.51085 9.87419 2.59063 9.81961C2.67041 9.76502 2.75438 9.71883 2.84256 9.67684C2.91394 9.63905 2.98533 9.59706 3.06511 9.56767C3.28345 9.48789 3.4976 9.39131 3.72014 9.32413C3.9133 9.26534 4.10645 9.20656 4.308 9.18556C4.36678 9.17717 4.36258 9.16877 4.35838 9.12258C4.32479 8.94622 4.26181 8.77826 4.22822 8.60611C4.21142 8.50533 4.14844 8.42135 4.11904 8.32058C4.06866 8.13583 3.98048 7.96367 3.8839 7.79571C3.63197 7.35062 3.32964 6.94752 2.88455 6.67459C2.49825 6.43525 2.09095 6.32608 1.64166 6.48144C1.36873 6.57801 1.1 6.69558 0.801871 6.75857C0.902646 6.81735 1.00762 6.81315 1.0958 6.86354C1.00342 6.84675 0.911044 6.82575 0.818667 6.80476C0.6843 6.77117 0.621316 6.77536 0.549934 6.82575C0.6843 6.86354 0.822866 6.90133 0.957232 6.93912C1.0958 6.98111 1.23016 7.0357 1.36033 7.09448C1.4821 7.15327 1.60807 7.21206 1.72984 7.27084C1.69205 7.27504 1.65846 7.26244 1.62906 7.24565C1.33934 7.10288 1.04541 6.97271 0.730489 6.89293C0.600321 6.85934 0.474353 6.80476 0.335787 6.82575C0.327389 6.82575 0.318991 6.83415 0.306395 6.83835C0.339986 6.86354 0.360981 6.87614 0.381976 6.89293C0.352583 6.89293 0.331588 6.88034 0.310593 6.87194C0.281201 6.85934 0.24341 6.82995 0.214018 6.86354C0.184625 6.89713 0.20562 6.93492 0.222415 6.97272C0.239211 7.00631 0.247609 7.0399 0.260206 7.07349C0.293798 7.19946 0.306394 7.35482 0.461756 7.47239ZM4.53054 9.4333C4.53054 9.50048 4.59353 9.52148 4.59353 9.54247C4.58513 9.64325 4.7027 9.68944 4.7069 9.75662C4.7111 9.8574 4.77408 9.91198 4.80767 9.98756C4.85386 10.0925 4.92104 10.1891 4.97563 10.2899C5.1184 10.5418 5.29475 10.7728 5.39133 11.0457C5.43332 11.1675 5.4837 11.2682 5.60547 11.3438C5.86161 11.5076 6.14294 11.5916 6.44946 11.6629C6.40747 11.5706 6.32769 11.5412 6.27731 11.4572C6.38228 11.5328 6.43267 11.642 6.53764 11.6755C6.64261 11.7133 6.75599 11.7259 6.86516 11.7553C7.05411 11.8057 7.23887 11.8729 7.42362 11.9443C7.57898 12.0031 7.73434 12.066 7.9023 12.087C8.00727 12.0996 8.03667 12.0744 8.04926 11.9737C8.06186 11.8603 8.05346 11.7427 8.06186 11.6294C8.08286 11.3648 8.13744 11.1045 8.17943 10.84C8.23822 10.4369 8.12065 10.0925 7.78473 9.8406C7.58318 9.69364 7.36064 9.59286 7.12549 9.51728C6.55444 9.33253 5.97078 9.29894 5.37873 9.31993C5.31994 9.31993 5.25696 9.32413 5.19818 9.32833C5.82382 9.4333 6.27731 9.54667 6.47046 9.66424C6.41587 9.64745 6.38648 9.63905 6.35709 9.62645C5.8994 9.46269 5.42492 9.37872 4.94204 9.35772C4.81187 9.35352 4.67331 9.33253 4.54734 9.4249C5.17298 9.60966 5.76083 9.8574 6.3193 10.1849C5.73144 9.89099 5.15619 9.62225 4.53054 9.4333ZM3.83771 22.3577C4.26601 22.828 5.68525 22.9077 6.25211 22.4962C6.24791 22.4879 6.24371 22.4795 6.23532 22.4753C5.97918 22.3157 5.71045 22.1729 5.43752 22.0344C5.39972 22.0176 5.37033 22.026 5.33674 22.0428C5.01342 22.1981 4.66491 22.2611 4.3122 22.3073C4.15684 22.3325 3.99727 22.3409 3.83771 22.3577ZM6.76438 16.6051C6.6888 16.6639 6.61322 16.7311 6.53344 16.7857C6.27731 16.9578 6.00018 17.0712 5.68105 17.0418C5.63067 17.0376 5.60967 17.0544 5.60547 17.1006C5.60127 17.1384 5.59288 17.1762 5.58448 17.214C5.56348 17.2811 5.59708 17.3147 5.65586 17.3357C5.76083 17.3693 5.87001 17.3861 5.97498 17.3651C6.39908 17.2853 6.62162 16.9914 6.76438 16.6051ZM20.4572 31.6878C20.8225 31.503 21.0198 30.4449 20.7721 29.9662C20.8015 30.5708 20.6797 31.1377 20.4572 31.6878Z" fill="#D82149"/>
<path d="M23.4723 34.8697C23.4598 34.7941 23.4849 34.7353 23.5311 34.6681C23.8587 34.1978 24.3205 33.8871 24.816 33.6184C25.6894 33.1481 26.5754 32.7114 27.4446 32.2369C29.036 31.3677 30.5938 30.4566 32.076 29.4152C34.4358 27.7566 36.5605 25.8377 38.366 23.5787C39.4242 22.2518 40.4151 20.8788 41.2171 19.3797C42.1787 17.5868 42.8085 15.6805 43.1109 13.6734C43.3418 12.1491 43.2746 10.6375 42.8547 9.15108C42.4516 7.71924 41.7546 6.45535 40.7426 5.36362C39.6425 4.17952 38.3954 3.20116 36.9342 2.49994C36.0902 2.09684 35.1958 1.89109 34.2721 1.81131C33.2097 1.72313 32.1768 1.8575 31.1816 2.248C30.2998 2.59651 29.5188 3.11298 28.7924 3.71343C28.1038 4.28029 27.5075 4.93533 26.9323 5.61136C26.2311 6.44275 25.5592 7.29934 24.9084 8.17692C24.7656 8.36587 24.6355 8.56323 24.5095 8.76478C24.4759 8.81936 24.4423 8.87815 24.3667 8.83616C24.2911 8.78997 24.3289 8.73118 24.3625 8.6766C24.5977 8.2819 24.8622 7.90819 25.1393 7.54708C25.8741 6.57712 26.63 5.62396 27.453 4.72538C28.2843 3.81841 29.2123 3.0374 30.2956 2.44955C31.5553 1.76512 32.9032 1.50478 34.3308 1.62235C35.7081 1.73573 36.9594 2.20181 38.1225 2.93243C39.483 3.78901 40.6587 4.84295 41.616 6.13203C42.3928 7.18177 42.8841 8.36587 43.1696 9.63816C43.5349 11.259 43.4888 12.8797 43.1612 14.5005C42.6574 17.0031 41.658 19.2916 40.2136 21.3952C39.0673 23.0622 37.8202 24.641 36.3799 26.0687C34.7087 27.7273 32.8696 29.1717 30.8835 30.4356C29.0654 31.5903 27.18 32.6232 25.2569 33.5932C24.9588 33.7444 24.669 33.9039 24.3961 34.0971C24.119 34.2902 23.867 34.5086 23.6781 34.7941C23.6235 34.8781 23.5605 34.9033 23.4723 34.8697Z" fill="#D82149"/>
<path d="M8.36569 7.89231C7.4923 7.99309 6.6945 8.3374 5.86731 8.66072C6.19903 8.40459 7.9122 7.87972 8.36569 7.89231Z" fill="#D82149"/>
<path d="M6.76111 7.60224C7.39935 7.3755 8.05859 7.24113 8.73042 7.15295C8.06278 7.25793 7.40775 7.41329 6.76111 7.60224Z" fill="#D82149"/>
<path d="M8.99145 8.64392C8.60095 8.76149 8.21045 8.87486 7.81995 8.99243C8.19785 8.84547 8.58836 8.7321 8.99145 8.64392Z" fill="#D82149"/>
<path d="M9.41131 7.4297C9.30633 7.4549 9.20136 7.4465 9.09639 7.4507C8.83605 7.4633 8.57992 7.47169 8.31958 7.49269C8.68069 7.4381 9.046 7.41291 9.41131 7.4297Z" fill="#D82149"/>
<path d="M9.6264 8.14425C9.42485 8.15685 9.2317 8.22823 9.03015 8.25762C9.2233 8.20723 9.41645 8.12745 9.6264 8.14425Z" fill="#D82149"/>
<path d="M8.39103 8.12666C8.21887 8.16865 8.04672 8.20644 7.87456 8.24843C7.87456 8.24423 7.87036 8.24003 7.87036 8.23163C8.04252 8.18964 8.21468 8.15185 8.38683 8.10986C8.38683 8.11406 8.38683 8.11826 8.39103 8.12666Z" fill="#D82149"/>
<path d="M2.02148 7.14038C2.81509 7.4595 3.47852 7.97597 4.08317 8.56803C3.45753 8.00956 2.78989 7.50569 2.02148 7.14038Z" fill="#D82149"/>
<path d="M3.46164 8.89113C2.92838 8.6014 2.40351 8.29488 1.87024 8.01355C2.4245 8.26549 2.94937 8.56781 3.46164 8.89113Z" fill="#D82149"/>
<path d="M4.08108 8.96306C3.69058 8.68593 3.29587 8.4172 2.89697 8.15686C3.31687 8.392 3.71577 8.65654 4.08108 8.96306Z" fill="#D82149"/>
<path d="M1.69141 7.70764C2.1029 7.884 2.49761 8.10654 2.88391 8.34168C2.48501 8.13174 2.08611 7.91759 1.69141 7.70764Z" fill="#D82149"/>
<path d="M2.0719 9.1687C2.23986 9.25268 2.40782 9.34086 2.57997 9.42484C2.39522 9.36605 2.23146 9.27787 2.0719 9.1687Z" fill="#D82149"/>
<path d="M2.00242 8.68628C2.14518 8.75766 2.28795 8.82904 2.43491 8.90043C2.43071 8.90462 2.43071 8.90882 2.42651 8.91302C2.28375 8.84584 2.13678 8.77446 1.99402 8.70727C1.99402 8.69888 1.99822 8.69468 2.00242 8.68628Z" fill="#D82149"/>
<path d="M2.75842 7.06539C2.62405 6.99821 2.49389 6.93102 2.35952 6.86384C2.35532 6.85964 2.35112 6.85544 2.34692 6.84705C2.49389 6.91003 2.63665 6.97721 2.75842 7.06539Z" fill="#D82149"/>
<path d="M0.788259 7.47598C0.649693 7.4088 0.548919 7.29963 0.435547 7.19885C0.553118 7.29123 0.687484 7.36261 0.788259 7.47598Z" fill="#D82149"/>
<path d="M0.788452 7.48071C0.87663 7.51011 0.935416 7.58569 1.0068 7.64447C0.931217 7.58989 0.843039 7.5521 0.788452 7.48071Z" fill="#D82149"/>
<path d="M4.07807 9.6637C3.66657 10.6001 3.43143 11.5826 3.39784 12.6072C3.37685 11.5658 3.62458 10.5917 4.07807 9.6637Z" fill="#D82149"/>
<path d="M4.06592 11.5908C4.09111 11.0198 4.19609 10.4655 4.32205 9.91125C4.22548 10.4697 4.1373 11.0282 4.06592 11.5908Z" fill="#D82149"/>
<path d="M2.58592 13.3087C2.51873 12.956 2.51033 12.6033 2.60691 12.2548C2.56072 12.5193 2.56492 12.788 2.57332 13.0526C2.57332 13.1407 2.60691 13.2247 2.58592 13.3087Z" fill="#D82149"/>
<path d="M3.69922 12.2838C3.72861 11.9311 3.7664 11.5826 3.84618 11.2383C3.79579 11.5826 3.74541 11.9353 3.69922 12.2838Z" fill="#D82149"/>
<path d="M3.02738 13.5437C2.97279 13.2413 2.9434 12.9348 2.97279 12.6283C2.9686 12.9096 2.99379 13.191 3.03158 13.4681C3.03578 13.4933 3.02738 13.5185 3.02738 13.5437Z" fill="#D82149"/>
<path d="M2.82825 11.5453C2.88703 11.3354 2.95422 11.1212 3.05499 10.9197C2.98361 11.1338 2.91223 11.3438 2.84084 11.5579C2.83665 11.5663 2.82825 11.5621 2.82825 11.5453Z" fill="#D82149"/>
<path d="M3.39683 12.8048C3.38843 13.019 3.37164 13.2373 3.37584 13.4556C3.36324 13.2373 3.36744 13.0232 3.39683 12.8048Z" fill="#D82149"/>
<path d="M4.6261 9.03051C4.60511 9.00112 4.62191 8.97592 4.6303 8.95073C4.83605 8.45945 4.97462 7.95138 5.0586 7.42651C5.0628 7.40972 5.07119 7.39712 5.07959 7.38452C5.00821 7.92199 4.88644 8.44686 4.6597 8.94233C4.6471 8.96753 4.62191 8.99272 4.6261 9.03051Z" fill="#D82149"/>
<path d="M5.33812 5.61216C5.33392 5.07469 5.20795 4.55822 5.06519 4.04175C5.22894 4.55402 5.38851 5.06629 5.33812 5.61216Z" fill="#D82149"/>
<path d="M5.82474 5.67455C5.79955 5.22106 5.69877 4.78017 5.6106 4.33508C5.72817 4.77177 5.84154 5.21266 5.82474 5.67455Z" fill="#D82149"/>
<path d="M5.10181 5.57043C5.1438 6.04912 5.15219 6.532 5.1228 7.01488C5.127 6.532 5.127 6.05331 5.10181 5.57043Z" fill="#D82149"/>
<path d="M5.38147 7.51895C5.41506 7.16624 5.45285 6.81353 5.48644 6.46082C5.48224 6.81353 5.44026 7.16624 5.38147 7.51895Z" fill="#D82149"/>
<path d="M4.16669 5.97663C4.1415 5.6617 4.09951 5.34678 4.06592 5.03186C4.1247 5.34258 4.16249 5.6575 4.16669 5.97663Z" fill="#D82149"/>
<path d="M4.77973 4.84307C4.72514 4.60373 4.67055 4.36439 4.61597 4.12085C4.69575 4.36019 4.75873 4.59953 4.77973 4.84307Z" fill="#D82149"/>
<path d="M4.68394 7.24927C4.68394 7.5096 4.68394 7.76994 4.68394 8.03027C4.67974 8.03027 4.67974 8.03027 4.67554 8.03027C4.67554 7.76994 4.67554 7.5096 4.67554 7.24927C4.67554 7.24927 4.67974 7.24927 4.68394 7.24927Z" fill="#D82149"/>
<path d="M4.78552 3.61393C4.84431 3.75249 4.8779 3.89946 4.91149 4.04642C4.8695 3.90365 4.79812 3.76509 4.78552 3.61393Z" fill="#D82149"/>
<path d="M4.60681 6.54443C4.6572 6.65781 4.6446 6.77957 4.6446 6.90134C4.63201 6.78377 4.61941 6.662 4.60681 6.54443Z" fill="#D82149"/>
<path d="M4.6071 6.5438C4.59031 6.42623 4.57771 6.30446 4.56091 6.18689C4.58611 6.30446 4.6281 6.42203 4.6071 6.5438Z" fill="#D82149"/>
<path d="M6.4797 10.063C6.15218 9.8782 5.81626 9.70605 5.45935 9.58008C5.82466 9.68505 6.16477 9.85301 6.4797 10.063Z" fill="#D82149"/>
<path d="M7.03162 10.0212C7.32974 10.143 7.57748 10.3404 7.80842 10.5587C7.56068 10.3656 7.31295 10.1724 7.03162 10.0212Z" fill="#D82149"/>
<path d="M6.55481 11.0996C6.77316 11.318 6.9915 11.5363 7.20985 11.7546C6.9831 11.5447 6.76056 11.3348 6.55481 11.0996Z" fill="#D82149"/>
<path d="M6.18643 11.3939C6.08146 11.2973 5.97648 11.2049 5.86731 11.1083C5.87151 11.1041 5.87571 11.0958 5.87991 11.0916C5.98488 11.1881 6.09405 11.2805 6.19903 11.3771C6.19903 11.3813 6.19483 11.3855 6.18643 11.3939Z" fill="#D82149"/>
<path d="M5.20938 10.1426C5.11701 10.0671 5.02463 9.99147 4.93225 9.91589C5.04142 9.97048 5.1296 10.0503 5.20938 10.1426Z" fill="#D82149"/>
<path d="M15.1432 31.5823C15.1432 31.6117 15.118 31.6243 15.097 31.6411C14.7149 31.914 14.3202 32.1701 13.8751 32.3381C13.8415 32.3507 13.8079 32.3549 13.7743 32.3675C13.959 32.2793 14.1438 32.1953 14.3244 32.1029C14.6141 31.9518 14.8786 31.767 15.1432 31.5823Z" fill="#D82149"/>
<path d="M19.2678 30.2512C19.2174 30.247 19.2006 30.1967 19.1754 30.1631C19.0873 30.0497 19.0117 29.9321 18.9403 29.8062C18.9781 29.8104 18.9865 29.8439 19.0033 29.8691C19.0915 29.9951 19.1796 30.1253 19.2678 30.2512Z" fill="#D82149"/>
<path d="M6.03235 15.6264C6.12053 15.2947 6.25489 14.984 6.40606 14.6775C6.44385 14.6061 6.47324 14.5263 6.53202 14.4675C6.53202 14.4759 6.53202 14.4885 6.52783 14.4969C6.33047 14.858 6.17931 15.2401 6.03235 15.6264Z" fill="#D82149"/>
<path d="M20.3998 31.6794C20.425 31.4904 20.4754 31.3099 20.5216 31.1251C20.4838 31.3099 20.4796 31.503 20.3998 31.6794Z" fill="#D82149"/>
<path d="M25.1233 12.1666C25.0057 12.1918 24.8923 12.1792 24.779 12.154C24.3003 12.0574 23.8678 11.8559 23.4521 11.6123C23.4269 11.5997 23.4017 11.5829 23.3765 11.5703C23.3723 11.5661 23.3639 11.5703 23.3555 11.5745C23.3891 11.7509 23.4269 11.923 23.4521 12.0994C23.5067 12.4731 23.5319 12.851 23.4647 13.2289C23.4521 13.3045 23.4311 13.3801 23.3975 13.4473C23.2967 13.653 23.1078 13.6656 22.9776 13.4766C22.9188 13.3885 22.881 13.2877 22.8516 13.1869C22.7131 12.6872 22.7341 12.1918 22.8642 11.6963C22.881 11.6333 22.8936 11.5703 22.9188 11.5115C22.9902 11.3646 22.944 11.2302 22.8768 11.1C22.8013 10.9573 22.7215 10.8229 22.6375 10.6717C22.6081 10.7221 22.6249 10.7641 22.6249 10.8019C22.6417 11.1294 22.6123 11.4486 22.5031 11.7593C22.4653 11.8684 22.4108 11.9692 22.3268 12.0532C22.1546 12.2254 21.9363 12.196 21.8187 11.9776C21.7347 11.8223 21.7221 11.6543 21.7263 11.4821C21.7389 11.163 21.8271 10.8649 21.9783 10.5836C22.0622 10.424 22.142 10.2644 22.2344 10.1091C22.268 10.0461 22.2638 9.99992 22.2302 9.94113C22.142 9.78997 22.0706 9.63461 21.9783 9.48764C21.8019 9.20211 21.6801 8.88719 21.5038 8.60166C21.487 8.57227 21.4744 8.53448 21.4408 8.51349C21.4198 8.53448 21.4324 8.55967 21.4324 8.58067C21.466 8.88719 21.4702 9.19372 21.403 9.50024C21.3778 9.60941 21.34 9.71439 21.2686 9.80676C21.1091 10.0083 20.8739 9.99992 20.7354 9.78157C20.622 9.60521 20.5926 9.40366 20.5842 9.20211C20.5716 8.91658 20.6178 8.63945 20.6892 8.36652C20.7438 8.16077 20.8026 7.95922 20.8571 7.75348C20.8571 7.74928 20.8571 7.74508 20.8613 7.74508C20.9747 7.61911 20.8781 7.52253 20.8152 7.42596C20.4624 6.8675 20.0929 6.32163 19.6982 5.79256C19.673 5.75897 19.6562 5.72118 19.6143 5.70439C19.6017 5.74638 19.6269 5.77577 19.6394 5.80516C19.7822 6.18307 19.8872 6.57357 19.9166 6.98087C19.9292 7.14883 19.9292 7.31259 19.8872 7.47634C19.8536 7.59391 19.8032 7.70309 19.6688 7.73248C19.5387 7.75767 19.4463 7.68629 19.3707 7.59392C19.2489 7.45115 19.1776 7.28319 19.123 7.10684C18.997 6.70794 18.9634 6.29644 18.955 5.88494C18.9508 5.56582 18.9214 5.2467 18.8836 4.92758C18.871 4.80161 18.8165 4.72183 18.7409 4.64205C18.5393 4.42371 18.3294 4.20956 18.111 4.00801C17.8003 3.72248 17.4812 3.44535 17.1327 3.20601C17.1075 3.18921 17.0865 3.16402 17.0445 3.15982C17.0487 3.20181 17.0781 3.227 17.0991 3.2564C17.3552 3.59651 17.5862 3.95342 17.7331 4.36072C17.7961 4.52868 17.8465 4.70084 17.8507 4.88559C17.8507 5.01156 17.8423 5.14593 17.7121 5.20891C17.582 5.27189 17.4686 5.20471 17.3678 5.12493C17.1789 4.97377 17.0487 4.77642 16.9437 4.56227C16.7002 4.07939 16.5658 3.56292 16.4944 3.02965C16.4692 2.8407 16.3979 2.73153 16.2257 2.64755C15.6336 2.35782 15.0248 2.11848 14.374 1.98831C14.3362 1.97991 14.2984 1.97572 14.2522 1.96732C14.2732 2.01351 14.3068 2.01771 14.3362 2.0345C14.6091 2.18146 14.861 2.35782 15.05 2.60556C15.1424 2.73153 15.218 2.86589 15.2431 3.02125C15.2767 3.2354 15.1592 3.38656 14.9408 3.39916C14.8107 3.40756 14.6931 3.37397 14.5755 3.32358C14.4034 3.2522 14.2438 3.15142 14.101 3.03805C13.7483 2.76092 13.4544 2.4292 13.1857 2.07229C13.1563 2.0303 13.1101 1.98831 13.1143 1.93793C13.1227 1.83715 13.0639 1.84135 12.9967 1.84135C12.4382 1.83295 11.8882 1.88334 11.3465 2.00091C11.1954 2.0345 11.0442 2.07649 10.893 2.13528C10.9308 2.14367 10.9686 2.14787 11.0064 2.15627C11.5145 2.24025 11.9722 2.446 12.3837 2.75672C12.4718 2.8239 12.5558 2.90368 12.6104 3.00026C12.7154 3.18501 12.623 3.35297 12.413 3.36557C12.2661 3.37397 12.1275 3.33618 11.989 3.28999C11.6027 3.15562 11.2541 2.94567 10.9098 2.72313C10.6957 2.58456 10.4647 2.47119 10.2254 2.37462C10.1834 2.35782 10.1456 2.35782 10.1036 2.37462C9.73412 2.52158 9.37721 2.68954 9.03289 2.89109C8.89013 2.97087 8.74736 3.04645 8.61719 3.15982C8.66758 3.15562 8.71797 3.15142 8.77256 3.14722C9.11687 3.12623 9.44439 3.16822 9.73412 3.37397C9.7845 3.40756 9.83069 3.44955 9.86848 3.49994C10.0322 3.70568 9.96506 3.91563 9.71732 3.99121C9.53677 4.0458 9.34781 4.0374 9.16726 4.00801C8.77676 3.94083 8.40305 3.81066 8.05034 3.6385C7.97056 3.60071 7.91597 3.60491 7.85299 3.6595C7.77321 3.73088 7.68923 3.79386 7.60105 3.85265C7.57166 3.87364 7.53806 3.93243 7.50027 3.86944C7.47088 3.82325 7.42049 3.76867 7.48348 3.70568C7.51707 3.67629 7.55066 3.6469 7.58845 3.62171C7.68503 3.54192 7.7984 3.48314 7.86558 3.37397C7.87398 3.36137 7.88238 3.35717 7.89498 3.34877C8.2099 3.20181 8.47443 2.97087 8.78095 2.81131C8.83134 2.78611 8.85234 2.74832 8.86493 2.69374C8.97411 2.18566 9.09588 1.68179 9.36881 1.2283C9.44019 1.11073 9.51997 0.997359 9.62075 0.900784C9.65854 0.862993 9.70472 0.829401 9.75511 0.812606C9.86428 0.774815 9.95666 0.821003 9.99025 0.930176C10.0238 1.03515 10.0028 1.13173 9.97766 1.2325C9.91467 1.45924 9.8013 1.6566 9.67533 1.84975C9.54097 2.0555 9.3982 2.25705 9.26383 2.46279C9.24704 2.48799 9.22184 2.51318 9.21765 2.54677C9.25124 2.56777 9.27223 2.53838 9.29323 2.52578C9.8055 2.26544 10.3388 2.0555 10.893 1.90433C10.9476 1.88754 10.977 1.86234 10.998 1.80776C11.1492 1.42985 11.2877 1.04775 11.5187 0.707632C11.6908 0.455694 11.8966 0.241548 12.1737 0.102982C12.3249 0.0274013 12.4844 -0.0229862 12.6566 0.0106054C12.8455 0.048396 12.9505 0.182763 12.9379 0.375914C12.9253 0.543872 12.8455 0.682438 12.749 0.808407C12.5096 1.12333 12.1989 1.35847 11.8798 1.58941C11.8294 1.6272 11.779 1.66079 11.7328 1.71958C11.7958 1.71118 11.8546 1.70698 11.9176 1.69858C12.9757 1.56422 14.0129 1.644 15.0374 1.94632C15.1214 1.97152 15.1718 1.95052 15.2431 1.90013C15.7638 1.50123 16.3433 1.27869 17.0151 1.37527C17.1285 1.39206 17.2376 1.42985 17.3342 1.49704C17.5148 1.623 17.5232 1.82035 17.3594 1.97152C17.2712 2.0513 17.1579 2.09749 17.0487 2.13528C16.7044 2.24865 16.3517 2.26544 15.9948 2.25285C15.9654 2.25285 15.9402 2.24865 15.9066 2.24865C15.9234 2.29064 15.957 2.29484 15.9864 2.30743C16.7086 2.63495 17.3636 3.06744 17.9599 3.59231C18.0354 3.6595 18.0984 3.67629 18.1908 3.6343C18.363 3.55452 18.5393 3.48734 18.7115 3.41176C18.997 3.28999 19.2867 3.20181 19.5975 3.17242C19.7738 3.15982 19.946 3.16822 20.1055 3.2438C20.3911 3.37397 20.4247 3.6595 20.1727 3.85265C19.9712 4.00381 19.7318 4.05 19.4883 4.08359C19.1776 4.12558 18.8668 4.10458 18.5603 4.0458C18.5309 4.0416 18.5015 4.02061 18.4679 4.0374C18.4679 4.07099 18.4973 4.08779 18.5141 4.10878C19.1776 4.76802 19.757 5.49864 20.2861 6.26705C20.3491 6.35942 20.4289 6.39721 20.5296 6.41401C20.7606 6.456 20.9873 6.40561 21.2183 6.38462C21.5206 6.35522 21.8229 6.30904 22.1252 6.35522C22.289 6.38042 22.4443 6.43081 22.5745 6.53998C22.7929 6.71633 22.7719 6.95987 22.5241 7.09004C22.3268 7.19501 22.1084 7.19501 21.8943 7.16562C21.4744 7.11523 21.0881 6.96407 20.7144 6.77512C20.6934 6.76252 20.6682 6.75412 20.643 6.74153C20.622 6.78352 20.6556 6.80451 20.6724 6.82551C21.1427 7.53093 21.5626 8.26155 21.9531 9.01316C21.9909 9.08874 22.0287 9.10134 22.1084 9.07615C22.4989 8.95018 22.8894 8.8452 23.3051 8.8704C23.5277 8.88299 23.746 8.92918 23.9392 9.04675C24.1071 9.14753 24.2499 9.2777 24.2163 9.50024C24.1827 9.71859 24.0106 9.80676 23.8216 9.85295C23.5781 9.91174 23.3303 9.88654 23.0868 9.83616C22.8349 9.78577 22.5913 9.70599 22.3562 9.60101C22.331 9.58842 22.31 9.56742 22.2764 9.58002C22.268 9.61781 22.2932 9.63881 22.31 9.664C22.5577 10.1133 22.8139 10.5584 23.0574 11.0077C23.112 11.1126 23.1792 11.1546 23.2967 11.1546C23.7334 11.1588 24.1575 11.2176 24.569 11.3688C24.7538 11.436 24.9301 11.5157 25.0897 11.6333C25.1569 11.6795 25.2157 11.7299 25.2618 11.7971C25.371 11.9692 25.3122 12.1204 25.1233 12.1666Z" fill="#D82149"/>
<path d="M35.1592 11.3274C34.9282 11.7305 34.8358 12.1756 34.8148 12.6332C34.7813 13.3723 34.945 14.0819 35.2011 14.7663C35.3607 15.1904 35.5413 15.6061 35.684 16.0344C35.9696 16.8994 36.1249 17.7854 35.9654 18.7007C35.789 19.6875 35.2767 20.4433 34.3656 20.8758C33.257 21.4007 32.1359 21.3503 31.0526 20.796C30.0742 20.2963 29.4906 19.4901 29.3856 18.3858C29.289 17.3403 29.5913 16.3913 30.1498 15.5179C30.6369 14.7495 31.2835 14.1239 31.9722 13.5402C32.9547 12.7088 34.0338 12.0034 35.1214 11.319C35.134 11.3106 35.1508 11.3064 35.1676 11.298C35.1634 11.3148 35.1634 11.319 35.1592 11.3274ZM30.8468 15.8538C30.5487 16.2695 30.3682 16.723 30.301 17.2185C30.2002 17.9323 30.3765 18.5874 30.7629 19.2004C30.8132 19.1668 30.8594 19.1374 30.9182 19.1038C30.6159 18.6168 30.4395 18.0961 30.4605 17.525C30.4815 16.9582 30.6621 16.4417 30.9896 15.963C30.9434 15.9294 30.9014 15.8958 30.8468 15.8538Z" fill="#D82149"/>
<path d="M27.7868 15.2653C27.5601 15.45 27.3333 15.6348 27.1108 15.8237C26.6531 16.2184 26.2206 16.6383 25.8973 17.1548C25.6622 17.5243 25.5362 17.9316 25.5404 18.3683C25.5446 19.0233 25.9141 19.5356 26.5397 19.7203C27.1528 19.8967 27.7196 19.8085 28.1815 19.3382C28.4839 19.0317 28.5594 18.6412 28.5216 18.2255C28.4839 17.814 28.3411 17.4403 28.1479 17.0792C27.9842 16.7769 27.8288 16.4788 27.7658 16.1386C27.707 15.8489 27.7028 15.5634 27.8078 15.2821C27.7994 15.2737 27.791 15.2695 27.7868 15.2653Z" fill="#D82149"/>
<path d="M28.5374 20.061C28.361 20.3256 28.1721 20.5901 27.9957 20.863C27.7942 21.178 27.6262 21.5097 27.5464 21.875C27.4667 22.2319 27.4877 22.5846 27.6682 22.9079C27.9033 23.3278 28.4072 23.5126 28.8859 23.3656C29.0245 23.3236 29.1672 23.2606 29.2848 23.1767C29.6669 22.9121 29.7929 22.467 29.6333 22.0094C29.5241 21.7028 29.3352 21.4509 29.1168 21.2199C28.9279 21.0226 28.7431 20.8168 28.655 20.5523C28.6004 20.397 28.5752 20.2332 28.5374 20.061Z" fill="#D82149"/>
<path d="M69.8234 4.20498C70.1838 4.46245 70.3726 4.92588 70.3726 5.57812V5.7326C70.3726 6.02439 70.3211 6.45349 70.2353 7.01991C70.1495 7.58633 70.0465 7.92961 69.9435 8.06692C69.8749 8.15274 69.8062 8.18707 69.7547 8.18707C69.6861 8.18707 69.6346 8.13558 69.5831 8.0326C69.4114 7.63782 69.0853 7.3117 68.639 7.05424C68.1928 6.79678 67.6264 6.60797 66.9398 6.48782C66.2532 6.36768 65.4808 6.29901 64.6055 6.29901C62.8376 6.29901 60.7607 6.53932 58.4092 7.00275C58.6152 7.24305 58.7182 7.51767 58.7182 7.84379C58.7182 8.18707 58.6152 8.56469 58.4092 8.9423C58.2032 9.33707 57.8943 9.83484 57.4995 10.4356C57.242 10.8132 57.0532 11.0878 56.9503 11.2766C56.9159 11.3453 56.8644 11.4311 56.7958 11.5341C57.9286 11.0878 59.4219 10.7789 61.2928 10.6072C61.4129 10.6072 61.5159 10.5901 61.6189 10.5901C62.7517 10.5901 63.3525 11.1736 63.4211 12.3236V12.3923C63.4211 12.6498 63.404 12.9415 63.3525 13.2848C63.301 13.6109 63.2323 13.8512 63.1465 13.9886C63.0779 14.0915 63.0092 14.143 62.9405 14.143C62.8719 14.143 62.8204 14.0915 62.7689 14.0057C62.6144 13.5595 62.2711 13.2333 61.7562 13.0102C61.2413 12.8042 60.6062 12.6841 59.851 12.6841C58.7182 12.6841 57.5682 12.89 56.3838 13.302C56.7271 14.3318 56.9674 15.4818 57.1047 16.7692C57.1391 17.1811 57.1734 17.593 57.1734 17.9706C57.1734 19.1035 56.9846 20.0475 56.6241 20.8199C56.2637 21.5923 55.7831 22.1587 55.1995 22.5363C54.6159 22.9139 53.9809 23.1027 53.3286 23.1027C52.7107 23.1027 52.1271 22.9483 51.595 22.6221C51.0458 22.3132 50.6167 21.8497 50.2734 21.2662C49.9301 20.6826 49.7756 19.9788 49.7756 19.1721C49.7756 18.2109 50.0159 17.1983 50.5137 16.0998C51.0458 14.9154 51.7152 13.7311 52.5047 12.5468C53.2943 11.3624 54.1697 10.1095 55.148 8.78782C55.354 8.51319 55.4913 8.32439 55.5771 8.2214C55.5943 8.20424 55.6114 8.18707 55.6286 8.15274C55.8346 7.86095 55.9719 7.65498 56.0577 7.55199C55.457 7.72364 54.9592 7.94677 54.5473 8.23856C54.1353 8.53035 53.8779 8.90796 53.7406 9.38856C53.7234 9.44005 53.7062 9.50871 53.7062 9.59453C53.6891 9.71468 53.6547 9.8005 53.6376 9.86916C53.6032 9.93781 53.5517 9.95498 53.4831 9.95498C53.4144 9.95498 53.3458 9.92065 53.2428 9.86916C52.6764 9.54304 52.2988 9.11393 52.11 8.58184C52.0241 8.30722 51.9898 8.06693 51.9898 7.82663C51.9898 7.29454 52.1958 6.86544 52.6249 6.57365C53.054 6.28185 53.6204 6.02438 54.3413 5.83558C56.5383 5.252 58.9928 4.7714 61.7391 4.37662C64.4682 3.98185 66.7167 3.79304 68.4846 3.77588C68.9995 3.82737 69.4629 3.94752 69.8234 4.20498ZM55.6973 17.7303C55.6973 16.8035 55.5428 15.6878 55.2167 14.349C54.8562 15.0699 54.5644 15.7565 54.3241 16.4087C54.0838 17.0609 53.9294 17.6789 53.8435 18.2453C53.8092 18.4684 53.7749 18.6744 53.7749 18.8632C53.7749 19.258 53.8435 19.5497 53.998 19.7729C54.1525 19.9788 54.3413 20.099 54.5473 20.099C54.8047 20.099 55.045 19.9445 55.2682 19.6527C55.4913 19.3609 55.6114 18.9318 55.6629 18.3826C55.6973 18.1766 55.6973 17.9535 55.6973 17.7303Z" fill="#D82149"/>
<path d="M73.822 24.8192C73.9078 24.7849 74.0451 24.699 74.234 24.5789C74.3713 24.4931 74.4742 24.4244 74.5601 24.3901C74.6459 24.3558 74.7145 24.3214 74.8004 24.3214C74.972 24.3214 75.0922 24.4759 75.178 24.802C75.2123 24.9393 75.2295 25.0766 75.2295 25.2311C75.2295 25.5401 75.1608 25.849 75.0235 26.1408C74.8862 26.4498 74.6974 26.7931 74.4399 27.2222C74.3541 27.3595 74.2854 27.4625 74.2511 27.5483C73.925 28.0975 73.5131 28.5266 72.981 28.8184C72.4489 29.1102 71.8653 29.2647 71.2302 29.299H71.0414C70.1146 29.299 69.1705 29.0416 68.2265 28.5266C67.2825 28.0117 66.4929 27.2737 65.8407 26.3296C65.1884 25.3856 64.8108 24.3043 64.7078 23.0856C62.8541 22.8625 61.9272 21.9528 61.9272 20.3222C61.9272 18.9662 62.5795 17.1125 63.884 14.761C64.5705 13.5423 65.1541 12.4095 65.669 11.3625C66.184 10.3326 66.6131 9.31994 66.9563 8.32442C67.2996 7.3289 67.4713 6.48786 67.4713 5.76697C67.4713 5.54384 67.4541 5.33787 67.4198 5.16622C67.4026 5.04607 67.334 4.87443 67.2138 4.63413C67.1108 4.41099 67.0593 4.25653 67.0593 4.1707C67.0593 3.99906 67.2138 3.87891 67.5399 3.82742C67.7459 3.79309 67.9519 3.79309 68.1578 3.79309C68.9474 3.79309 69.634 3.99906 70.2347 4.411C71.1959 5.09756 71.6937 5.93861 71.6937 6.93413C71.6937 7.43189 71.5907 7.96398 71.3675 8.5304C71.1444 9.09681 70.8698 9.61173 70.5608 10.1267C70.2519 10.6244 69.8399 11.2423 69.3422 11.9461C68.8101 12.7013 68.4668 13.2505 68.278 13.5767C66.9563 15.8767 66.2698 17.9364 66.2011 19.7729V19.9617C66.2011 20.8543 66.4243 21.7296 66.8534 22.5535C67.2996 23.3774 67.9004 24.064 68.6556 24.5789C69.4452 25.111 70.3377 25.3856 71.3332 25.3856C72.1228 25.3684 72.9638 25.1796 73.822 24.8192ZM82.5929 14.7267C82.7645 14.6237 82.9533 14.5722 83.1421 14.5722C83.3824 14.5722 83.5713 14.6408 83.7429 14.7953C83.9145 14.9498 84.0004 15.1558 84.0004 15.4132C84.0004 15.6535 83.9145 15.9282 83.7429 16.2028C83.2795 17.0095 82.6616 17.6274 81.872 18.0908C81.0825 18.5543 80.2929 18.7774 79.5033 18.7774C79.2459 18.7774 78.9884 18.7602 78.7653 18.7087C78.216 19.5669 77.5638 20.3222 76.8257 20.9916C76.0877 21.661 75.2981 22.1759 74.4742 22.5535C73.6504 22.9311 72.8437 23.1028 72.0541 23.1028C71.2645 23.1028 70.578 22.914 69.9944 22.5535C69.4108 22.1759 68.9646 21.661 68.6384 20.9916C68.3295 20.3222 68.1578 19.5669 68.1578 18.7087C68.1578 17.902 68.2952 17.0781 68.5698 16.2028C68.7929 15.4819 69.1019 14.7953 69.4966 14.1259C69.8914 13.4565 70.3205 12.8558 70.8183 12.3065C71.2989 11.7401 71.7451 11.4655 72.1399 11.4655C72.3802 11.4655 72.569 11.5685 72.7063 11.7744C72.8437 11.9804 72.9123 12.255 72.9123 12.6155C72.9123 12.6841 72.9123 12.7528 72.8951 12.8214C72.981 11.8431 73.3414 11.0192 73.9593 10.3326C74.5772 9.64607 75.4183 9.30278 76.4653 9.30278C77.3578 9.30278 78.1131 9.50875 78.7138 9.90353C79.3145 10.2983 79.7608 10.8304 80.0526 11.4998C80.3444 12.1692 80.4817 12.8901 80.4817 13.6968C80.4817 14.2804 80.413 14.864 80.2586 15.4304C80.1041 16.014 79.8981 16.5461 79.6235 17.061C80.5847 16.8893 81.4429 16.2714 82.1466 15.2073C82.2668 15.0013 82.4213 14.8296 82.5929 14.7267ZM74.5257 18.8976C74.9205 18.6916 75.281 18.4341 75.6414 18.0908C74.8175 17.6446 74.1653 17.0267 73.6847 16.2199C73.2041 15.4132 72.9466 14.5722 72.8951 13.6625C72.6205 13.9886 72.3631 14.3147 72.1571 14.6752C71.9511 15.0356 71.7966 15.3789 71.6937 15.6879C71.5735 16.0826 71.5049 16.4946 71.5049 16.9237C71.5049 17.5587 71.6593 18.0908 71.9511 18.5371C72.2429 18.9834 72.7063 19.1893 73.3414 19.1893C73.7362 19.1893 74.131 19.0864 74.5257 18.8976ZM77.3407 14.5035C77.3407 14.0229 77.2377 13.6796 77.0317 13.4394C76.8257 13.1991 76.5854 13.0789 76.2765 13.0789C75.9504 13.0789 75.6757 13.1991 75.4183 13.4394C75.1608 13.6796 75.0407 13.9714 75.0407 14.3319C75.0407 14.6237 75.1437 14.9326 75.3496 15.2416C75.5556 15.5677 75.8817 15.8767 76.3108 16.2028C76.5339 16.3573 76.6884 16.4431 76.7742 16.4431C76.8429 16.4431 76.8944 16.4087 76.9459 16.3229C76.9802 16.2371 77.0317 16.0998 77.1175 15.8767C77.1347 15.808 77.1519 15.7565 77.169 15.705C77.2892 15.2587 77.3407 14.864 77.3407 14.5035Z" fill="#D82149"/>
<path d="M86.6761 12.6845C86.6761 12.53 86.6246 12.3927 86.5216 12.2726C86.4186 12.1696 86.2985 12.1009 86.1783 12.1009C85.9724 12.1009 85.8007 12.2382 85.6634 12.4957C84.994 13.8345 84.3074 15.0703 83.6037 16.2203C83.3806 16.5808 83.0716 16.7696 82.7112 16.7696C82.4709 16.7696 82.2477 16.6837 82.0589 16.5121C81.8701 16.3405 81.7843 16.1345 81.7843 15.877C81.7843 15.6711 81.853 15.4479 82.0074 15.242C82.4537 14.5554 82.8141 13.8517 83.1231 13.1136C83.4321 12.3755 83.5694 11.6718 83.5694 11.0196C83.5694 10.0755 83.2261 9.32032 82.5567 8.7539C82.4365 8.63375 82.385 8.51361 82.385 8.3763C82.385 8.17033 82.5052 7.96435 82.7455 7.75838C82.9858 7.55241 83.2261 7.4151 83.4492 7.34645C83.7753 7.2263 84.1186 7.1748 84.4619 7.1748C84.8739 7.1748 85.2515 7.26062 85.5947 7.4151C85.938 7.56957 86.2298 7.77555 86.4358 8.03301C86.6418 8.29048 86.7447 8.5651 86.7447 8.87405C86.7447 8.95987 86.7276 9.06286 86.7104 9.16584C87.0365 9.08002 87.3627 9.04569 87.6888 9.04569C88.4612 9.04569 89.1306 9.25166 89.7141 9.68077C90.5895 10.2987 91.0186 11.0539 91.0186 11.9121C91.0186 12.53 90.847 13.1479 90.4865 13.8002C90.1261 14.4352 89.6283 15.2248 88.9589 16.1345C88.4783 16.7696 88.0835 17.3531 87.7918 17.8852C87.5858 18.2457 87.5 18.5546 87.5 18.7949C87.5 18.9494 87.5343 19.0696 87.6201 19.1382C87.7059 19.224 87.8261 19.2584 87.9806 19.2584C88.1694 19.2584 88.3925 19.1897 88.65 19.0696C88.9074 18.9494 89.1649 18.7606 89.4052 18.5375C90.4694 17.4561 91.3619 16.3576 92.0656 15.242C92.1858 15.036 92.3231 14.8815 92.4947 14.7785C92.6664 14.6755 92.8552 14.624 93.044 14.624C93.2843 14.624 93.4731 14.6927 93.6447 14.8472C93.8164 15.0017 93.9022 15.2076 93.9022 15.4479C93.9022 15.6882 93.8164 15.9629 93.6447 16.2375C92.838 17.5591 92.0313 18.7263 91.2074 19.739C90.3835 20.7688 89.5425 21.5755 88.7015 22.1934C87.8604 22.8114 87.0537 23.1203 86.2985 23.1375H86.247C85.3201 23.1375 84.6679 22.9143 84.2388 22.4681C83.8268 22.0218 83.6209 21.421 83.6209 20.683C83.6209 20.2367 83.6895 19.7733 83.8097 19.2927C83.947 18.8121 84.1186 18.3315 84.3246 17.8681L86.5559 13.0449C86.6418 12.9248 86.6761 12.8046 86.6761 12.6845Z" fill="#D82149"/>
<path d="M105.266 14.7783C105.438 14.6753 105.627 14.6238 105.815 14.6238C106.056 14.6238 106.245 14.6924 106.416 14.8469C106.588 15.0014 106.674 15.2073 106.674 15.4476C106.674 15.6879 106.588 15.9626 106.416 16.2372C105.61 17.5588 104.803 18.726 103.979 19.7387C103.155 20.7685 102.314 21.5753 101.473 22.1932C100.632 22.8111 99.8252 23.12 99.07 23.1372H99.0356C98.4521 23.1372 97.8856 22.9656 97.3364 22.6051C96.7871 22.2618 96.3924 21.7297 96.1177 21.026C95.6886 21.7126 95.208 22.2447 94.6931 22.5879C94.1782 22.9312 93.6633 23.12 93.1483 23.12H93.0797C92.2386 23.0857 91.6207 22.8111 91.2088 22.2962C90.7968 21.7812 90.608 21.1118 90.608 20.2536C90.608 19.2581 90.8483 18.1253 91.3289 16.8723C91.8095 15.6193 92.4618 14.4006 93.2685 13.2506C94.0752 12.1006 94.9506 11.1566 95.9118 10.4357C96.8558 9.71483 97.7655 9.35437 98.658 9.35437C99.3618 9.35437 100.048 9.66333 100.752 10.2812C100.958 10.0066 101.25 9.76631 101.627 9.61183C102.005 9.45736 102.365 9.35437 102.76 9.35437C103.224 9.35437 103.601 9.49169 103.91 9.74915C104.219 10.0066 104.374 10.4186 104.374 10.9506C104.374 11.4656 104.202 12.1006 103.859 12.8559C103.515 13.6111 102.966 14.4865 102.211 15.482C101.421 16.529 100.889 17.3357 100.58 17.9193C100.374 18.2797 100.289 18.5887 100.289 18.829C100.289 18.9835 100.323 19.1036 100.409 19.1723C100.495 19.2581 100.615 19.2924 100.752 19.2924C100.958 19.2924 101.181 19.2238 101.439 19.1036C101.696 18.9835 101.936 18.7947 102.194 18.5715C103.241 17.5245 104.133 16.426 104.854 15.276C104.957 15.0529 105.095 14.8812 105.266 14.7783ZM99.6021 12.8902C99.6021 12.6842 99.5677 12.5297 99.4819 12.4268C99.3961 12.3238 99.2759 12.2723 99.1386 12.2723C98.9155 12.2723 98.6409 12.3924 98.3147 12.6156C97.9886 12.8387 97.6625 13.1648 97.3192 13.5939C96.9244 14.0745 96.5983 14.5379 96.3065 15.0185C96.0147 15.4991 95.6715 16.0999 95.2767 16.838C95.2595 16.8723 95.2424 16.9066 95.2424 16.9238C94.8819 17.576 94.7103 18.0909 94.7103 18.4857C94.7103 18.6917 94.7618 18.8633 94.8647 18.9663C94.9677 19.0693 95.105 19.1379 95.2938 19.1379C95.62 19.1379 95.9976 18.9663 96.4438 18.623C96.8901 18.2797 97.2677 17.8163 97.5938 17.2499C97.7483 16.9924 97.9715 16.5977 98.2632 16.0656C98.555 15.5335 98.7782 15.1387 98.9327 14.8812C99.3789 14.023 99.6021 13.3708 99.6021 12.8902Z" fill="#D82149"/>
<path d="M130.175 6.52227C130.175 6.96854 130.072 7.48348 129.883 8.03273C129.694 8.58198 129.436 9.16556 129.11 9.7663C128.784 10.3671 128.441 10.9678 128.063 11.5685C127.686 12.1521 127.188 12.9245 126.587 13.8514C125.986 14.7439 125.506 15.4991 125.111 16.117C124.716 16.7178 124.356 17.3357 124.013 17.9364C123.601 18.6573 123.275 19.3782 123.051 20.082C122.828 20.7857 122.708 21.3864 122.708 21.9014C122.708 22.2618 122.76 22.5708 122.897 22.7939C122.931 22.8626 122.948 22.9312 122.948 22.9827C122.948 23.12 122.845 23.1887 122.622 23.1887C121.816 23.1887 121.146 23.1029 120.631 22.914C120.116 22.7252 119.739 22.4506 119.498 22.0902C119.258 21.7297 119.138 21.3006 119.138 20.7685C119.138 20.3223 119.224 19.8073 119.395 19.2409C119.567 18.6745 119.825 18.0566 120.151 17.37C120.7 16.3402 120.975 15.5506 120.975 15.0185C120.975 14.5036 120.734 14.1432 120.236 13.9544C119.739 13.7656 118.949 13.6797 117.851 13.6797C117.645 13.6797 117.404 13.6797 117.147 13.6969C116.855 14.1088 116.392 14.7439 115.791 15.5678C114.71 17.0267 113.92 18.1253 113.422 18.8633C113.954 19.3611 114.435 19.8588 114.864 20.3394C115.293 20.82 115.654 21.3178 115.945 21.8155C116.495 22.7252 116.769 23.6521 116.769 24.6133C116.769 25.6432 116.443 26.6387 115.774 27.6342C115.122 28.6125 114.126 29.5394 112.787 30.3805C111.895 30.9469 111.019 31.376 110.161 31.6849C109.286 31.9939 108.496 32.1484 107.758 32.1484C107.003 32.1484 106.368 31.9939 105.853 31.6678C104.943 31.0842 104.497 30.1573 104.497 28.8872C104.497 27.9775 104.703 26.9305 105.132 25.7461C105.561 24.5618 106.11 23.326 106.797 22.0387C107.484 20.7514 108.273 19.3782 109.2 17.9193C107.003 16.1342 105.904 14.7611 105.904 13.817C105.904 13.285 106.231 12.873 106.883 12.5812C107.535 12.2894 108.359 12.1006 109.337 11.9976C110.333 11.8947 111.603 11.8088 113.165 11.7573C113.8 10.7618 114.229 9.98943 114.469 9.44018C115.259 7.67227 115.654 6.38496 115.654 5.56109C115.654 5.28646 115.619 5.04616 115.534 4.85736C115.516 4.84019 115.499 4.80586 115.482 4.75437C115.362 4.53123 115.31 4.37675 115.31 4.29093C115.31 4.11929 115.482 3.99914 115.808 3.94765C115.997 3.91332 116.203 3.91333 116.409 3.91333C116.838 3.91333 117.267 3.96482 117.696 4.08497C118.125 4.20512 118.486 4.34243 118.795 4.5484C119.79 5.18347 120.288 6.04168 120.288 7.12302C120.288 7.77526 120.133 8.479 119.807 9.23422C119.498 10.0066 119.052 10.8305 118.469 11.723C119.636 11.7402 120.528 11.9462 121.129 12.3409C121.73 12.7185 122.09 13.2506 122.176 13.92C122.245 13.817 122.348 13.6626 122.485 13.4394C123.275 12.2208 123.91 11.1909 124.407 10.3671C124.905 9.54317 125.317 8.71929 125.66 7.89541C126.004 7.07153 126.175 6.3678 126.175 5.74989C126.175 5.59541 126.158 5.44094 126.141 5.30362C126.124 5.18347 126.055 4.99467 125.935 4.75437C125.832 4.53123 125.781 4.37675 125.781 4.29093C125.781 4.11929 125.935 3.99914 126.261 3.94765C126.467 3.91332 126.69 3.91333 126.879 3.91333C127.669 3.91333 128.355 4.1193 128.939 4.53124C129.763 4.92601 130.175 5.61257 130.175 6.52227ZM110.024 14.8126C109.766 14.9327 109.629 15.0872 109.629 15.2588C109.629 15.379 109.681 15.5163 109.801 15.6536C109.904 15.7909 110.075 15.9626 110.298 16.1685C110.419 15.9969 110.573 15.7223 110.813 15.379C111.071 14.9842 111.26 14.6924 111.38 14.5036C110.745 14.5894 110.298 14.6924 110.024 14.8126ZM112.358 20.4596C111.723 21.5238 111.242 22.4163 110.916 23.1715C110.47 24.1842 110.247 25.1111 110.247 25.9693C110.247 26.6387 110.384 27.1708 110.659 27.5827C110.934 27.9946 111.294 28.1834 111.775 28.1834C111.981 28.1834 112.186 28.1491 112.41 28.0633C112.787 27.926 113.148 27.6857 113.525 27.3081C113.886 26.9476 114.195 26.5185 114.418 26.0036C114.641 25.5058 114.761 24.9738 114.761 24.4417C114.761 23.8409 114.607 23.2917 114.315 22.7596C113.783 21.9529 113.131 21.1805 112.358 20.4596Z" fill="#F4567F"/>
<path d="M140.523 14.7783C140.694 14.6753 140.883 14.6238 141.072 14.6238C141.312 14.6238 141.501 14.6924 141.673 14.8469C141.844 15.0014 141.93 15.2074 141.93 15.4648C141.93 15.7051 141.844 15.9626 141.673 16.2544C140.986 17.37 140.334 18.3312 139.716 19.1379C137.673 21.8327 135.185 23.1715 132.25 23.1715C131.305 23.1715 130.482 22.9312 129.761 22.4678C129.04 22.0044 128.473 21.3865 128.096 20.6141C127.701 19.8417 127.512 19.0006 127.512 18.0909C127.512 17.6103 127.564 17.1469 127.684 16.6663C127.976 15.4477 128.559 14.2805 129.417 13.1477C130.276 12.0148 131.305 11.1051 132.473 10.4014C133.657 9.69766 134.841 9.35437 136.026 9.35437C136.987 9.35437 137.725 9.5775 138.205 10.0409C138.686 10.5044 138.944 11.1051 138.944 11.8432C138.944 12.6499 138.669 13.5253 138.137 14.4521C137.588 15.379 136.832 16.2029 135.871 16.9581C134.91 17.6962 133.794 18.2282 132.576 18.52C133.125 18.9148 133.811 19.1208 134.601 19.1208C135.373 19.1208 136.146 18.9148 136.918 18.52C137.708 18.1253 138.411 17.5245 139.029 16.735C139.476 16.1685 139.819 15.6879 140.076 15.2588C140.197 15.0529 140.351 14.8812 140.523 14.7783ZM133.76 16.3745C134.309 15.9454 134.721 15.482 134.996 15.0014C135.253 14.5208 135.391 14.0745 135.391 13.6626C135.391 13.3536 135.322 13.1133 135.185 12.9245C135.047 12.7357 134.841 12.6499 134.584 12.6499C134.103 12.6499 133.52 12.976 132.833 13.6454C132.009 14.6924 131.597 15.688 131.597 16.6148C131.597 16.8894 131.632 17.1641 131.717 17.4044C132.524 17.1641 133.211 16.8208 133.76 16.3745Z" fill="#F4567F"/>
<path d="M153.226 14.7783C153.398 14.6753 153.587 14.6238 153.776 14.6238C154.016 14.6238 154.205 14.6924 154.376 14.8469C154.548 15.0014 154.634 15.2073 154.634 15.4476C154.634 15.6879 154.548 15.9626 154.376 16.2372C153.57 17.5588 152.763 18.726 151.939 19.7387C151.115 20.7685 150.274 21.5753 149.433 22.1932C148.592 22.8111 147.785 23.12 147.03 23.1372H146.996C146.412 23.1372 145.846 22.9656 145.297 22.6051C144.747 22.2618 144.353 21.7297 144.078 21.026C143.649 21.7126 143.168 22.2447 142.653 22.5879C142.138 22.9312 141.623 23.12 141.109 23.12H141.04C140.199 23.0857 139.581 22.8111 139.169 22.2962C138.757 21.7812 138.568 21.1118 138.568 20.2536C138.568 19.2581 138.809 18.1253 139.289 16.8723C139.77 15.6193 140.422 14.4006 141.229 13.2506C142.035 12.1006 142.911 11.1566 143.872 10.4357C144.816 9.71483 145.726 9.35437 146.618 9.35437C147.322 9.35437 148.009 9.66333 148.712 10.2812C148.918 10.0066 149.21 9.76631 149.588 9.61183C149.965 9.45736 150.326 9.35437 150.72 9.35437C151.184 9.35437 151.562 9.49169 151.87 9.74915C152.179 10.0066 152.334 10.4186 152.334 10.9506C152.334 11.4656 152.162 12.1006 151.819 12.8559C151.476 13.6111 150.926 14.4865 150.171 15.482C149.382 16.529 148.85 17.3357 148.541 17.9193C148.335 18.2797 148.249 18.5887 148.249 18.829C148.249 18.9835 148.283 19.1036 148.369 19.1723C148.455 19.2581 148.575 19.2924 148.712 19.2924C148.918 19.2924 149.141 19.2238 149.399 19.1036C149.656 18.9835 149.897 18.7947 150.154 18.5715C151.201 17.5245 152.094 16.426 152.814 15.276C152.917 15.0529 153.055 14.8812 153.226 14.7783ZM147.562 12.8902C147.562 12.6842 147.528 12.5297 147.442 12.4268C147.356 12.3238 147.236 12.2723 147.099 12.2723C146.876 12.2723 146.601 12.3924 146.275 12.6156C145.949 12.8387 145.623 13.1648 145.279 13.5939C144.885 14.0745 144.559 14.5379 144.267 15.0185C143.975 15.4991 143.632 16.0999 143.237 16.838C143.22 16.8723 143.203 16.9066 143.203 16.9238C142.842 17.576 142.67 18.0909 142.67 18.4857C142.67 18.6917 142.722 18.8633 142.825 18.9663C142.928 19.0693 143.065 19.1379 143.254 19.1379C143.58 19.1379 143.958 18.9663 144.404 18.623C144.85 18.2797 145.228 17.8163 145.554 17.2499C145.709 16.9924 145.932 16.5977 146.223 16.0656C146.515 15.5335 146.738 15.1387 146.893 14.8812C147.339 14.023 147.562 13.3708 147.562 12.8902Z" fill="#F4567F"/>
<path d="M157.308 12.6845C157.308 12.53 157.256 12.3927 157.153 12.2726C157.05 12.1696 156.93 12.1009 156.81 12.1009C156.604 12.1009 156.432 12.2382 156.295 12.4957C155.626 13.8345 154.939 15.0703 154.235 16.2203C154.012 16.5808 153.703 16.7696 153.343 16.7696C153.102 16.7696 152.879 16.6837 152.691 16.5121C152.502 16.3405 152.416 16.1345 152.416 15.877C152.416 15.6711 152.485 15.4479 152.639 15.242C153.085 14.5554 153.446 13.8517 153.755 13.1136C154.064 12.3755 154.201 11.6718 154.201 11.0196C154.201 10.0755 153.858 9.32032 153.188 8.7539C153.068 8.63375 153.017 8.51361 153.017 8.3763C153.017 8.17033 153.137 7.96435 153.377 7.75838C153.617 7.55241 153.858 7.4151 154.081 7.34645C154.407 7.2263 154.75 7.1748 155.094 7.1748C155.505 7.1748 155.883 7.26062 156.226 7.4151C156.57 7.56957 156.861 7.77555 157.067 8.03301C157.273 8.29048 157.376 8.5651 157.376 8.87405C157.376 8.95987 157.359 9.06286 157.342 9.16584C157.668 9.08002 157.994 9.04569 158.32 9.04569C159.093 9.04569 159.762 9.25166 160.346 9.68077C161.221 10.2987 161.65 11.0539 161.65 11.9121C161.65 12.53 161.479 13.1479 161.118 13.8002C160.758 14.4352 160.26 15.2248 159.591 16.1345C159.11 16.7696 158.715 17.3531 158.423 17.8852C158.217 18.2457 158.132 18.5546 158.132 18.7949C158.132 18.9494 158.166 19.0696 158.252 19.1382C158.338 19.224 158.458 19.2584 158.612 19.2584C158.801 19.2584 159.024 19.1897 159.282 19.0696C159.539 18.9494 159.796 18.7606 160.037 18.5375C161.101 17.4561 161.993 16.3576 162.697 15.242C162.817 15.036 162.955 14.8815 163.126 14.7785C163.298 14.6755 163.487 14.624 163.676 14.624C163.916 14.624 164.105 14.6927 164.276 14.8472C164.448 15.0017 164.534 15.2076 164.534 15.4479C164.534 15.6882 164.448 15.9629 164.276 16.2375C163.47 17.5591 162.663 18.7263 161.839 19.739C161.015 20.7688 160.174 21.5755 159.333 22.1934C158.492 22.8114 157.685 23.1203 156.93 23.1375H156.879C155.952 23.1375 155.299 22.9143 154.87 22.4681C154.458 22.0218 154.252 21.421 154.252 20.683C154.252 20.2367 154.321 19.7733 154.441 19.2927C154.579 18.8121 154.75 18.3315 154.956 17.8681L157.188 13.0449C157.273 12.9248 157.308 12.8046 157.308 12.6845Z" fill="#F4567F"/>
<path d="M172.019 14.7434C172.191 14.6404 172.379 14.5889 172.568 14.5889C172.808 14.5889 173.014 14.6747 173.186 14.8292C173.358 14.9837 173.444 15.1896 173.444 15.4471C173.444 15.6874 173.358 15.9449 173.186 16.2367C172.86 16.7688 172.517 17.3008 172.139 17.8501C171.075 19.412 169.839 20.6822 168.449 21.6605C167.058 22.6561 165.565 23.1367 164.003 23.1367C163.059 23.1367 162.373 22.8792 161.944 22.3643C161.514 21.8493 161.308 21.1456 161.308 20.2702C161.308 19.6523 161.394 18.9829 161.583 18.2449C161.772 17.5068 161.995 16.7687 162.27 16.0478C162.544 15.327 162.836 14.6576 163.145 14.0568C163.454 13.4561 163.729 12.9755 163.969 12.5979C164.209 12.2374 164.398 11.9456 164.518 11.7568C164.072 11.9113 163.711 12.0486 163.454 12.1859C163.317 12.2374 163.197 12.2546 163.111 12.2546C162.956 12.2546 162.87 12.1687 162.87 12.0143C162.87 11.877 162.939 11.671 163.094 11.4135C163.334 11.0187 163.677 10.6926 164.158 10.418C164.638 10.1434 165.205 9.93741 165.874 9.76577C166.406 8.94189 166.835 8.221 167.127 7.60309C167.436 6.98518 167.573 6.45309 167.573 6.02398C167.573 5.83518 167.539 5.66354 167.47 5.50906C167.436 5.4404 167.419 5.37174 167.419 5.32025C167.419 5.16577 167.522 5.07996 167.728 5.07996H167.797C168.294 5.11428 168.809 5.37174 169.341 5.83517C170.234 6.64189 170.697 7.5001 170.697 8.4098C170.697 8.71875 170.646 9.02771 170.543 9.35383C171.418 9.54263 171.847 10.1262 171.847 11.0874V11.1732C171.847 11.4135 171.796 11.7053 171.727 12.0658C171.658 12.4262 171.555 12.6665 171.452 12.821C171.384 12.9068 171.332 12.9411 171.264 12.9411C171.195 12.9411 171.144 12.8896 171.092 12.7867C170.92 12.1516 170.354 11.7053 169.393 11.465C169.032 11.9456 168.741 12.3061 168.517 12.5807C167.539 13.7994 166.835 14.8464 166.406 15.7217C165.977 16.5971 165.771 17.3523 165.771 17.9531C165.771 18.3822 165.874 18.7083 166.08 18.9486C166.286 19.1717 166.578 19.2919 166.921 19.2919C167.367 19.2919 167.882 19.1031 168.466 18.7255C169.049 18.3479 169.616 17.7986 170.165 17.0949C170.2 17.0434 170.251 16.9747 170.337 16.8889C170.903 16.1508 171.315 15.5844 171.573 15.2068C171.71 15.018 171.847 14.8635 172.019 14.7434Z" fill="#F4567F"/>
</svg>
