<svg width="14" height="16" viewBox="0 0 14 16" fill="none" xmlns="http://www.w3.org/2000/svg">
<path fill-rule="evenodd" clip-rule="evenodd" d="M9.72053 0.219215C9.86114 0.0788411 10.0517 0 10.2504 0C10.4491 0 10.6397 0.0788411 10.7803 0.219215L12.8968 2.33572L12.902 2.34021L12.9065 2.34546L13.4315 2.87047C13.5682 3.01182 13.644 3.20122 13.6424 3.39787C13.6408 3.59452 13.5621 3.78269 13.4231 3.92184C13.2842 4.061 13.0961 4.14001 12.8995 4.14186C12.7028 4.1437 12.5133 4.06824 12.3718 3.93172L11.3105 4.99221L12.6365 6.31822C12.7731 6.45967 12.8487 6.64912 12.847 6.84577C12.8453 7.04241 12.7664 7.23052 12.6274 7.36958C12.4883 7.50864 12.3002 7.58751 12.1036 7.58922C11.9069 7.59093 11.7175 7.51533 11.576 7.37871L11.0458 6.84846L6.80303 11.0912C6.59409 11.3002 6.34604 11.466 6.07303 11.5791C5.80002 11.6921 5.50741 11.7504 5.2119 11.7504C4.9164 11.7504 4.62378 11.6921 4.35078 11.5791C4.07777 11.466 3.82971 11.3002 3.62078 11.0912L1.28078 13.432C1.14015 13.5727 0.94937 13.6518 0.750417 13.6519C0.551464 13.6519 0.360633 13.573 0.219902 13.4323C0.0791715 13.2917 7.03752e-05 13.1009 4.69362e-08 12.902C-7.02813e-05 12.703 0.0788958 12.5122 0.219527 12.3715L2.56028 10.03C2.13847 9.60803 1.90151 9.03583 1.90151 8.43921C1.90151 7.8426 2.13847 7.2704 2.56028 6.84846L6.80303 2.60572L6.27278 2.07547C6.13616 1.93401 6.06056 1.74456 6.06227 1.54791C6.06398 1.35127 6.14286 1.16316 6.28191 1.0241C6.42097 0.885045 6.60908 0.806168 6.80573 0.80446C7.00237 0.802751 7.19182 0.878347 7.33328 1.01497L8.65928 2.34021L9.71978 1.27972C9.57917 1.13907 9.50019 0.948338 9.50019 0.749465C9.50019 0.550592 9.57917 0.359861 9.71978 0.219215M11.3098 2.87122L10.25 3.93096L9.71978 3.40071L10.7803 2.34021L11.3098 2.87122ZM4.68128 7.90896L4.15103 7.37871L5.21153 6.31822L5.74178 6.84846C5.8784 6.98992 5.95399 7.17937 5.95228 7.37602C5.95057 7.57266 5.8717 7.76077 5.73264 7.89983C5.59359 8.03889 5.40548 8.11776 5.20883 8.11947C5.01218 8.12118 4.82273 8.04558 4.68128 7.90896ZM6.27128 6.31822L5.74178 5.78797L6.80303 4.72746L7.33328 5.25771C7.40491 5.3269 7.46205 5.40966 7.50135 5.50116C7.54066 5.59266 7.56135 5.69108 7.56221 5.79066C7.56308 5.89025 7.5441 5.98901 7.50639 6.08118C7.46868 6.17335 7.41299 6.25709 7.34257 6.32751C7.27215 6.39793 7.18841 6.45362 7.09624 6.49133C7.00407 6.52904 6.90531 6.54802 6.80573 6.54715C6.70614 6.54629 6.60773 6.5256 6.51622 6.48629C6.42472 6.44698 6.34196 6.38985 6.27278 6.31822" fill="black"/>
</svg>
