<svg width="18" height="18" viewBox="0 0 18 18" fill="none" xmlns="http://www.w3.org/2000/svg">
<g clip-path="url(#clip0_226_1009)">
<path d="M8.06248 0C8.16092 0.0328125 8.26404 0.05625 8.36248 0.09375C9.00936 0.328125 9.38436 0.942188 9.31873 1.66406C9.30936 1.7625 9.33748 1.80938 9.40311 1.88438C9.49686 1.99688 9.59061 2.14688 9.60467 2.29219C9.62811 2.53125 9.59061 2.77969 9.58123 3.05156C10.2281 3.41719 10.7625 3.94687 11.114 4.65C11.4703 5.35312 11.489 6.1125 11.4609 6.89062C11.8125 6.88125 12.1078 6.96094 12.3281 7.22344C12.4734 7.39688 12.5437 7.59844 12.539 7.82344C12.5297 8.35781 12.2203 8.625 11.4469 8.74688C11.3812 9.23906 11.2406 9.7125 10.9875 10.1484C10.5234 10.9453 9.85779 11.4937 8.98592 11.7984C8.90623 11.8266 8.81717 11.8359 8.82186 11.9625C8.82654 12.0656 8.85467 12.1125 8.96248 12.1406C10.1344 12.45 10.9922 13.1531 11.5312 14.2359C11.7984 14.775 11.9203 15.3516 11.9203 15.9516C11.925 16.5141 11.9203 17.0766 11.9203 17.6391C11.9203 17.9203 11.8359 18.0047 11.5547 18.0047C9.07029 18.0047 6.58592 18.0047 4.10155 18.0047C3.81561 18.0047 3.73592 17.925 3.73592 17.6437C3.73592 17.0766 3.73123 16.5047 3.73592 15.9375C3.74529 14.1234 4.93123 12.6 6.68904 12.1406C6.77811 12.1172 6.83905 12.1031 6.83436 11.9906C6.83436 11.8828 6.79217 11.85 6.69842 11.8078C6.33279 11.6297 5.96717 11.4422 5.61561 11.2406C5.43748 11.1375 5.40936 10.9688 5.50311 10.8422C5.60623 10.7016 5.75154 10.6969 5.93436 10.8281C7.85623 12.2437 10.4906 11.1984 10.889 8.84531C10.964 8.4 10.9265 7.93594 10.9359 7.47656C10.9359 7.43906 10.8703 7.36875 10.8281 7.35938C9.88592 7.20937 9.13592 6.7125 8.47029 6.05625C8.25936 5.84531 8.03436 5.64844 7.79998 5.42813C6.96561 6.3375 6.07029 7.20937 4.72967 7.36875C4.72498 8.18437 4.64998 8.98594 5.04373 9.72656C5.08592 9.81094 5.13748 9.89062 5.17498 9.975C5.24998 10.125 5.20779 10.2656 5.08123 10.3406C4.94998 10.4156 4.80936 10.3781 4.72029 10.2328C4.49998 9.88125 4.35467 9.50156 4.27029 9.09375C4.24686 8.97656 4.22811 8.85469 4.20467 8.7375C3.46404 8.65312 3.10311 8.33906 3.11248 7.79531C3.12186 7.26094 3.49686 6.93281 4.1953 6.88125C4.1953 6.67031 4.19998 6.45469 4.1953 6.24375C4.18592 5.81719 4.25155 5.40469 4.39686 5.00156C4.69686 4.18125 5.23592 3.5625 5.97654 3.11719C6.07967 3.05625 6.09842 3 6.07967 2.88281C6.04686 2.69531 6.04217 2.49844 6.04217 2.30625C6.04217 2.12812 6.12186 1.98281 6.26248 1.86562C6.30467 1.82812 6.34217 1.75313 6.34217 1.69688C6.30936 0.778125 6.67498 0.267187 7.55623 0.0234375C7.56561 0.01875 7.57498 0.009375 7.57967 0C7.73436 0 7.89842 0 8.06248 0ZM11.3906 17.4656C11.3906 16.9078 11.4047 16.3687 11.3859 15.8344C11.3344 14.3812 10.4062 13.1531 9.04217 12.7125C8.97186 12.6891 8.90154 12.675 8.83123 12.6516C8.68123 13.2984 8.34842 13.6125 7.82342 13.6172C7.29842 13.6172 6.95154 13.2938 6.80623 12.6609C6.76873 12.6703 6.72654 12.675 6.68904 12.6844C5.49373 13.0641 4.70623 13.8562 4.36873 15.0609C4.14842 15.8391 4.27967 16.6453 4.26092 17.4375C4.26092 17.4469 4.27498 17.4562 4.27967 17.4609C4.65936 17.4609 5.03904 17.4609 5.42342 17.4609C5.42342 16.9641 5.42342 16.4766 5.42342 15.9891C5.42342 15.75 5.51248 15.6281 5.68123 15.6234C5.85467 15.6187 5.94842 15.7453 5.94842 15.9797C5.94842 16.4203 5.94842 16.8563 5.94842 17.2969C5.94842 17.3531 5.94842 17.4094 5.94842 17.4562C7.20936 17.4562 8.44217 17.4562 9.68904 17.4562C9.68904 17.3859 9.68904 17.325 9.68904 17.2687C9.68904 16.8281 9.68904 16.3922 9.68904 15.9516C9.68904 15.7453 9.78748 15.6234 9.95154 15.6234C10.1156 15.6187 10.214 15.7406 10.214 15.9469C10.2187 16.1156 10.214 16.2844 10.214 16.4578C10.214 16.7906 10.214 17.1234 10.214 17.4656C10.6125 17.4656 10.9922 17.4656 11.3906 17.4656ZM4.73436 6.82969C4.79998 6.82031 4.85623 6.81094 4.91248 6.79688C5.44217 6.68437 5.92498 6.45469 6.32811 6.09844C6.72186 5.75156 7.09217 5.37187 7.46717 5.00156C7.74373 4.725 7.91248 4.72031 8.18436 5.01094C8.29686 5.12813 8.40936 5.25 8.52186 5.36719C8.93436 5.79375 9.35623 6.20625 9.89061 6.4875C10.214 6.65625 10.5469 6.78281 10.9359 6.82969C10.9359 6.60469 10.9406 6.39375 10.9359 6.18281C10.9078 4.98281 10.3406 4.10625 9.31404 3.51094C9.27654 3.4875 9.22967 3.45938 9.18748 3.45938C8.62498 3.46406 8.06248 3.47813 7.50467 3.4875C7.20467 3.49219 6.90467 3.50625 6.60936 3.47812C6.46405 3.46406 6.35154 3.49219 6.23436 3.56719C5.02498 4.32188 4.58436 5.42812 4.73436 6.82969ZM6.88123 1.75781C7.46248 1.75781 8.03436 1.75781 8.60623 1.75781C8.65779 1.75781 8.70936 1.75781 8.75623 1.75781C8.86873 1.37812 8.7328 0.951563 8.44217 0.73125C8.12342 0.4875 7.64998 0.459375 7.29842 0.660938C6.95154 0.867188 6.80155 1.24688 6.88123 1.75781ZM6.53904 2.2875C6.56248 2.48438 6.56717 2.66719 6.60467 2.84062C6.61404 2.8875 6.70311 2.95781 6.75467 2.95781C7.46717 2.96719 8.17967 2.9625 8.89217 2.95781C8.93904 2.95781 9.01873 2.92031 9.02811 2.8875C9.06092 2.69062 9.07967 2.49375 9.10311 2.2875C8.23123 2.2875 7.40623 2.2875 6.53904 2.2875ZM8.28748 11.9766C7.96873 11.9766 7.66873 11.9766 7.35467 11.9766C7.35467 12.1969 7.34998 12.4125 7.35467 12.6234C7.35936 12.8812 7.54686 13.0688 7.79061 13.0828C8.05311 13.0969 8.25936 12.9328 8.28279 12.6656C8.30154 12.4406 8.28748 12.2156 8.28748 11.9766ZM4.18123 7.42969C3.97498 7.39687 3.80623 7.42969 3.69373 7.60781C3.60467 7.75313 3.60936 7.89844 3.7078 8.03437C3.82498 8.19844 3.98904 8.22188 4.18123 8.18438C4.18123 7.93125 4.18123 7.6875 4.18123 7.42969ZM11.4703 8.18438C11.6719 8.21719 11.8406 8.18906 11.9484 8.01094C12.0328 7.87031 12.0328 7.72031 11.9344 7.58438C11.8219 7.425 11.6578 7.39219 11.4703 7.42969C11.4703 7.6875 11.4703 7.93125 11.4703 8.18438Z" fill="#7C7C7C" stroke="#7C7C7C" stroke-width="0.25"/>
<path d="M14.4938 9.76566e-05C14.836 0.18291 14.8922 0.37041 14.7047 0.70791C13.6266 2.65791 14.9907 5.03916 17.2172 5.09541C17.4188 5.1001 17.5735 5.16104 17.6532 5.35322C17.7375 5.5501 17.6532 5.70478 17.5125 5.84072C16.4719 6.83916 15.2532 7.17197 13.8938 6.69385C12.5391 6.22041 11.761 5.22197 11.5688 3.7876C11.4891 3.19229 11.5875 2.62041 11.8172 2.07197C11.9063 1.86104 12.0329 1.79072 12.1922 1.85635C12.3516 1.92197 12.3891 2.06729 12.3047 2.27354C11.6016 4.02666 12.5907 5.91572 14.4329 6.30478C15.3375 6.49697 16.1625 6.27666 16.8891 5.7001C16.9032 5.69072 16.9172 5.67666 16.9266 5.6626C16.936 5.65322 16.936 5.64385 16.9547 5.61103C15.7688 5.45635 14.8454 4.88916 14.2547 3.84854C13.6641 2.80322 13.6594 1.72041 14.1469 0.604785C13.7766 0.70791 13.4766 0.881348 13.2 1.09229C13.1297 1.14385 13.0641 1.20479 12.9985 1.26104C12.8485 1.3876 12.7032 1.39229 12.5954 1.2751C12.4875 1.15322 12.5016 1.00791 12.6422 0.87666C13.0641 0.48291 13.5563 0.206348 14.1141 0.0563477C14.1797 0.0375977 14.2454 0.0141602 14.311 -0.00927734C14.3766 9.76566e-05 14.4375 9.76566e-05 14.4938 9.76566e-05Z" fill="#7C7C7C" stroke="#7C7C7C" stroke-width="0.25"/>
<path d="M16.6031 4.88288e-05C16.8375 0.112549 16.9078 0.342236 17.0016 0.553174C17.0578 0.679736 17.1328 0.731299 17.2641 0.740674C17.3766 0.745361 17.4844 0.768799 17.5922 0.787549C17.7563 0.815674 17.8781 0.900049 17.925 1.05942C17.9766 1.22349 17.9344 1.37349 17.8078 1.49067C17.7188 1.57505 17.6344 1.66411 17.5406 1.7438C17.461 1.80942 17.4328 1.87974 17.4563 1.98755C17.4891 2.1188 17.5078 2.25005 17.5172 2.38599C17.5453 2.72817 17.2219 2.96724 16.9406 2.78442C16.5985 2.56411 16.3172 2.56411 15.9703 2.77974C15.6891 2.95786 15.3656 2.70005 15.4031 2.36255C15.4125 2.28755 15.4172 2.20786 15.4453 2.13755C15.5391 1.90317 15.4547 1.7438 15.2719 1.59849C15.0938 1.45786 14.9391 1.28911 15.0281 1.02661C15.1172 0.773486 15.3469 0.750049 15.5625 0.740674C15.8016 0.731299 15.9328 0.628174 16.0313 0.412549C16.1016 0.257861 16.2422 0.131299 16.35 -0.00463867C16.4391 4.88288e-05 16.5235 4.88288e-05 16.6031 4.88288e-05ZM16.4813 0.698486C16.3641 1.09692 16.1016 1.27036 15.6985 1.24692C15.8203 1.40161 15.961 1.52349 16.0078 1.6688C16.0594 1.8188 16.0172 2.00161 16.0172 2.1563C16.1625 2.10942 16.3219 2.01099 16.4766 2.01099C16.6313 2.01099 16.786 2.11411 16.9735 2.18442C16.8188 1.80005 16.936 1.50474 17.2641 1.26567C16.8469 1.28442 16.6031 1.08755 16.4813 0.698486Z" fill="#7C7C7C" stroke="#7C7C7C" stroke-width="0.25"/>
<path d="M3.88582 12.2625C3.82488 12.3703 3.77801 12.4922 3.69363 12.5813C3.54832 12.7406 3.37957 12.8813 3.22957 13.036C3.18738 13.0781 3.16395 13.1578 3.16863 13.2141C3.19207 13.4156 3.22488 13.6219 3.26238 13.8188C3.29988 14.0203 3.26238 14.1938 3.09363 14.3203C2.92488 14.4469 2.74676 14.4375 2.56395 14.3391C2.38582 14.2406 2.2077 14.1375 2.0202 14.0531C1.95926 14.025 1.86082 14.025 1.79988 14.0485C1.6077 14.1328 1.42488 14.236 1.23738 14.3344C1.05926 14.4281 0.88582 14.4281 0.726445 14.3063C0.56707 14.1844 0.515508 14.0203 0.557695 13.8235C0.599883 13.6266 0.64207 13.4344 0.66082 13.2375C0.670195 13.1578 0.637383 13.0547 0.58582 12.9938C0.45457 12.8438 0.30457 12.7031 0.15457 12.5625C0.0139452 12.4266 -0.0329298 12.2625 0.0186327 12.0797C0.0748827 11.8969 0.206133 11.7891 0.403008 11.761C0.618633 11.7328 0.834258 11.7094 1.0452 11.6672C1.11082 11.6531 1.19051 11.6016 1.22801 11.5406C1.33582 11.3578 1.42488 11.1656 1.51395 10.9781C1.60301 10.7953 1.74363 10.6969 1.9452 10.7016C2.13738 10.7063 2.27332 10.8094 2.3577 10.9828C2.45145 11.1797 2.54051 11.3766 2.64363 11.5641C2.67176 11.6156 2.73738 11.6625 2.79363 11.6766C3.00457 11.7188 3.2202 11.7469 3.43582 11.7797C3.69832 11.8266 3.8577 12.0047 3.88582 12.2625ZM1.10145 13.8235C1.29832 13.725 1.47176 13.6406 1.63582 13.5469C1.82801 13.4391 2.01082 13.4391 2.19832 13.5516C2.36238 13.6453 2.53113 13.7297 2.72801 13.8328C2.6952 13.6266 2.68113 13.4578 2.63895 13.2985C2.56863 13.0313 2.65301 12.8344 2.85457 12.661C2.98582 12.5531 3.09832 12.4266 3.24363 12.286C3.01395 12.2531 2.82645 12.2203 2.64363 12.1969C2.4327 12.1688 2.28738 12.0703 2.19832 11.8735C2.11863 11.6953 2.02488 11.5172 1.93113 11.3203C1.8327 11.5172 1.73895 11.6906 1.65926 11.8641C1.5702 12.0469 1.43895 12.1594 1.2327 12.1828C1.03582 12.2063 0.843633 12.2391 0.599883 12.2719C0.768633 12.436 0.909258 12.5766 1.05457 12.7125C1.19051 12.8438 1.24676 12.9985 1.21395 13.1906C1.17176 13.3828 1.13895 13.5891 1.10145 13.8235Z" fill="#7C7C7C" stroke="#7C7C7C" stroke-width="0.25"/>
<path d="M6.44518 9.38916C6.07955 9.38448 5.77018 9.25323 5.51237 8.99541C5.38112 8.85948 5.37643 8.7001 5.48893 8.59229C5.60143 8.47979 5.73737 8.48916 5.87799 8.62041C6.23893 8.94854 6.60455 8.95323 6.97487 8.63916C7.11549 8.52198 7.25612 8.51729 7.36393 8.6251C7.47174 8.7376 7.45768 8.89698 7.32643 9.02823C7.08268 9.2626 6.78268 9.38448 6.44518 9.38916Z" fill="#7C7C7C" stroke="#7C7C7C" stroke-width="0.25"/>
<path d="M9.22971 9.38912C8.87346 9.37975 8.56409 9.2485 8.31565 8.986C8.18909 8.85006 8.17971 8.70944 8.28753 8.59694C8.40003 8.47975 8.54534 8.48444 8.68596 8.61569C9.03753 8.93912 9.41253 8.9485 9.78284 8.63444C9.92346 8.51725 10.0641 8.51256 10.1719 8.62037C10.2844 8.73287 10.2703 8.88756 10.1391 9.01881C9.88596 9.26725 9.58128 9.38444 9.22971 9.38912Z" fill="#7C7C7C" stroke="#7C7C7C" stroke-width="0.25"/>
<path d="M7.80928 9.87183C7.96397 9.9187 8.09522 9.94683 8.21709 9.9937C8.37647 10.0546 8.53584 10.1296 8.69053 10.1953C8.8124 10.2468 8.87803 10.3406 8.85928 10.4718C8.84053 10.6031 8.76084 10.7062 8.62959 10.6921C8.46553 10.6781 8.28272 10.6546 8.15147 10.5656C7.91709 10.4062 7.73428 10.3968 7.4999 10.5609C7.37803 10.65 7.1999 10.6734 7.04053 10.6921C6.89522 10.7062 6.79678 10.6125 6.7874 10.4578C6.77803 10.3078 6.85303 10.2234 6.99834 10.1812C7.12022 10.1437 7.23272 10.0828 7.3499 10.0359C7.50928 9.97964 7.66397 9.92339 7.80928 9.87183Z" fill="#7C7C7C" stroke="#7C7C7C" stroke-width="0.25"/>
<path d="M9.08892 7.7251C9.28579 7.7251 9.43579 7.8751 9.43579 8.06729C9.43579 8.25947 9.28579 8.41416 9.0936 8.41885C8.89673 8.42354 8.73267 8.25947 8.73267 8.0626C8.74204 7.8751 8.89673 7.7251 9.08892 7.7251Z" fill="#7C7C7C" stroke="#7C7C7C" stroke-width="0.25"/>
<path d="M6.91397 8.0626C6.91865 8.25479 6.77334 8.40947 6.58115 8.41885C6.38428 8.42822 6.22021 8.26885 6.22021 8.07197C6.22021 7.87978 6.37021 7.72979 6.5624 7.7251C6.75928 7.7251 6.90928 7.87041 6.91397 8.0626Z" fill="#7C7C7C" stroke="#7C7C7C" stroke-width="0.25"/>
</g>
<defs>
<clipPath id="clip0_226_1009">
<rect width="17.9484" height="18" fill="white"/>
</clipPath>
</defs>
</svg>
