<svg width="19" height="18" viewBox="0 0 19 18" fill="none" xmlns="http://www.w3.org/2000/svg">
<g clip-path="url(#clip0_226_1098)">
<path d="M11.7878 17.9191C11.6161 17.8585 11.4242 17.8181 11.2626 17.7271C10.0807 17.0908 8.89892 16.4443 7.7171 15.7877C7.52518 15.6766 7.33326 15.5049 7.21205 15.3231C6.84841 14.7978 6.52518 14.2423 6.19185 13.7069C5.90902 13.2524 5.84841 12.7776 6.04033 12.2625C6.10094 12.111 6.07064 11.8686 5.97973 11.7271C5.6969 11.2322 5.6666 10.7574 5.89892 10.2322C5.96963 10.0706 5.96963 9.83825 5.90902 9.67664C5.76761 9.2827 5.79791 8.92916 6.01003 8.56553C6.40397 7.91906 6.76761 7.25239 7.15144 6.60593C7.38377 6.21199 7.707 5.95947 8.18175 5.99987C8.49488 6.03017 8.6666 5.89886 8.7575 5.63623C9.02013 4.90896 9.55548 4.70694 10.2727 4.77765C10.909 4.83825 11.5454 4.84835 12.1817 4.90896C12.3737 4.92916 12.6666 5.05037 12.6969 5.17159C12.7474 5.38371 12.6969 5.75745 12.5555 5.84835C12.1817 6.10088 11.7373 6.3029 11.303 6.39381C10.4848 6.56553 10.5252 6.54532 10.2626 7.313C10.0403 7.96957 10.202 8.37361 10.7373 8.80795C11.5151 9.43421 12.2424 10.111 13.1918 10.4544C13.5454 10.5857 13.9393 10.6867 14.3131 10.6968C15.1009 10.717 15.4141 10.3938 15.5555 9.60593C15.6868 8.84835 15.7171 8.13118 15.3636 7.40391C15.1716 7.00997 15.1211 6.52512 15.1312 6.08068C15.1312 5.76755 15.2727 5.41401 15.4646 5.16149C15.8383 4.66654 16.1009 4.72714 16.4141 5.2726C17.3838 6.95947 18.1817 8.71704 18.6464 10.6059C18.7373 10.9595 18.808 11.3231 18.8181 11.6867C18.8383 12.5958 18.8282 13.5049 18.8282 14.414C18.8282 14.5857 18.7878 14.7473 18.7575 14.9191C18.7171 14.9191 18.6767 14.9292 18.6262 14.9292C18.5858 14.8383 18.5151 14.7473 18.505 14.6564C18.4848 14.5049 18.4848 14.3534 18.4949 14.2019C18.6666 12.1716 18.3535 10.2019 17.5757 8.3332C17.1312 7.2726 16.5454 6.2726 15.9999 5.20189C15.5151 5.45441 15.3838 5.83825 15.4444 6.24229C15.5252 6.75745 15.707 7.24229 15.8181 7.74734C15.8989 8.11098 15.9494 8.48472 15.9595 8.85846C15.9696 9.12108 15.8989 9.39381 15.8585 9.65644C15.7272 10.6059 15.2828 10.9999 14.3131 11.0302C13.2929 11.0605 12.4646 10.5554 11.6666 10.0201C11.0403 9.60593 10.4949 9.06048 9.94942 8.53522C9.81811 8.40391 9.7373 8.13118 9.76761 7.93926C9.83831 7.45441 10.01 6.99987 10.111 6.51502C10.1716 6.21199 10.3232 6.11098 10.6262 6.09078C11.0706 6.05037 11.5252 5.97967 11.9595 5.85846C12.1312 5.80795 12.2424 5.56553 12.3737 5.40391C12.2019 5.3332 12.0403 5.20189 11.8686 5.19179C11.2121 5.14128 10.5555 5.12108 9.89892 5.09078C9.56559 5.07058 9.33326 5.21199 9.18175 5.52512C8.78781 6.3029 8.36357 7.07058 7.93932 7.83825C7.6767 8.313 7.7272 8.71704 8.11104 9.12108C8.6767 9.71704 9.22215 10.3433 9.76761 10.9595C9.86862 11.0706 9.94942 11.212 10.0403 11.3332C9.99993 11.3736 9.96963 11.414 9.92922 11.4544C9.79791 11.3736 9.63629 11.313 9.53528 11.1918C8.96963 10.5857 8.42417 9.96957 7.87872 9.36351C7.35346 8.77765 7.30296 8.313 7.6666 7.61603C7.87872 7.21199 8.10094 6.80795 8.31306 6.39381C8.26256 6.3433 8.20195 6.2827 8.15144 6.23219C7.93932 6.37361 7.64639 6.46452 7.52518 6.65644C7.06054 7.36351 6.64639 8.09078 6.23225 8.81805C6.01003 9.20189 6.20195 9.52512 6.44437 9.82815C7.09084 10.6261 7.7474 11.414 8.38377 12.212C8.49488 12.3534 8.55548 12.5251 8.64639 12.6766C8.58579 12.717 8.52518 12.7675 8.45447 12.808C7.7474 11.9595 7.05043 11.1211 6.33326 10.2625C5.96963 10.7271 5.96963 11.1009 6.32316 11.5756C6.86862 12.2827 7.42417 12.9797 7.96963 13.6867C8.07064 13.8181 8.12114 13.9797 8.19185 14.1211C8.13124 14.1615 8.07064 14.2019 8.01003 14.2524C7.49488 13.616 6.98983 12.9898 6.45447 12.3332C6.10094 12.6564 6.19185 12.9999 6.36357 13.313C6.7272 13.9393 7.11104 14.5554 7.51508 15.1514C7.63629 15.3332 7.85852 15.4645 8.06054 15.5756C9.16155 16.1817 10.2727 16.7776 11.3838 17.3938C11.5454 17.4847 11.6969 17.6059 11.8484 17.717C11.8383 17.7978 11.808 17.8585 11.7878 17.9191Z" fill="#7C7C7C" stroke="#7C7C7C" stroke-width="0.35"/>
<path d="M5.65657 5.62626C5.16162 5.56566 4.71717 5.54545 4.29293 5.44444C3.87879 5.34343 3.72727 5 3.71717 4.59596C3.68687 3.75758 3.66667 3.73737 2.86869 3.71717C2.26263 3.70707 1.94949 3.39394 1.93939 2.77778C1.91919 2 1.85859 1.92929 1.07071 1.90909C0.444445 1.88889 0.161616 1.59596 0.131313 0.969697C0.121212 0.666667 0.050505 0.383838 0 0C0.131313 0.0606061 0.30303 0.0808081 0.333333 0.161616C0.414141 0.373737 0.474747 0.606061 0.484848 0.838384C0.49495 1.42424 0.606061 1.55556 1.18182 1.56566C2.0101 1.57576 2.25253 1.81818 2.27273 2.64646C2.28283 3.21212 2.42424 3.35354 2.9899 3.36364C3.81818 3.37374 4.07071 3.62626 4.07071 4.45455C4.07071 5.0101 4.22222 5.16162 4.79798 5.16162C5.41414 5.17172 5.43434 5.18182 5.65657 5.62626Z" fill="#7C7C7C" stroke="#7C7C7C" stroke-width="0.35"/>
<path d="M4.63623 0.121094C5.06047 0.222104 5.08067 0.515033 5.08067 0.818063C5.09078 1.69685 5.10088 1.70695 5.98977 1.71705C6.57562 1.72715 6.86855 2.04029 6.86855 2.63625C6.86855 3.46453 6.90896 3.50493 7.74734 3.51503C8.24229 3.51503 8.3433 3.58574 8.40391 3.93928C7.99987 3.90897 7.59583 3.88877 7.19179 3.83827C6.73724 3.77766 6.51502 3.45443 6.51502 2.91907C6.51502 2.10089 6.46451 2.05039 5.67663 2.07059C5.09078 2.09079 4.73724 1.73726 4.71704 1.1514C4.70694 0.828164 4.66653 0.494831 4.63623 0.121094Z" fill="#7C7C7C" stroke="#7C7C7C" stroke-width="0.35"/>
<path d="M0.656494 4.68677C0.838312 4.86859 0.999929 4.95949 1.04033 5.09081C1.10094 5.27263 1.10094 5.48475 1.10094 5.68677C1.09084 6.23222 1.24235 6.39384 1.76761 6.38374C2.6868 6.38374 2.89892 6.58576 2.88882 7.50495C2.88882 8.0201 3.06053 8.19182 3.58579 8.18172C3.76761 8.18172 3.96963 8.16152 4.13124 8.21202C4.27266 8.26253 4.38377 8.41404 4.41407 8.60596C4.04033 8.57566 3.6666 8.54535 3.30296 8.51505C2.80801 8.46455 2.55548 8.16151 2.54538 7.62616C2.54538 6.75747 2.52518 6.74737 1.63629 6.74737C1.11104 6.74737 0.777706 6.43424 0.747403 5.91909C0.737302 5.56556 0.696898 5.22212 0.656494 4.68677Z" fill="#7C7C7C" stroke="#7C7C7C" stroke-width="0.35"/>
<path d="M4.56573 17.9999C4.44451 17.7979 4.3132 17.6666 4.3233 17.5757C4.3435 17.4747 4.50512 17.3939 4.59603 17.303C4.68694 17.404 4.83845 17.505 4.83845 17.606C4.85866 17.6969 4.70714 17.808 4.56573 17.9999Z" fill="#7C7C7C" stroke="#7C7C7C" stroke-width="0.35"/>
<path d="M13.6767 2.66661C13.4848 2.78782 13.3635 2.92923 13.2625 2.90903C13.1615 2.88883 13.01 2.72721 13.01 2.6363C13.01 2.5454 13.1817 2.39388 13.2827 2.38378C13.3837 2.37368 13.4949 2.52519 13.6767 2.66661Z" fill="#7C7C7C" stroke="#7C7C7C" stroke-width="0.35"/>
<path d="M1.28276 15.0808C1.41407 15.2727 1.55549 15.3838 1.54539 15.4849C1.53529 15.5859 1.37367 15.7576 1.29286 15.7475C1.19185 15.7374 1.03024 15.596 1.02013 15.4849C0.999932 15.3838 1.15145 15.2727 1.28276 15.0808Z" fill="#7C7C7C" stroke="#7C7C7C" stroke-width="0.35"/>
<path d="M17.1818 1.23232C16.9899 1.37374 16.8788 1.51515 16.7778 1.50505C16.6768 1.49495 16.5151 1.34343 16.5151 1.25252C16.5151 1.16161 16.6667 0.989897 16.7677 0.979796C16.8687 0.969695 16.9899 1.10101 17.1818 1.23232Z" fill="#7C7C7C" stroke="#7C7C7C" stroke-width="0.35"/>
<path d="M1.55547 12.4344C1.43426 12.2323 1.30295 12.101 1.31305 12C1.33325 11.899 1.49487 11.8182 1.58578 11.7273C1.67668 11.8283 1.8282 11.9293 1.8282 12.0303C1.8383 12.1313 1.69689 12.2424 1.55547 12.4344Z" fill="#7C7C7C" stroke="#7C7C7C" stroke-width="0.35"/>
<path d="M11.6768 0.636388C11.4849 0.787903 11.3738 0.949519 11.2727 0.939418C11.1717 0.929317 11.0303 0.787903 11 0.666691C10.9798 0.606084 11.1414 0.424266 11.2222 0.414165C11.3435 0.404064 11.4647 0.525276 11.6768 0.636388Z" fill="#7C7C7C" stroke="#7C7C7C" stroke-width="0.35"/>
</g>
<defs>
<clipPath id="clip0_226_1098">
<rect width="18.8283" height="18" fill="white"/>
</clipPath>
</defs>
</svg>
