<svg width="18" height="18" viewBox="0 0 18 18" fill="none" xmlns="http://www.w3.org/2000/svg">
<circle cx="9" cy="14" r="1" fill="black"/>
<path fill-rule="evenodd" clip-rule="evenodd" d="M3 2.907C3 2.532 3.27975 2.21475 3.6525 2.16825L7.51125 1.686C7.69758 1.66271 7.88673 1.67931 8.06616 1.73469C8.24558 1.79008 8.41118 1.88298 8.55197 2.00724C8.69275 2.1315 8.80551 2.28428 8.88275 2.45543C8.95999 2.62659 8.99996 2.81222 9 3C9 2.2035 9.6975 1.587 10.4887 1.686L14.3483 2.16825C14.5442 2.19271 14.7224 2.29401 14.8436 2.44985C14.9648 2.60569 15.0192 2.80332 14.9948 2.99925C14.9703 3.19517 14.869 3.37336 14.7131 3.4946C14.5573 3.61584 14.3597 3.67021 14.1637 3.64575L9.75 3.09375V12.1282C10.2506 12.3052 10.6726 12.6534 10.9413 13.1114C11.21 13.5693 11.3081 14.1075 11.2184 14.6308C11.1286 15.1542 10.8567 15.6289 10.4508 15.9712C10.0448 16.3134 9.53096 16.5011 9 16.5011C8.46904 16.5011 7.95517 16.3134 7.54922 15.9712C7.14328 15.6289 6.8714 15.1542 6.78164 14.6308C6.69188 14.1075 6.79003 13.5693 7.05873 13.1114C7.32743 12.6534 7.74938 12.3052 8.25 12.1282V3.09375L3.83625 3.64575C3.73153 3.65883 3.62523 3.64949 3.5244 3.61834C3.42356 3.58719 3.33051 3.53494 3.25142 3.46507C3.17233 3.3952 3.10901 3.30931 3.06566 3.21309C3.02231 3.11687 2.99993 3.01253 3 2.907ZM9.75 14.25C9.75 14.4489 9.67098 14.6397 9.53033 14.7803C9.38968 14.921 9.19891 15 9 15C8.80109 15 8.61032 14.921 8.46967 14.7803C8.32902 14.6397 8.25 14.4489 8.25 14.25C8.25 14.0511 8.32902 13.8603 8.46967 13.7197C8.61032 13.579 8.80109 13.5 9 13.5C9.19891 13.5 9.38968 13.579 9.53033 13.7197C9.67098 13.8603 9.75 14.0511 9.75 14.25Z" fill="black" stroke="black" stroke-width="0.5"/>
</svg>
