<svg width="16" height="18" viewBox="0 0 16 18" fill="none" xmlns="http://www.w3.org/2000/svg">
<g clip-path="url(#clip0_226_927)">
<path d="M2.14726 1.00452C2.21389 1.09613 2.29302 1.17942 2.33882 1.27936C2.71362 2.04144 2.93849 2.84933 3.1134 3.67387C3.45904 5.33546 3.57981 7.02202 3.51318 8.71692C3.48402 9.50399 3.30496 10.2702 3.07592 11.024C3.03011 11.1739 2.90518 11.2447 2.78025 11.2072C2.64699 11.1656 2.59285 11.0406 2.63033 10.8782C2.7511 10.341 2.89268 9.80798 2.9843 9.26662C3.1134 8.52952 3.07175 7.7841 3.0426 7.03868C2.99263 5.83518 2.86353 4.64417 2.58452 3.46982C2.41378 2.74939 2.20973 2.03728 1.86409 1.37098C1.7808 1.21273 1.85576 1.10863 1.95987 1.00452C2.02233 1.00452 2.0848 1.00452 2.14726 1.00452Z" fill="#7C7C7C" stroke="#7C7C7C" stroke-width="0.25"/>
<path d="M13.766 1.00453C13.9284 1.17943 13.9326 1.22524 13.8285 1.44179C13.4453 2.21636 13.2246 3.0409 13.0497 3.88211C13.0331 3.9529 13.0247 4.02369 13.0081 4.09449C12.9706 4.24024 12.8665 4.31104 12.7332 4.28605C12.6041 4.26523 12.525 4.15695 12.55 4.00704C12.6041 3.71137 12.6666 3.4157 12.7416 3.12419C12.8998 2.48288 13.0997 1.85406 13.3954 1.26272C13.4412 1.16694 13.5203 1.08782 13.5828 1.00037C13.6411 1.00453 13.7035 1.00453 13.766 1.00453Z" fill="#7C7C7C" stroke="#7C7C7C" stroke-width="0.25"/>
<path d="M1.48519 15.5215C2.05571 15.5215 2.60124 15.5173 3.14678 15.5256C3.32168 15.5256 3.50075 15.5381 3.67149 15.5798C4.06294 15.6714 4.38776 15.8879 4.62513 16.2127C4.72507 16.346 4.81252 16.4876 4.89581 16.6333C4.97077 16.7624 4.94162 16.8915 4.83334 16.9623C4.72507 17.0331 4.59181 17.004 4.50852 16.8832C4.43773 16.7791 4.37526 16.6708 4.30863 16.5667C4.0671 16.2127 3.73395 16.0045 3.30502 15.9962C2.69702 15.9837 2.08903 15.992 1.47687 15.992C1.45604 15.992 1.43522 15.9962 1.39358 16.0045C1.37692 16.2419 1.36026 16.4793 1.34777 16.7166C1.33528 16.8999 1.24783 17.004 1.10624 16.9998C0.960485 16.9956 0.877197 16.8832 0.877197 16.7041C0.88969 15.8754 1.06459 15.0717 1.35193 14.2971C1.63928 13.5184 1.9516 12.748 2.2556 11.9734C2.31807 11.8152 2.443 11.7527 2.57209 11.8068C2.70535 11.861 2.75116 11.9859 2.6887 12.1442C2.40135 12.8854 2.10985 13.6267 1.82251 14.3679C1.79752 14.4304 1.78086 14.4929 1.75171 14.5803C1.83917 14.5803 1.9058 14.5803 1.97243 14.5803C4.91247 14.5803 7.85251 14.5803 10.7926 14.5803C10.8592 14.5803 10.93 14.5803 10.9924 14.597C11.109 14.6261 11.1673 14.7136 11.159 14.8302C11.1507 14.9426 11.0882 15.0259 10.9675 15.0426C10.9008 15.0509 10.8342 15.0509 10.7634 15.0509C7.78171 15.0509 4.80003 15.0509 1.81834 15.0467C1.64344 15.0467 1.56015 15.0884 1.5435 15.2633C1.53933 15.3341 1.51018 15.4132 1.48519 15.5215Z" fill="#7C7C7C" stroke="#7C7C7C" stroke-width="0.25"/>
<path d="M14.3366 15.9962C14.2658 15.992 14.22 15.9878 14.1741 15.9878C13.6286 15.9878 13.0831 15.992 12.5334 15.9878C12.0212 15.9837 11.6339 16.2044 11.3674 16.6416C11.3174 16.7249 11.2674 16.8124 11.2091 16.8915C11.1258 17.0039 10.9967 17.0248 10.8926 16.9581C10.7885 16.8915 10.7552 16.7624 10.8218 16.6416C11.2008 15.9212 11.7588 15.4923 12.6125 15.5173C13.1497 15.5339 13.6828 15.5214 14.2408 15.5214C14.2033 15.3715 14.1783 15.2341 14.1325 15.105C14.12 15.0675 14.0367 15.0425 13.9826 15.0425C13.3912 15.0384 12.7957 15.0384 12.2044 15.0384C12.1586 15.0384 12.1086 15.0384 12.0628 15.0384C11.8837 15.03 11.7921 14.9509 11.7921 14.8051C11.7921 14.6594 11.8879 14.5761 12.067 14.5719C12.6375 14.5678 13.2122 14.5719 13.7827 14.5719C13.8368 14.5719 13.8951 14.5719 13.9784 14.5719C13.8743 14.2846 13.7785 14.0222 13.6786 13.7641C13.3288 12.8354 12.9582 11.9151 12.6375 10.9781C12.2794 9.92868 12.1419 8.84178 12.1919 7.73406C12.2294 6.88036 12.3002 6.03083 12.3585 5.1813C12.371 4.99807 12.4709 4.90229 12.6167 4.91478C12.7624 4.92727 12.8374 5.03555 12.8249 5.22294C12.7708 5.97669 12.7125 6.72628 12.6666 7.48003C12.5667 9.0375 12.8957 10.5159 13.462 11.9567C13.8285 12.8854 14.1825 13.8182 14.5156 14.7552C14.728 15.3548 14.8238 15.9837 14.8404 16.625C14.8404 16.6708 14.8446 16.7208 14.8404 16.7666C14.828 16.9123 14.728 17.0039 14.5989 16.9998C14.474 16.9956 14.3865 16.904 14.3782 16.7666C14.3657 16.5084 14.3532 16.2627 14.3366 15.9962Z" fill="#7C7C7C" stroke="#7C7C7C" stroke-width="0.25"/>
<path d="M4.97484 9.87044C4.68333 9.53729 4.40432 9.2208 4.12114 8.90847C4.02953 8.80853 3.97122 8.70026 4.05451 8.57533C4.14196 8.4379 4.26689 8.45456 4.40015 8.50453C5.21637 8.80853 6.03675 9.10836 6.85713 9.41236C7.12781 9.51231 7.16113 9.6997 6.94875 9.89126C6.7905 10.0329 6.62809 10.1744 6.46151 10.3244C6.7322 10.6284 6.99455 10.9282 7.26107 11.2239C7.43598 11.4196 7.46513 11.5154 7.37768 11.6278C7.25691 11.7861 7.11116 11.7153 6.96957 11.6611C6.17417 11.3654 5.38294 11.0739 4.58755 10.7783C4.31687 10.6783 4.27939 10.4951 4.49177 10.3035C4.64585 10.1661 4.8041 10.0245 4.97484 9.87044ZM6.33658 10.9324C6.34075 10.924 6.34908 10.9157 6.35324 10.9115C6.23247 10.7741 6.11171 10.6409 5.99094 10.5034C5.85352 10.341 5.86185 10.2327 6.02009 10.0912C6.14086 9.98288 6.26162 9.87461 6.40321 9.74968C5.9493 9.5831 5.52453 9.42486 5.09977 9.26661C5.20388 9.42486 5.32464 9.55812 5.44124 9.69554C5.57867 9.85379 5.57034 9.97039 5.41626 10.112C5.29549 10.2244 5.17056 10.3327 5.02897 10.4535C5.48289 10.6159 5.90765 10.7741 6.33658 10.9324Z" fill="#7C7C7C" stroke="#7C7C7C" stroke-width="0.25"/>
<path d="M10.7551 9.87456C10.9258 10.0245 11.0882 10.1661 11.2506 10.3118C11.4505 10.4909 11.4172 10.6783 11.1673 10.7741C10.3386 11.0822 9.50991 11.3862 8.6812 11.6944C8.55211 11.7444 8.43134 11.7444 8.34805 11.6194C8.26477 11.4987 8.3189 11.3946 8.40635 11.2946C8.6937 10.974 8.97687 10.6491 9.27254 10.3201C9.09764 10.1661 8.93106 10.0203 8.76449 9.87039C8.58126 9.70382 8.61457 9.51226 8.84361 9.42897C9.68065 9.11664 10.5177 8.80848 11.3589 8.49615C11.4838 8.45035 11.5963 8.45451 11.6754 8.57111C11.7545 8.69188 11.7129 8.79599 11.6254 8.89593C11.3797 9.17078 11.134 9.44979 10.8883 9.72464C10.8425 9.77045 10.8009 9.81626 10.7551 9.87456ZM10.6759 10.4576C10.6593 10.4284 10.6593 10.4201 10.6509 10.4118C10.5427 10.316 10.4344 10.216 10.3261 10.1203C10.1471 9.96201 10.1429 9.85374 10.3011 9.67467C10.4136 9.54557 10.526 9.42064 10.6426 9.29155C10.6343 9.28322 10.6301 9.27489 10.6218 9.26656C10.197 9.42481 9.77227 9.58305 9.32668 9.74546C9.46827 9.87039 9.58903 9.97867 9.70564 10.0869C9.86388 10.2327 9.87637 10.3368 9.73895 10.4992C9.61818 10.6408 9.49742 10.7741 9.37665 10.9115C9.38082 10.9198 9.38498 10.924 9.39331 10.9323C9.81391 10.7741 10.2428 10.62 10.6759 10.4576Z" fill="#7C7C7C" stroke="#7C7C7C" stroke-width="0.25"/>
<path d="M7.62744 6.62625C7.62744 5.55601 7.62744 4.4816 7.62744 3.41136C7.62744 3.1615 7.7024 3.04489 7.86481 3.04906C8.02306 3.05322 8.09385 3.1615 8.09385 3.40719C8.09385 5.56017 8.09385 7.71315 8.09385 9.86612C8.09385 10.1201 8.02306 10.2284 7.85648 10.2243C7.69407 10.2201 7.62744 10.116 7.62744 9.87029C7.62744 8.79172 7.62744 7.70898 7.62744 6.62625Z" fill="#7C7C7C" stroke="#7C7C7C" stroke-width="0.25"/>
<path d="M6.48222 13.5017C6.47806 13.5434 6.47806 13.6225 6.46556 13.6975C6.43641 13.864 6.33647 13.989 6.18239 14.0389C6.02414 14.0889 5.8534 14.1264 5.68683 14.1306C5.61603 14.1347 5.49943 14.0514 5.47861 13.989C5.45362 13.914 5.48694 13.7683 5.54524 13.7308C5.67433 13.6475 5.83258 13.6142 6.00332 13.5517C6.00332 13.5517 6.00332 13.5142 6.00332 13.4726C6.00748 13.1727 6.20321 12.9812 6.50304 12.9729C6.56551 12.9729 6.63214 12.9562 6.6946 12.9354C6.81953 12.8937 6.92364 12.9146 6.99027 13.027C7.0569 13.1394 7.04025 13.2644 6.92781 13.331C6.80288 13.406 6.65296 13.4393 6.48222 13.5017Z" fill="#7C7C7C" stroke="#7C7C7C" stroke-width="0.25"/>
<path d="M9.72227 13.5933C9.81388 13.6016 9.89717 13.5933 9.9638 13.6183C10.0554 13.6516 10.147 13.6933 10.2137 13.7599C10.297 13.839 10.3053 13.9639 10.222 14.0389C10.1595 14.093 10.0513 14.1139 9.9638 14.118C9.88051 14.1222 9.79723 14.0806 9.70978 14.0764C9.44742 14.0597 9.26419 13.8807 9.24337 13.6225C9.2392 13.5725 9.24337 13.5184 9.24337 13.4517C9.18507 13.4517 9.13093 13.4642 9.08512 13.4476C8.97268 13.4059 8.84775 13.3726 8.75614 13.2977C8.66452 13.231 8.65619 13.0978 8.73948 13.0186C8.79778 12.9603 8.90605 12.9353 8.99351 12.9312C9.08096 12.9229 9.17257 12.9687 9.26002 12.9728C9.52238 12.9978 9.70145 13.1769 9.71394 13.4392C9.72643 13.4892 9.72227 13.535 9.72227 13.5933Z" fill="#7C7C7C" stroke="#7C7C7C" stroke-width="0.25"/>
<path d="M5.93272 12.3274C5.92855 12.3357 5.8994 12.3815 5.87025 12.4231C5.7245 12.6355 5.46631 12.6938 5.23727 12.5689C5.16231 12.5273 5.07902 12.4981 4.99573 12.4731C4.87913 12.4398 4.80001 12.3607 4.81667 12.2524C4.82916 12.1691 4.89995 12.065 4.97075 12.0317C5.14982 11.9442 5.31223 12.0483 5.47047 12.1608C5.50379 12.1108 5.52877 12.065 5.56209 12.0192C5.67453 11.861 5.83277 11.7735 6.016 11.8151C6.18674 11.8526 6.35748 11.9234 6.51156 12.0109C6.56986 12.0442 6.61984 12.1816 6.59901 12.2441C6.57819 12.319 6.46992 12.419 6.39912 12.419C6.2617 12.4231 6.11595 12.369 5.93272 12.3274Z" fill="#7C7C7C" stroke="#7C7C7C" stroke-width="0.25"/>
<path d="M9.79316 12.3232C9.61826 12.3648 9.48083 12.4189 9.33508 12.4273C9.20182 12.4356 9.11437 12.3482 9.10604 12.2024C9.09771 12.0733 9.181 11.9859 9.32259 11.9609C9.37256 11.9525 9.42253 11.94 9.46417 11.9109C9.76817 11.7235 10.0097 11.7818 10.2013 12.0816C10.2138 12.1025 10.2304 12.1233 10.2387 12.1399C10.3512 12.0941 10.447 12.0317 10.5552 12.0067C10.6885 11.9734 10.8176 12.0025 10.8884 12.1399C10.9467 12.2482 10.8967 12.394 10.7843 12.4439C10.6552 12.5022 10.5219 12.5564 10.3887 12.6022C10.1971 12.6688 9.98472 12.5897 9.86395 12.4231C9.83064 12.3898 9.80149 12.3398 9.79316 12.3232Z" fill="#7C7C7C" stroke="#7C7C7C" stroke-width="0.25"/>
</g>
<defs>
<clipPath id="clip0_226_927">
<rect width="15.7313" height="18" fill="white"/>
</clipPath>
</defs>
</svg>
