<svg width="18" height="18" viewBox="0 0 18 18" fill="none" xmlns="http://www.w3.org/2000/svg">
<path d="M15.5624 2.4375L11.0594 6.9405M15.5624 2.4375V6.47625M15.5624 2.4375H11.5236M7.48489 15.5625C8.82367 15.5625 10.1076 15.0307 11.0543 14.084C12.0009 13.1374 12.5328 11.8534 12.5328 10.5146C12.5328 9.17585 12.0009 7.8919 11.0543 6.94524C10.1076 5.99858 8.82367 5.46675 7.48489 5.46675C6.14611 5.46675 4.86216 5.99858 3.9155 6.94524C2.96884 7.8919 2.43701 9.17585 2.43701 10.5146C2.43701 11.8534 2.96884 13.1374 3.9155 14.084C4.86216 15.0307 6.14611 15.5625 7.48489 15.5625Z" stroke="#7C7C7C" stroke-width="1.125" stroke-linecap="round" stroke-linejoin="round"/>
</svg>
