<svg width="29" height="31" viewBox="0 0 29 31" fill="none" xmlns="http://www.w3.org/2000/svg">
<path d="M2.10019 0.0709404C2.65757 1.04382 2.88053 2.11804 2.9312 3.22267C3.01227 5.00628 2.61704 6.71896 1.99885 8.37083C1.61375 9.39438 1.17799 10.3977 0.833423 11.4313C0.1443 13.519 -0.230667 15.6573 0.154432 17.8665C0.580068 20.2481 1.81644 22.0722 4.01556 23.116C6.69098 24.3828 9.3968 24.2612 12.0114 22.9235C14.3727 21.7175 15.7813 19.7718 16.0347 17.1065C16.2678 14.5831 15.5381 12.2927 14.1903 10.1848C13.0147 8.33029 11.454 6.8203 9.79203 5.41165C7.42064 3.40508 4.81616 1.70254 2.1914 0.0506709C2.161 0.0304025 2.12046 0.0202683 2.07992 0C2.09006 0.0405367 2.09006 0.0506721 2.10019 0.0709404ZM12.508 10.9956C13.2275 11.9989 13.6633 13.0933 13.8254 14.2892C14.0687 16.012 13.643 17.5929 12.7107 19.0725C12.5891 18.9914 12.4776 18.9205 12.3357 18.8394C13.0654 17.6639 13.491 16.4072 13.4403 15.029C13.3897 13.6609 12.9539 12.4144 12.1634 11.2591C12.2749 11.178 12.3762 11.0969 12.508 10.9956Z" fill="url(#paint0_linear_115_2869)"/>
<path d="M21.4873 15C22.2455 15.6178 23.0038 16.2357 23.748 16.8676C25.2786 18.1875 26.7249 19.5917 27.8061 21.3188C28.5924 22.5545 29.0137 23.9166 28.9997 25.377C28.9856 27.5675 27.7499 29.2806 25.6577 29.8984C23.6076 30.4882 21.7119 30.1933 20.1673 28.6206C19.1563 27.5956 18.9035 26.2897 19.0299 24.8995C19.1563 23.5234 19.6337 22.2737 20.2797 21.0661C20.8273 20.0551 21.3468 19.0581 21.5575 17.9207C21.754 16.9518 21.7681 15.997 21.417 15.0562C21.4451 15.0281 21.4732 15.014 21.4873 15Z" fill="url(#paint1_linear_115_2869)"/>
<defs>
<linearGradient id="paint0_linear_115_2869" x1="8.03876" y1="0" x2="8.03876" y2="24" gradientUnits="userSpaceOnUse">
<stop stop-color="#FF727B"/>
<stop offset="1" stop-color="#FF3446"/>
</linearGradient>
<linearGradient id="paint1_linear_115_2869" x1="23.9999" y1="15" x2="23.9999" y2="30.1802" gradientUnits="userSpaceOnUse">
<stop stop-color="#FF727B"/>
<stop offset="1" stop-color="#FF3446"/>
</linearGradient>
</defs>
</svg>
