<svg width="18" height="18" viewBox="0 0 18 18" fill="none" xmlns="http://www.w3.org/2000/svg">
<g clip-path="url(#clip0_226_960)">
<path d="M6.63643 3.37609C6.74799 3.38332 6.85213 3.43454 6.92596 3.51849C6.99978 3.60245 7.03727 3.71227 7.03018 3.82384C6.98406 4.54666 6.64712 5.01803 6.19768 5.29366C5.7758 5.55353 5.28812 5.61878 4.94106 5.63059C4.88565 5.63244 4.83043 5.62336 4.77854 5.60386C4.72665 5.58437 4.67911 5.55484 4.63863 5.51697C4.55687 5.44049 4.50885 5.33467 4.50512 5.22278C4.50139 5.11089 4.54226 5.00211 4.61874 4.92035C4.69522 4.8386 4.80104 4.79057 4.91293 4.78684C5.19924 4.77784 5.51537 4.72272 5.75668 4.57478C5.97212 4.44259 6.15943 4.21872 6.18868 3.76984C6.19591 3.65828 6.24712 3.55415 6.33108 3.48032C6.41503 3.40649 6.52486 3.369 6.63643 3.37609ZM11.0869 3.37609C10.9754 3.38332 10.8712 3.43454 10.7974 3.51849C10.7236 3.60245 10.6861 3.71227 10.6932 3.82384C10.7399 4.54666 11.0768 5.01803 11.5257 5.29366C11.9487 5.55353 12.4358 5.61878 12.7829 5.63059C12.8948 5.63432 13.0035 5.59345 13.0853 5.51697C13.1671 5.44049 13.2151 5.33467 13.2188 5.22278C13.2225 5.11089 13.1817 5.00211 13.1052 4.92035C13.0287 4.8386 12.9229 4.79057 12.811 4.78684C12.5241 4.77784 12.2086 4.72272 11.9672 4.57478C11.7518 4.44259 11.5639 4.21872 11.5352 3.76984C11.528 3.65828 11.4768 3.55415 11.3928 3.48032C11.3089 3.40649 11.1991 3.369 11.0875 3.37609M7.87506 11.8125C7.85683 11.8125 7.83862 11.8135 7.82049 11.8153C7.70799 11.264 7.42562 10.8534 7.05099 10.5738C6.5858 10.2273 6.03343 10.125 5.62505 10.125C5.47587 10.125 5.3328 10.1842 5.22731 10.2897C5.12182 10.3952 5.06255 10.5383 5.06255 10.6875C5.06255 10.8367 5.12182 10.9797 5.22731 11.0852C5.3328 11.1907 5.47587 11.25 5.62505 11.25C5.87256 11.25 6.16449 11.3163 6.37881 11.4761C6.56612 11.6156 6.75006 11.8642 6.75006 12.375C6.75006 12.8857 6.56612 13.1343 6.37881 13.2738C6.16449 13.4336 5.87256 13.5 5.62505 13.5C5.47587 13.5 5.3328 13.5592 5.22731 13.6647C5.12182 13.7702 5.06255 13.9133 5.06255 14.0625C5.06255 14.2117 5.12182 14.3547 5.22731 14.4602C5.3328 14.5657 5.47587 14.625 5.62505 14.625C6.03343 14.625 6.5858 14.5226 7.05099 14.1761C7.42562 13.8965 7.70743 13.4853 7.82049 12.9347C7.83849 12.9365 7.85668 12.9375 7.87506 12.9375H10.1251C10.1438 12.9375 10.162 12.9365 10.1796 12.9347C10.2921 13.4859 10.5745 13.8965 10.9491 14.1761C11.4143 14.5226 11.9667 14.625 12.3751 14.625C12.5242 14.625 12.6673 14.5657 12.7728 14.4602C12.8783 14.3547 12.9376 14.2117 12.9376 14.0625C12.9376 13.9133 12.8783 13.7702 12.7728 13.6647C12.6673 13.5592 12.5242 13.5 12.3751 13.5C12.1276 13.5 11.8356 13.4336 11.6213 13.2738C11.434 13.1343 11.2501 12.8857 11.2501 12.375C11.2501 11.8642 11.434 11.6156 11.6213 11.4761C11.8356 11.3163 12.1276 11.25 12.3751 11.25C12.5242 11.25 12.6673 11.1907 12.7728 11.0852C12.8783 10.9797 12.9376 10.8367 12.9376 10.6875C12.9376 10.5383 12.8783 10.3952 12.7728 10.2897C12.6673 10.1842 12.5242 10.125 12.3751 10.125C11.9667 10.125 11.4143 10.2273 10.9491 10.5738C10.5745 10.8534 10.2927 11.2646 10.1796 11.8153C10.1615 11.8135 10.1433 11.8125 10.1251 11.8125H7.87506ZM6.75006 9.56247C7.04842 9.56247 7.33457 9.44394 7.54555 9.23296C7.75653 9.02199 7.87506 8.73584 7.87506 8.43747C7.87506 8.1391 7.75653 7.85295 7.54555 7.64197C7.33457 7.431 7.04842 7.31247 6.75006 7.31247C6.45169 7.31247 6.16554 7.431 5.95456 7.64197C5.74358 7.85295 5.62505 8.1391 5.62505 8.43747C5.62505 8.73584 5.74358 9.02199 5.95456 9.23296C6.16554 9.44394 6.45169 9.56247 6.75006 9.56247ZM11.2501 9.56247C11.5484 9.56247 11.8346 9.44394 12.0455 9.23296C12.2565 9.02199 12.3751 8.73584 12.3751 8.43747C12.3751 8.1391 12.2565 7.85295 12.0455 7.64197C11.8346 7.431 11.5484 7.31247 11.2501 7.31247C10.9517 7.31247 10.6655 7.431 10.4546 7.64197C10.2436 7.85295 10.1251 8.1391 10.1251 8.43747C10.1251 8.73584 10.2436 9.02199 10.4546 9.23296C10.6655 9.44394 10.9517 9.56247 11.2501 9.56247Z" fill="#7C7C7C"/>
<path d="M8.99944 0.5625C6.24094 0.5625 4.11356 1.49287 2.67919 3.05044C1.25213 4.60012 0.5625 6.71513 0.5625 8.99944C0.5625 11.2837 1.25213 13.3982 2.67919 14.9484C4.11356 16.506 6.24094 17.4364 8.99944 17.4364C11.7579 17.4364 13.8853 16.506 15.3191 14.9484C16.7462 13.3988 17.4364 11.2837 17.4364 8.99944C17.4364 6.71513 16.7456 4.60012 15.3191 3.05044C13.8847 1.49287 11.7579 0.5625 9 0.5625M1.6875 8.99944C1.6875 6.93506 2.30963 5.11256 3.50719 3.81262C4.69688 2.52 6.507 1.6875 8.99944 1.6875C11.4919 1.6875 13.3014 2.52 14.4917 3.81262C15.6892 5.11256 16.3114 6.9345 16.3114 8.99887C16.3114 11.0633 15.6892 12.8857 14.4917 14.1862C13.3014 15.4789 11.4919 16.3114 8.99944 16.3114C6.507 16.3114 4.69744 15.4789 3.50719 14.1862C2.30906 12.8869 1.6875 11.0644 1.6875 9" fill="#7C7C7C"/>
</g>
<defs>
<clipPath id="clip0_226_960">
<rect width="18" height="18" fill="white"/>
</clipPath>
</defs>
</svg>
