<svg width="19" height="18" viewBox="0 0 19 18" fill="none" xmlns="http://www.w3.org/2000/svg">
<path d="M9.03209 1.0144C13.5377 1.0144 17.0961 4.5728 17.0961 9.0272C17.0705 13.4304 13.5121 17.0144 9.13449 17.0144C4.57769 16.9888 1.01929 13.4304 1.01929 8.8992C1.01929 4.496 4.57769 1.0144 9.03209 1.0144ZM4.52649 14.224C7.52169 16.8864 11.9505 16.4768 14.4337 13.4816C16.7121 10.6912 16.6097 6.416 14.4337 4.7008C11.1313 7.8752 7.85449 11.024 4.52649 14.224ZM13.4353 3.6256C10.3377 1.1168 6.01129 1.5776 3.57929 4.5984C1.42889 7.2608 1.53129 11.4848 3.63049 13.2C6.88169 10.0256 10.1329 6.8512 13.4353 3.6256Z" fill="#D82149"/>
</svg>
