<svg width="16" height="18" viewBox="0 0 16 18" fill="none" xmlns="http://www.w3.org/2000/svg">
<g clip-path="url(#clip0_226_1067)">
<path d="M12.6247 11.1544C13.9604 11.3806 14.9191 12.0862 15.42 13.3465C15.9963 14.7953 15.49 16.4381 14.2189 17.3537C12.964 18.2585 11.2458 18.2047 10.0501 17.2136C9.9532 17.1328 9.8778 17.1113 9.75392 17.1598C8.43435 17.6822 7.05553 17.8438 5.6444 17.7468C4.55104 17.6714 3.49539 17.4398 2.50437 16.9605C2.3374 16.8797 2.18121 16.7935 2.02501 16.6966C1.84727 16.5889 1.84189 16.4596 1.99808 16.3142C2.17582 16.1472 2.35894 15.991 2.51514 15.8025C2.76289 15.5063 2.73596 15.3231 2.44512 15.0808C2.32663 14.9838 2.20814 14.8869 2.07349 14.8061C1.2602 14.3375 0.791619 13.6158 0.500775 12.7379C0.0968257 11.5422 -0.0539822 10.3088 0.0160358 9.05385C0.150686 6.73249 0.823935 4.5727 2.0304 2.58527C2.46666 1.86354 2.98372 1.20107 3.64081 0.662467C3.98552 0.382395 4.36253 0.150797 4.80957 0.0484631C5.34279 -0.0754148 5.81675 0.0430771 6.22609 0.403939C6.26918 0.441641 6.31227 0.479343 6.35535 0.522431C6.3769 0.506273 6.39306 0.500887 6.40383 0.490115C6.96936 -0.0592568 7.62106 -0.118503 8.31586 0.188499C8.85984 0.430869 9.30149 0.81866 9.69467 1.25493C10.6642 2.33213 11.3266 3.59783 11.8329 4.94972C12.4415 6.59245 12.7593 8.28365 12.7054 10.0395C12.6947 10.4057 12.6516 10.7774 12.6247 11.1544ZM2.42896 16.5135C2.89216 16.6858 3.33381 16.8582 3.78623 17.0197C3.82932 17.0359 3.9155 17.0036 3.94781 16.9605C4.43255 16.3788 4.73417 15.7163 4.76648 14.9461C4.7988 14.1921 4.58875 13.5081 4.24404 12.8456C3.48462 11.386 2.76289 9.89945 2.02501 8.42907C1.88498 8.149 1.89575 8.1113 2.17582 7.96049C3.91011 7.01256 5.27815 5.70915 6.16684 3.92638C6.19916 3.86175 6.29611 3.78096 6.36074 3.78096C6.43614 3.78634 6.52232 3.86175 6.57079 3.93177C6.66774 4.07719 6.73237 4.24954 6.81855 4.40035C7.72878 5.95151 9.00526 7.12028 10.578 7.96588C10.8257 8.10053 10.8419 8.15439 10.718 8.39676C10.3571 9.11848 9.9909 9.84559 9.62465 10.5673C9.21532 11.3806 8.8006 12.1885 8.39126 13.0018C7.73955 14.2998 7.76648 15.7379 8.74674 16.9228C8.78444 16.9713 8.86523 17.0305 8.9137 17.0197C9.1453 16.9605 9.36613 16.8797 9.60311 16.7989C8.73596 15.6463 8.52052 14.4237 9.11298 13.131C9.71083 11.833 10.788 11.1975 12.2099 11.1113C12.2369 10.8959 12.2638 10.6912 12.2799 10.4865C12.2961 10.2765 12.3123 10.061 12.3123 9.85098C12.3392 8.10053 11.9945 6.4201 11.3482 4.79891C10.8796 3.61938 10.2871 2.51525 9.44153 1.56193C9.04835 1.11489 8.6067 0.721713 8.04117 0.500887C7.48103 0.285447 6.99629 0.409325 6.60311 0.861749C6.39306 1.10412 6.33381 1.10412 6.12376 0.861749C5.73058 0.409325 5.24584 0.285447 4.68569 0.500887C4.30867 0.646309 3.99629 0.872521 3.70544 1.14182C3.05912 1.73428 2.55823 2.44523 2.13273 3.21004C1.12017 5.0359 0.538477 6.99101 0.419986 9.08078C0.344582 10.395 0.516933 11.6714 0.990901 12.9102C1.22788 13.5242 1.58336 14.0197 2.1435 14.3698C2.36972 14.5099 2.58516 14.6714 2.77905 14.8492C3.1453 15.1831 3.18839 15.5494 2.90293 15.9533C2.77905 16.1364 2.61747 16.298 2.42896 16.5135ZM10.3194 8.29442C8.6444 7.36803 7.31406 6.10771 6.36074 4.43805C5.40203 6.11848 4.07169 7.37342 2.4128 8.29442C2.42896 8.33213 2.43973 8.35367 2.44512 8.37521C3.13453 9.75403 3.82932 11.1328 4.52411 12.5063C4.5672 12.5924 4.64799 12.6679 4.72878 12.7163C5.81675 13.3788 6.90472 13.3842 7.9927 12.7163C8.08426 12.6571 8.17043 12.5601 8.22429 12.4632C8.57438 11.7792 8.91909 11.0951 9.26379 10.4057C9.60849 9.70555 9.95858 9.01076 10.3194 8.29442ZM12.253 11.5583C10.578 11.5476 9.20993 12.8887 9.20455 14.5422C9.19916 16.2118 10.5457 17.5853 12.1992 17.596C13.8742 17.6068 15.2369 16.2549 15.2476 14.5799C15.253 12.8187 13.7611 11.5153 12.253 11.5583ZM4.31406 17.1598C5.68749 17.4506 7.03399 17.4506 8.40203 17.1598C7.4918 15.9695 7.32483 14.6822 7.82573 13.2657C6.83471 13.7181 5.876 13.7181 4.89575 13.2657C5.39126 14.6768 5.22968 15.9641 4.31406 17.1598Z" fill="#7C7C7C" stroke="#7C7C7C" stroke-width="0.25"/>
<path d="M6.36626 12.1777C6.06464 12.1777 5.77918 12.1292 5.51527 11.9838C5.32137 11.8761 5.17595 11.7253 5.12748 11.5044C5.10055 11.3806 5.12209 11.2729 5.26213 11.2351C5.39678 11.1974 5.45602 11.2729 5.52066 11.386C5.58529 11.4937 5.68224 11.6122 5.79534 11.6606C6.16159 11.8222 6.544 11.8168 6.91563 11.6768C7.06644 11.6229 7.17954 11.5314 7.22802 11.3644C7.25495 11.2567 7.34651 11.2028 7.45962 11.2298C7.58349 11.2621 7.62658 11.3536 7.60504 11.4721C7.56733 11.6983 7.4273 11.8545 7.2334 11.9676C6.9641 12.1238 6.67326 12.1777 6.36626 12.1777Z" fill="#7C7C7C" stroke="#7C7C7C" stroke-width="0.25"/>
<path d="M4.8312 8.76294C4.67501 8.70908 4.50265 8.68215 4.37339 8.59597C4.27644 8.53672 4.20642 8.40207 4.16872 8.28897C4.15256 8.24049 4.22797 8.11662 4.28721 8.09507C4.34646 8.07353 4.47034 8.11123 4.51343 8.1597C4.71271 8.3913 4.98201 8.3913 5.18668 8.1597C5.23515 8.10584 5.36441 8.07891 5.42905 8.10046C5.48291 8.122 5.55292 8.25665 5.53138 8.31051C5.48291 8.429 5.39673 8.55288 5.2944 8.61751C5.15975 8.69292 4.99817 8.71446 4.8312 8.76294Z" fill="#7C7C7C" stroke="#7C7C7C" stroke-width="0.25"/>
<path d="M7.8366 8.75225C7.70734 8.70916 7.55115 8.68223 7.4165 8.60683C7.32493 8.55835 7.2603 8.45602 7.20644 8.35907C7.1472 8.25135 7.1849 8.14363 7.29262 8.08977C7.40034 8.03591 7.49729 8.07361 7.56192 8.18133C7.69118 8.386 8.05743 8.386 8.18669 8.18133C8.25671 8.07361 8.34827 8.0413 8.45599 8.08977C8.57449 8.14363 8.6068 8.26751 8.54756 8.35907C8.46677 8.47756 8.35366 8.59067 8.2244 8.66069C8.12745 8.71993 7.9928 8.71993 7.8366 8.75225Z" fill="#7C7C7C" stroke="#7C7C7C" stroke-width="0.25"/>
<path d="M6.3716 9.86714C6.47394 9.86714 6.57088 9.86175 6.67322 9.86714C6.80248 9.87253 6.88866 9.93177 6.89404 10.0718C6.89404 10.2011 6.80787 10.2657 6.68938 10.2711C6.46855 10.2765 6.25311 10.2765 6.03228 10.2711C5.91379 10.2657 5.82762 10.2011 5.833 10.0718C5.833 9.94254 5.91379 9.87791 6.03767 9.87253C6.14539 9.86175 6.2585 9.86714 6.3716 9.86714Z" fill="#7C7C7C" stroke="#7C7C7C" stroke-width="0.25"/>
<path d="M12.1616 17.1111C11.9246 17.068 11.6284 17.0411 11.3483 16.9549C10.8151 16.788 10.5512 16.3571 10.5997 15.7916C10.6374 15.3338 10.7882 14.9029 10.9821 14.4882C11.2298 13.9603 11.4937 13.4379 11.7469 12.9101C11.8546 12.6838 11.9246 12.4469 12.0269 12.226C12.0593 12.156 12.1508 12.0645 12.2208 12.0645C12.2855 12.0645 12.3878 12.1452 12.4201 12.2153C12.6679 12.7431 12.8995 13.2817 13.1472 13.8095C13.4004 14.3427 13.6751 14.8652 13.7936 15.4522C13.8366 15.6569 13.8582 15.8777 13.8366 16.0824C13.7828 16.5887 13.4488 16.9118 12.8941 17.0196C12.6679 17.068 12.4471 17.0788 12.1616 17.1111ZM12.2585 12.8777C12.2316 12.8777 12.2047 12.8724 12.1831 12.8724C11.8277 13.6749 11.4614 14.472 11.1275 15.2799C11.0413 15.4899 11.0305 15.7377 11.0198 15.9747C11.009 16.244 11.149 16.4433 11.4022 16.5402C11.9515 16.7449 12.5117 16.7449 13.0664 16.5402C13.3034 16.454 13.4273 16.2655 13.4488 16.0124C13.4758 15.6838 13.4058 15.3715 13.2765 15.0806C12.9426 14.3427 12.5925 13.6102 12.2585 12.8777Z" fill="#7C7C7C" stroke="#7C7C7C" stroke-width="0.25"/>
<path d="M12.6517 14.6338C12.5925 15.2155 12.3339 15.7002 11.9623 16.1419C11.8815 16.2388 11.7792 16.255 11.6822 16.1742C11.5853 16.0934 11.5907 15.9911 11.6553 15.8887C11.7792 15.7002 11.93 15.5279 12.0216 15.3232C12.1239 15.097 12.1885 14.8492 12.2478 14.6015C12.2801 14.4668 12.3124 14.3537 12.4686 14.3645C12.6356 14.3699 12.6625 14.4937 12.6517 14.6338Z" fill="#7C7C7C" stroke="#7C7C7C" stroke-width="0.25"/>
</g>
<defs>
<clipPath id="clip0_226_1067">
<rect width="15.6571" height="18" fill="white"/>
</clipPath>
</defs>
</svg>
