<svg width="19" height="18" viewBox="0 0 19 18" fill="none" xmlns="http://www.w3.org/2000/svg">
<path d="M2.20641 8.32971C1.57094 11.185 1.57094 14.049 1.84079 16.9391C1.71892 16.9565 1.62317 16.9826 1.52741 16.9913C1.43165 17 1.32719 16.9913 1.1705 16.9913C1.11827 16.0773 1.03992 15.1893 1.02251 14.2927C0.970283 11.8466 1.14439 9.41784 1.86691 7.06746C2.08454 6.34494 2.37181 5.64853 2.66778 4.96083C3.2162 3.68988 3.79074 2.43634 3.82556 1C4.03448 1 4.21729 1 4.45233 1C4.52197 2.47987 3.87779 3.77693 3.30325 5.18716C4.59161 5.50925 5.83644 5.82263 7.1335 6.15343C7.11609 6.30141 7.08127 6.48422 7.03775 6.79761C5.69716 6.46681 4.4001 6.14472 3.00728 5.79652C2.80706 6.35364 2.58073 6.98041 2.34569 7.6333C4.94852 8.51251 6.93329 10.0794 8.25646 12.3602C8.79618 12.3602 9.29237 12.3602 9.87562 12.3602C11.1814 10.0968 13.1836 8.51251 15.8038 7.6333C15.5775 6.98912 15.3598 6.37976 15.1683 5.82263C13.7755 6.17954 12.4262 6.52775 11.0421 6.88466C10.9986 6.6235 10.9812 6.50163 10.9638 6.37976C10.955 6.31012 10.9638 6.24048 10.9638 6.23177C12.2608 5.89227 13.5318 5.56148 14.8549 5.22198C14.2717 3.81175 13.5927 2.54951 13.6623 1.02612C13.88 1.03482 14.0715 1.05223 14.2891 1.06094C14.2978 2.44505 14.8636 3.64635 15.4295 4.83025C16.5089 7.06746 17.0051 9.43526 17.066 11.8901C17.1096 13.4396 17.0225 14.9891 16.9877 16.5386C16.9877 16.6779 16.9616 16.8259 16.9442 17C16.7352 16.9913 16.5524 16.9826 16.3 16.9739C16.5524 14.0751 16.5873 11.2024 15.9431 8.32971C15.7864 8.37323 15.6645 8.39064 15.5513 8.43417C13.3228 9.26115 11.5905 10.6888 10.424 12.778C10.3196 12.9695 10.2935 13.2394 10.2935 13.4657C10.2848 14.5626 10.2848 15.6594 10.2848 16.7911C10.1716 16.7911 9.98878 16.7911 9.75374 16.7911C9.72763 15.9728 9.70151 15.1545 9.66669 14.3275C9.65799 14.0229 9.62317 13.7269 9.58835 13.4222C9.55353 13.0653 9.3359 12.9434 8.98769 12.9434C8.62208 12.9434 8.4915 13.1697 8.46539 13.4657C8.41316 13.9967 8.38704 14.5365 8.36963 15.0762C8.35222 15.642 8.36963 16.1991 8.36963 16.7911C8.11718 16.7911 7.91696 16.7911 7.64711 16.7911C7.69934 15.6507 7.76027 14.519 7.8038 13.3961C7.8125 13.2133 7.82991 13.0044 7.74286 12.8564C6.55026 10.6714 4.7483 9.18281 2.38922 8.36453C2.34569 8.34712 2.30217 8.34712 2.20641 8.32971Z" fill="#7C7C7C" stroke="#7C7C7C" stroke-width="0.25"/>
<path d="M8.78769 10.2274C8.57876 10.0881 8.42207 9.99235 8.23926 9.87048C8.65711 9.20889 9.05754 8.58212 9.51021 7.8683C8.80509 7.8683 8.16962 7.8683 7.42969 7.8683C8.03905 6.86721 8.59617 5.96188 9.17071 5.02173C9.37093 5.1436 9.53632 5.24806 9.72784 5.36993C9.36222 5.97059 9.02272 6.53642 8.63099 7.1806C9.33611 7.1806 9.98029 7.1806 10.7376 7.1806C10.0499 8.25133 9.43186 9.21759 8.78769 10.2274Z" fill="#7C7C7C" stroke="#7C7C7C" stroke-width="0.25"/>
<path d="M9.38824 2.86279C9.38824 3.08042 9.38824 3.25452 9.38824 3.46345C9.17932 3.46345 8.98781 3.46345 8.76147 3.46345C8.76147 3.28064 8.76147 3.08913 8.76147 2.86279C8.96169 2.86279 9.16191 2.86279 9.38824 2.86279Z" fill="#7C7C7C" stroke="#7C7C7C" stroke-width="0.25"/>
</svg>
