<svg width="18" height="18" viewBox="0 0 18 18" fill="none" xmlns="http://www.w3.org/2000/svg">
<path fill-rule="evenodd" clip-rule="evenodd" d="M3.9375 7.54125V6C3.9375 4.65734 4.47087 3.36967 5.42027 2.42027C6.36967 1.47087 7.65734 0.9375 9 0.9375C10.3427 0.9375 11.6303 1.47087 12.5797 2.42027C13.5291 3.36967 14.0625 4.65734 14.0625 6V7.54125C14.8988 7.6035 15.4425 7.761 15.8407 8.15925C16.5 8.81775 16.5 9.879 16.5 12C16.5 14.121 16.5 15.1823 15.8407 15.8407C15.1823 16.5 14.121 16.5 12 16.5H6C3.879 16.5 2.81775 16.5 2.15925 15.8407C1.5 15.1823 1.5 14.121 1.5 12C1.5 9.879 1.5 8.81775 2.15925 8.15925C2.55675 7.761 3.10125 7.6035 3.9375 7.54125ZM5.0625 6C5.0625 4.95571 5.47734 3.95419 6.21577 3.21577C6.95419 2.47734 7.95571 2.0625 9 2.0625C10.0443 2.0625 11.0458 2.47734 11.7842 3.21577C12.5227 3.95419 12.9375 4.95571 12.9375 6V7.503C12.6505 7.5005 12.338 7.4995 12 7.5H6C5.6615 7.4995 5.349 7.5005 5.0625 7.503V6ZM6 12.75C6.19891 12.75 6.38968 12.671 6.53033 12.5303C6.67098 12.3897 6.75 12.1989 6.75 12C6.75 11.8011 6.67098 11.6103 6.53033 11.4697C6.38968 11.329 6.19891 11.25 6 11.25C5.80109 11.25 5.61032 11.329 5.46967 11.4697C5.32902 11.6103 5.25 11.8011 5.25 12C5.25 12.1989 5.32902 12.3897 5.46967 12.5303C5.61032 12.671 5.80109 12.75 6 12.75ZM9 12.75C9.19891 12.75 9.38968 12.671 9.53033 12.5303C9.67098 12.3897 9.75 12.1989 9.75 12C9.75 11.8011 9.67098 11.6103 9.53033 11.4697C9.38968 11.329 9.19891 11.25 9 11.25C8.80109 11.25 8.61032 11.329 8.46967 11.4697C8.32902 11.6103 8.25 11.8011 8.25 12C8.25 12.1989 8.32902 12.3897 8.46967 12.5303C8.61032 12.671 8.80109 12.75 9 12.75ZM12.75 12C12.75 12.1989 12.671 12.3897 12.5303 12.5303C12.3897 12.671 12.1989 12.75 12 12.75C11.8011 12.75 11.6103 12.671 11.4697 12.5303C11.329 12.3897 11.25 12.1989 11.25 12C11.25 11.8011 11.329 11.6103 11.4697 11.4697C11.6103 11.329 11.8011 11.25 12 11.25C12.1989 11.25 12.3897 11.329 12.5303 11.4697C12.671 11.6103 12.75 11.8011 12.75 12Z" fill="#D82149"/>
</svg>
