<svg width="18" height="18" viewBox="0 0 18 18" fill="none" xmlns="http://www.w3.org/2000/svg">
<path fill-rule="evenodd" clip-rule="evenodd" d="M2.25 5.25C2.25 4.45435 2.56607 3.69129 3.12868 3.12868C3.69129 2.56607 4.45435 2.25 5.25 2.25H12.75C13.5456 2.25 14.3087 2.56607 14.8713 3.12868C15.4339 3.69129 15.75 4.45435 15.75 5.25V12.75C15.75 13.5456 15.4339 14.3087 14.8713 14.8713C14.3087 15.4339 13.5456 15.75 12.75 15.75H5.25C4.45435 15.75 3.69129 15.4339 3.12868 14.8713C2.56607 14.3087 2.25 13.5456 2.25 12.75V5.25ZM11.2125 6.0375H6.7875C6.58859 6.0375 6.39782 6.11652 6.25717 6.25717C6.11652 6.39782 6.0375 6.58859 6.0375 6.7875V11.2125C6.0375 11.4114 6.11652 11.6022 6.25717 11.7428C6.39782 11.8835 6.58859 11.9625 6.7875 11.9625H11.2125C11.4114 11.9625 11.6022 11.8835 11.7428 11.7428C11.8835 11.6022 11.9625 11.4114 11.9625 11.2125V6.7875C11.9625 6.58859 11.8835 6.39782 11.7428 6.25717C11.6022 6.11652 11.4114 6.0375 11.2125 6.0375ZM6.7875 5.2875C6.38968 5.2875 6.00814 5.44554 5.72684 5.72684C5.44554 6.00814 5.2875 6.38968 5.2875 6.7875V11.2125C5.2875 11.4095 5.3263 11.6045 5.40168 11.7865C5.47706 11.9685 5.58755 12.1339 5.72684 12.2732C5.86613 12.4124 6.03149 12.5229 6.21347 12.5983C6.39546 12.6737 6.59052 12.7125 6.7875 12.7125H11.2125C11.4095 12.7125 11.6045 12.6737 11.7865 12.5983C11.9685 12.5229 12.1339 12.4124 12.2732 12.2732C12.4124 12.1339 12.5229 11.9685 12.5983 11.7865C12.6737 11.6045 12.7125 11.4095 12.7125 11.2125V6.7875C12.7125 6.38968 12.5545 6.00814 12.2732 5.72684C11.9919 5.44554 11.6103 5.2875 11.2125 5.2875H6.7875ZM7.65 7.3125C7.73951 7.3125 7.82536 7.27694 7.88865 7.21365C7.95194 7.15036 7.9875 7.06451 7.9875 6.975C7.9875 6.88549 7.95194 6.79964 7.88865 6.73635C7.82536 6.67306 7.73951 6.6375 7.65 6.6375C7.56049 6.6375 7.47464 6.67306 7.41135 6.73635C7.34806 6.79964 7.3125 6.88549 7.3125 6.975C7.3125 7.06451 7.34806 7.15036 7.41135 7.21365C7.47464 7.27694 7.56049 7.3125 7.65 7.3125ZM8.6625 7.9875C8.6625 8.07701 8.62694 8.16285 8.56365 8.22615C8.50035 8.28944 8.41451 8.325 8.325 8.325C8.23549 8.325 8.14965 8.28944 8.08635 8.22615C8.02306 8.16285 7.9875 8.07701 7.9875 7.9875C7.9875 7.89799 8.02306 7.81215 8.08635 7.74885C8.14965 7.68556 8.23549 7.65 8.325 7.65C8.41451 7.65 8.50035 7.68556 8.56365 7.74885C8.62694 7.81215 8.6625 7.89799 8.6625 7.9875ZM6.975 8.325C7.06451 8.325 7.15036 8.28944 7.21365 8.22615C7.27694 8.16285 7.3125 8.07701 7.3125 7.9875C7.3125 7.89799 7.27694 7.81215 7.21365 7.74885C7.15036 7.68556 7.06451 7.65 6.975 7.65C6.88549 7.65 6.79964 7.68556 6.73635 7.74885C6.67306 7.81215 6.6375 7.89799 6.6375 7.9875C6.6375 8.07701 6.67306 8.16285 6.73635 8.22615C6.79964 8.28944 6.88549 8.325 6.975 8.325ZM7.9875 9C7.9875 9.08951 7.95194 9.17535 7.88865 9.23865C7.82536 9.30194 7.73951 9.3375 7.65 9.3375C7.56049 9.3375 7.47464 9.30194 7.41135 9.23865C7.34806 9.17535 7.3125 9.08951 7.3125 9C7.3125 8.91049 7.34806 8.82465 7.41135 8.76135C7.47464 8.69806 7.56049 8.6625 7.65 8.6625C7.73951 8.6625 7.82536 8.69806 7.88865 8.76135C7.95194 8.82465 7.9875 8.91049 7.9875 9ZM8.325 10.35C8.41451 10.35 8.50035 10.3144 8.56365 10.2511C8.62694 10.1879 8.6625 10.102 8.6625 10.0125C8.6625 9.92299 8.62694 9.83715 8.56365 9.77385C8.50035 9.71056 8.41451 9.675 8.325 9.675C8.23549 9.675 8.14965 9.71056 8.08635 9.77385C8.02306 9.83715 7.9875 9.92299 7.9875 10.0125C7.9875 10.102 8.02306 10.1879 8.08635 10.2511C8.14965 10.3144 8.23549 10.35 8.325 10.35ZM7.3125 10.0125C7.3125 10.102 7.27694 10.1879 7.21365 10.2511C7.15036 10.3144 7.06451 10.35 6.975 10.35C6.88549 10.35 6.79964 10.3144 6.73635 10.2511C6.67306 10.1879 6.6375 10.102 6.6375 10.0125C6.6375 9.92299 6.67306 9.83715 6.73635 9.77385C6.79964 9.71056 6.88549 9.675 6.975 9.675C7.06451 9.675 7.15036 9.71056 7.21365 9.77385C7.27694 9.83715 7.3125 9.92299 7.3125 10.0125ZM7.65 11.3625C7.69432 11.3625 7.73821 11.3538 7.77916 11.3368C7.8201 11.3198 7.85731 11.295 7.88865 11.2636C7.91999 11.2323 7.94485 11.1951 7.96181 11.1542C7.97877 11.1132 7.9875 11.0693 7.9875 11.025C7.9875 10.9807 7.97877 10.9368 7.96181 10.8958C7.94485 10.8549 7.91999 10.8177 7.88865 10.7864C7.85731 10.755 7.8201 10.7302 7.77916 10.7132C7.73821 10.6962 7.69432 10.6875 7.65 10.6875C7.56049 10.6875 7.47464 10.7231 7.41135 10.7864C7.34806 10.8496 7.3125 10.9355 7.3125 11.025C7.3125 11.1145 7.34806 11.2004 7.41135 11.2636C7.47464 11.3269 7.56049 11.3625 7.65 11.3625ZM9.3375 6.975C9.3375 7.06451 9.30194 7.15036 9.23865 7.21365C9.17535 7.27694 9.08951 7.3125 9 7.3125C8.91049 7.3125 8.82465 7.27694 8.76135 7.21365C8.69806 7.15036 8.6625 7.06451 8.6625 6.975C8.6625 6.88549 8.69806 6.79964 8.76135 6.73635C8.82465 6.67306 8.91049 6.6375 9 6.6375C9.08951 6.6375 9.17535 6.67306 9.23865 6.73635C9.30194 6.79964 9.3375 6.88549 9.3375 6.975ZM9.675 8.325C9.76451 8.325 9.85035 8.28944 9.91365 8.22615C9.97694 8.16285 10.0125 8.07701 10.0125 7.9875C10.0125 7.89799 9.97694 7.81215 9.91365 7.74885C9.85035 7.68556 9.76451 7.65 9.675 7.65C9.58549 7.65 9.49965 7.68556 9.43635 7.74885C9.37306 7.81215 9.3375 7.89799 9.3375 7.9875C9.3375 8.07701 9.37306 8.16285 9.43635 8.22615C9.49965 8.28944 9.58549 8.325 9.675 8.325ZM9.3375 9C9.3375 9.08951 9.30194 9.17535 9.23865 9.23865C9.17535 9.30194 9.08951 9.3375 9 9.3375C8.91049 9.3375 8.82465 9.30194 8.76135 9.23865C8.69806 9.17535 8.6625 9.08951 8.6625 9C8.6625 8.91049 8.69806 8.82465 8.76135 8.76135C8.82465 8.69806 8.91049 8.6625 9 8.6625C9.08951 8.6625 9.17535 8.69806 9.23865 8.76135C9.30194 8.82465 9.3375 8.91049 9.3375 9ZM9.675 10.35C9.76451 10.35 9.85035 10.3144 9.91365 10.2511C9.97694 10.1879 10.0125 10.102 10.0125 10.0125C10.0125 9.92299 9.97694 9.83715 9.91365 9.77385C9.85035 9.71056 9.76451 9.675 9.675 9.675C9.58549 9.675 9.49965 9.71056 9.43635 9.77385C9.37306 9.83715 9.3375 9.92299 9.3375 10.0125C9.3375 10.102 9.37306 10.1879 9.43635 10.2511C9.49965 10.3144 9.58549 10.35 9.675 10.35ZM9.3375 11.025C9.3375 11.1145 9.30194 11.2004 9.23865 11.2636C9.17535 11.3269 9.08951 11.3625 9 11.3625C8.91049 11.3625 8.82465 11.3269 8.76135 11.2636C8.69806 11.2004 8.6625 11.1145 8.6625 11.025C8.6625 10.9355 8.69806 10.8496 8.76135 10.7864C8.82465 10.7231 8.91049 10.6875 9 10.6875C9.08951 10.6875 9.17535 10.7231 9.23865 10.7864C9.30194 10.8496 9.3375 10.9355 9.3375 11.025ZM10.35 7.3125C10.4395 7.3125 10.5254 7.27694 10.5886 7.21365C10.6519 7.15036 10.6875 7.06451 10.6875 6.975C10.6875 6.88549 10.6519 6.79964 10.5886 6.73635C10.5254 6.67306 10.4395 6.6375 10.35 6.6375C10.2605 6.6375 10.1746 6.67306 10.1114 6.73635C10.0481 6.79964 10.0125 6.88549 10.0125 6.975C10.0125 7.06451 10.0481 7.15036 10.1114 7.21365C10.1746 7.27694 10.2605 7.3125 10.35 7.3125ZM11.3625 7.9875C11.3625 8.03182 11.3538 8.07571 11.3368 8.11666C11.3198 8.1576 11.295 8.19481 11.2636 8.22615C11.2323 8.25749 11.1951 8.28235 11.1542 8.29931C11.1132 8.31627 11.0693 8.325 11.025 8.325C10.9807 8.325 10.9368 8.31627 10.8958 8.29931C10.8549 8.28235 10.8177 8.25749 10.7864 8.22615C10.755 8.19481 10.7302 8.1576 10.7132 8.11666C10.6962 8.07571 10.6875 8.03182 10.6875 7.9875C10.6875 7.89799 10.7231 7.81215 10.7864 7.74885C10.8496 7.68556 10.9355 7.65 11.025 7.65C11.1145 7.65 11.2004 7.68556 11.2636 7.74885C11.3269 7.81215 11.3625 7.89799 11.3625 7.9875ZM10.35 9.3375C10.4395 9.3375 10.5254 9.30194 10.5886 9.23865C10.6519 9.17535 10.6875 9.08951 10.6875 9C10.6875 8.91049 10.6519 8.82465 10.5886 8.76135C10.5254 8.69806 10.4395 8.6625 10.35 8.6625C10.2605 8.6625 10.1746 8.69806 10.1114 8.76135C10.0481 8.82465 10.0125 8.91049 10.0125 9C10.0125 9.08951 10.0481 9.17535 10.1114 9.23865C10.1746 9.30194 10.2605 9.3375 10.35 9.3375ZM11.3625 10.0125C11.3625 10.0568 11.3538 10.1007 11.3368 10.1417C11.3198 10.1826 11.295 10.2198 11.2636 10.2511C11.2323 10.2825 11.1951 10.3073 11.1542 10.3243C11.1132 10.3413 11.0693 10.35 11.025 10.35C10.9807 10.35 10.9368 10.3413 10.8958 10.3243C10.8549 10.3073 10.8177 10.2825 10.7864 10.2511C10.755 10.2198 10.7302 10.1826 10.7132 10.1417C10.6962 10.1007 10.6875 10.0568 10.6875 10.0125C10.6875 9.92299 10.7231 9.83715 10.7864 9.77385C10.8496 9.71056 10.9355 9.675 11.025 9.675C11.1145 9.675 11.2004 9.71056 11.2636 9.77385C11.3269 9.83715 11.3625 9.92299 11.3625 10.0125ZM10.35 11.3625C10.3943 11.3625 10.4382 11.3538 10.4792 11.3368C10.5201 11.3198 10.5573 11.295 10.5886 11.2636C10.62 11.2323 10.6448 11.1951 10.6618 11.1542C10.6788 11.1132 10.6875 11.0693 10.6875 11.025C10.6875 10.9807 10.6788 10.9368 10.6618 10.8958C10.6448 10.8549 10.62 10.8177 10.5886 10.7864C10.5573 10.755 10.5201 10.7302 10.4792 10.7132C10.4382 10.6962 10.3943 10.6875 10.35 10.6875C10.2605 10.6875 10.1746 10.7231 10.1114 10.7864C10.0481 10.8496 10.0125 10.9355 10.0125 11.025C10.0125 11.1145 10.0481 11.2004 10.1114 11.2636C10.1746 11.3269 10.2605 11.3625 10.35 11.3625Z" fill="black"/>
</svg>
