<svg width="18" height="18" viewBox="0 0 18 18" fill="none" xmlns="http://www.w3.org/2000/svg">
<path d="M3.11343 1.03761C3.40892 1.55338 3.52712 2.12288 3.55398 2.7085C3.59696 3.65408 3.38743 4.56205 3.0597 5.43779C2.85554 5.98042 2.62452 6.51231 2.44185 7.06032C2.07651 8.16708 1.87772 9.30071 2.08188 10.4719C2.30753 11.7345 2.96299 12.7016 4.12885 13.255C5.54723 13.9265 6.98172 13.8621 8.36785 13.1529C9.61968 12.5135 10.3665 11.482 10.5008 10.069C10.6244 8.73121 10.2375 7.51699 9.52297 6.39949C8.89974 5.4163 8.07236 4.61578 7.19125 3.86898C5.93406 2.8052 4.55329 1.9026 3.16178 1.02686C3.14566 1.01612 3.12417 1.01075 3.10268 1C3.10805 1.02149 3.10805 1.02686 3.11343 1.03761ZM8.63111 6.8293C9.01257 7.36119 9.24359 7.94143 9.32956 8.5754C9.4585 9.48875 9.23285 10.3269 8.73857 11.1113C8.67409 11.0683 8.615 11.0307 8.53978 10.9877C8.92661 10.3645 9.15226 9.69828 9.1254 8.9676C9.09853 8.2423 8.86751 7.58147 8.44844 6.96899C8.50754 6.92601 8.56127 6.88302 8.63111 6.8293Z" fill="#D82149"/>
<path d="M13.3915 8.95264C13.7935 9.28019 14.1955 9.60774 14.59 9.94273C15.4015 10.6425 16.1682 11.3869 16.7414 12.3026C17.1583 12.9577 17.3817 13.6798 17.3742 14.454C17.3668 15.6153 16.7117 16.5235 15.6025 16.851C14.5156 17.1637 13.5106 17.0074 12.6917 16.1736C12.1558 15.6302 12.0218 14.9378 12.0888 14.2009C12.1558 13.4713 12.4089 12.8088 12.7513 12.1686C13.0416 11.6326 13.3171 11.104 13.4287 10.5011C13.533 9.9874 13.5404 9.48118 13.3543 8.98242C13.3692 8.96753 13.3841 8.96008 13.3915 8.95264Z" fill="#D82149"/>
<path d="M3.11343 1.03761C3.40892 1.55338 3.52712 2.12288 3.55398 2.7085C3.59696 3.65408 3.38743 4.56205 3.0597 5.43779C2.85554 5.98042 2.62452 6.51231 2.44185 7.06032C2.07651 8.16708 1.87772 9.30071 2.08188 10.4719C2.30753 11.7345 2.96299 12.7016 4.12885 13.255C5.54723 13.9265 6.98172 13.8621 8.36785 13.1529C9.61968 12.5135 10.3665 11.482 10.5008 10.069C10.6244 8.73121 10.2375 7.51699 9.52297 6.39949C8.89974 5.4163 8.07236 4.61578 7.19125 3.86898C5.93406 2.8052 4.55329 1.9026 3.16178 1.02686C3.14566 1.01612 3.12417 1.01075 3.10268 1C3.10805 1.02149 3.10805 1.02686 3.11343 1.03761ZM8.63111 6.8293C9.01257 7.36119 9.24359 7.94143 9.32956 8.5754C9.4585 9.48875 9.23285 10.3269 8.73857 11.1113C8.67409 11.0683 8.615 11.0307 8.53978 10.9877C8.92661 10.3645 9.15226 9.69828 9.1254 8.9676C9.09853 8.2423 8.86751 7.58147 8.44844 6.96899C8.50754 6.92601 8.56127 6.88302 8.63111 6.8293Z" fill="#D82149"/>
<path d="M13.3915 8.95264C13.7935 9.28019 14.1955 9.60774 14.59 9.94273C15.4015 10.6425 16.1682 11.3869 16.7414 12.3026C17.1583 12.9577 17.3817 13.6798 17.3742 14.454C17.3668 15.6153 16.7117 16.5235 15.6025 16.851C14.5156 17.1637 13.5106 17.0074 12.6917 16.1736C12.1558 15.6302 12.0218 14.9378 12.0888 14.2009C12.1558 13.4713 12.4089 12.8088 12.7513 12.1686C13.0416 11.6326 13.3171 11.104 13.4287 10.5011C13.533 9.9874 13.5404 9.48118 13.3543 8.98242C13.3692 8.96753 13.3841 8.96008 13.3915 8.95264Z" fill="#D82149"/>
</svg>
