<svg width="13" height="16" viewBox="0 0 13 16" fill="none" xmlns="http://www.w3.org/2000/svg">
<g clip-path="url(#clip0_226_941)">
<path d="M0.393749 11.1066C1.04208 11.1684 1.63639 11.1915 2.2307 11.2764C3.4965 11.4617 4.66968 11.8785 5.71936 12.6271C6.10528 12.905 6.58381 12.9282 6.95429 12.6657C8.44392 11.616 10.1111 11.207 11.894 11.1529C12.3648 11.1375 12.3648 11.1298 12.2876 10.6744C12.249 10.4583 12.2027 10.2499 12.1564 9.98749C11.894 10.0647 11.6624 10.1419 11.4309 10.1882C11.346 10.2036 11.2457 10.1187 11.1453 10.0801C11.2071 10.0106 11.2688 9.93346 11.3306 9.86399C11.3383 9.85628 11.3537 9.85627 11.3691 9.84856C12.0638 9.56298 12.0715 9.56298 11.7705 8.8529C11.3769 7.9267 10.9524 7.02367 10.5742 6.09747C9.79462 4.19106 9.77918 2.23833 10.2886 0.270168C10.3117 0.16983 10.4507 0.0926473 10.5356 2.78535e-05C10.5587 0.12352 10.6282 0.262449 10.605 0.370505C10.2654 1.8447 10.1111 3.33433 10.5433 4.8008C10.8752 5.90451 11.346 6.96964 11.8091 8.02704C12.4111 9.4009 12.8202 10.8056 12.7198 12.3184C12.6427 13.507 12.3339 14.6493 11.9017 15.753C11.8631 15.8534 11.7165 15.9074 11.6161 15.9846C11.6084 15.8611 11.5467 15.7222 11.5853 15.6141C12.002 14.4718 12.3339 13.3141 12.3648 12.0869C12.3802 11.4771 12.3802 11.4694 11.7551 11.5003C10.2268 11.5775 8.7758 11.8939 7.47141 12.7352C7.20899 12.905 7.10865 13.0825 7.20899 13.399C7.44054 14.1168 7.65665 14.85 7.85733 15.5755C7.8882 15.699 7.84189 15.8457 7.83417 15.9846C7.73384 15.892 7.58719 15.8148 7.5486 15.699C7.30933 14.9503 7.06235 14.2094 6.88482 13.4453C6.77677 12.9822 6.46804 13.1906 6.22105 13.1443C5.95863 13.0902 5.9046 13.2523 5.85057 13.4607C5.64218 14.2171 5.41835 14.9658 5.17137 15.7145C5.13277 15.8225 4.97841 15.892 4.87807 15.9769C4.87035 15.8534 4.82404 15.7145 4.85492 15.5987C5.04787 14.9195 5.2717 14.248 5.46466 13.5688C5.63446 12.9667 5.62674 12.959 5.07875 12.6271C4.05993 12.0097 2.94078 11.6932 1.7676 11.562C1.42028 11.5234 1.07296 11.5234 0.725635 11.4926C0.440058 11.4694 0.347439 11.5775 0.347439 11.863C0.347439 13.1057 0.663889 14.2789 1.07296 15.4366C1.12699 15.6064 1.09611 15.7994 1.10383 15.9846C0.988057 15.8457 0.818254 15.7222 0.756508 15.5601C-0.00760184 13.5379 -0.339488 11.4771 0.401467 9.37774C0.733353 8.42067 1.16558 7.49448 1.59008 6.576C2.49312 4.60012 2.65521 2.57022 2.1458 0.478561C2.13808 0.455407 2.12264 0.424533 2.13036 0.401379C2.15352 0.262449 2.17667 0.131239 2.20755 -0.00769043C2.29245 0.100366 2.44681 0.192985 2.45453 0.308759C2.57802 1.2967 2.75554 2.29236 2.76326 3.28802C2.7787 4.83939 2.1458 6.2364 1.50518 7.62569C1.2582 8.15825 1.04208 8.71397 0.810536 9.25425C0.694762 9.52439 0.733353 9.68647 1.0498 9.74822C2.11493 9.97205 3.18005 10.2036 4.25289 10.4351C4.37638 10.4583 4.51531 10.4583 4.63109 10.4969C4.69283 10.52 4.75458 10.6127 4.77002 10.6821C4.77773 10.713 4.66968 10.7979 4.60793 10.8056C4.43041 10.8056 4.24517 10.7979 4.06765 10.767C3.02568 10.5432 1.98372 10.3348 0.949465 10.0801C0.663889 10.0106 0.540396 10.0415 0.509523 10.3348C0.47865 10.5895 0.43234 10.8365 0.393749 11.1066Z" fill="#7C7C7C" stroke="#7C7C7C" stroke-width="0.36"/>
<path d="M6.36764 6.55286C8.5905 6.55286 10.4043 8.32034 10.4197 10.5046C10.4197 10.5586 10.4352 10.6204 10.4197 10.659C10.3657 10.7593 10.2962 10.8519 10.2345 10.9446C10.1728 10.8519 10.0801 10.7593 10.057 10.6513C9.92577 10.111 9.90261 9.51668 9.67106 9.02271C9.04588 7.68744 7.94217 6.96964 6.46798 6.93105C4.95519 6.89246 3.84376 7.61026 3.10281 8.91465C3.01019 9.06902 2.8481 9.18479 2.72461 9.316C2.74005 9.12304 2.70145 8.89921 2.78636 8.73713C3.45013 7.38643 4.84714 6.55286 6.36764 6.55286Z" fill="#7C7C7C" stroke="#7C7C7C" stroke-width="0.36"/>
<path d="M8.48255 10.7671C8.53658 9.79458 7.94227 8.89926 7.06239 8.60597C6.15163 8.29724 5.16369 8.63684 4.60798 9.43182C4.50764 9.57847 4.47677 9.89492 4.19891 9.74055C4.1526 9.7174 4.22206 9.3392 4.33012 9.18484C4.9553 8.27408 6.14392 7.89588 7.16273 8.24321C8.22013 8.60597 8.90706 9.61706 8.86075 10.7439C8.86075 10.8211 8.86847 10.9137 8.8376 10.9678C8.78357 11.0681 8.69095 11.1453 8.61377 11.2302C8.56746 11.1298 8.50571 11.0295 8.47484 10.9215C8.45168 10.8597 8.48255 10.7902 8.48255 10.7671Z" fill="#7C7C7C" stroke="#7C7C7C" stroke-width="0.36"/>
<path d="M6.35983 11.508C5.85814 11.5002 5.45679 11.0989 5.45679 10.5972C5.45679 10.0878 5.89673 9.6633 6.39842 9.68645C6.89239 9.70189 7.29374 10.1264 7.2783 10.6204C7.2783 11.1221 6.86923 11.5157 6.35983 11.508Z" fill="#7C7C7C" stroke="#7C7C7C" stroke-width="0.36"/>
<path d="M6.64541 5.35644C6.52192 5.47993 6.43702 5.56483 6.35984 5.65745C6.30581 5.53396 6.21319 5.40275 6.20547 5.27926C6.19775 5.18664 6.30581 5.0863 6.36755 4.98596C6.44474 5.0863 6.52964 5.19436 6.64541 5.35644Z" fill="#7C7C7C" stroke="#7C7C7C" stroke-width="0.36"/>
</g>
<defs>
<clipPath id="clip0_226_941">
<rect width="12.7429" height="16" fill="white"/>
</clipPath>
</defs>
</svg>
