<svg width="195" height="180" viewBox="0 0 195 180" fill="none" xmlns="http://www.w3.org/2000/svg">
<g opacity="0.3" clip-path="url(#clip0_85_2987)">
<path d="M92.8665 138.028C92.8665 138.028 89.7176 133.127 81.1567 136.273C81.1567 136.273 71.8622 142.817 66.6464 146.534C66.6464 146.534 68.0798 147.025 77.308 147.347C77.308 147.347 84.0357 148.841 89.6621 143.909C89.6621 143.909 93.0748 140.585 93.2805 138.475L92.8836 138.014L92.8665 138.028Z" fill="#F4567F"/>
<path d="M167.47 137.057C167.47 137.057 156.918 136.06 152.52 144.009C152.52 144.009 147.973 156.309 146.653 157.297C146.653 157.297 147.146 158.18 160.212 152.702C160.212 152.702 166.582 150.43 168.772 144.441C168.803 144.444 170.747 139.827 167.47 137.057Z" fill="#F4567F"/>
<path d="M135.855 134.149C135.855 134.149 136.47 125.502 131.984 121.811C131.984 121.811 126.142 118.098 111.974 116.942L104.325 115.587L104.425 116.601C104.425 116.601 117.498 129.404 122.355 131.765C122.355 131.765 129.478 135.238 134.493 135.054L135.855 134.149Z" fill="#F4567F"/>
<path d="M156.824 111.46C156.824 111.46 169.584 115.195 172.457 115.458C172.457 115.458 184.698 117.796 182.966 127.287L182.394 128.522C182.394 128.522 173.308 129.92 166.07 122.859C166.088 122.844 157.915 113.108 156.824 111.46Z" fill="#F4567F"/>
<path d="M71.4982 121.632C71.4982 121.632 65.4907 117.347 63.9955 111.914C63.9955 111.914 64.0091 102.119 66.8962 98.7719L72.5988 107.987C72.5988 107.987 76.3494 114.244 74.9556 117.496C74.9874 117.498 71.9983 121.142 71.4982 121.632Z" fill="#F4567F"/>
<path d="M39.1349 91.5659C39.1349 91.5659 45.0445 84.1299 51.425 82.1463C51.425 82.1463 56.3564 80.31 58.5053 82.7719C58.5053 82.7719 60.7709 84.9548 62.0299 87.3501C62.0299 87.3501 64.1589 89.6507 63.7869 90.5657C63.7869 90.5657 61.402 92.1131 57.834 93.6679C57.834 93.6679 51.0941 96.8231 50.4481 96.4871L39.1349 91.5659Z" fill="#F4567F"/>
<path d="M38.6925 91.9164C38.6925 91.9164 45.2535 94.3567 46.2349 94.9095C46.2349 94.9095 50.4584 95.9126 51.2195 97.4877C51.2195 97.4877 52.6019 99.3009 50.9377 102.964C50.9377 102.964 51.1246 105.806 52.4526 109.629C52.4526 109.629 49.4853 115.543 45.7322 115.087L35.1394 108.653C35.1394 108.653 31.5827 102.794 34.1219 100.252L36.053 95.5861L38.6925 91.9164Z" fill="#F4567F"/>
<path d="M39.7333 90.6042C39.7333 90.6042 48.6757 81.7171 55.3264 81.4636C55.6466 81.4556 57.7379 82.1234 57.7379 82.1234C57.7379 82.1234 59.6308 81.3861 58.3133 76.7812C58.3133 76.7812 56.4898 66.3377 56.7471 65.4621C56.7471 65.4621 50.9185 66.0488 50.2776 65.857C49.6368 65.6653 50.9185 66.0488 50.9185 66.0488C50.9185 66.0488 43.9764 64.8583 40.5049 68.1142C40.5049 68.1142 37.5546 71.6648 37.1097 73.9805C37.1097 73.9805 39.0855 78.9703 38.9487 80.1585L39.7333 90.6042Z" fill="#F4567F"/>
<path d="M26.5952 85.0828C26.5952 85.0828 19.3747 78.2146 20.1972 72.9867C20.1972 72.9867 19.9666 67.9518 19.6605 66.4907C19.6605 66.4907 29.8657 65.2886 31.9986 67.1101C31.9986 67.1101 37.8219 72.1479 38.3565 77.6051C38.3565 77.6051 40.0925 89.4323 39.3872 91.1693C39.3872 91.1693 33.6586 87.0014 31.201 86.5299L26.5952 85.0828Z" fill="#F4567F"/>
<path d="M12.6521 96.5201C12.6521 96.5201 18.6012 88.1282 20.321 86.4991C20.321 86.4991 27.8226 84.056 33.447 87.481L39.0837 90.9548C39.0837 90.9548 33.9328 97.6486 33.4149 102.436C33.4149 102.436 27.6916 105.459 22.1198 102.614C22.1345 102.631 14.6788 97.8382 12.6521 96.5201Z" fill="#F4567F"/>
<path d="M206.274 128.455C206.639 128.498 206.798 128.717 206.74 129.065C206.682 129.412 206.391 129.454 206.105 129.433C204.45 129.341 202.79 129.313 201.16 129.526C196.767 130.156 192.304 130.43 187.915 131.204C186.085 131.531 184.233 131.728 182.43 132.12C179.7 132.715 177.028 133.618 174.427 134.637C172.617 135.333 170.862 136.16 169.13 137.086C168.881 137.211 168.698 137.309 168.895 137.675C169.906 139.541 170.027 141.547 169.572 143.575C168.962 146.389 167.329 148.568 165.12 150.321C163.082 151.926 160.736 152.965 158.349 153.889C154.896 155.197 151.4 156.421 148.043 157.944C147.779 158.052 147.483 158.158 147.21 158.185C146.628 158.27 146.243 157.857 146.318 157.288C146.361 156.923 146.529 156.6 146.697 156.277C148.287 153.392 149.505 150.351 150.538 147.232C151.177 145.314 152.033 143.477 153.347 141.929C155.556 139.314 158.435 137.788 161.684 136.864C163.153 136.463 164.626 136.205 166.159 136.224C166.43 136.228 166.721 136.186 166.985 136.286C167.871 136.624 168.569 136.261 169.287 135.851C170.571 135.132 171.909 134.545 173.245 133.99C173.443 133.909 173.641 133.828 173.816 133.617C173.526 133.659 173.218 133.716 172.942 133.775C165.936 135.137 158.931 136.498 151.908 137.667C147.249 138.437 142.542 138.98 137.85 139.54C133.207 140.087 128.534 140.6 124.106 142.331C120.633 143.685 117.388 145.408 114.656 147.968C113.402 149.136 112.28 150.459 111.205 151.8C110.939 152.148 110.911 152.529 110.897 152.928C110.887 153.918 110.94 154.913 110.754 155.906C110.394 157.732 109.495 159.279 108.183 160.587C106.904 161.866 105.452 162.908 103.858 163.715C103.526 163.882 103.179 164.032 102.805 164.116C101.764 164.358 101.049 163.873 100.874 162.805C100.787 162.255 100.844 161.7 100.917 161.162C101.307 158.507 102.652 156.338 104.381 154.374C105.744 152.814 107.377 151.706 109.451 151.318C110.116 151.192 110.636 150.863 111.026 150.349C115.124 145.126 120.608 142.101 126.876 140.333C127.04 140.281 127.248 140.281 127.404 140.116C127.237 139.992 127.074 140.044 126.915 140.032C119.721 140.069 112.587 139.519 105.51 138.207C103.131 137.757 100.738 137.914 98.3626 138.056C97.1112 138.122 95.8674 138.301 94.6136 138.399C94.115 138.441 93.8294 138.628 93.6178 139.107C92.7978 140.883 91.7624 142.548 90.3623 143.961C87.9426 146.401 85.0511 147.671 81.6195 147.829C79.872 147.906 78.1192 147.839 76.3541 147.723C73.6502 147.553 70.9341 147.334 68.2064 147.481C67.2606 147.522 66.3222 147.676 65.3962 147.878C64.9906 147.96 64.5656 148.088 64.3788 147.594C64.1796 147.052 64.6242 146.878 64.9904 146.681C67.0901 145.528 69.1017 144.272 71.0739 142.902C73.2975 141.374 75.3029 139.559 77.4701 137.931C80.5036 135.617 83.8472 134.285 87.7298 134.72C89.8227 134.94 91.6113 135.809 93.1153 137.28C93.2647 137.419 93.387 137.492 93.6119 137.477C95.4449 137.326 97.2532 137.078 99.1768 136.998C99.0321 136.796 98.8879 136.801 98.7461 136.774C94.2436 135.654 89.8285 134.221 85.5154 132.492C82.4293 131.878 80.0099 129.827 77.1331 128.765C73.1994 127.305 69.4115 125.391 65.2083 124.757C61.9855 124.26 58.7736 124.26 55.5554 124.77C55.2646 124.812 55.035 124.891 54.8424 125.116C54.7717 125.207 54.6545 125.278 54.5397 125.317C52.923 125.995 51.3479 126.756 49.6624 127.286C47.2905 128.019 44.9775 127.75 42.6637 127.066C42.3506 126.978 42.0935 126.783 42.0879 126.431C42.0652 126.094 42.2408 125.883 42.5387 125.746C44.1649 124.941 45.7324 124.067 47.4127 123.394C48.9123 122.787 50.4156 122.772 51.9638 123.223C52.793 123.461 53.6269 123.635 54.4608 123.809C54.6173 123.853 54.8104 123.836 54.9717 123.816C59.6656 123.016 64.2859 123.202 68.8524 124.534C68.9159 124.539 68.9795 124.544 69.0967 124.473C68.8837 124.329 68.6537 124.2 68.4407 124.056C63.8053 121.296 59.333 118.277 55.2361 114.727C54.2296 113.869 53.2744 112.966 52.3045 112.047C51.9616 111.717 51.7391 111.701 51.4393 112.078C50.7029 112.95 49.9641 113.853 48.9902 114.483C48.2847 114.942 47.5546 115.303 46.7287 115.449C45.5802 115.634 44.5091 115.426 43.6592 114.612C42.197 113.224 40.4814 112.233 38.6197 111.486C36.5573 110.645 34.902 109.275 33.8028 107.307C33.1697 106.157 32.8274 104.965 32.8613 103.657C32.8581 103.273 32.804 103.141 32.4207 103.352C29.8034 104.802 27.0924 104.727 24.3797 103.821C22.5402 103.204 20.8516 102.279 19.219 101.246C17.3564 100.084 15.4938 98.9219 13.5605 97.8505C11.9478 96.9788 11.8511 96.3483 13.1023 95.0037C14.4047 93.615 15.4941 92.0825 16.3705 90.4063C16.9305 89.3296 17.5198 88.287 18.4274 87.476C20.3646 85.7193 22.7417 85.1301 25.2715 85.0637C25.4475 85.0609 25.6553 85.0604 25.863 85.06C25.8356 84.7863 25.6349 84.6914 25.5026 84.5377C24.1111 83.0593 22.7708 81.5368 21.6526 79.8232C20.3921 77.8752 19.8669 75.7106 19.7985 73.4204C19.7306 71.3379 19.5943 69.3142 19.0425 67.2914C18.7273 66.1652 19.2273 65.6753 20.379 65.8733C21.8144 66.1245 23.2195 65.926 24.627 65.6957C24.9667 65.6412 25.3063 65.5868 25.6313 65.5152C28.4116 64.8762 30.7819 65.6608 32.8977 67.497C34.4282 68.8259 35.7709 70.3166 36.7743 72.0696C36.8308 72.1697 36.8701 72.2845 37.0096 72.3429C37.1756 72.2594 37.1899 72.0687 37.2653 71.9146C39.0022 67.9217 41.9575 65.586 46.3961 65.4226C48.0142 65.3679 49.6251 65.4085 51.2408 65.3855C52.6805 65.3654 54.115 65.2011 55.5197 64.7948C55.7493 64.7161 55.9912 64.6862 56.2332 64.6564C56.8124 64.6038 57.2236 64.8743 57.3421 65.4265C57.4137 65.7514 57.4511 66.1058 57.4567 66.4578C57.5273 69.7869 58.001 73.0662 58.7656 76.3034C59.0097 77.3125 59.2197 78.3509 59.2366 79.4068C59.2383 80.2379 59.1765 81.0642 58.5986 81.7401C58.4767 81.8748 58.4989 82.0043 58.636 82.0945C60.1391 83.1497 60.9296 84.7589 61.8396 86.2652C62.4651 87.3027 63.3103 88.1809 63.9699 89.1891C64.6614 90.1996 64.4748 90.9846 63.4178 91.6566C62.8637 92.0147 62.2531 92.2726 61.6449 92.4988C59.5272 93.2512 57.4954 94.1379 55.5422 95.2542C54.3239 95.9461 53.0393 96.4572 51.6465 96.7046C51.3068 96.7591 51.2973 96.8862 51.4861 97.14C52.5033 98.4945 52.6164 99.9731 51.9596 101.49C51.225 103.193 51.2945 104.828 52.0337 106.481C52.4168 107.341 52.7022 108.225 52.8093 109.144C52.8713 109.596 52.9457 110.097 52.7706 110.515C52.559 110.995 52.7477 111.249 53.0759 111.561C56.9679 115.288 61.2646 118.518 65.827 121.4C69.1533 123.502 72.5233 125.448 76.0518 127.198C76.2207 127.291 76.3872 127.415 76.6585 127.419C76.4157 127.034 76.0803 126.817 75.7815 126.539C74.6916 125.515 73.6701 124.431 72.7192 123.258C72.3834 122.833 71.9769 122.499 71.5168 122.241C68.8687 120.684 66.7572 118.577 65.2141 115.921C63.4453 112.864 63.0669 109.592 63.8198 106.149C64.3791 103.586 65.3126 101.147 66.0602 98.6298C66.2761 97.8789 66.9872 97.7723 67.4677 98.3995C67.8769 98.9095 68.1349 99.5201 68.4612 100.072C69.6069 102.059 70.7379 104.029 71.8836 106.017C72.9876 107.921 74.0403 109.869 74.9099 111.916C75.4922 113.318 75.8937 114.786 75.7136 116.339C75.4832 118.351 74.5944 119.978 72.675 120.857C72.3771 120.995 72.3993 121.124 72.5734 121.361C74.9243 124.541 77.741 127.261 81.0479 129.41C82.8446 130.599 84.9383 131.235 86.9419 132.008C92.2359 134.082 97.6804 135.64 103.234 136.806C104.618 137.102 106.017 137.206 107.415 137.311C107.429 137.12 107.302 137.111 107.226 137.057C103.92 135.323 101.041 133.015 98.2662 130.586C95.8663 128.489 93.5859 126.289 91.5153 123.849C90.4567 122.619 89.5153 121.318 88.7277 119.885C88.3597 119.25 87.8209 118.762 87.3504 118.216C86.7159 117.513 86.0813 116.811 85.5492 116.02C84.5414 114.538 84.093 112.843 83.9377 111.073C83.8402 110.027 83.7768 108.952 83.6963 107.891C83.6713 107.586 83.7244 107.302 84.0394 107.15C84.3227 106.995 84.5869 107.095 84.8122 107.287C85.848 108.18 86.9351 109.028 87.849 110.055C88.3636 110.653 88.7292 111.32 89.0094 112.06C89.4371 113.178 89.6864 114.332 89.838 115.51C89.9597 116.446 89.9226 117.37 89.5847 118.255C89.4024 118.769 89.4816 119.206 89.7661 119.675C91.0271 121.831 92.6443 123.709 94.3664 125.468C97.453 128.639 100.749 131.571 104.377 134.127C106.928 135.916 109.681 137.145 112.701 137.994C116.003 138.928 119.364 138.86 122.708 139.014C129.891 139.344 137.034 138.696 144.163 137.823C144.292 137.8 144.422 137.778 144.551 137.756C144.563 137.597 144.451 137.604 144.387 137.6C141.751 137.163 139.28 136.227 136.89 135.073C136.52 134.886 136.17 134.86 135.763 134.973C133.85 135.549 131.918 135.309 129.994 134.973C125.485 134.156 121.53 132.119 117.902 129.354C114.908 127.085 112.208 124.502 109.46 121.931C107.832 120.419 106.201 118.939 104.572 117.427C104.273 117.149 103.977 116.839 103.729 116.517C103.249 115.89 103.538 115.224 104.313 115.122C104.846 115.05 105.366 115.137 105.902 115.241C109.052 115.86 112.201 116.479 115.395 116.942C118.365 117.388 121.353 117.819 124.3 118.375C126.396 118.772 128.46 119.374 130.352 120.362C134.152 122.324 135.958 125.527 136.155 129.729C136.213 130.868 136.177 132 136.172 133.134C136.167 133.405 136.2 133.615 136.493 133.749C139.327 135.176 142.245 136.321 145.412 136.718C147.17 136.929 148.941 136.742 150.723 136.635C155.347 136.342 159.796 135.189 164.326 134.441C164.585 134.397 164.83 134.335 165.074 134.273C165.106 134.276 165.125 134.229 165.142 134.214C165.105 134.068 164.991 134.107 164.895 134.1C160.203 133.589 156.049 131.665 152.094 129.211C151.1 128.61 150.109 127.976 149.132 127.36C148.948 127.25 148.78 127.158 148.574 127.126C145.823 126.729 143.42 125.526 141.349 123.741C139.125 121.849 137.158 119.737 135.366 117.413C135.352 117.396 135.337 117.379 135.337 117.379C135.035 116.925 134.719 116.454 135.016 115.901C135.33 115.333 135.922 115.33 136.477 115.387C138.271 115.537 139.92 116.14 141.544 116.853C144.686 118.222 146.991 120.52 148.74 123.415C149.392 124.519 150.013 125.62 150.402 126.832C150.454 126.995 150.559 127.083 150.696 127.173C153.792 129.147 156.945 131.012 160.457 132.122C163.798 133.171 167.204 133.57 170.689 133.127C174.191 132.67 177.636 131.905 181.101 131.301C183.95 130.811 186.809 130.402 189.656 129.944C189.817 129.924 189.995 129.889 190.174 129.855C190.092 129.657 189.946 129.694 189.836 129.67C187.955 129.385 186.082 129.005 184.238 128.452C184.082 128.408 183.94 128.382 183.776 128.433C181.781 129.259 179.705 129.232 177.634 128.933C173.047 128.302 169.139 126.284 165.884 123.02C164.397 121.535 163.081 119.902 161.816 118.225C160.201 116.107 158.31 114.256 156.365 112.48C156.125 112.271 155.934 112.049 155.745 111.795C155.601 111.592 155.571 111.35 155.7 111.12C155.829 110.89 156.061 110.78 156.298 110.813C156.599 110.852 156.883 110.905 157.147 111.005C161.697 112.56 166.382 113.581 171.068 114.603C172.609 114.942 174.127 115.359 175.617 115.95C178.922 117.268 181.494 119.426 183.075 122.644C183.74 124.004 184.065 125.419 183.68 126.94C183.573 127.3 183.862 127.289 184.048 127.367C186.484 128.125 188.99 128.584 191.523 128.901C193.724 129.178 195.912 129.197 198.094 128.865C200.227 128.545 202.373 128.482 204.529 128.5C205.14 128.45 205.724 128.541 206.274 128.455ZM177.197 126.871C177.718 126.75 178.28 126.712 178.812 126.432C178.56 126.174 178.296 126.282 178.076 126.233C178.23 126.101 178.107 126.028 178 125.972C177.185 125.543 176.392 125.037 175.39 125.185C175.617 125.138 175.827 125.106 176.054 125.059C175.959 124.844 175.785 124.815 175.648 124.725C174.253 123.934 172.929 123.052 171.639 122.14C171.35 121.943 170.883 121.78 171.111 121.286C171.342 120.76 171.754 121.03 172.204 121.208C170.739 118.781 168.719 116.952 166.884 114.993C167.547 115.522 168.123 116.156 168.716 116.776C169.948 118.035 171.144 119.355 172.086 120.863C172.314 121.232 172.525 121.615 172.926 121.805C173.141 121.917 173.163 121.839 173.131 121.629C173.908 122.773 180.293 126.287 181.726 126.362C181.558 125.823 181.208 125.381 180.921 124.944C179.283 122.488 177.474 120.18 175.273 118.209C173.73 116.832 172.15 115.515 169.96 115.319C169.564 115.273 169.189 115.15 168.796 115.072C168.686 115.048 168.549 114.958 168.378 115.105C169.329 116.279 170.414 117.366 170.929 118.172C170.385 117.54 169.454 116.528 168.593 115.425C168.098 114.78 167.429 114.762 166.641 114.607C166.771 114.793 166.83 114.861 166.903 114.947C166.585 114.715 166.299 114.486 165.89 114.391C163.342 113.849 160.835 113.182 158.372 112.359C158.215 112.315 158.049 112.191 157.832 112.318C157.964 112.472 158.082 112.609 158.202 112.714C159.86 114.26 161.413 115.926 162.781 117.722C163.742 118.977 164.702 120.231 165.8 121.368C166.525 122.141 167.197 122.99 168.239 123.372C168.014 123.387 167.882 123.441 168.156 123.622C168.763 124.05 169.368 124.511 169.99 124.957C170.944 125.652 172.006 125.987 173.16 126.153C174.456 126.346 175.752 126.331 177.035 126.267C176.849 126.397 176.644 126.366 176.434 126.398C175.273 126.535 174.143 126.466 173.009 126.254C172.821 126.208 172.635 126.13 172.29 126.248C173.362 126.664 174.248 127.209 175.304 127.192C175.319 127.417 175.495 127.414 175.637 127.441C177.644 127.943 179.637 128.22 181.719 127.944C181.898 127.909 182.088 127.924 182.276 127.762C181.315 127.37 180.4 126.998 179.487 126.594C179.194 126.461 178.922 126.456 178.595 126.56C178.177 126.8 177.731 127.006 177.197 126.871ZM165.556 137.873C165.49 137.9 165.439 137.944 165.375 137.939C163.562 138.043 161.817 138.504 160.075 138.933C158.006 139.465 156.16 140.43 154.699 142.014C154.473 142.269 154.185 142.487 154.056 142.925C154.935 142.496 155.733 142.076 156.547 141.673C158.82 140.549 161.079 139.408 163.699 139.204C164.454 139.149 164.985 138.453 165.578 138.002C165.563 137.985 165.536 137.919 165.556 137.873C165.915 137.772 166.318 137.722 166.64 137.267C164.037 137.248 161.662 137.805 159.379 138.849C159.537 138.861 159.716 138.826 159.862 138.789C161.016 138.54 162.171 138.259 163.322 138.041C164.053 137.888 164.781 137.767 165.556 137.873ZM182.44 126.64C182.452 126.688 182.526 126.774 182.565 126.681C182.64 126.527 182.523 126.39 182.486 126.244C182.099 125 181.483 123.835 180.865 122.703C179.81 120.786 178.599 119.033 176.863 117.673C176.606 117.478 176.351 117.251 175.857 117.23C177.086 118.313 177.971 119.514 178.925 120.656C178.055 119.68 177.151 118.733 176.296 117.775C175.411 116.782 174.233 116.518 172.936 116.117C173.037 116.268 173.064 116.334 173.125 116.371C174.3 117.114 175.367 118.009 176.35 118.977C178.522 121.121 180.339 123.542 181.767 126.238C181.909 126.472 182.066 126.724 182.44 126.64ZM64.7857 108.618C64.7122 108.532 64.6045 108.476 64.5461 108.616C64.5024 108.772 64.5076 108.917 64.4957 109.075C64.4007 112.696 65.8882 115.668 68.2501 118.273C68.9729 119.078 69.7322 119.822 70.6429 120.466C70.6913 120.246 70.5713 120.141 70.5026 119.992C69.7813 118.739 69.1919 117.433 68.7197 116.055C68.4712 115.317 68.1374 114.653 67.6057 114.07C67.177 113.607 66.8678 113.04 66.6075 112.461C66.1139 111.37 65.486 110.364 65.0754 109.231C65.6743 110.41 66.2879 111.607 66.9039 112.771C67.2548 113.421 67.6399 114.041 68.2304 114.692C68.0593 113.561 67.9082 112.591 67.757 111.621C67.8282 111.738 67.914 111.872 68.0777 111.82C68.7446 111.662 68.8726 112.088 68.9299 112.603C69.109 114.055 69.4835 115.457 70.0852 116.812C70.3455 117.391 70.3285 117.406 70.7479 116.926C70.3773 117.394 70.4735 117.816 70.7239 118.314C70.962 118.764 71.1233 118.744 71.4501 118.433C72.7041 117.264 73.3585 115.779 73.7976 114.182C74.0838 113.133 74.0598 112.172 73.5078 111.22C73.1374 110.617 72.8525 109.94 72.4916 109.21C72.3554 109.536 72.4023 109.763 72.4175 109.988C72.5025 112.055 72.2403 114.065 71.3325 115.947C71.1621 116.302 71.0529 116.693 70.7308 116.941C72.0092 114.591 72.3901 112.063 72.2672 109.433C72.2516 109.001 72.153 108.61 71.9444 108.195C70.3691 105.328 68.6253 102.577 67.0841 99.6812C67.0424 99.5981 67.0154 99.5322 66.8565 99.5203C66.6476 100.176 66.4364 100.863 66.1934 101.548C65.7876 102.7 65.3818 103.852 65.7829 105.113C65.7976 105.13 65.7635 105.159 65.744 105.206C65.5282 104.886 65.6545 104.48 65.4164 104.031C65.0401 105.217 64.7956 106.349 64.5999 107.469C64.5861 107.868 64.6064 108.237 64.7857 108.618ZM88.3203 137.72C88.1078 137.784 87.9072 137.689 87.7188 137.643C86.0288 137.165 84.3145 136.797 82.5688 136.635C82.2363 136.594 81.9161 136.602 81.6035 136.722C80.6462 137.13 79.7158 137.604 78.9472 138.265C78.6398 138.53 78.3248 138.682 78.0197 138.915C77.5975 139.219 77.217 139.606 76.7558 140.003C77.7283 139.82 78.5784 139.564 79.4854 139.616C79.0214 139.837 78.5153 139.767 78.0291 139.858C77.2179 140.022 76.4261 140.138 75.76 140.711C73.3371 142.767 70.723 144.601 67.9961 146.235C67.896 146.291 67.7494 146.328 67.7303 146.583C67.8281 146.558 67.894 146.531 67.9576 146.536C70.2867 146.374 72.641 146.519 74.9634 146.66C75.3766 146.691 75.7775 146.673 76.1584 146.494C75.8804 146.793 76.2053 146.721 76.3325 146.731C77.0317 146.783 77.7332 146.804 78.4324 146.856C78.8603 146.904 79.2488 146.837 79.5658 146.445C79.4879 146.631 79.3096 146.666 79.31 146.874C80.1069 146.901 80.9062 146.897 81.7079 146.861C82.0281 146.853 82.2601 146.743 82.4845 146.52C84.1944 144.81 85.6938 142.925 86.9678 140.847C87.114 140.602 87.309 140.345 87.3228 139.947C86.6217 140.134 85.967 140.34 85.3 140.498C84.8285 140.607 84.5381 140.857 84.3288 141.305C83.8738 142.261 83.3428 143.164 82.6747 143.977C83.2323 142.932 83.9146 141.929 84.467 140.74C83.6487 140.998 82.9134 141.215 82.2098 141.434C82.1121 141.458 82.0073 141.578 81.9366 141.669C80.8376 143.329 79.2806 144.49 77.7259 145.621C77.2353 145.983 76.7277 146.361 76.1119 146.475C78.27 145.182 80.21 143.601 81.8607 141.615C81.5623 141.545 81.3621 141.658 81.1956 141.534C81.0291 141.409 80.9286 141.258 80.96 141.053C80.979 140.798 81.1474 140.683 81.3599 140.619C82.0634 140.4 82.767 140.181 83.4705 139.962C83.6171 139.925 83.8737 139.912 83.6214 139.654C84.1275 139.723 84.5991 139.615 85.0877 139.492C85.9013 139.297 86.6802 138.924 87.5037 138.809C88.0365 138.737 88.5763 138.57 89.0991 138.417C89.2286 138.395 89.5512 138.355 89.1817 138.168C90.2039 138.388 91.1171 137.929 92.1313 137.829C90.6066 135.782 84.4377 134.937 82.5148 136.503C84.5318 136.67 86.4685 137.054 88.3203 137.72ZM119.735 129.204C119.586 129.48 119.872 129.502 120.009 129.592C122.788 131.541 125.829 132.967 129.126 133.757C130.806 134.155 132.525 134.459 134.277 134.319C134.502 134.303 134.756 134.322 134.944 134.161C134.849 133.946 134.675 133.917 134.521 133.841C132.25 132.585 130.071 131.159 128.051 129.538C127.312 128.956 126.519 128.657 125.595 128.619C125.133 128.601 124.671 128.582 124.207 128.595C123.373 128.629 122.537 128.694 121.687 128.742C121.841 128.61 122.031 128.624 122.224 128.607C123.659 128.443 125.106 128.327 126.595 128.502C126.132 128.068 125.632 127.695 125.152 127.276C124.822 126.995 124.465 126.857 124.034 126.841C122.714 126.758 121.392 126.915 120.097 127.137C119.53 127.239 118.963 127.34 118.396 127.442C120.294 126.849 122.247 126.595 124.349 126.688C123.639 125.932 122.861 125.443 122.151 124.894C120.476 123.57 118.567 122.597 116.656 121.655C116.054 121.37 115.853 121.067 116.068 120.764C116.392 120.276 116.769 120.576 117.106 120.761C120.069 122.166 122.799 123.92 125.257 126.085C125.781 126.556 126.393 126.921 126.917 127.392C127.757 128.126 128.668 128.769 129.545 129.442C129.606 129.479 129.669 129.483 129.738 129.425C129.659 129.195 129.595 128.983 129.516 128.753C130.199 130.514 131.987 130.967 133.319 131.962C133.334 131.979 133.417 131.937 133.463 131.957C133.797 132.413 134.33 132.549 134.771 132.853C135.074 133.068 135.194 132.965 135.188 132.613C135.169 131.589 135.167 130.55 135.147 129.526C135.065 127.426 134.389 125.57 133.124 123.893C132.31 122.81 131.267 122.012 130.031 121.441C130.362 121.929 130.73 122.356 131.044 122.859C132.356 124.97 132.948 127.316 133.327 129.725C133.211 129.557 133.179 129.347 133.147 129.136C132.745 127.46 132.328 125.767 131.584 124.178C130.59 122.09 129.191 120.499 126.812 120.049C126.481 119.977 126.139 119.855 125.809 119.782C125.699 119.758 125.564 119.636 125.391 119.815C126.863 121.076 127.895 122.655 128.825 124.323C127.834 122.826 126.878 121.301 125.548 120.067C124.874 119.457 124.094 119.415 123.148 119.248C123.327 119.421 123.386 119.489 123.447 119.526C124.213 120.174 124.978 120.855 125.571 121.682C126.179 122.527 126.721 123.398 127.214 124.282C128.019 125.701 128.858 127.09 129.447 128.604C128.66 127.171 127.857 125.72 127.053 124.302C126.147 122.732 125.206 121.223 123.844 119.987C123.276 119.465 122.698 119.07 121.891 118.962C119.297 118.608 116.725 118.176 114.15 117.776C111.384 117.361 108.645 116.805 105.889 116.263C105.559 116.19 105.246 116.103 104.872 116.187C104.934 116.431 105.103 116.524 105.238 116.646C107.138 118.37 109.053 120.111 110.917 121.896C112.93 123.821 114.963 125.699 117.118 127.442C117.358 127.652 117.588 127.781 117.918 127.646C117.801 127.717 117.632 127.832 117.799 127.956C118.42 128.402 118.916 129.047 119.735 129.204ZM163.67 141.727C163.729 142.003 163.773 142.262 163.737 142.531C163.546 145.728 162.763 148.722 160.854 151.376C160.764 151.513 160.63 151.599 160.679 151.794C162.596 150.947 164.371 149.865 165.827 148.344C167.647 146.451 168.774 144.202 168.861 141.54C168.9 140.376 168.729 139.245 168.184 138.197C168.044 137.931 167.895 137.792 167.575 138.008C166.286 138.79 165.039 139.656 163.836 140.573C163.65 140.703 163.573 140.889 163.637 141.101C163.48 140.85 163.343 140.967 163.189 141.1C162.606 141.631 162.023 142.163 161.425 142.677C161.186 142.883 161.055 143.145 161.046 143.48C160.849 143.114 160.73 143.424 160.611 143.527C159.796 144.377 159.025 145.278 158.375 146.284C158.195 146.559 157.96 146.701 157.64 146.501C157.365 146.321 157.353 146.064 157.501 145.788C158.4 144.241 159.676 142.994 160.873 141.725C161.568 140.978 162.447 140.341 163.277 139.716C163.362 139.642 163.509 139.605 163.442 139.425C161.991 139.604 160.591 139.946 159.248 140.597C158.137 141.137 157.028 141.645 155.902 142.168C153.368 143.369 153.231 143.487 152.158 146.075C152.122 146.136 152.085 146.197 152.081 146.261C152.056 146.371 151.937 146.474 152.071 146.596C153.538 145.571 155.008 144.514 156.632 143.741C155.511 144.408 154.435 145.127 153.343 145.828C152.372 146.427 151.633 147.122 151.273 148.294C150.438 151.124 149.244 153.847 147.819 156.441C147.727 156.61 147.556 156.757 147.664 157.021C147.828 156.969 147.96 156.915 148.092 156.861C150.922 155.555 153.831 154.478 156.769 153.435C157.246 153.263 157.692 153.057 157.921 152.563C158.007 152.697 157.726 152.82 157.922 152.978C158.269 152.828 158.645 152.713 158.994 152.531C159.143 152.462 159.24 152.23 159.351 152.254C159.906 152.312 160.232 152 160.535 151.592C162.672 148.651 163.513 145.311 163.67 141.727ZM20.6701 67.1096C20.4599 67.1418 20.293 66.8097 20.1222 66.9567C19.9343 67.1185 20.1231 67.3723 20.1724 67.5677C20.3132 68.2494 20.5175 68.9359 20.6094 69.6299C20.7363 70.71 20.7826 71.8001 20.8289 72.8902C20.8698 74.9068 21.155 76.8617 22.1732 78.6317C23.5299 81.0023 25.326 83.0543 27.2781 84.9421C27.501 85.1666 27.7994 85.2368 28.1148 85.2924C29.8509 85.582 31.5239 86.0747 33.1314 86.8022C33.2709 86.8606 33.3909 86.9655 33.6352 86.9038C31.0844 85.115 28.5777 83.3774 26.0368 81.6693C30.0528 83.9512 33.5303 87.0238 37.6612 89.2664C36.576 88.1785 35.5521 87.1271 34.5257 86.1075C34.5428 86.0928 34.5599 86.0781 34.577 86.0634C35.8262 87.3074 37.0755 88.5514 38.3247 89.7955C38.0981 88.9795 37.6177 88.3523 37.1885 87.681C37.2326 87.7322 37.2767 87.7835 37.3379 87.82C37.382 87.8713 37.4261 87.9225 37.5115 87.849C34.6279 82.3919 31.0611 77.5228 26.0667 73.7934C27.6945 74.89 29.2004 76.1212 30.5649 77.5336C32.9804 80.0634 34.9712 82.9289 36.6765 85.9808C37.3537 87.182 37.9649 88.4102 38.5932 89.6238C38.7061 89.824 38.7896 89.99 39.0163 89.7353C38.9532 89.9383 39.0025 90.1338 39.1837 90.2752C39.2291 88.6007 38.8053 87.003 38.5916 85.373C38.6926 85.7321 38.7936 86.0912 38.9315 86.5969C38.9629 86.3915 38.9823 86.345 38.97 86.2962C38.6839 83.9257 38.4614 81.56 38.1117 79.1848C37.4085 74.9135 35.7385 71.1771 32.3544 68.3512C30.3391 66.6664 28.2013 65.9791 25.5846 66.5664C24.0723 66.9167 22.5134 67.2475 20.9191 66.9844C20.8238 66.9773 20.6255 66.8506 20.6701 67.1096ZM48.2821 113.695C48.9832 113.508 49.0416 113.369 48.6053 112.793C49.0805 113.276 49.1782 113.251 49.6489 112.727C50.1903 112.112 50.734 111.466 51.3365 110.888C51.6976 110.547 51.6654 110.337 51.3713 109.995C50.575 109.105 49.9813 108.07 49.4047 107.02C49.5223 107.156 49.6252 107.276 49.7087 107.442C50.236 108.296 50.7463 109.166 51.3908 109.949C51.4937 110.068 51.5871 110.315 51.7679 110.249C51.9657 110.168 51.9041 109.923 51.9012 109.747C51.8895 108.836 51.6506 107.971 51.2798 107.16C50.3172 105.075 50.0904 102.98 51.1443 100.854C51.1614 100.839 51.1467 100.822 51.1638 100.807C51.6617 99.2785 51.2777 98.0033 50.0118 96.9818C49.0323 96.1894 47.902 95.7054 46.7157 95.329C45.0157 94.7704 43.3157 94.2117 41.6546 93.5601C41.5469 93.5041 41.4245 93.4311 41.2585 93.5145C43.3098 94.9304 45.3465 96.3292 47.3685 97.7109C46.6295 97.336 45.9417 96.917 45.2587 96.4345C43.7998 95.4305 42.3555 94.4435 40.9136 93.4248C40.5489 93.1738 40.121 93.1258 39.7904 92.8454C39.5063 92.5845 39.0761 92.5682 38.707 92.5886C38.4333 92.616 38.4048 92.9974 38.2586 93.2422C38.2221 93.3034 38.1562 93.3304 38.1049 93.3745C37.2537 94.2856 36.5885 95.2745 36.6964 96.6089C36.7513 97.1564 36.6938 97.7114 36.717 98.2564C36.8195 100.517 36.905 102.793 37.5379 105.013C36.4241 101.958 36.5347 98.7701 36.6525 95.4871C36.5453 95.6388 36.494 95.6829 36.4551 95.7759C35.3547 97.8828 34.3961 100.016 34.0247 102.418C33.6438 104.946 34.4157 107.017 36.1696 108.778C37.2547 109.866 38.5809 110.509 39.9926 111.078C41.0935 111.528 42.1384 112.085 43.0566 112.841C43.5366 113.26 44.0166 113.68 44.499 114.067C44.8907 114.384 45.3556 114.579 45.9006 114.556C45.866 114.377 45.7901 114.324 45.6972 114.285C46.1473 114.462 46.5974 114.64 47.0932 114.421C47.4718 114.274 47.8503 114.126 48.219 113.898C48.2531 113.869 48.3997 113.832 48.2821 113.695ZM56.2244 68.6188C56.2188 68.2668 56.585 68.0705 56.5329 67.699C56.4585 67.1981 56.4501 66.6701 56.4563 66.1592C56.4578 65.7119 56.2866 65.6511 55.8786 65.7644C54.8843 66.0256 53.8606 66.2527 52.8686 66.4821C52.871 66.4503 52.8905 66.4038 52.8758 66.3867C52.8611 66.3697 52.8146 66.3502 52.7828 66.3478C52.2695 66.3733 51.7539 66.4307 51.2283 66.4073C50.7663 66.3887 50.3265 66.4997 49.8351 66.4469C48.5956 66.3542 47.3148 66.3862 46.0634 66.4524C41.6029 66.694 38.7353 69.9951 37.7817 73.3434C37.6991 73.5929 37.6483 73.8448 37.7564 74.1086C38.818 76.7927 39.2297 79.62 39.4802 82.4672C39.4877 82.5796 39.4441 82.7362 39.6105 82.8605C39.7872 81.9948 39.9296 81.1585 40.1356 80.327C40.6711 78.0819 41.2066 75.8368 42.3341 73.7959C42.7773 72.998 43.3428 72.2733 44.0284 71.6534C43.5141 72.3341 42.9997 73.0147 42.5907 73.7831C40.9839 76.8908 40.221 80.2535 39.7247 83.684C39.568 84.711 39.9074 85.7271 40.0856 86.7632C40.5736 85.1537 41.2009 83.6027 41.8577 82.0858C41.8459 82.2447 41.7875 82.3841 41.7291 82.5236C41.2284 83.8764 40.6959 85.2268 40.3053 86.6038C40.1135 87.2446 40.0978 87.8827 40.192 88.5449C40.2342 88.8357 40.4913 89.0307 40.3015 89.432C41.5122 88.6277 41.7098 87.2682 42.468 86.3182C42.1856 86.8883 41.9033 87.4584 41.6209 88.0286C42.3824 87.4623 43.1291 86.879 43.6506 86.103C45.2126 83.8069 46.7429 81.5084 48.4272 79.2853C49.0294 78.4994 49.6315 77.7135 50.2336 76.9276C48.0448 79.9119 45.9172 82.9328 43.8143 86.0513C44.088 86.0239 44.1952 85.8721 44.3148 85.7692C46.5574 83.9874 48.9399 82.4717 51.6611 81.5567C53.3807 80.9982 55.1302 80.6817 56.928 81.2156C57.3976 81.3466 57.9712 80.9421 58.1022 80.4725C58.386 79.4551 58.1737 78.4484 57.9761 77.4589C57.3637 74.5367 56.7025 71.6268 56.5446 68.6107C56.5517 68.5154 56.5636 68.3565 56.4683 68.3494C56.3241 68.3545 56.2216 68.4428 56.2244 68.6188ZM16.5722 97.9639C16.0153 98.146 16.3112 98.248 16.4483 98.3382C17.5473 99.0276 18.6634 99.7024 19.777 100.409C21.3508 101.374 22.9464 102.26 24.7076 102.855C27.3421 103.739 29.9259 103.805 32.4432 102.411C32.8094 102.215 33.0191 101.975 33.0818 101.564C33.1516 101.058 33.3168 100.559 33.4502 100.057C33.5836 99.5561 33.7635 99.0742 33.9751 98.5946C34.1331 98.191 34.2765 97.7702 34.4981 97.3713C35.1069 96.2823 35.6398 95.1396 36.3098 94.0871C36.8896 93.1717 37.4695 92.2563 38.2158 91.4652C38.4255 91.2252 38.379 91.2057 38.2002 91.0326C37.4461 90.4328 36.6018 89.9702 35.8624 89.3875C35.4412 89.0364 34.8909 88.9154 34.4185 88.6084C33.5667 88.0333 32.6052 87.6418 31.6243 87.2967C29.0411 86.3684 26.3999 85.7873 23.6338 86.2356C21.195 86.5805 19.156 87.5625 17.8872 89.7847C17.1151 91.1331 16.4337 92.5523 15.4416 93.8524C16.0573 93.7386 16.4696 93.354 17.0047 93.2502C16.5702 93.5053 16.1209 93.7434 15.6716 93.9814C15.0074 94.3153 14.766 94.5529 14.652 95.0078C15.3309 94.691 16.0269 94.3596 16.7057 94.0428C17.4164 93.7285 18.1541 93.48 18.8894 93.2634C19.5905 93.0761 20.3087 92.8742 21.0099 92.6869C20.8709 92.8363 20.6901 92.9027 20.5117 92.9373C18.8334 93.371 17.182 93.8707 15.6217 94.6489C14.9746 94.968 14.2711 95.187 13.781 95.7576C13.7468 95.787 13.742 95.8506 13.7055 95.9118C13.9304 95.8966 14.0599 95.8744 14.2041 95.8692C14.0845 95.9721 13.955 95.9943 13.8402 96.0337C13.6765 96.0854 13.4199 96.0981 13.418 96.3377C13.416 96.5772 13.6337 96.6574 13.8344 96.7524C14.0203 96.8302 14.1721 96.9374 14.341 97.03C14.9481 97.4589 15.5433 98.0467 16.5722 97.9639ZM39.9884 91.6937C40.2237 91.967 40.5534 91.8318 40.6269 91.9172C40.9456 92.3565 41.5855 92.1328 41.8379 92.3913C42.2078 92.7865 42.6551 92.788 43.0564 92.9779C43.6118 93.2431 44.2233 93.4007 44.7982 93.6195C46.261 94.1444 47.787 94.4663 49.1355 95.2384C49.7326 95.5866 50.2904 95.8201 51.0504 95.7012C52.6656 95.4705 54.104 94.827 55.6008 94.0441C55.1065 93.8154 54.6791 93.9752 54.1801 93.81C54.8717 93.7499 55.459 94.0175 56.0036 93.7866C56.5629 93.5728 57.0681 93.227 57.6151 92.9643C58.5601 92.5077 59.5469 92.1341 60.5483 91.7775C61.3861 91.4727 62.2386 91.1849 62.9953 90.6822C63.4664 90.3659 63.4978 90.1605 63.1961 89.7065C62.8504 89.2012 62.4046 88.7524 62.0418 88.2618C61.201 87.1123 60.5115 85.8622 59.756 84.6392C58.5837 82.7937 56.8999 81.8048 54.6514 81.9562C53.317 82.0641 52.0589 82.4334 50.8378 82.9493C47.868 84.1973 45.3763 86.1043 43.0416 88.2627C42.8025 88.4685 42.561 88.7061 42.3366 88.929C45.249 87.1654 47.4906 86.0387 48.6879 85.8406C48.4071 85.9634 48.2581 86.0322 48.0944 86.0839C45.6594 87.0203 43.4353 88.3401 41.3976 89.9454C40.8534 90.3841 40.2163 90.7839 40.0274 91.6007C43.2191 90.1616 46.4777 89.111 49.8961 88.4878C46.4905 89.3676 43.2096 90.2887 39.9884 91.6937ZM82.4385 146.708C85.8273 147.121 91.8796 142.477 92.7445 138.818C92.698 138.799 92.6516 138.779 92.6027 138.791C91.0021 139.039 89.4092 139.399 87.8138 139.791C87.6013 139.855 87.5111 139.993 87.4333 140.178C86.6621 141.943 85.465 143.419 84.1921 144.842C83.6483 145.488 83.0287 146.081 82.4385 146.708ZM74.201 113.061C74.0994 113.565 74.0272 114.103 73.8938 114.604C73.4547 116.202 72.7244 117.633 71.3235 118.631C71.1038 118.79 71.0772 118.932 71.2219 119.135C71.3371 119.303 71.4353 119.486 71.5334 119.669C71.6833 120.016 71.9375 120.035 72.2501 119.915C72.7948 119.684 73.2976 119.37 73.6511 118.917C75.0968 117.107 74.9582 115.116 74.201 113.061ZM182.709 126.468C183.548 124.437 180.645 119.442 177.962 118.363C180.198 120.719 181.688 123.451 182.709 126.468Z" fill="#D82149"/>
<path d="M50.1855 72.0022C46.9858 75.4702 44.9462 79.6642 42.7136 83.8756C43.1807 81.6894 48.3115 73.5559 50.1855 72.0022Z" fill="#D82149"/>
<path d="M42.6476 76.4405C44.4498 73.2834 46.6609 70.4286 49.0849 67.7176C46.7515 70.4993 44.631 73.4248 42.6476 76.4405Z" fill="#D82149"/>
<path d="M55.3624 72.8692C54.1857 74.7147 52.9942 76.5432 51.8175 78.3887C52.8401 76.4677 54.0462 74.6564 55.3624 72.8692Z" fill="#D82149"/>
<path d="M52.8386 66.4484C52.4998 66.9185 52.0434 67.2519 51.6311 67.6365C50.6163 68.5993 49.6038 69.5303 48.6184 70.5272C49.9108 69.0579 51.3085 67.6763 52.8386 66.4484Z" fill="#D82149"/>
<path d="M56.2229 68.6192C55.4472 69.3761 54.9115 70.3428 54.1945 71.1681C54.8038 70.2868 55.2954 69.2689 56.2229 68.6192Z" fill="#D82149"/>
<path d="M51.1119 72.8707C50.5586 73.6443 49.9907 74.4008 49.4374 75.1744C49.4227 75.1573 49.391 75.1549 49.3615 75.1208C49.9148 74.3472 50.4827 73.5907 51.036 72.8171C51.0654 72.8513 51.0801 72.8683 51.1119 72.8707Z" fill="#D82149"/>
<path d="M21.7783 91.1625C26.1238 89.6819 30.6307 89.4597 35.1633 89.7508C30.6483 89.6528 26.1683 89.9409 21.7783 91.1625Z" fill="#D82149"/>
<path d="M33.7523 93.2255C30.5687 93.9141 27.3605 94.5051 24.2063 95.2279C27.3577 94.3291 30.5512 93.7211 33.7523 93.2255Z" fill="#D82149"/>
<path d="M36.5287 91.3712C33.97 91.6113 31.4235 91.9002 28.8894 92.238C31.406 91.7071 33.9695 91.4035 36.5287 91.3712Z" fill="#D82149"/>
<path d="M22.3993 94.6129C24.6906 93.8894 27.0753 93.4126 29.47 93.0165C27.1123 93.5592 24.7546 94.102 22.3993 94.6129Z" fill="#D82149"/>
<path d="M29.0846 99.2354C30.0618 98.9889 31.0538 98.7595 32.0481 98.4983C31.0907 98.9061 30.1012 99.1037 29.0846 99.2354Z" fill="#D82149"/>
<path d="M27.1031 97.5215C27.9338 97.312 28.7644 97.1025 29.6122 96.8783C29.6098 96.9101 29.6245 96.9271 29.6221 96.9589C28.8062 97.1855 27.9584 97.4097 27.1425 97.6363C27.1131 97.6022 27.1008 97.5533 27.1031 97.5215Z" fill="#D82149"/>
<path d="M24.5023 88.2821C23.7205 88.4793 22.9558 88.6618 22.174 88.859C22.1422 88.8567 22.1104 88.8543 22.064 88.8348C22.8823 88.5764 23.6982 88.3498 24.5023 88.2821Z" fill="#D82149"/>
<path d="M17.933 96.8518C17.1341 97.0637 16.342 96.9725 15.528 96.9595C16.3296 96.9236 17.1261 96.7435 17.933 96.8518Z" fill="#D82149"/>
<path d="M17.9324 96.8522C18.394 96.663 18.8977 96.7646 19.3939 96.7538C18.91 96.8135 18.4191 96.9685 17.9324 96.8522Z" fill="#D82149"/>
<path d="M38.9513 94.2217C40.556 99.4713 43.0399 104.291 46.4906 108.576C42.7738 104.431 40.3705 99.6013 38.9513 94.2217Z" fill="#D82149"/>
<path d="M45.6629 102.121C43.7659 99.7104 42.2522 97.0883 40.8238 94.3927C42.3717 96.9854 43.9831 99.5828 45.6629 102.121Z" fill="#D82149"/>
<path d="M45.6635 114.283C44.1552 113.084 42.8861 111.678 42.0586 109.922C42.797 111.16 43.755 112.239 44.7154 113.285C45.0094 113.627 45.4401 113.851 45.6635 114.283Z" fill="#D82149"/>
<path d="M46.5885 106.202C45.473 104.664 44.4065 103.114 43.5254 101.434C44.5407 103.028 45.5561 104.622 46.5885 106.202Z" fill="#D82149"/>
<path d="M48.2811 113.695C47.0005 112.657 45.8077 111.513 44.854 110.163C45.822 111.322 46.9095 112.378 48.0336 113.373C48.1389 113.461 48.1929 113.593 48.2811 113.695Z" fill="#D82149"/>
<path d="M40.4798 106.257C39.9838 105.197 39.5073 104.091 39.2115 102.918C39.671 104.039 40.1157 105.143 40.5752 106.264C40.5875 106.313 40.5386 106.325 40.4798 106.257Z" fill="#D82149"/>
<path d="M47.1964 109.396C47.912 110.296 48.6082 111.243 49.3898 112.117C48.5741 111.273 47.8266 110.37 47.1964 109.396Z" fill="#D82149"/>
<path d="M38.9838 89.7332C38.7955 89.6872 38.7756 89.5259 38.7216 89.394C37.8383 86.6752 36.623 84.1234 35.1268 81.6944C35.0851 81.6114 35.0751 81.5307 35.0652 81.4501C36.6567 83.8862 37.9992 86.4476 38.8117 89.2569C38.8487 89.4035 38.8344 89.5942 38.9838 89.7332Z" fill="#D82149"/>
<path d="M29.9033 73.3453C28.0043 71.1738 25.6835 69.5141 23.2944 67.9132C25.7542 69.4235 28.1969 70.9485 29.9033 73.3453Z" fill="#D82149"/>
<path d="M32.0887 71.8794C30.3983 70.123 28.4447 68.6824 26.5276 67.1807C28.5496 68.5624 30.5544 69.9589 32.0887 71.8794Z" fill="#D82149"/>
<path d="M28.7991 73.9981C30.6459 75.7981 32.3708 77.7329 33.942 79.8C32.2684 77.8211 30.5923 75.874 28.7991 73.9981Z" fill="#D82149"/>
<path d="M36.7501 80.9206C35.6518 79.3683 34.5705 77.8013 33.4722 76.2489C34.7048 77.7154 35.769 79.2971 36.7501 80.9206Z" fill="#D82149"/>
<path d="M26.4166 78.9335C25.2115 77.7407 23.938 76.6067 22.6987 75.4434C24.0258 76.5014 25.2822 77.6501 26.4166 78.9335Z" fill="#D82149"/>
<path d="M24.9406 72.1754C23.8806 71.393 22.8205 70.6105 21.7457 69.811C22.8936 70.4882 23.9878 71.2412 24.9406 72.1754Z" fill="#D82149"/>
<path d="M32.9886 82.2859C33.9002 83.3449 34.8117 84.4038 35.7232 85.4627C35.7062 85.4775 35.7062 85.4775 35.6891 85.4922C34.7775 84.4332 33.866 83.3743 32.9545 82.3153C32.9545 82.3153 32.9715 82.3006 32.9886 82.2859Z" fill="#D82149"/>
<path d="M20.6521 67.1242C21.3764 67.482 22.0276 67.9622 22.6788 68.4424C22.0081 68.0087 21.2473 67.7121 20.6521 67.1242Z" fill="#D82149"/>
<path d="M30.1949 79.6956C30.7969 79.9804 31.172 80.5198 31.5984 81.0151C31.1208 80.5639 30.6578 80.1298 30.1949 79.6956Z" fill="#D82149"/>
<path d="M30.1946 79.6956C29.7147 79.2762 29.2371 78.825 28.7571 78.4056C29.2712 78.7956 29.8537 79.1268 30.1946 79.6956Z" fill="#D82149"/>
<path d="M50.1495 87.4364C48.1704 87.8317 46.2012 88.3076 44.3083 89.0449C46.1618 88.1928 48.1334 87.6851 50.1495 87.4364Z" fill="#D82149"/>
<path d="M52.2401 85.3398C53.8791 84.7913 55.5779 84.7266 57.2818 84.8061C55.5977 84.8879 53.9137 84.9696 52.2401 85.3398Z" fill="#D82149"/>
<path d="M54.0708 91.4056C55.7235 91.5292 57.3761 91.6528 59.0288 91.7765C57.3714 91.7164 55.731 91.6416 54.0708 91.4056Z" fill="#D82149"/>
<path d="M53.5831 93.8775C52.8179 93.8522 52.0675 93.844 51.2853 93.8334C51.2876 93.8017 51.2753 93.7528 51.2777 93.721C52.0428 93.7463 52.8104 93.7398 53.5755 93.7651C53.6049 93.7992 53.6025 93.831 53.5831 93.8775Z" fill="#D82149"/>
<path d="M45.2542 92.2158C44.6138 92.2318 43.9734 92.2479 43.333 92.2639C43.9682 92.1036 44.6062 92.1194 45.2542 92.2158Z" fill="#D82149"/>
<path d="M160.735 144.639C160.838 144.759 160.779 144.898 160.753 145.04C160.154 147.488 159.445 149.912 158.223 152.154C158.13 152.323 158.008 152.457 157.916 152.626C158.359 151.621 158.816 150.632 159.227 149.624C159.862 147.978 160.291 146.3 160.735 144.639Z" fill="#D82149"/>
<path d="M172.832 124.771C172.612 124.93 172.367 124.784 172.147 124.736C171.392 124.583 170.673 124.37 169.941 124.107C170.11 123.992 170.261 124.099 170.418 124.143C171.232 124.364 172.032 124.567 172.832 124.771Z" fill="#D82149"/>
<path d="M67.8024 111.64C66.9996 109.982 66.4582 108.248 65.9998 106.472C65.9036 106.049 65.7438 105.622 65.7771 105.177C65.8065 105.211 65.8506 105.262 65.863 105.311C66.3246 107.471 67.0476 109.554 67.8024 111.64Z" fill="#D82149"/>
<path d="M182.439 126.64C181.88 125.783 181.453 124.872 180.994 123.959C181.487 124.843 182.132 125.626 182.439 126.64Z" fill="#D82149"/>
</g>
<defs>
<clipPath id="clip0_85_2987">
<rect width="126.585" height="170.215" fill="white" transform="translate(0 82.5825) rotate(-40.7218)"/>
</clipPath>
</defs>
</svg>
