<svg width="70" height="80" viewBox="0 0 70 80" fill="none" xmlns="http://www.w3.org/2000/svg">
<g opacity="0.3">
<path d="M5.74518 0.194053C7.26985 2.8553 7.87972 5.79376 8.01833 8.81538C8.2401 13.6943 7.15897 18.3792 5.46797 22.8978C4.41456 25.6977 3.22254 28.4421 2.28001 31.2696C0.394966 36.9802 -0.630726 42.8294 0.422684 48.8727C1.58698 55.3872 4.96899 60.377 10.9845 63.2323C18.3029 66.6975 25.7045 66.3648 32.8566 62.7056C39.3157 59.4068 43.169 54.0843 43.862 46.7936C44.4996 39.891 42.5036 33.626 38.8167 27.8599C35.601 22.7869 31.332 18.6565 26.7857 14.8032C20.2989 9.31437 13.1745 4.65718 5.99468 0.138607C5.91151 0.0831639 5.80062 0.0554426 5.68974 0C5.71746 0.110885 5.71746 0.13861 5.74518 0.194053ZM34.215 30.0776C36.1832 32.822 37.3752 35.8159 37.8187 39.0871C38.4841 43.7997 37.3198 48.1242 34.7694 52.1715C34.4367 51.9497 34.1318 51.7557 33.7437 51.5339C35.7396 48.3183 36.9039 44.8808 36.7653 41.1107C36.6267 37.3683 35.4347 33.9586 33.2724 30.7984C33.5774 30.5766 33.8546 30.3548 34.215 30.0776Z" fill="#D82149"/>
<path d="M54.3974 26.1959C55.8944 27.4157 57.3913 28.6354 58.8606 29.8829C61.8822 32.4887 64.7375 35.2608 66.872 38.6705C68.4244 41.11 69.2561 43.799 69.2283 46.682C69.2006 51.0065 66.7611 54.3885 62.6307 55.6082C58.5833 56.7725 54.841 56.1904 51.7916 53.0856C49.7957 51.0619 49.2967 48.4839 49.5462 45.7395C49.7957 43.0228 50.7382 40.5556 52.0134 38.1715C53.0945 36.1756 54.1202 34.2074 54.536 31.962C54.9241 30.0492 54.9519 28.1641 54.2588 26.3068C54.3143 26.2514 54.3697 26.2236 54.3974 26.1959Z" fill="#D82149"/>
<path d="M49.4349 57.8536C50.5992 59.6001 51.8466 61.3465 53.0109 63.1484C54.3415 65.2275 55.4504 67.4175 55.9771 69.8293C56.5038 72.1856 56.3652 74.5141 55.1732 76.6487C53.6208 79.4208 50.2942 80.6406 47.134 79.6703C46.2192 79.3931 45.2767 78.9773 44.5005 78.4229C41.9778 76.6764 41.1462 73.738 42.1996 70.7163C42.9204 68.6927 44.1678 67.0294 45.6093 65.5047C46.8568 64.2018 48.0765 62.8435 48.6587 61.097C49.019 60.0713 49.1854 58.9902 49.4349 57.8536Z" fill="#D82149"/>
</g>
</svg>
