<svg width="18" height="18" viewBox="0 0 18 18" fill="none" xmlns="http://www.w3.org/2000/svg">
<path d="M4.212 15C3.8665 15 3.57825 14.8845 3.34725 14.6535C3.11625 14.4225 3.0005 14.134 3 13.788V4.212C3 3.8665 3.11575 3.57825 3.34725 3.34725C3.57875 3.11625 3.867 3.0005 4.212 3H13.7887C14.1337 3 14.422 3.11575 14.6535 3.34725C14.885 3.57875 15.0005 3.867 15 4.212V13.7887C15 14.1337 14.8845 14.422 14.6535 14.6535C14.4225 14.885 14.134 15.0005 13.788 15H4.212ZM5.625 12.375H10.125V11.625H5.625V12.375ZM5.625 9.375H12.375V8.625H5.625V9.375ZM5.625 6.375H12.375V5.625H5.625V6.375Z" fill="#D82149"/>
</svg>
