<svg width="16" height="18" viewBox="0 0 16 18" fill="none" xmlns="http://www.w3.org/2000/svg">
<g clip-path="url(#clip0_229_1172)">
<path d="M15.3858 5.07359C15.3958 6.61316 15.3208 8.14274 15.0609 9.66232C14.591 12.3916 13.2164 14.556 11.017 16.2205C10.0523 16.9503 8.98756 17.4951 7.88286 17.96C7.78289 18 7.63793 18.01 7.54296 17.97C5.92341 17.3002 4.43382 16.4304 3.18417 15.1808C1.70958 13.7112 0.779837 11.9517 0.389945 9.90225C0.0500398 8.13274 -0.00494496 6.33324 5.36553e-05 4.53374C5.36553e-05 4.00389 0.0100509 3.47403 0.0200481 2.93918C0.0250467 2.66426 0.105024 2.55429 0.359954 2.46931C2.74429 1.65454 5.12863 0.834768 7.51297 0.0299917C7.62793 -0.00999722 7.77789 -0.00999722 7.89286 0.0299917C10.2772 0.839767 12.6615 1.65454 15.0459 2.46931C15.3058 2.55929 15.3858 2.66926 15.3858 2.93918C15.3858 3.65398 15.3858 4.36379 15.3858 5.07359ZM14.611 5.09359C14.611 4.48875 14.606 3.88392 14.611 3.27409C14.611 3.15912 14.571 3.10914 14.466 3.07415C12.2516 2.31936 10.0423 1.55957 7.82788 0.804776C7.7529 0.779783 7.65293 0.779783 7.57795 0.804776C5.35357 1.56457 3.12918 2.32935 0.909801 3.09914C0.854816 3.11913 0.784836 3.20411 0.779837 3.25909C0.73485 5.30353 0.739848 7.34296 1.06476 9.3724C1.35968 11.2169 2.08947 12.8614 3.34912 14.251C4.53379 15.5607 5.99339 16.4854 7.61294 17.1602C7.66293 17.1802 7.7379 17.1802 7.78289 17.1602C8.86759 16.6954 9.89231 16.1355 10.817 15.3957C12.6116 13.9611 13.7712 12.1416 14.2311 9.87726C14.556 8.30269 14.616 6.70314 14.611 5.09359Z" fill="#7C7C7C"/>
<path d="M13.4663 5.74836C13.4313 7.06299 13.3713 8.52259 13.0414 9.95219C12.6115 11.8217 11.5918 13.3113 10.0872 14.4859C9.41739 15.0058 8.69759 15.4357 7.9278 15.7806C7.78784 15.8406 7.65788 15.8605 7.51292 15.7956C5.97335 15.0958 4.64372 14.131 3.639 12.7564C2.87921 11.7167 2.42933 10.557 2.22939 9.28738C1.96446 7.62284 1.91947 5.94331 1.93947 4.26377C1.94447 3.99885 2.02444 3.89887 2.27437 3.8139C4.01389 3.21406 5.75341 2.61423 7.49292 2.02939C7.62289 1.9844 7.79284 1.9894 7.9278 2.03439C9.65732 2.61923 11.3868 3.21406 13.1114 3.8089C13.3813 3.89887 13.4613 4.00884 13.4613 4.29376C13.4713 4.72864 13.4663 5.16352 13.4663 5.74836ZM2.71425 5.90332C2.69926 5.90332 2.68426 5.90831 2.66926 5.90831C2.75924 6.91303 2.82922 7.92276 2.94919 8.92748C3.07915 10.0522 3.43905 11.1019 4.06888 12.0516C4.95863 13.3812 6.17829 14.316 7.60789 14.9908C7.66788 15.0208 7.76785 15.0058 7.82783 14.9758C8.25271 14.7409 8.68759 14.5209 9.09248 14.251C11.0119 12.9564 12.1666 11.1818 12.4665 8.86249C12.6465 7.45788 12.7015 6.05327 12.6915 4.63867C12.6915 4.5137 12.6365 4.46871 12.5315 4.43372C10.967 3.88888 9.3974 3.34903 7.82783 2.81417C7.75285 2.78918 7.65288 2.78918 7.5779 2.81417C6.00334 3.34903 4.42878 3.89387 2.85421 4.42873C2.73425 4.46871 2.70925 4.5287 2.70925 4.64367C2.71425 5.06355 2.71425 5.48343 2.71425 5.90332Z" fill="#7C7C7C"/>
<path d="M6.7632 9.88213C7.65795 8.98738 8.52771 8.11762 9.39747 7.24786C9.44745 7.19788 9.49244 7.14789 9.54743 7.1079C9.69739 6.99293 9.91233 7.00793 10.0473 7.13789C10.1823 7.26786 10.1972 7.4778 10.0873 7.63275C10.0523 7.68274 10.0023 7.72773 9.96231 7.76772C9.02257 8.70746 8.08283 9.64719 7.1381 10.5869C6.84818 10.8769 6.68822 10.8719 6.3983 10.5819C6.07339 10.257 5.74348 9.92712 5.41857 9.60221C5.21863 9.40226 5.19863 9.17733 5.35859 9.00737C5.52854 8.83242 5.75348 8.85242 5.96342 9.06236C6.22335 9.33228 6.48828 9.60221 6.7632 9.88213Z" fill="#7C7C7C"/>
</g>
<defs>
<clipPath id="clip0_229_1172">
<rect width="15.3857" height="18" fill="white"/>
</clipPath>
</defs>
</svg>
