<svg width="17" height="17" viewBox="0 0 17 17" fill="none" xmlns="http://www.w3.org/2000/svg">
<path d="M4.125 12.375L2.54375 13.9562C2.32604 14.174 2.07671 14.2228 1.79575 14.1027C1.51479 13.9826 1.37454 13.7676 1.375 13.4578V2.75C1.375 2.37187 1.50975 2.04829 1.77925 1.77925C2.04875 1.51021 2.37233 1.37546 2.75 1.375H13.75C14.1281 1.375 14.4519 1.50975 14.7214 1.77925C14.9909 2.04875 15.1255 2.37233 15.125 2.75V11C15.125 11.3781 14.9905 11.7019 14.7214 11.9714C14.4524 12.2409 14.1286 12.3755 13.75 12.375H4.125ZM8.25 10.3125C8.44479 10.3125 8.60819 10.2465 8.74019 10.1145C8.87219 9.9825 8.93796 9.81933 8.9375 9.625C8.93704 9.43067 8.87104 9.2675 8.7395 9.1355C8.60796 9.0035 8.44479 8.9375 8.25 8.9375C8.05521 8.9375 7.89204 9.0035 7.7605 9.1355C7.62896 9.2675 7.56296 9.43067 7.5625 9.625C7.56204 9.81933 7.62804 9.98273 7.7605 10.1152C7.89296 10.2476 8.05613 10.3134 8.25 10.3125ZM8.25 7.5625C8.44479 7.5625 8.60819 7.4965 8.74019 7.3645C8.87219 7.2325 8.93796 7.06933 8.9375 6.875V4.125C8.9375 3.93021 8.8715 3.76704 8.7395 3.6355C8.6075 3.50396 8.44433 3.43796 8.25 3.4375C8.05567 3.43704 7.8925 3.50304 7.7605 3.6355C7.6285 3.76796 7.5625 3.93112 7.5625 4.125V6.875C7.5625 7.06979 7.6285 7.23319 7.7605 7.36519C7.8925 7.49719 8.05567 7.56296 8.25 7.5625Z" fill="#D82149"/>
</svg>
