<svg width="18" height="18" viewBox="0 0 18 18" fill="none" xmlns="http://www.w3.org/2000/svg">
<path d="M7.24878 13.081C7.95694 12.5562 8.81922 12.2479 9.74815 12.2479C10.6771 12.2479 11.5394 12.5562 12.2475 13.081M7.66534 8.49884V8.08228M11.831 8.49884V8.08228" stroke="#7C7C7C" stroke-linecap="round" stroke-linejoin="round"/>
<path d="M17.2462 9.74812C17.2462 10.7328 17.0523 11.7078 16.6755 12.6175C16.2987 13.5272 15.7464 14.3538 15.0501 15.0501C14.3538 15.7464 13.5272 16.2987 12.6175 16.6755C11.7078 17.0523 10.7328 17.2462 9.74812 17.2462C8.76346 17.2462 7.78843 17.0523 6.87872 16.6755C5.969 16.2987 5.14242 15.7464 4.44615 15.0501C3.74988 14.3538 3.19758 13.5272 2.82076 12.6175C2.44394 11.7078 2.25 10.7328 2.25 9.74812C2.25 7.7595 3.03998 5.85232 4.44615 4.44615C5.85232 3.03998 7.7595 2.25 9.74812 2.25C11.7368 2.25 13.6439 3.03998 15.0501 4.44615C16.4563 5.85232 17.2462 7.7595 17.2462 9.74812Z" stroke="#7C7C7C" stroke-linecap="round" stroke-linejoin="round"/>
</svg>
