<svg width="24" height="24" viewBox="0 0 24 24" fill="none" xmlns="http://www.w3.org/2000/svg">
<path d="M18.2354 11.355C18.5303 11.6499 18.7643 12.0001 18.924 12.3854C19.0836 12.7708 19.1658 13.1839 19.1658 13.601C19.1658 14.0181 19.0836 14.4312 18.924 14.8166C18.7643 15.2019 18.5303 15.5521 18.2354 15.847L18.2254 15.857L12.0834 22L5.93936 15.856L5.93036 15.847C5.62847 15.5454 5.39052 15.186 5.23075 14.7902C5.07098 14.3945 4.99269 13.9706 5.00054 13.544C5.00839 13.1173 5.10223 12.6966 5.27645 12.307C5.45067 11.9174 5.70168 11.567 6.01447 11.2767C6.32725 10.9864 6.69539 10.7621 7.09685 10.6174C7.49831 10.4727 7.92484 10.4104 8.35092 10.4343C8.777 10.4583 9.19388 10.5679 9.5766 10.7567C9.95933 10.9454 10.3 11.2095 10.5784 11.533L12.0834 13.039L13.5334 11.589C13.8145 11.2458 14.1643 10.9653 14.5604 10.7656C14.9566 10.5659 15.3901 10.4514 15.8332 10.4294C16.2763 10.4075 16.719 10.4786 17.1329 10.6382C17.5468 10.7978 17.9227 11.0423 18.2364 11.356L18.2354 11.355ZM9.08236 5C9.08236 5.39397 9.15996 5.78407 9.31072 6.14805C9.46149 6.51203 9.68247 6.84274 9.96104 7.12132C10.2396 7.3999 10.5703 7.62087 10.9343 7.77164C11.2983 7.9224 11.6884 8 12.0824 8C12.4763 8 12.8664 7.9224 13.2304 7.77164C13.5944 7.62087 13.9251 7.3999 14.2037 7.12132C14.4823 6.84274 14.7032 6.51203 14.854 6.14805C15.0048 5.78407 15.0824 5.39397 15.0824 5C15.0824 4.60603 15.0048 4.21593 14.854 3.85195C14.7032 3.48797 14.4823 3.15726 14.2037 2.87868C13.9251 2.6001 13.5944 2.37913 13.2304 2.22836C12.8664 2.0776 12.4763 2 12.0824 2C11.6884 2 11.2983 2.0776 10.9343 2.22836C10.5703 2.37913 10.2396 2.6001 9.96104 2.87868C9.68247 3.15726 9.46149 3.48797 9.31072 3.85195C9.15996 4.21593 9.08236 4.60603 9.08236 5Z" stroke="#121212" stroke-width="1.5"/>
</svg>
