<svg width="24" height="24" viewBox="0 0 24 24" fill="none" xmlns="http://www.w3.org/2000/svg">
<path fill-rule="evenodd" clip-rule="evenodd" d="M12.267 2C11.8408 2 11.4187 2.08396 11.0249 2.24709C10.631 2.41021 10.2732 2.64931 9.97177 2.95073C9.67035 3.25215 9.43126 3.60999 9.26813 4.00381C9.105 4.39763 9.02104 4.81973 9.02104 5.246C9.02104 5.67227 9.105 6.09437 9.26813 6.48819C9.43126 6.88201 9.67035 7.23985 9.97177 7.54127C10.2732 7.84269 10.631 8.08179 11.0249 8.24491C11.4187 8.40804 11.8408 8.492 12.267 8.492C13.1279 8.492 13.9536 8.15001 14.5623 7.54127C15.1711 6.93253 15.513 6.10689 15.513 5.246C15.513 4.38511 15.1711 3.55947 14.5623 2.95073C13.9536 2.34199 13.1279 2 12.267 2ZM18.465 10.6483C18.1076 10.2909 17.6797 10.0118 17.2086 9.82886C16.7374 9.64589 16.2333 9.56302 15.7284 9.58553C15.2234 9.60804 14.7287 9.73543 14.2757 9.95959C13.8227 10.1838 13.4213 10.4998 13.0971 10.8875L12.267 11.7176L11.3804 10.831C11.0594 10.4628 10.6675 10.1631 10.2282 9.94969C9.78887 9.73624 9.31105 9.61345 8.82325 9.58862C8.33544 9.56379 7.84762 9.63744 7.38889 9.80517C6.93015 9.9729 6.50989 10.2313 6.15315 10.5649C5.79641 10.8985 5.51049 11.3006 5.31246 11.7471C5.11442 12.1936 5.00832 12.6754 5.00047 13.1638C4.99262 13.6521 5.08319 14.1371 5.26677 14.5897C5.45036 15.0423 5.7232 15.4534 6.06904 15.7983L6.07831 15.8076L7.12816 16.8565L11.7792 21.5085L12.2643 22L17.4059 16.8565L18.4548 15.8085L18.4567 15.8066L18.4641 15.7992L18.465 15.7974C19.1478 15.1145 19.5314 14.1884 19.5314 13.2228C19.5314 12.2572 19.1478 11.3311 18.465 10.6483Z" fill="black"/>
</svg>
