<svg width="18" height="18" viewBox="0 0 18 18" fill="none" xmlns="http://www.w3.org/2000/svg">
<g clip-path="url(#clip0_226_1090)">
<path d="M16.6867 18C16.287 17.8858 15.9487 17.6838 15.7203 17.328C15.5095 16.9986 15.4436 16.6472 15.5842 16.2738C15.7862 15.7423 16.3528 15.5096 16.9722 15.7028C17.4773 15.8609 17.8331 16.1772 17.9868 16.6999C17.9868 16.8185 17.9868 16.9327 17.9868 17.0513C17.8199 17.5169 17.5432 17.8727 17.0381 18C16.9195 18 16.8009 18 16.6867 18ZM16.5944 16.1684C16.2079 16.164 15.9971 16.4056 16.0454 16.7482C16.0937 17.104 16.467 17.451 16.8272 17.4686C17.1127 17.4861 17.2752 17.3104 17.3982 17.082C17.5036 16.8888 17.4685 16.7087 17.3323 16.5462C17.1303 16.3046 16.8667 16.1772 16.5944 16.1684Z" fill="#7C7C7C" stroke="#7C7C7C" stroke-width="0.35"/>
<path d="M3.08352 13.6559C3.07034 13.0542 3.27678 12.5227 3.60182 12.0264C3.80387 11.7189 4.0191 11.4202 4.21236 11.104C4.38806 10.8184 4.37488 10.5988 4.12451 10.3792C3.89172 10.1728 3.615 10.0146 3.34706 9.85212C2.93418 9.60176 2.48615 9.39971 2.09523 9.1186C1.68674 8.8287 1.55058 8.38507 1.63403 7.88873C1.72188 7.35286 1.93711 6.89605 2.49055 6.70278C2.97371 6.53587 3.42612 6.66764 3.85219 6.90483C4.35292 7.18155 4.73945 7.59005 5.09962 8.0205C5.27093 8.22694 5.47298 8.38946 5.7453 8.44656C6.0352 8.50805 6.36024 8.35871 6.53593 8.0776C6.71163 7.79649 6.69845 7.49781 6.4964 7.24744C6.34706 7.06296 6.18015 6.88287 6.04399 6.68961C5.71456 6.22401 5.71017 5.68375 6.00885 5.22255C6.31631 4.75256 6.81265 4.53294 7.37488 4.65593C7.62964 4.71303 7.87561 4.81406 8.11719 4.91508C8.70577 5.15227 9.10109 5.02489 9.33828 4.43631C9.49201 4.04978 9.58864 3.63251 9.64574 3.21962C9.80387 2.05125 10.9591 1.66911 11.899 2.1918C12.3734 2.45974 12.6633 2.86823 12.7643 3.40849C12.8302 3.7511 12.7424 4.06735 12.5623 4.34846C12.3646 4.65593 12.1318 4.94583 11.9166 5.24451C11.798 5.41142 11.675 5.57394 11.5652 5.74964C11.4993 5.85945 11.4422 5.97804 11.4071 6.10103C11.3368 6.32943 11.3017 6.57101 11.5037 6.75549C11.719 6.95754 11.9869 7.02782 12.2504 6.90483C12.4744 6.79942 12.6765 6.64568 12.8654 6.48316C13.0938 6.28551 13.3178 6.09224 13.6296 6.04832C14.3324 5.95169 15.022 6.39971 15.2504 7.08931C15.47 7.76135 15.268 8.39824 14.6794 8.86823C14.574 8.95169 14.4686 9.03514 14.3632 9.12299C13.7834 9.60615 13.6472 10.265 14.0469 10.9107C14.2358 11.2138 14.5125 11.4641 14.7365 11.7452C14.9693 12.0439 15.2416 12.325 15.4086 12.6589C15.8741 13.5944 15.5843 14.4993 14.6706 15.0088C13.8668 15.4568 13.0498 15.4656 12.268 14.9385C12.1406 14.8507 12.0352 14.7277 11.9166 14.6223C11.5784 14.3148 11.2709 13.9722 10.902 13.7086C10.2211 13.2211 9.56668 13.3089 9.01324 13.9414C8.76727 14.2225 8.52569 14.5212 8.37195 14.8551C7.6516 16.4144 5.55643 16.7526 4.30899 15.9751C3.80387 15.6589 3.45687 15.2108 3.27239 14.6486C3.16697 14.3324 3.11866 13.9941 3.04399 13.6647C3.05277 13.6647 3.06595 13.6603 3.08352 13.6559ZM3.59743 13.6384C3.615 13.7877 3.61939 13.9414 3.65453 14.0908C3.80826 14.8155 4.18161 15.3777 4.87561 15.6764C5.8068 16.0805 7.33974 15.8302 7.91514 14.6003C8.09962 14.205 8.39391 13.8492 8.6926 13.5242C9.36902 12.7862 10.2519 12.6852 11.1084 13.2035C11.5608 13.4758 11.9342 13.8404 12.2724 14.2401C12.8829 14.9605 13.8712 14.9165 14.5037 14.5037C15.0484 14.1523 15.2504 13.5857 14.9825 12.9971C14.8419 12.6896 14.6091 12.4217 14.3983 12.1537C14.1479 11.8331 13.8361 11.552 13.6165 11.2138C13.0894 10.3968 13.2299 9.45681 13.9415 8.79356C14.0864 8.6574 14.249 8.54319 14.4027 8.41581C14.7629 8.11274 14.899 7.6735 14.7585 7.2694C14.5433 6.65886 13.7614 6.25476 13.2343 6.87409C13.164 6.95754 13.0718 7.02782 12.9883 7.0981C12.7424 7.30454 12.4613 7.4451 12.1362 7.48024C11.5389 7.54173 10.7351 7.13324 10.8449 6.24158C10.8976 5.80674 11.1128 5.45095 11.3676 5.10835C11.6004 4.7921 11.8463 4.48463 12.0703 4.16398C12.2021 3.97511 12.2987 3.75988 12.2504 3.5227C12.1626 3.05271 11.8903 2.72767 11.4378 2.56955C10.8668 2.37189 10.2782 2.59151 10.1684 3.2899C10.0982 3.73353 10.0103 4.18155 9.85219 4.59883C9.51397 5.49927 8.7497 5.78478 7.87561 5.39825C7.69113 5.31479 7.49787 5.24012 7.30021 5.1918C6.9576 5.10396 6.65014 5.21816 6.47883 5.47731C6.28118 5.7716 6.24604 6.07467 6.46566 6.37336C6.59303 6.54905 6.7292 6.71596 6.86976 6.88287C7.11573 7.16838 7.21675 7.49341 7.16844 7.87116C7.06741 8.69253 6.11426 9.2328 5.36317 8.89019C4.98981 8.71889 4.74384 8.42021 4.48469 8.12592C4.12012 7.71303 3.72041 7.34846 3.17137 7.19912C2.92539 7.13324 2.68381 7.13763 2.47298 7.30893C2.03813 7.66032 2.03374 8.41581 2.46858 8.75842C2.60475 8.86823 2.75848 8.95608 2.91222 9.03953C3.30314 9.25037 3.71163 9.43046 4.08937 9.66764C4.92393 10.1947 5.08645 10.8404 4.52422 11.6266C4.3661 11.8507 4.20797 12.0747 4.05424 12.3075C3.78191 12.7116 3.60182 13.142 3.59743 13.6384Z" fill="#7C7C7C" stroke="#7C7C7C" stroke-width="0.35"/>
<path d="M2.32784 3.93571C1.97206 3.91375 1.45815 3.62824 0.992559 3.23732C0.562105 2.87715 0.20193 2.45987 0.056981 1.89764C-0.101145 1.28271 0.0833353 0.650206 0.548928 0.303208C1.0848 -0.0964996 1.65581 -0.0701452 2.21804 0.228537C2.91642 0.606282 3.30295 1.23879 3.55332 1.96353C3.67631 2.31931 3.75098 2.68388 3.68948 3.06602C3.59724 3.64581 3.18436 3.97964 2.32784 3.93571ZM2.51672 3.4218C2.9911 3.43059 3.19315 3.25489 3.17997 2.88154C3.17118 2.62239 3.12287 2.35445 3.03941 2.10848C2.84175 1.5199 2.5255 1.0016 1.96328 0.689738C1.61628 0.496473 1.24293 0.452549 0.900319 0.698522C0.557713 0.948888 0.465473 1.30906 0.553321 1.71316C0.654346 2.18754 0.961813 2.52136 1.3132 2.82004C1.69534 3.14069 2.11262 3.39106 2.51672 3.4218Z" fill="#7C7C7C" stroke="#7C7C7C" stroke-width="0.35"/>
<path d="M14.1523 3.74692C14.1875 3.29889 14.3061 2.84208 14.6575 2.47752C14.9913 2.13052 15.4042 2.05585 15.8522 2.17005C16.2168 2.26229 16.4276 2.6005 16.3661 3.00021C16.2519 3.71178 15.8873 4.26522 15.2504 4.60782C14.7277 4.88894 14.2446 4.59025 14.1699 3.96653C14.1567 3.90943 14.1567 3.84794 14.1523 3.74692ZM14.6794 3.77327C14.6838 3.82159 14.6838 3.88308 14.697 3.94018C14.7365 4.18615 14.8332 4.24765 15.044 4.12027C15.4964 3.85233 15.7687 3.45263 15.839 2.92554C15.861 2.75863 15.7687 2.67078 15.6106 2.6576C15.3646 2.63564 15.1494 2.70153 14.9869 2.90358C14.7892 3.15394 14.7058 3.44823 14.6794 3.77327Z" fill="#7C7C7C" stroke="#7C7C7C" stroke-width="0.35"/>
<path d="M7.83161 1.91968C7.84478 2.57415 7.45825 2.91236 6.9136 2.82891C6.46118 2.76302 6.07465 2.57415 5.8155 2.18323C5.42019 1.59465 5.69251 0.821585 6.37333 0.606358C6.58417 0.540472 6.795 0.558042 6.98388 0.667852C7.49778 0.975319 7.74376 1.45409 7.83161 1.91968ZM7.30891 2.03388C7.30891 1.77034 6.98827 1.24765 6.75108 1.14662C6.67641 1.11588 6.57538 1.10709 6.50071 1.13344C6.19764 1.23008 6.07026 1.57268 6.22839 1.84501C6.41287 2.15687 6.71155 2.28864 7.05855 2.31939C7.23424 2.33257 7.3133 2.22276 7.30891 2.03388Z" fill="#7C7C7C" stroke="#7C7C7C" stroke-width="0.35"/>
</g>
<defs>
<clipPath id="clip0_226_1090">
<rect width="17.9868" height="18" fill="white"/>
</clipPath>
</defs>
</svg>
