<svg width="18" height="18" viewBox="0 0 18 18" fill="none" xmlns="http://www.w3.org/2000/svg">
<g clip-path="url(#clip0_226_1047)">
<path d="M15.6219 17.9891C15.4678 17.967 15.3467 17.945 15.1815 17.923C15.4127 16.4037 15.6439 14.8845 15.8861 13.3542C15.5558 13.5083 15.2696 13.6955 14.9503 13.7725C14.609 13.8606 14.543 14.0478 14.499 14.356C14.3558 15.479 14.3558 16.5909 14.4219 17.7138C14.4219 17.7799 14.4219 17.8459 14.4219 17.934C14.2788 17.945 14.1467 17.967 13.9925 17.9781C13.8714 16.6459 13.9045 15.3469 14.0916 14.0368C11.6035 14.1469 9.99621 13.0239 9.23657 10.6129C9.41272 10.5799 9.55584 10.5469 9.69896 10.5138C9.74299 10.679 9.78703 10.8221 9.84208 10.9762C10.3925 12.6056 12.0329 13.7065 13.7063 13.5854C15.5228 13.4533 16.976 12.1432 17.2733 10.3817C17.4494 9.33585 17.1081 8.41108 16.5797 7.54136C16.1613 6.85879 15.6219 6.2753 15.0274 5.73585C14.9503 5.6698 14.8733 5.59273 14.7962 5.52668C14.8953 5.41658 14.9834 5.3175 15.0935 5.18539C15.754 5.74686 16.3375 6.37438 16.8549 7.112C16.965 6.3964 17.0641 5.73585 17.1632 5.0753C17.2402 4.55787 17.1632 4.06246 16.954 3.58906C16.6678 2.96154 16.2054 2.52117 15.5448 2.24594C15.6109 2.85145 15.6659 3.43493 15.732 4.01842C15.743 4.13952 15.776 4.24961 15.765 4.37071C15.754 4.45879 15.732 4.60191 15.6659 4.63493C15.5889 4.66796 15.4568 4.64594 15.3687 4.60191C15.1265 4.45879 14.8953 4.29365 14.6311 4.12851C14.598 4.21658 14.576 4.28264 14.554 4.34869C14.3889 4.87713 14.2237 5.41658 14.0696 5.94502C14.0256 6.08814 13.9705 6.20924 13.7944 6.19824C13.6292 6.18723 13.5962 6.05512 13.5742 5.912C13.4201 4.73402 13.2659 3.55603 13.1118 2.37805C13.0788 2.13585 13.2329 2.01475 13.4641 2.10282C13.7173 2.20191 13.9705 2.30099 14.2457 2.41108C14.3008 2.22392 14.3448 2.04778 14.4109 1.84961C13.4641 1.51934 12.5393 1.18906 11.5925 0.847777C11.6476 0.704658 11.6916 0.572547 11.7357 0.418419C12.6604 0.748694 13.5852 1.06796 14.521 1.39824C14.609 1.10099 14.6861 0.814749 14.7742 0.528511C14.8072 0.418419 14.8402 0.308327 14.8733 0.187226C14.9063 0.0551162 14.9834 -0.021948 15.1265 7.03773e-05C15.2586 0.0110796 15.3246 0.110162 15.3357 0.242272C15.3797 0.67163 15.4237 1.10099 15.4678 1.53035C15.4788 1.65145 15.5118 1.73952 15.6439 1.79457C17.1081 2.38906 17.8568 3.7542 17.5925 5.32851C17.4714 6.07714 17.3503 6.82576 17.2402 7.57438C17.2292 7.67347 17.2513 7.79457 17.2953 7.88264C18.143 9.65512 17.8678 11.3725 16.5136 12.8037C16.4586 12.8588 16.4146 12.9579 16.4035 13.0349C16.1503 14.6203 15.9081 16.2166 15.6659 17.8019C15.6549 17.857 15.6329 17.912 15.6219 17.9891ZM13.6072 2.64227C13.7063 3.3909 13.7944 4.09548 13.8935 4.81108C14.0256 4.49181 14.1246 4.16154 14.2237 3.84227C14.3338 3.50099 14.4439 3.45695 14.7302 3.65512C14.8953 3.76521 15.0604 3.86429 15.2586 3.9964C15.1705 3.14869 15.0824 2.34502 15.0054 1.54135C14.8623 1.91567 14.7522 2.312 14.6421 2.69732C14.576 2.92851 14.4769 2.98356 14.2457 2.89548C14.0366 2.81842 13.8384 2.73035 13.6072 2.64227Z" fill="#7C7C7C" stroke="#7C7C7C" stroke-width="0.25"/>
<path d="M0.935661 7.12302C1.45309 6.38541 2.03658 5.76889 2.69713 5.19642C2.79621 5.31752 2.89529 5.4166 2.95034 5.48265C2.43291 6.07715 1.89346 6.63862 1.42006 7.24412C0.902633 7.90467 0.53933 8.66431 0.473275 9.52302C0.363184 10.9102 0.913642 12.0331 2.01456 12.8478C4.19438 14.4771 7.33199 13.3542 8.01456 10.734C8.02557 10.679 8.04759 10.6129 8.06961 10.5359C8.21273 10.5689 8.35584 10.5909 8.50997 10.6239C8.25676 11.7469 7.68428 12.6276 6.77052 13.2772C5.84575 13.9267 4.8219 14.1689 3.68795 14.0258C3.87511 15.3579 3.90814 16.657 3.78704 17.9891C3.70997 17.9891 3.64392 17.9891 3.57786 17.9891C3.51181 17.9891 3.44575 17.9671 3.36869 17.9561C3.36869 17.7799 3.35768 17.6148 3.36869 17.4386C3.44575 16.3047 3.40172 15.1817 3.22557 14.0698C3.21456 14.0148 3.17052 13.9267 3.11548 13.9047C2.71915 13.7285 2.32282 13.5744 1.90447 13.3983C2.13566 14.8955 2.36685 16.4148 2.59805 17.945C2.44392 17.9671 2.31181 17.9891 2.15768 18.0111C2.10263 17.6588 2.04759 17.3285 1.99254 16.9872C1.79438 15.6882 1.5852 14.3781 1.38704 13.079C1.37603 12.9799 1.30997 12.8698 1.24392 12.8038C0.473275 12.0001 0.0439175 11.0533 -0.000119193 9.94137C-0.0221375 9.23678 0.187037 8.57623 0.473275 7.9377C0.528321 7.8166 0.55034 7.67348 0.528321 7.54137C0.418229 6.74871 0.286119 5.96706 0.176028 5.1744C-0.0331467 3.65513 0.770523 2.301 2.20172 1.77256C3.44575 1.31018 4.7008 0.891829 5.95584 0.451462C5.97786 0.440453 5.99988 0.440453 6.04392 0.429443C6.08795 0.561553 6.143 0.693664 6.18704 0.836783C6.12098 0.86981 6.05493 0.902838 5.99988 0.924856C4.83291 1.3322 3.67695 1.76155 2.49896 2.14687C1.19988 2.57623 0.385202 3.82027 0.627404 5.21843C0.748505 5.83495 0.825569 6.45146 0.935661 7.12302Z" fill="#7C7C7C" stroke="#7C7C7C" stroke-width="0.25"/>
<path d="M10.2605 4.97609C10.0624 5.27334 9.87521 5.55958 9.67704 5.84581C9.5009 6.09902 9.32475 6.08802 9.18163 5.81279C8.52108 4.53572 7.86053 3.25866 7.19998 1.9926C7.13392 1.8715 7.08989 1.73939 7.21099 1.64031C7.3431 1.53022 7.4642 1.60728 7.57429 1.69535C8.12475 2.13572 8.68622 2.57609 9.24769 3.00545C9.31374 3.06049 9.3798 3.10453 9.46787 3.17058C9.61099 2.8293 9.73209 2.48802 9.87521 2.16875C9.91925 2.05866 10.0293 1.91554 10.1174 1.91554C10.2055 1.91554 10.3376 2.03664 10.3926 2.13572C11.1853 3.55591 11.967 4.9871 12.7596 6.40728C12.7706 6.4293 12.7816 6.44031 12.7926 6.46233C12.8697 6.58343 12.8807 6.70453 12.7596 6.7926C12.6385 6.89169 12.5284 6.84765 12.4293 6.75958C11.7358 6.1871 11.0532 5.62563 10.3596 5.05315C10.3376 5.03113 10.3046 5.00912 10.2605 4.97609ZM9.45686 5.3504C9.622 5.09719 9.77613 4.866 9.94126 4.6238C10.1284 4.34857 10.2055 4.32655 10.4587 4.53572C10.811 4.83297 11.1743 5.11921 11.5266 5.41646C11.6036 5.48251 11.6807 5.54857 11.7688 5.60361C11.7798 5.5926 11.7908 5.58159 11.7908 5.57058C11.2624 4.60178 10.7229 3.64398 10.1725 2.64214C10.0403 2.96141 9.93025 3.24765 9.82016 3.52288C9.71007 3.79811 9.58897 3.82013 9.34677 3.64398C9.07154 3.4348 8.80732 3.21462 8.53209 3.00545C8.39998 2.89535 8.25686 2.79627 8.12475 2.68618C8.11374 2.69719 8.10273 2.7082 8.09172 2.71921C8.5431 3.59994 8.99447 4.45866 9.45686 5.3504Z" fill="#7C7C7C" stroke="#7C7C7C" stroke-width="0.25"/>
<path d="M10.0073 8.65323C10.1174 8.91745 10.2165 9.17066 10.3046 9.42387C10.4037 9.68809 10.2826 9.8202 10.0073 9.78718C8.87338 9.64406 7.73943 9.48993 6.6165 9.34681C6.45136 9.32479 6.24218 9.34681 6.22017 9.10461C6.20916 8.87341 6.40732 8.8624 6.56145 8.81837C7.13393 8.64222 7.6954 8.46607 8.3009 8.28993C8.13576 8.03672 7.97062 7.80552 7.82751 7.56332C7.77246 7.47525 7.73943 7.32112 7.78347 7.25507C7.8275 7.18901 7.98163 7.14497 8.08072 7.15598C9.42384 7.28809 10.778 7.43121 12.1211 7.57433C12.2642 7.58534 12.3853 7.62938 12.3963 7.79452C12.4073 7.95965 12.2862 8.0147 12.1541 8.04773C11.4826 8.23488 10.822 8.42204 10.1504 8.60919C10.1064 8.6202 10.0624 8.63121 10.0073 8.65323ZM9.76512 9.29176C9.67705 9.08259 9.61099 8.89543 9.54494 8.71929C9.42384 8.40002 9.45686 8.32296 9.77613 8.23488C10.1394 8.1358 10.4917 8.03672 10.855 7.93763C10.855 7.92662 10.855 7.90461 10.855 7.8936C10.0624 7.81653 9.26971 7.72846 8.422 7.64039C8.55411 7.83855 8.65319 8.00369 8.76328 8.15782C8.97246 8.46607 8.92842 8.57617 8.56512 8.68626C8.27888 8.77433 8.00365 8.8514 7.71741 8.93947C7.68439 8.95048 7.65136 8.9725 7.5853 9.00552C8.32292 9.10461 9.0165 9.20369 9.76512 9.29176Z" fill="#7C7C7C" stroke="#7C7C7C" stroke-width="0.25"/>
<path d="M14.2789 12.3742C13.8055 12.3742 13.4092 11.9999 13.3982 11.5265C13.3872 11.0531 13.7945 10.6458 14.2679 10.6458C14.7413 10.6458 15.1266 11.0311 15.1266 11.5155C15.1376 11.9889 14.7633 12.3742 14.2789 12.3742ZM14.6752 11.5045C14.6752 11.2843 14.4881 11.0971 14.2679 11.0971C14.0477 11.0971 13.8495 11.2953 13.8495 11.5155C13.8495 11.7467 14.0477 11.9228 14.2789 11.9118C14.5101 11.9118 14.6752 11.7357 14.6752 11.5045Z" fill="#7C7C7C" stroke="#7C7C7C" stroke-width="0.25"/>
<path d="M3.51204 12.3742C3.02763 12.3742 2.65332 11.9889 2.65332 11.5045C2.65332 11.0311 3.03864 10.6348 3.51204 10.6348C3.98543 10.6348 4.39277 11.0421 4.38176 11.5155C4.37075 11.9999 3.98543 12.3742 3.51204 12.3742ZM3.50103 11.9228C3.73222 11.9228 3.93038 11.7467 3.93038 11.5155C3.93038 11.2953 3.74323 11.1082 3.52305 11.0972C3.29185 11.0861 3.1047 11.2843 3.1047 11.5155C3.1047 11.7357 3.28084 11.9118 3.50103 11.9228Z" fill="#7C7C7C" stroke="#7C7C7C" stroke-width="0.25"/>
</g>
<defs>
<clipPath id="clip0_226_1047">
<rect width="17.7798" height="18" fill="white"/>
</clipPath>
</defs>
</svg>
