<svg width="16" height="18" viewBox="0 0 16 18" fill="none" xmlns="http://www.w3.org/2000/svg">
<g clip-path="url(#clip0_229_1178)">
<path d="M15.3858 5.07359C15.3958 6.61316 15.3208 8.14274 15.0609 9.66232C14.591 12.3916 13.2164 14.556 11.017 16.2205C10.0523 16.9503 8.98756 17.4951 7.88286 17.96C7.78289 18 7.63793 18.01 7.54296 17.97C5.92341 17.3002 4.43382 16.4304 3.18417 15.1808C1.70958 13.7112 0.779837 11.9517 0.389945 9.90225C0.0500398 8.13274 -0.00494496 6.33324 5.36553e-05 4.53374C5.36553e-05 4.00389 0.0100509 3.47403 0.0200481 2.93918C0.0250467 2.66426 0.105024 2.55429 0.359954 2.46931C2.74429 1.65454 5.12863 0.834768 7.51297 0.0299917C7.62793 -0.00999722 7.77789 -0.00999722 7.89286 0.0299917C10.2772 0.839767 12.6615 1.65454 15.0459 2.46931C15.3058 2.55929 15.3858 2.66926 15.3858 2.93918C15.3858 3.65398 15.3858 4.36379 15.3858 5.07359ZM14.611 5.09359C14.611 4.48875 14.606 3.88392 14.611 3.27409C14.611 3.15912 14.571 3.10914 14.466 3.07415C12.2516 2.31936 10.0423 1.55957 7.82788 0.804776C7.7529 0.779783 7.65293 0.779783 7.57795 0.804776C5.35357 1.56457 3.12918 2.32935 0.909801 3.09914C0.854816 3.11913 0.784836 3.20411 0.779837 3.25909C0.73485 5.30353 0.739848 7.34296 1.06476 9.3724C1.35968 11.2169 2.08947 12.8614 3.34912 14.251C4.53379 15.5607 5.99339 16.4854 7.61294 17.1602C7.66293 17.1802 7.7379 17.1802 7.78289 17.1602C8.86759 16.6954 9.89231 16.1355 10.817 15.3957C12.6116 13.9611 13.7712 12.1416 14.2311 9.87726C14.556 8.30269 14.616 6.70314 14.611 5.09359Z" fill="#7C7C7C"/>
<path d="M13.4563 5.83332C13.4213 7.14795 13.3613 8.60755 13.0314 10.0372C12.6015 11.9066 11.5818 13.3962 10.0772 14.5709C9.40738 15.0907 8.68758 15.5206 7.91779 15.8655C7.77783 15.9255 7.64787 15.9455 7.50291 15.8805C5.96334 15.1807 4.63371 14.216 3.62899 12.8414C2.8692 11.8017 2.41932 10.642 2.21938 9.37234C1.95445 7.7078 1.90946 6.02827 1.92946 4.34873C1.93446 4.08381 2.01443 3.98383 2.26436 3.89886C4.00388 3.29902 5.7434 2.69919 7.48292 2.11435C7.61288 2.06937 7.78283 2.07436 7.91779 2.11935C9.64731 2.70419 11.3768 3.29902 13.1014 3.89386C13.3713 3.98383 13.4513 4.0938 13.4513 4.37872C13.4613 4.8086 13.4563 5.24348 13.4563 5.83332ZM2.69924 5.98328C2.68425 5.98328 2.66925 5.98828 2.65426 5.98828C2.74423 6.993 2.81421 8.00272 2.93418 9.00744C3.06414 10.1321 3.42404 11.1818 4.05387 12.1316C4.94362 13.4612 6.16328 14.3959 7.59288 15.0708C7.65287 15.1007 7.75284 15.0858 7.81282 15.0558C8.23771 14.8208 8.67259 14.6009 9.07747 14.331C10.9969 13.0363 12.1516 11.2618 12.4515 8.94246C12.6315 7.53785 12.6865 6.13324 12.6765 4.71863C12.6765 4.59366 12.6215 4.54868 12.5165 4.51369C10.947 3.97884 9.37739 3.43898 7.80783 2.90413C7.73285 2.87914 7.63287 2.87914 7.55789 2.90413C5.98333 3.43898 4.40877 3.98383 2.83421 4.51869C2.71424 4.55867 2.68925 4.61866 2.68925 4.73363C2.70424 5.14851 2.69924 5.56339 2.69924 5.98328Z" fill="#7C7C7C"/>
<path d="M9.23249 11.5916L5.46354 6.96291C5.36856 6.84794 5.38356 6.67299 5.50353 6.57802L5.76345 6.36808C5.87842 6.2731 6.05337 6.2881 6.14835 6.40807L9.9173 11.0368C10.0123 11.1517 9.99728 11.3267 9.87731 11.4217L9.61738 11.6316C9.50241 11.7266 9.33246 11.7116 9.23249 11.5916Z" fill="#7C7C7C"/>
<path d="M6.14835 11.5916L9.9173 6.96291C10.0123 6.84794 9.99728 6.67299 9.87731 6.57802L9.61738 6.36808C9.50241 6.2731 9.32746 6.2881 9.23249 6.40807L5.46354 11.0368C5.36856 11.1517 5.38356 11.3267 5.50353 11.4217L5.76345 11.6316C5.87842 11.7266 6.05337 11.7116 6.14835 11.5916Z" fill="#7C7C7C"/>
</g>
<defs>
<clipPath id="clip0_229_1178">
<rect width="15.3857" height="18" fill="white"/>
</clipPath>
</defs>
</svg>
