<svg width="18" height="18" viewBox="0 0 18 18" fill="none" xmlns="http://www.w3.org/2000/svg">
<path d="M5.5 6.8125C5.5 5.88424 5.86875 4.994 6.52513 4.33763C7.1815 3.68125 8.07174 3.3125 9 3.3125C9.92826 3.3125 10.8185 3.68125 11.4749 4.33763C12.1313 4.994 12.5 5.88424 12.5 6.8125C12.5 7.74076 12.1313 8.631 11.4749 9.28737C10.8185 9.94375 9.92826 10.3125 9 10.3125C8.07174 10.3125 7.1815 9.94375 6.52513 9.28737C5.86875 8.631 5.5 7.74076 5.5 6.8125ZM12.7133 3.75C11.8301 2.68086 10.4957 2 9 2C7.5043 2 6.16992 2.68086 5.28672 3.75H3.75C2.78477 3.75 2 4.53477 2 5.5V14.25C2 15.2152 2.78477 16 3.75 16H14.25C15.2152 16 16 15.2152 16 14.25V5.5C16 4.53477 15.2152 3.75 14.25 3.75H12.7133ZM10.0938 8.125C10.0938 7.83516 9.98164 7.57266 9.7957 7.37578L10.7145 5.23477C10.8102 5.01328 10.7062 4.75625 10.4848 4.66055C10.2633 4.56484 10.0062 4.66875 9.91055 4.89023L8.9918 7.03125C8.39023 7.03398 7.90625 7.52344 7.90625 8.125C7.90625 8.7293 8.3957 9.21875 9 9.21875C9.6043 9.21875 10.0938 8.7293 10.0938 8.125Z" fill="#D82149"/>
</svg>
